<?xml version="1.0" encoding="UTF-8"?>
<svg width="91px" height="88px" viewBox="0 0 91 88" version="1.1" xmlns="http://www.w3.org/2000/svg" xmlns:xlink="http://www.w3.org/1999/xlink">
    <title>add-new-user</title>
    <g id="Users-(View-Details,-Add,-Edit,-Delete)" stroke="none" stroke-width="1" fill="none" fill-rule="evenodd">
        <g id="Users_List_Empty" transform="translate(-143.000000, -166.000000)">
            <g id="add-new-user" transform="translate(143.777692, 166.750000)">
                <path d="M45,76 C66.0074272,76 64.8806557,59.8193548 84.650048,39.4709677 C104.41944,19.1225806 64.5690147,0 43.5615875,0 C22.5541603,0 -1.43439447,11.6191284 0.0670783634,35.3032258 C1.5685512,58.9873232 23.9925728,76 45,76 Z" id="Oval" fill-opacity="0.160456731" fill="#86C04F"></path>
                <g id="add-friend" transform="translate(9.222308, 19.250000)" fill-rule="nonzero">
                    <g id="Group" transform="translate(1.000000, 1.000000)">
                        <g transform="translate(0.000000, 1.197238)">
                            <path d="M61.8915663,47.6361202 C61.8915663,47.6361202 56.4844699,53.6211149 42.994759,52.2900519 L18.9019759,52.2900519 C5.41040964,53.6211149 0.00318072289,47.6361202 0.00318072289,47.6361202 C3.18973494,44.4376313 3.09298795,37.5567032 3.09298795,25.3436744 C3.09298795,13.1306455 7.92119277,0.021816344 30.9473735,0.021816344 C53.9735542,0.021816344 58.801759,13.1306455 58.801759,25.3436744 C58.8018916,37.5567032 58.705012,44.4376313 61.8915663,47.6361202 Z" id="Path" fill="#DA4A54"></path>
                            <path d="M21.6509157,24.9978055 L21.6509157,52.2900519 L18.9018434,52.2900519 C5.41027711,53.6211149 0.00304819277,47.6361202 0.00304819277,47.6361202 C3.18960241,44.4376313 3.09285542,37.5567032 3.09285542,25.3436744 C3.09285542,13.1306455 7.92106024,0.021816344 30.947241,0.021816344 C20.2822771,0.021816344 21.6509157,14.1839493 21.6509157,24.9978055 Z" id="Path" fill="#C32430"></path>
                            <path d="M50.6805783,64.9830403 L11.2143012,64.9830403 C12.9276506,53.8251776 17.8952771,49.7891539 18.9019759,49.0740035 L42.9948916,49.0740035 C44.0014578,49.7891539 48.9672289,53.8251776 50.6805783,64.9830403 L50.6805783,64.9830403 Z" id="Path" fill="#F4DD45"></path>
                            <path d="M26.2701205,54.1631979 C24.6187952,56.9886805 23.6816747,60.8439211 23.1996627,64.9829073 L11.2143012,64.9829073 C12.9276506,53.8250445 17.8952771,49.7890209 18.9019759,49.0738705 L26.8451687,49.0738705 C27.335,50.7257934 27.2691325,52.4532754 26.2701205,54.1631979 L26.2701205,54.1631979 Z" id="Path" fill="#EAB14D"></path>
                            <ellipse id="Oval" fill="#F1B986" cx="30.9473735" cy="49.7753192" rx="9.84937349" ry="7.1786414"></ellipse>
                            <path d="M50.8683735,38.9208899 C50.576012,44.6902486 45.9762892,49.2839193 40.2244819,49.5559585 C35.7001687,49.7697321 31.1758554,49.8279977 26.6495542,49.7288929 C26.6437229,49.7288929 26.6360361,49.7288929 26.6302048,49.7268975 C24.9768916,49.6919116 23.3235783,49.633646 21.6702651,49.5559585 C15.9205783,49.2839193 11.3207229,44.6902486 11.026506,38.9208899 C10.8155181,34.8090411 10.7941807,30.6991878 10.9567952,26.587339 L10.9587831,26.587339 C10.9587831,26.587339 15.6844096,26.346428 21.6510482,24.9978055 C26.9535783,23.8008332 33.2357711,21.7273493 38.0504578,18.1712852 C38.0504578,18.1712852 43.0722892,26.587339 50.9380843,26.587339 C51.1025542,30.6991878 51.0793614,34.8090411 50.8683735,38.9208899 L50.8683735,38.9208899 Z" id="Path" fill="#F1D0A5"></path>
                            <path d="M26.6302048,49.7270305 C24.9768916,49.6920446 23.3235783,49.633779 21.6702651,49.5560915 C15.9205783,49.2839193 11.3207229,44.6902486 11.026506,38.9208899 C10.8155181,34.8090411 10.7941807,30.6991878 10.9567952,26.587339 L10.9587831,26.587339 C10.9587831,26.587339 15.6844096,26.346428 21.6510482,24.9978055 L21.6510482,24.9998009 C20.318988,36.4646888 21.6664217,49.5209725 26.6302048,49.7270305 Z" id="Path" fill="#F1B986"></path>
                            <g transform="translate(15.506024, 34.054781)" fill="#EAAC9D" id="Oval">
                                <ellipse cx="27.8668434" cy="1.95070042" rx="2.96138554" ry="1.87394414"></ellipse>
                                <ellipse cx="3.01678313" cy="1.95070042" rx="2.96138554" ry="1.87394414"></ellipse>
                            </g>
                        </g>
                        <ellipse id="Oval" fill="#86F1A7" cx="53.5828554" cy="12.5265723" rx="12.4133012" ry="12.459793"></ellipse>
                        <path d="M55.6589398,24.8114354 C54.9843614,24.9258382 54.2899036,24.9857001 53.5821928,24.9857001 C46.7265422,24.9857001 41.1695542,19.4078995 41.1695542,12.5265723 C41.1695542,5.64524507 46.7265422,0.0661141645 53.5821928,0.0661141645 C54.2899036,0.0661141645 54.9843614,0.125976084 55.6589398,0.240378864 C49.790506,1.2314262 45.3217229,6.35560652 45.3217229,12.5265723 C45.3217229,18.697671 49.790506,23.8203881 55.6589398,24.8114354 Z" id="Path" fill="#66B49D"></path>
                    </g>
                    <g id="Group" fill="#000000">
                        <path d="M31.4775684,42.2402285 C33.5655605,42.2402285 35.49325,41.0211426 36.3887207,39.1344121 C36.6207344,38.6456523 36.4124063,38.0613652 35.9237773,37.8293516 C35.4347559,37.5973379 34.8505996,37.805666 34.6187168,38.2942949 C34.0459453,39.5010801 32.8131191,40.2808711 31.4776992,40.2808711 C30.1422793,40.2808711 28.9094531,39.5010801 28.3366816,38.2942949 C28.1045371,37.805666 27.5203809,37.5970762 27.0316211,37.8293516 C26.5428613,38.0613652 26.3346641,38.6456523 26.5666777,39.1344121 C27.4618867,41.0211426 29.3895762,42.2402285 31.4775684,42.2402285 Z" id="Path"></path>
                        <path d="M24.0985391,32.003623 C24.0985391,30.537998 23.2987266,29.3454766 22.3155801,29.3454766 C21.3324336,29.3454766 20.5326211,30.537998 20.5326211,32.003623 C20.5326211,33.469248 21.3324336,34.6617695 22.3155801,34.6617695 C23.2987266,34.6617695 24.0985391,33.4693789 24.0985391,32.003623 Z" id="Path"></path>
                        <path d="M40.6396875,34.6617695 C41.6227031,34.6617695 42.4226465,33.4693789 42.4226465,32.003623 C42.4226465,30.537998 41.622834,29.3454766 40.6396875,29.3454766 C39.6566719,29.3454766 38.8567285,30.537998 38.8567285,32.003623 C38.8567285,33.4693789 39.656541,34.6617695 40.6396875,34.6617695 Z" id="Path"></path>
                        <path d="M66.9997383,13.2764687 C66.9997383,5.98995703 61.0718086,0.0620273437 53.7852969,0.0620273437 C50.4968008,0.0620273437 47.4852031,1.26999023 45.1703008,3.26533398 C41.3486836,1.89117969 36.7472754,1.19317578 31.4773066,1.19317578 C20.9165625,1.19317578 13.1843437,3.97851758 8.49525977,9.47186328 C4.87856836,13.708959 3.04470508,19.6186992 3.04470508,27.0369863 L3.04483594,28.0669805 C3.04732227,38.9194102 3.04889258,45.4698379 0.286712891,48.2330645 C-0.0824414063,48.6023496 -0.0970976563,49.1964512 0.253605469,49.5834023 C0.311707031,49.6476543 1.71386523,51.1719043 4.75686914,52.5269531 C4.88628906,52.5846621 5.02159766,52.6118809 5.1548125,52.6118809 C5.52985547,52.6118809 5.88788672,52.3951777 6.0502832,52.0304727 C6.27038867,51.5362168 6.04805859,50.9571641 5.55380273,50.7370586 C4.0122793,50.0505703 2.95899219,49.3241699 2.34944922,48.8382891 C5.00825,45.310582 5.00654883,38.9560508 5.0040625,28.066457 L5.00393164,27.0368555 C5.00393164,20.0980371 6.67997852,14.616207 9.98535547,10.7438164 C14.2851328,5.70651562 21.5160293,3.15227148 31.4771758,3.15227148 C36.1253008,3.15227148 40.2095527,3.71104102 43.6450039,4.81405469 C41.7276523,7.10815039 40.5719023,10.0596836 40.5719023,13.2763379 C40.5719023,17.0798965 42.2122246,20.7003828 45.0721562,23.2093496 C45.4788672,23.5662031 46.0979629,23.5256367 46.4546855,23.1190566 C46.8114082,22.7123457 46.7709727,22.0933809 46.3642617,21.7366582 C43.9283145,19.5995937 42.5311289,16.5158926 42.5311289,13.2763379 C42.5311289,7.07020117 47.5795527,2.02112305 53.7850352,2.02112305 C59.9911719,2.02112305 65.04025,7.07020117 65.04025,13.2763379 C65.04025,19.4818203 59.9911719,24.5302441 53.7850352,24.5302441 C52.260916,24.5302441 50.7842988,24.231623 49.3961426,23.6427559 C48.8979609,23.4312871 48.3229648,23.6639551 48.1117578,24.1620059 C47.9004199,24.6600566 48.132957,25.2351836 48.6310078,25.4463906 C50.2624316,26.1385059 51.9965801,26.4894707 53.7850352,26.4894707 C55.2328633,26.4894707 56.6266465,26.254709 57.9313145,25.8224805 C57.9428301,26.2216016 57.9491113,26.6267422 57.9491113,27.0367246 L57.9489805,28.0659336 C57.9464941,38.953041 57.944793,45.3070488 60.602416,48.8354102 C59.0755488,50.0423262 54.7841465,52.7329258 46.9565313,52.7012578 C46.3252656,51.8357539 45.7282852,51.1653613 45.224084,50.6633848 C49.1248711,48.834625 51.8562988,44.9814707 52.0894902,40.4185352 C52.2971641,36.3594082 52.3199336,32.2547422 52.1572754,28.2185156 C52.1360762,27.6932461 51.7041094,27.2784219 51.1784473,27.2784219 C44.0858691,27.2784219 39.3645938,19.566748 39.3182695,19.4898027 C39.1765488,19.2530781 38.9415254,19.0870176 38.6709082,19.0327109 C38.4004219,18.9782734 38.1194668,19.0404316 37.8971367,19.2041367 C28.2605215,26.2952754 12.1975332,27.2536895 11.7358613,27.2793379 C11.2279961,27.2994902 10.8168359,27.7068555 10.7964219,28.2191699 C10.6345488,32.2720156 10.6574492,36.3765508 10.864207,40.4190586 C11.0985762,44.9800312 13.8281719,48.8317461 17.7258184,50.6614219 C17.2155977,51.1660156 16.6170469,51.8354922 15.9857813,52.6998184 C13.5245781,52.7089785 11.2094141,52.4562891 9.0994375,51.9384785 C8.57364453,51.8094512 8.04340234,52.1308418 7.91450586,52.656373 C7.78560938,53.1819043 8.10686914,53.7122773 8.63240039,53.8413047 C10.5303848,54.3071641 12.5750625,54.5745098 14.7295313,54.6434727 C12.965416,57.7067598 11.7311504,61.4554883 11.0601035,65.808918 C11.0165273,66.0914434 11.0985762,66.3789414 11.2847891,66.5959062 C11.4708711,66.8128711 11.7425352,66.9377109 12.028332,66.9377109 L50.9251035,66.9377109 C51.2109004,66.9377109 51.4825645,66.8128711 51.6686465,66.5959062 C51.8547285,66.3788105 51.9367773,66.0914434 51.893332,65.808918 C51.1212617,60.7993594 49.6767051,57.1843691 48.2155293,54.6456973 C58.2733809,54.3326816 62.5151875,49.7879355 62.7003535,49.5837949 C63.0513184,49.1968437 63.036793,48.6023496 62.667377,48.2329336 C59.9041504,45.469707 59.9057207,38.9191484 59.908207,28.0665879 L59.9083379,27.0369863 C59.9083379,26.3463105 59.8926348,25.6662344 59.8616211,25.0072266 C64.0988477,22.8039473 66.9997383,18.3727871 66.9997383,13.2764687 Z M12.8210781,40.3186895 C12.6321172,36.6268848 12.5990098,32.8822129 12.7222793,29.1741816 C14.2401172,29.0507812 17.5362031,28.711332 21.5458652,27.8682051 C28.4036816,26.4263965 34.0065566,24.2440547 38.2200977,21.3756172 C39.720793,23.497502 44.0110176,28.7102852 50.2329883,29.2007461 C50.3557344,32.8860078 50.3221035,36.6213887 50.1330117,40.3188203 C49.8682832,45.4978418 45.7590371,49.5878516 40.5742578,49.8325586 C34.5385,50.117832 28.4170293,50.117832 22.3797012,49.8325586 C17.1964922,49.5877207 13.0872461,45.4975801 12.8210781,40.3186895 L12.8210781,40.3186895 Z M40.1297285,51.8116758 C39.5734453,54.7878105 35.9066348,57.0944687 31.4769141,57.0944687 C27.0471934,57.0944687 23.3803828,54.7876797 22.8242305,51.8116758 C25.6971172,51.9392637 28.5871465,52.0054785 31.4775684,52.0054785 C34.3681211,52.0056094 37.257627,51.9392637 40.1297285,51.8116758 Z M13.1866992,64.9784844 C14.7820059,56.236293 18.4531348,52.5208027 19.8108008,51.4128164 C20.1422676,51.4986602 20.4793613,51.5706328 20.8216895,51.6286035 C21.0124824,53.6022246 22.1349941,55.4216934 24.0367734,56.8023906 C26.0364355,58.2542754 28.6786172,59.0536953 31.4769141,59.0536953 C34.2752109,59.0536953 36.9173926,58.2541445 38.9170547,56.8023906 C40.8189648,55.4215625 41.9414766,53.6023555 42.1322695,51.6286035 C42.4751211,51.5706328 42.8127383,51.4985293 43.1447285,51.4125547 C44.5017402,52.5200176 48.1718223,56.2347227 49.7673906,64.9784844 L13.1866992,64.9784844 Z" id="Shape"></path>
                        <path d="M53.7859512,6.12840625 C53.2449785,6.12840625 52.8063379,6.56704687 52.8063379,7.10801953 L52.8063379,12.2962012 L47.6181562,12.2962012 C47.0771836,12.2962012 46.638543,12.7348418 46.638543,13.2758145 C46.638543,13.8167871 47.0771836,14.2554277 47.6181562,14.2554277 L52.8063379,14.2554277 L52.8063379,19.4436094 C52.8063379,19.984582 53.2449785,20.4232227 53.7859512,20.4232227 C54.3269238,20.4232227 54.7655645,19.984582 54.7655645,19.4436094 L54.7655645,14.2554277 L59.9537461,14.2554277 C60.4947187,14.2554277 60.9333594,13.8167871 60.9333594,13.2758145 C60.9333594,12.7348418 60.4947187,12.2962012 59.9537461,12.2962012 L54.7655645,12.2962012 L54.7655645,7.10815039 C54.7655645,6.56704688 54.3269238,6.12840625 53.7859512,6.12840625 Z" id="Path"></path>
                    </g>
                </g>
            </g>
        </g>
    </g>
</svg>