<?xml version="1.0" encoding="UTF-8"?>
<svg width="90px" height="76px" viewBox="0 0 90 76" version="1.1" xmlns="http://www.w3.org/2000/svg" xmlns:xlink="http://www.w3.org/1999/xlink">
    <title>add-user-icon</title>
    <g id="Project-Details---Web" stroke="none" stroke-width="1" fill="none" fill-rule="evenodd">
        <g id="Project_Details" transform="translate(-881.000000, -227.000000)">
            <g id="add-user-icon" transform="translate(881.000000, 227.000000)">
                <path d="M45,76 C66.0074272,76 64.8806557,59.8193548 84.650048,39.4709677 C104.41944,19.1225806 64.5690147,0 43.5615875,0 C22.5541603,0 -1.43439447,11.6191284 0.0670783634,35.3032258 C1.5685512,58.9873232 23.9925728,76 45,76 Z" id="Oval" fill-opacity="0.160456731" fill="#86C04F"></path>
                <g id="follow" transform="translate(14.000000, 12.000000)" fill-rule="nonzero">
                    <g id="Group" transform="translate(1.000000, 1.000000)">
                        <path d="M39.7277121,17.9225711 L30.9500746,17.9707402 L9.15196403,18.0886278 C8.49721314,14.8220005 8.34439652,10.8290334 9.34826505,7.65494154 C10.5695556,3.60873493 14.7117557,1.69464597 18.3408398,0.790841044 C23.998782,-0.62127492 32.4509077,-0.552824057 34.7518539,4.45803268 C34.8984585,4.82563917 35.2314248,5.08296372 35.6190572,5.12606241 C40.3638268,5.59634519 40.6831266,12.8280522 39.7277121,17.9225711 L39.7277121,17.9225711 Z" id="Path" fill="#56788B"></path>
                        <path d="M39.7277121,17.9225711 L30.9500746,17.9707402 L32.2769701,12.2956566 C29.8269345,4.79901939 35.6190572,5.12606241 35.6190572,5.12606241 C40.3638268,5.59634519 40.6831266,12.8280522 39.7277121,17.9225711 Z" id="Path" fill="#415E6F"></path>
                        <path d="M49.1924033,63 L0.0550267024,63 C0.0550267024,55.8963215 -1.89555942,43.4420671 17.4301521,42.0489653 C18.5955342,41.9653031 19.8379457,41.9209368 21.1623564,41.9209368 L28.0850735,41.9209368 C29.4094843,41.9209368 30.6506534,41.9640355 31.814793,42.0489653 C34.7481267,42.2606559 37.1919502,42.7258683 39.2257779,43.3900952 C50.5963283,47.0991179 49.1924033,56.9750564 49.1924033,63 L49.1924033,63 Z" id="Path" fill="#FF6B81"></path>
                        <path d="M49.1924033,63 L46.7075802,63 C46.7075802,57.45548 47.896568,47.9547537 39.2257779,43.3900952 C50.5963283,47.0991179 49.1924033,56.9750564 49.1924033,63 L49.1924033,63 Z" id="Path" fill="#ED2061"></path>
                        <path d="M31.814793,42.0489653 L31.814793,42.0515005 C31.6234616,45.932918 28.4776756,49.0195449 24.623715,49.0195449 C20.7709968,49.0195449 17.6252108,45.9341856 17.432637,42.0553033 L17.4301521,42.0489653 C18.5955342,41.9653031 19.8379457,41.9209368 21.1623564,41.9209368 L28.0850735,41.9209368 C29.4094843,41.9209368 30.6506534,41.9640355 31.814793,42.0489653 Z" id="Path" fill="#D9F0F4"></path>
                        <g transform="translate(8.119272, 17.427697)" fill="#FAB684" id="Path">
                            <path d="M30.0203901,0 L27.8526305,0 L27.866297,5.79183039 L30.0202659,5.79183039 C31.5876923,5.79183039 32.8584308,4.49532033 32.8584308,2.89585181 C32.8584308,1.2963833 31.5879408,0 30.0203901,0 Z"></path>
                            <path d="M0,2.89585181 C0,4.49519357 1.27073853,5.79183039 2.83816493,5.79183039 L4.99213383,5.79183039 L5.00580035,0 L2.83804069,0 C1.27073853,0 0,1.29651006 0,2.89585181 L0,2.89585181 Z"></path>
                        </g>
                        <path d="M28.0851978,37.9012232 L21.1627291,37.9012232 C21.4523353,38.7022251 21.6017974,40.7568919 21.1627291,41.9205565 C21.1627291,43.8714062 22.7123891,45.4528746 24.6239635,45.4528746 C26.5355379,45.4528746 28.0851978,43.8714062 28.0851978,41.9205565 C27.6460053,40.7568919 27.7955917,38.7022251 28.0851978,37.9012232 Z" id="Path" fill="#FAB684"></path>
                        <path d="M36.1731727,27.2116068 C36.1731727,30.015557 33.8361966,33.3645789 29.2256073,37.1686722 C27.9322569,38.2398015 26.266183,38.8241691 24.5988668,38.8203979 C24.1814165,38.8216338 23.766451,38.7848732 23.3601824,38.7138871 C22.1426191,38.5009289 20.992146,37.9710685 20.023065,37.1686722 C15.4124758,33.3645789 13.0754997,30.015557 13.0754997,27.2116068 C13.0754997,26.9137188 13.0866814,26.6158308 13.1102872,26.3230132 C13.2295587,25.0997709 13.1947712,19.5146875 13.1922864,15.908341 L13.1922864,15.9045382 C13.1612261,14.6825635 13.8321283,13.5531243 14.9092991,13.0143906 C17.2624266,11.9470642 20.9412072,11.4146686 24.623715,11.4171948 C27.2663243,11.4159362 29.9064489,11.6884721 32.0570633,12.2386142 C32.9031455,12.4541076 33.6746831,12.7126998 34.3393733,13.0143906 C35.4153017,13.5531243 36.0862039,14.6825635 36.0551436,15.9045382 L36.0551436,15.908341 C36.0526588,19.5146875 36.0191137,25.0997709 36.1371428,26.3230132 C36.1607486,26.6158308 36.1731727,26.9137188 36.1731727,27.2116068 L36.1731727,27.2116068 Z" id="Path" fill="#FDD9B4"></path>
                        <path d="M36.1731727,27.2116068 C36.1731727,30.015557 33.8361966,33.3645789 29.2256073,37.1686722 C27.9322569,38.2398015 26.266183,38.8241691 24.5988668,38.8203979 C24.1814165,38.8216338 23.766451,38.7848732 23.3601824,38.7138871 C24.5926547,38.5009289 25.7704608,37.9710685 26.7407843,37.1686722 C31.3513735,33.3645789 33.6883496,30.015557 33.6883496,27.2116068 C33.6883496,26.9137188 33.6759255,26.6158308 33.6523197,26.3230132 C33.5342906,25.0997709 33.5678357,19.5146875 33.5703205,15.908341 L33.5703205,15.0172122 C33.598896,13.8738293 33.0137201,12.8115733 32.0570633,12.2386142 C32.9031455,12.4541076 33.6746831,12.7126998 34.3393733,13.0143906 C35.4153017,13.5531243 36.0862039,14.6825635 36.0551436,15.9045382 L36.0551436,15.908341 C36.0526588,19.5146875 36.0191137,25.0997709 36.1371428,26.3230132 C36.1607486,26.6158308 36.1731727,26.9137188 36.1731727,27.2116068 Z" id="Path" fill="#F9C19B"></path>
                        <path d="M59,44.7933379 C59,50.9399719 54.1135954,55.9216737 48.086657,55.9216737 C47.6667219,55.9216737 47.2517564,55.8975891 46.8442455,55.84942 C41.4024829,55.2219537 37.173314,50.5115202 37.173314,44.7933379 C37.173314,39.0751556 41.4024829,34.364722 46.8442455,33.7372558 C47.2517564,33.6890867 47.6667219,33.6650021 48.086657,33.6650021 C54.1135954,33.6650021 59,38.6467038 59,44.7933379 L59,44.7933379 Z" id="Path" fill="#09EAA3"></path>
                        <path d="M59,44.7933379 C59,50.9399719 54.1135954,55.9216737 48.086657,55.9216737 C47.6667219,55.9216737 47.2517564,55.8975891 46.8442455,55.84942 C52.286008,55.2219537 56.5151769,50.5115202 56.5151769,44.7933379 C56.5151769,39.0751556 52.286008,34.364722 46.8442455,33.7372558 C47.2517564,33.6890867 47.6667219,33.6650021 48.086657,33.6650021 C54.1135954,33.6650021 59,38.6467038 59,44.7933379 L59,44.7933379 Z" id="Path" fill="#14BB87"></path>
                    </g>
                    <g id="Group" fill="#000000">
                        <path d="M3.73470117,48.4860639 C3.29288128,48.20719 2.70615054,48.3346895 2.4236693,48.7709377 C-0.153339186,52.7521713 -0.0514586326,57.4914018 0.0304254894,61.2995111 C0.0437142573,61.9217586 0.0564967864,62.5093811 0.0564967864,63.0625039 C0.0564967864,63.5802517 0.481484239,64 1.00569449,64 C1.52990474,64 1.9548922,63.5802517 1.9548922,63.0625039 C1.9548922,62.4896312 1.94198311,61.8921337 1.92844122,61.2597613 C1.85199917,57.7055259 1.75695284,53.2821691 4.02313072,49.7810585 C4.30548539,49.3445603 4.17639451,48.7649377 3.73470117,48.4860639 L3.73470117,48.4860639 Z" id="Path"></path>
                        <path d="M34.9853271,41.6020922 C33.5279922,41.4494678 31.9524506,41.3624682 30.2923671,41.3427183 C30.1690979,40.5644715 30.2331371,39.5788505 30.3556469,38.982603 C30.6910301,38.7847288 31.0123652,38.5633547 31.3166147,38.3192307 C36.2467475,34.3816219 38.7465546,30.8327615 38.7465546,27.7713991 C38.7465546,27.4522754 38.7332658,27.1312768 38.7068149,26.8175281 C38.7064352,26.8126531 38.7060555,26.8077781 38.7055493,26.8029031 C38.6712516,26.4605295 38.6502427,25.7251576 38.6375867,24.7721615 L39.8007969,24.7721615 C41.9183937,24.7721615 43.6411242,23.0705435 43.6411242,20.9789271 C43.6411242,19.9011815 43.1837375,18.9269355 42.4505772,18.2358134 C43.0869193,14.5018288 43.0228801,9.78059819 41.0072904,7.12048414 C40.0813797,5.89848917 38.8426134,5.20511703 37.337439,5.06099262 C37.2889666,5.05574264 37.247455,5.02474277 37.2289773,4.98024295 C37.2229025,4.96536801 37.2163214,4.95061807 37.2094871,4.93599313 C36.0162823,2.42112849 33.3199281,0.791385194 29.4118913,0.223012534 C26.4014158,-0.214735664 22.7549779,-0.00186154027 19.4078537,0.80713513 C14.078425,2.09100484 10.674602,4.65111931 9.56834371,8.1989797 C8.6543296,10.9978432 8.53979308,14.7120779 9.2430853,18.4595625 C8.63876276,19.1300597 8.27110685,20.0129311 8.27110685,20.9790521 C8.27110685,23.0706685 9.9938374,24.7722865 12.1114342,24.7722865 L13.4282878,24.7722865 C13.4156319,25.7252826 13.3946229,26.4606545 13.3603253,26.8031531 C13.359819,26.8079031 13.3594393,26.8127781 13.3590597,26.8175281 C13.3327353,27.1311518 13.3193199,27.4521504 13.3193199,27.7716491 C13.3193199,30.8331365 15.819127,34.3818719 20.7477412,38.3182307 C21.0533828,38.5633547 21.3753507,38.7857288 21.7104808,38.984228 C21.8327374,39.5806005 21.8965235,40.5652215 21.7735075,41.3429683 C14.5150559,41.4260929 9.22827781,42.7553375 5.62727484,45.3997016 C5.20659042,45.7085753 5.11913767,46.2958229 5.43199323,46.7114462 C5.6182891,46.9588201 5.90444057,47.0895696 6.19438883,47.0895696 C6.39131571,47.0895696 6.58988787,47.0293199 6.7599841,46.9043204 C9.32383038,45.0217031 13.0479759,43.8525829 17.8657238,43.4125847 C18.529656,47.2955688 21.9466411,50.2138068 26.0331271,50.2138068 C30.1211318,50.2138068 33.538117,47.2944438 34.2009101,43.4100848 C34.3979635,43.4278347 34.5928655,43.4468346 34.7854893,43.4669595 C34.8195339,43.4705845 34.8533253,43.4722095 34.8867371,43.4722095 C35.3660186,43.4722095 35.7778439,43.114836 35.8294802,42.633588 C35.8845337,42.1183401 35.5066264,41.656592 34.9853271,41.6020922 L34.9853271,41.6020922 Z M39.8007969,22.8971692 L38.6230324,22.8971692 C38.6183496,21.6770492 38.6201215,20.3281798 38.6223996,19.06081 L39.8007969,19.06081 C40.8716184,19.06081 41.7427288,19.9213064 41.7427288,20.9789271 C41.7427288,22.0365477 40.8716184,22.8971692 39.8007969,22.8971692 Z M39.4873085,8.24385452 C41.038171,10.2907211 41.1203082,14.1620802 40.677729,17.2856923 C40.3960071,17.2204426 40.1023886,17.1858177 39.8007969,17.1858177 L38.6258167,17.1858177 C38.6260698,16.9976935 38.6263229,16.8134442 38.6264495,16.633695 C38.662519,15.0708264 37.768881,13.6178324 36.3469828,12.9295852 C36.3363518,12.9244602 36.3257208,12.9194603 36.3149632,12.9148353 C35.7956888,12.6868362 35.2137673,12.4799621 34.5790704,12.2957128 C33.9886695,10.3275959 34.0280295,8.83335209 34.6982897,7.9563557 C35.4830863,6.92935993 36.9920576,6.92523494 37.1692411,6.92860993 C38.1333729,7.02773452 38.8919717,7.45810775 39.4873085,8.24385452 Z M12.1113076,22.8971692 C11.0406126,22.8971692 10.1693757,22.0366727 10.1693757,20.9789271 C10.1693757,19.9211814 11.0404861,19.06081 12.1113076,19.06081 L13.4432219,19.06081 C13.4455962,20.3284298 13.4472718,21.6772992 13.4427156,22.8971692 L12.1113076,22.8971692 Z M15.2174622,27.7713991 C15.2174622,27.5057752 15.2284729,27.2394013 15.2501146,26.9792774 C15.3550326,25.9092818 15.3473125,21.9571731 15.3403517,18.4693124 C15.3390861,17.8211901 15.3378205,17.1975677 15.3374408,16.62182 C15.3374408,16.6136951 15.3373142,16.6055701 15.3371877,16.5974451 C15.3152929,15.7659486 15.7866012,14.9917017 16.5391251,14.6204533 C17.2791196,14.2974546 18.1849074,14.0178307 19.2318092,13.7894567 C19.7436166,13.6777071 20.0669766,13.1774592 19.9539588,12.6718363 C19.8408144,12.1663384 19.3345756,11.8474647 18.8223885,11.9585892 C17.6433584,12.2158382 16.609872,12.5374618 15.7506582,12.9147103 C15.7399006,12.9194603 15.7291431,12.9244602 15.7186386,12.9295852 C14.296867,13.6177074 13.403229,15.0704514 13.439172,16.63332 C13.4392985,16.8128192 13.4395516,16.9971935 13.4398048,17.1856927 L12.1113076,17.1856927 C11.7169476,17.1856927 11.3362561,17.2446925 10.977839,17.354317 C10.4790673,14.1733301 10.6153721,11.0995928 11.3786536,8.76247738 C12.5188299,5.10624243 16.6188577,3.40874942 19.8582796,2.62837763 C22.9769636,1.87463074 26.3583855,1.67388156 29.1352318,2.0778799 C31.2800389,2.38987861 34.0313201,3.21462522 35.2931202,5.35936639 C34.5740081,5.60286539 33.793641,6.0371136 33.1970386,6.80873542 C32.2680904,8.01010548 32.0331956,9.68697358 32.4934933,11.8063399 C30.5887699,11.4508413 28.3924529,11.2593421 26.0751449,11.2593421 L26.034013,11.2593421 C25.1284784,11.2595921 24.2207923,11.287967 23.3384181,11.3468417 C22.8153469,11.3818416 22.420101,11.8288398 22.4554111,12.3454626 C22.4907213,12.8619605 22.9427925,13.2517089 23.4664965,13.217584 C24.2935641,13.1623343 25.1437921,13.1343344 25.9962982,13.1343344 L26.0718544,13.1343344 C29.8633297,13.1343344 33.3934592,13.6892071 35.5266229,14.6205783 C36.2791468,14.9919517 36.7503286,15.7660736 36.7284337,16.5974451 C36.7283072,16.6053201 36.7281806,16.61682 36.7281806,16.624695 C36.7278009,17.1994427 36.7265353,17.8251901 36.7252697,18.4754374 C36.7184355,21.9604231 36.7107154,25.9092818 36.8156334,26.9789024 C36.8372751,27.2392763 36.8482858,27.5057752 36.8482858,27.7711491 C36.8482858,30.2038891 34.5227514,33.3471262 30.1215115,36.8623617 C28.9929787,37.767733 27.4984352,38.2799809 26.005284,38.2810602 C24.5347869,38.2883558 23.0894752,37.7809829 21.9429709,36.8609867 C17.5429966,33.3473762 15.2174622,30.2041391 15.2174622,27.7713991 L15.2174622,27.7713991 Z M25.9840219,40.1562232 L26.0271788,40.1562232 C26.817291,40.1562232 27.5980377,40.0473486 28.3457524,39.8378495 C28.29728,40.7093459 28.3595474,41.6717169 28.6051998,42.4233388 C28.5276187,43.7587083 27.4035155,44.8215789 26.032874,44.8215789 C24.6622325,44.8215789 23.5381293,43.7587083 23.4605482,42.4233388 C23.7058209,41.6733419 23.7682148,40.7133459 23.7203753,39.8433494 C24.4535356,40.0493486 25.215678,40.1562232 25.9840219,40.1562232 L25.9840219,40.1562232 Z M26.032874,48.3383145 C22.9467159,48.3383145 20.3560389,46.1799484 19.7709534,43.2788353 C20.3850211,43.2483354 21.0149087,43.2285855 21.6604897,43.2193355 C22.0991456,45.2050774 23.8930027,46.6965712 26.032874,46.6965712 C28.1727453,46.6965712 29.9666024,45.2052024 30.4052583,43.2193355 C31.0498268,43.2284605 31.6803472,43.2482104 32.2949211,43.2782103 C31.7102153,46.1798234 29.1196649,48.3383145 26.032874,48.3383145 L26.032874,48.3383145 Z" id="Shape"></path>
                        <path d="M51.1227005,59.0209879 C50.5995028,59.0167705 50.1681873,59.4288938 50.1616062,59.9466417 C50.155911,60.3940148 50.1464191,60.832013 50.1373068,61.2580113 C50.1237649,61.8910087 50.1108558,62.4890062 50.1108558,63.0623789 C50.1108558,63.5801267 50.5358432,63.999875 51.0600535,63.999875 C51.5842637,63.999875 52.0092512,63.5801267 52.0092512,63.0623789 C52.0092512,62.5088811 52.0219072,61.9206336 52.0353225,61.2977611 C52.0445613,60.8665129 52.0540533,60.4231397 52.0598751,59.9701416 C52.0665827,59.4525187 51.6469108,59.0275205 51.1227005,59.0209879 L51.1227005,59.0209879 Z" id="Path"></path>
                        <path d="M26.0075621,32.660504 C27.3945297,32.660504 28.672403,31.9723818 29.4256863,30.8197616 C29.7100659,30.3847634 29.5835062,29.8045158 29.1430785,29.5236419 C28.7026507,29.2427681 28.1151606,29.3677676 27.830781,29.8027658 C27.4285743,30.4180132 26.7469238,30.7853867 26.0074355,30.7853867 C25.2679472,30.7853867 24.5862967,30.4180132 24.1842165,29.8027658 C23.8998369,29.3677676 23.3123468,29.2428931 22.8719191,29.5236419 C22.4314913,29.8045158 22.3049316,30.3847634 22.5893113,30.8197616 C23.3427211,31.9723818 24.6205944,32.660504 26.0075621,32.660504 L26.0075621,32.660504 Z" id="Path"></path>
                        <path d="M24.3014108,26.4801544 C24.741712,26.7609033 25.3293287,26.6359038 25.6137083,26.2010306 C25.7062234,26.0592812 25.8630309,25.9746565 26.032874,25.9746565 C26.2027171,25.9746565 26.359398,26.0592812 26.4520397,26.2010306 C26.6336529,26.4787795 26.9387883,26.6301538 27.2503782,26.6301538 C27.4268025,26.6301538 27.6051251,26.581654 27.7643372,26.4801544 C28.2047649,26.1992806 28.3313246,25.619033 28.046945,25.1840348 C27.6031001,24.5050376 26.8501965,24.0996642 26.032874,24.0996642 C25.2155515,24.0996642 24.4625213,24.5050376 24.0186765,25.1840348 C23.7344234,25.619033 23.8609831,26.1994056 24.3014108,26.4801544 L24.3014108,26.4801544 Z" id="Path"></path>
                        <path d="M49.9334191,33.1972518 C49.2265832,33.1972518 48.5179755,33.2581265 47.8274658,33.3782511 C47.3111022,33.4680007 46.9663536,33.9541237 47.0572235,34.4641216 C47.1480933,34.9741195 47.6407902,35.3147431 48.1566475,35.2248685 C48.7388221,35.1236189 49.3366901,35.0723691 49.9335457,35.0723691 C55.5402667,35.0723691 60.1016046,39.5747255 60.1016046,45.1088278 C60.1016046,50.64293 55.5401401,55.1452864 49.9335457,55.1452864 C44.3269512,55.1452864 39.7654867,50.64293 39.7654867,45.1088278 C39.7654867,41.655217 41.5309944,38.486105 44.4883148,36.6311127 C44.9308941,36.3536138 45.0617568,35.7742412 44.7807943,35.337118 C44.4998317,34.9001198 43.9133541,34.7707453 43.4706483,35.0482442 C39.9619074,37.2489851 37.8670913,41.0098446 37.8670913,45.1087028 C37.8670913,51.6766757 43.2800494,57.0201537 49.9335457,57.0201537 C56.5870419,57.0201537 62,51.6766757 62,45.1087028 C62,38.5407298 56.5869153,33.1972518 49.9334191,33.1972518 L49.9334191,33.1972518 Z" id="Path"></path>
                        <path d="M11.8874235,58.8708961 C11.7097337,58.8668961 11.3625805,58.9113959 11.0245396,59.2392696 C10.6520744,59.6005181 10.1569728,60.3898899 10.1569728,63.0623789 C10.1569728,63.5801267 10.5819603,63.999875 11.1061706,63.999875 C11.6303808,63.999875 12.0553683,63.5801267 12.0553683,63.0623789 C12.0553683,61.4302606 12.2539404,60.8135131 12.3398745,60.6230139 C12.6210901,60.4645146 12.8130811,60.1678908 12.8194091,59.8250172 C12.8287745,59.3073943 12.4116338,58.8801461 11.8874235,58.8708961 L11.8874235,58.8708961 Z" id="Path"></path>
                        <path d="M41.0410819,59.2392696 C40.7031675,58.9113959 40.3548752,58.8666461 40.1781979,58.8708961 C39.6539876,58.8801461 39.2368469,59.3073943 39.2462123,59.8251422 C39.2525403,60.1681408 39.4444048,60.4647646 39.725747,60.6231389 C39.811681,60.8136381 40.0102532,61.4303856 40.0102532,63.0625039 C40.0102532,63.5802517 40.4352406,64 40.9594509,64 C41.4836611,64 41.9086486,63.5802517 41.9086486,63.0625039 C41.9086486,60.3898899 41.413547,59.6005181 41.0410819,59.2392696 L41.0410819,59.2392696 Z" id="Path"></path>
                        <path d="M45.7511274,46.0461989 L48.9842214,46.0461989 L48.9842214,49.2394358 C48.9842214,49.7571836 49.4092088,50.1769319 49.9334191,50.1769319 C50.4576293,50.1769319 50.8826168,49.7571836 50.8826168,49.2394358 L50.8826168,46.0461989 L54.1158373,46.0461989 C54.6400476,46.0461989 55.065035,45.6264506 55.065035,45.1087028 C55.065035,44.5909549 54.6400476,44.1712066 54.1158373,44.1712066 L50.8826168,44.1712066 L50.8826168,40.9779698 C50.8826168,40.4602219 50.4576293,40.0404736 49.9334191,40.0404736 C49.4092088,40.0404736 48.9842214,40.4602219 48.9842214,40.9779698 L48.9842214,44.1712066 L45.7511274,44.1712066 C45.2269172,44.1712066 44.8019297,44.5909549 44.8019297,45.1087028 C44.8019297,45.6264506 45.2269172,46.0461989 45.7511274,46.0461989 Z" id="Path"></path>
                    </g>
                </g>
            </g>
        </g>
    </g>
</svg>