<?xml version="1.0" encoding="UTF-8"?>
<svg width="147px" height="144px" viewBox="0 0 147 144" version="1.1" xmlns="http://www.w3.org/2000/svg" xmlns:xlink="http://www.w3.org/1999/xlink">
    <title>Close_Project_Icon</title>
    <g id="Project-Dashboard-(Edit,-Sign,-Chagne-State,-Close,-Delete)" stroke="none" stroke-width="1" fill="none" fill-rule="evenodd">
        <g id="Project_Dashboard_Close_Project" transform="translate(-115.000000, -324.000000)">
            <g id="Close_Project_Icon" transform="translate(115.777692, 324.500000)">
                <path d="M73,126 C107.078715,126 105.250841,99.1741935 137.321189,65.4387097 C169.391536,31.7032258 104.745291,0 70.6665753,0 C36.58786,0 -2.32690658,19.2632918 0.108816012,58.5290323 C2.54453861,97.7947727 38.9212847,126 73,126 Z" id="Oval" fill-opacity="0.160456731" fill="#86C04F"></path>
                <g id="contract" transform="translate(26.222308, 34.526316)" fill-rule="nonzero">
                    <g id="Group" transform="translate(2.000000, 0.973684)">
                        <g id="Path">
                            <path d="M6.43986354,0.104624567 C2.90990718,0.104624567 0.0484122488,2.99874935 0.0484122488,6.56895809 L0.0484122488,89.8386051 C0.0484122488,93.4088138 2.90990718,96.3029386 6.43986354,96.3029386 L66.5322915,96.3029386 C70.0622478,96.3029386 72.9237428,93.4088138 72.9237428,89.8386051 L72.9237428,20.0385342 C72.9237428,18.7397248 72.4135522,17.4940647 71.5055122,16.5756702 L56.6384002,1.53902739 C55.7305671,0.620632934 54.4989512,0.104624567 53.2147853,0.104624567 L6.43986354,0.104624567 Z" fill="#F4F8F8"></path>
                            <path d="M61.6120346,18.0098638 C61.1308086,18.0098638 60.6626167,17.9542035 60.2115966,17.8522992 L60.2115966,89.8386051 C60.2115966,93.4088138 57.3498947,96.3029386 53.8199384,96.3029386 L66.5322915,96.3029386 C70.0622478,96.3029386 72.9237428,93.4086046 72.9237428,89.8386051 L72.9237428,20.0383249 C72.9237428,19.3314813 72.7716787,18.6409592 72.4874119,18.0098638 L61.6120346,18.0098638 Z" fill="#E7ECF1"></path>
                            <path d="M71.505719,16.575461 L56.6386071,1.53881814 C56.2246203,1.12011062 55.7431874,0.786358249 55.2203765,0.545721744 L55.2203765,11.545321 C55.2203765,15.1155298 58.0818714,18.0096545 61.6118278,18.0096545 L72.4876188,18.0096545 C72.2496953,17.4813005 71.9194989,16.9941685 71.505719,16.575461 L71.505719,16.575461 Z" fill="#FC8086"></path>
                        </g>
                        <g transform="translate(11.999617, 52.940031)" id="Path">
                            <g transform="translate(3.517129, 4.184983)">
                                <g>
                                    <path d="M62.5111784,27.0588426 L39.6821135,13.3856672 C38.5115301,12.6838456 38.1248528,11.1552806 38.8185548,9.97113977 C38.8185548,9.97113977 39.3825368,9.00817526 39.9864486,7.97699552 L35.3678373,5.2134422 C32.320969,3.44507776 30.8963248,3.11802136 28.1475849,4.19272492 L25.1518184,5.36410157 C23.3287041,6.07701337 21.2831832,5.90480134 19.6015816,4.89726675 L11.5831478,0.115714772 L0.194683445,19.5580981 L10.4620111,25.6872145 C11.1575751,26.1040388 11.7683143,26.6505976 12.2619537,27.2980144 L15.7217744,31.8362096 C17.6328168,34.096728 21.57676,37.0291454 24.1066103,38.5449461 L37.3117753,46.4572837 C39.0548232,47.5016461 41.3049583,46.9193058 42.337546,45.1563818 C43.3701338,43.3934578 42.7941522,41.1176642 41.0513112,40.0733018 L45.1769037,42.5453711 C46.9199516,43.5897335 49.1700867,43.0073932 50.2026744,41.2444692 C51.2352622,39.4815453 50.6594875,37.2057517 48.9164396,36.1613892 L51.6668346,37.8094354 C53.4098825,38.8537979 55.6600176,38.2714575 56.6926054,36.5085336 C57.7251931,34.7456096 57.1494184,32.469816 55.4063705,31.4254536 L58.7722632,33.4421967 C60.5151041,34.4865592 62.7650323,33.9040096 63.7976201,32.1412949 C64.8297941,30.3787894 64.2540193,28.1032051 62.5111784,27.0588426 L62.5111784,27.0588426 Z" fill="#FFECE3"></path>
                                    <path d="M62.5111784,27.0588426 L54.6437742,22.3467614 C54.4706073,23.0274488 54.1366869,23.6865836 53.5917388,24.25888 C52.196266,25.7242516 49.9560616,25.9625864 48.2254272,24.9257569 L45.9874986,23.5848885 C45.9078459,23.5371797 45.8060561,23.5516179 45.7425409,23.6198331 C45.6775774,23.6895131 45.6724052,23.7947654 45.7270241,23.8730245 C46.663408,25.220589 46.7935418,27.0511004 45.9097079,28.5602052 C44.7072635,30.6131484 42.0867954,31.2913249 40.0569981,30.0751689 L38.2988473,29.0138573 C38.2295391,28.9720075 38.1405765,28.9851902 38.0859575,29.0454539 C38.0300972,29.1069732 38.0278214,29.1990428 38.0776819,29.265584 C39.109649,30.6430711 39.2683336,32.5752776 38.3112607,34.1438091 C37.0784034,36.1643187 34.4223502,36.7428926 32.4026905,35.5325956 L30.9588056,34.6675597 C30.672263,34.4957661 30.3124813,34.5104136 30.0404211,34.7050153 C29.7683608,34.899617 29.6338823,35.2379728 29.7007078,35.5681679 C29.9057357,36.5815615 29.7553267,37.671331 29.1929998,38.631366 C28.7119807,39.4524596 28.002555,40.0492382 27.1965118,40.3972195 L37.2288124,46.4085286 C38.9977215,47.4685847 41.3577152,46.9044491 42.3725104,45.0959088 C43.356479,43.3419826 42.7738769,41.106574 41.0511043,40.0741388 L45.0939409,42.496616 C46.8630568,43.5566722 49.2228436,42.9925365 50.2376389,41.183787 C51.2216075,39.4296515 50.6390054,37.1944522 48.9162327,36.162017 L51.5838718,37.7604711 C53.3527809,38.8205272 55.7127745,38.2566008 56.7275698,36.4478513 C57.7115384,34.6939251 57.1291432,32.4583073 55.4061636,31.4260813 L58.6893003,33.3934417 C60.4582094,34.4532886 62.8177893,33.8893621 63.8325845,32.0808219 C64.8163462,30.3264771 64.233951,28.0910686 62.5111784,27.0588426 L62.5111784,27.0588426 Z" fill="#FFDDCE"></path>
                                </g>
                                <path d="M60.5339311,1.27725672 L54.3756448,4.89768525 C52.6940433,5.90521983 50.6483154,6.07722262 48.825408,5.36452007 L45.4468951,4.02218687 C44.3901012,3.60222386 43.2298624,3.52794041 42.1292078,3.809799 L36.9528212,5.13476452 C34.5429671,5.75163097 32.8551589,7.9445619 32.8551589,10.4586903 L32.8551589,17.4476114 C32.8551589,18.4356858 33.6469267,19.2394117 34.6238611,19.2400395 C37.5701809,19.2419227 39.9591391,16.8269784 39.9591391,13.8476892 L39.9591391,13.551811 L62.1164323,26.8228096 C62.526902,26.3806662 62.9973698,25.9981588 63.5152153,25.6880515 L71.9226023,20.7200586 L60.5339311,1.27725672 Z" fill="#FCD0A3"></path>
                                <path d="M63.8189298,6.88534278 L62.6348986,11.3262372 L49.3695286,19.1879364 L62.1162255,26.8223911 C62.5266951,26.3802477 62.9973698,25.9977403 63.5150084,25.687633 L71.9223954,20.7196401 L63.8189298,6.88534278 Z" fill="#FFB983"></path>
                                <g transform="translate(6.206699, 23.854401)">
                                    <g fill="#FCD0A3">
                                        <path d="M8.755169,5.9506269 L6.67778699,8.8771853 C5.49665225,10.5411344 3.20534603,10.9217586 1.56015713,9.72715528 C-0.0850317703,8.53255197 -0.461364593,6.2151178 0.719770144,4.55116868 L2.79715215,1.62461028 C3.97828689,-0.0393388374 6.26959311,-0.419963014 7.91478201,0.774640297 C9.55997091,1.96924361 9.93630373,4.28667778 8.755169,5.9506269 Z"></path>
                                        <path d="M17.0057334,7.04688311 L12.6358038,13.2032019 C11.4546691,14.867151 9.16336287,15.2477752 7.51817397,14.0531719 C5.87298507,12.8585686 5.49665225,10.5411344 6.67778699,8.8771853 L11.0477166,2.7208665 C12.2288513,1.05691738 14.5201575,0.676293204 16.1653464,1.87089651 C17.8105353,3.06549983 18.1868681,5.38293399 17.0057334,7.04688311 Z"></path>
                                        <path d="M22.9637502,11.373109 L18.5938207,17.5294278 C17.4126859,19.1933769 15.1213797,19.5740011 13.4761908,18.3793978 C11.8310019,17.1847944 11.4546691,14.8673603 12.6358038,13.2034112 L17.0057334,7.04709236 C18.1868681,5.38314324 20.4781744,5.00251907 22.1233633,6.19712238 C23.7685522,7.39172569 24.144885,9.70895061 22.9637502,11.373109 Z"></path>
                                    </g>
                                    <path d="M26.9801049,18.4346395 L25.5269099,20.4819331 C24.3457751,22.1458822 22.0544689,22.5265064 20.40928,21.3319031 C18.7640911,20.1372997 18.3877583,17.8198656 19.568893,16.1559165 L21.022088,14.1086229 C22.2032228,12.4446738 24.494529,12.0640496 26.1397179,13.2586529 C27.7849068,14.4532562 28.1612396,16.7706904 26.9801049,18.4346395 Z" fill="#FFB983"></path>
                                </g>
                            </g>
                            <g fill="#7C8B96">
                                <path d="M19.3926228,2.27956008 L16.1806563,0.355095782 C15.2970293,-0.174304529 14.156445,0.120946 13.6330134,1.01464905 L0.427848421,23.5585231 C-0.0955831579,24.4522262 0.196338565,25.6058166 1.07996555,26.1352169 L4.29193206,28.0596812 C6.44627713,29.3505392 9.22749876,28.6307221 10.5038029,26.4516016 L20.9825721,8.56226535 C22.2588762,6.38335411 21.5469678,3.57041799 19.3926228,2.27956008 L19.3926228,2.27956008 Z"></path>
                                <path d="M62.970681,0.355095782 L59.7587144,2.27956008 C57.6043694,3.57041799 56.8924611,6.38335411 58.1687652,8.56226535 L68.6475344,26.4516016 C69.9238385,28.6305129 72.7050601,29.3505392 74.8594052,28.0596812 L78.0713717,26.1352169 C78.9549987,25.6058166 79.2469204,24.4520169 78.7234888,23.5585231 L65.5183238,1.01464905 C64.9948922,0.120946 63.8543079,-0.174304529 62.970681,0.355095782 L62.970681,0.355095782 Z"></path>
                            </g>
                        </g>
                    </g>
                    <g id="Group" transform="translate(0.000000, 0.973684)" fill="#000000">
                        <path d="M63.2756053,28.7988828 L12.7322588,28.7988828 C11.8747149,28.7988828 11.1796096,29.5035781 11.1796096,30.3729531 C11.1796096,31.2423281 11.8747149,31.9470234 12.7322588,31.9470234 L63.2758114,31.9470234 C64.1333553,31.9470234 64.8284605,31.2423281 64.8284605,30.3729531 C64.8284605,29.5035781 64.1331491,28.7988828 63.2756053,28.7988828 Z" id="Path"></path>
                        <path d="M12.7322588,21.0282168 L38.0038289,21.0282168 C38.8613728,21.0282168 39.5564781,20.3235215 39.5564781,19.4541465 C39.5564781,18.5847715 38.8613728,17.8800762 38.0038289,17.8800762 L12.7322588,17.8800762 C11.8747149,17.8800762 11.1796096,18.5847715 11.1796096,19.4541465 C11.1796096,20.3237305 11.8747149,21.0282168 12.7322588,21.0282168 Z" id="Path"></path>
                        <path d="M63.2756053,38.4731875 L12.7322588,38.4731875 C11.8747149,38.4731875 11.1796096,39.1778828 11.1796096,40.0472578 C11.1796096,40.9166328 11.8747149,41.6213281 12.7322588,41.6213281 L63.2758114,41.6213281 C64.1333553,41.6213281 64.8284605,40.9166328 64.8284605,40.0472578 C64.8284605,39.1778828 64.1331491,38.4731875 63.2756053,38.4731875 Z" id="Path"></path>
                        <path d="M24.2458158,96.0634297 L8.07060088,96.0634297 C5.4157193,96.0634297 3.25557456,93.8736914 3.25557456,91.1821816 L3.25557456,8.02938867 C3.25557456,5.33787891 5.4157193,3.14793164 8.07060088,3.14793164 L54.669864,3.14793164 C54.8203465,3.14793164 54.9685614,3.16193359 55.1151272,3.18199609 L55.1151272,12.9988281 C55.1151272,17.4263711 58.6681623,21.0282168 63.0352456,21.0282168 L72.7182763,21.0282168 C72.7382719,21.1770137 72.7518772,21.3272734 72.7518772,21.479832 L72.7518772,48.284377 C72.7518772,49.153752 73.4469825,49.8584473 74.3045263,49.8584473 C75.1620702,49.8584473 75.8571754,49.153752 75.8571754,48.284377 L75.8571754,21.480041 C75.8571754,19.7534121 75.1938158,18.1300215 73.9895439,16.9089258 L59.1783596,1.89339844 C57.9740877,0.672511719 56.3729956,0 54.669864,0 L8.07060088,0 C3.7033114,0 0.150482456,3.60205469 0.150482456,8.02938867 L0.150482456,91.1821816 C0.150482456,95.6095156 3.70351754,99.2113613 8.07060088,99.2113613 L24.2458158,99.2113613 C25.1033596,99.2113613 25.7984649,98.506666 25.7984649,97.637291 C25.7984649,96.767916 25.1033596,96.0634297 24.2458158,96.0634297 Z M70.5562763,17.8802852 L63.0354518,17.8802852 C60.3805702,17.8802852 58.2204254,15.6903379 58.2204254,12.9988281 L58.2204254,5.37424219 L70.5562763,17.8802852 Z" id="Shape"></path>
                        <path d="M93.3729211,77.0585996 L80.2174561,54.5468027 C79.2586974,52.9054395 77.1721447,52.362916 75.5522939,53.3357383 L72.3523772,55.2577676 C69.8685921,56.749498 68.8187193,59.7682773 69.6715219,62.4434863 C68.5934079,62.8395117 67.4113991,62.8332422 66.3229781,62.4067051 C63.7965219,61.6008613 61.8757061,59.9797695 58.7034123,60.7931367 C53.3169649,62.1835098 53.4806404,62.113918 52.9933246,62.2831953 C49.8393772,60.4627324 47.9435044,59.9210449 44.5953728,61.2340937 L41.6108728,62.4037793 C40.229114,62.9450488 38.7065614,62.8167324 37.4297281,62.0497598 L36.6152675,61.5630352 C37.0127061,59.1488477 35.9566491,56.6011191 33.7204386,55.2581855 C33.7204386,55.2581855 33.7204386,55.2581855 33.7202325,55.2579766 L30.5205219,53.3361562 C28.9052061,52.3662598 26.8124693,52.9092012 25.8555658,54.5468027 L12.6996886,77.0588086 C11.7409298,78.6997539 12.2744211,80.8157207 13.8938596,81.788125 L17.0935702,83.7099453 C18.0618114,84.2915488 19.1259079,84.5680352 20.1772237,84.5680352 C21.3495439,84.5680352 22.5053728,84.2236289 23.4936096,83.5749414 L24.1604737,83.9738926 L22.7525351,85.9619609 C21.0747588,88.3314258 21.6078377,91.6262734 23.9454693,93.3274062 C25.0264693,94.1140234 26.3845219,94.4732676 27.7889561,94.2496543 C28.0117939,95.5702266 28.7254518,96.8061602 29.8810746,97.6475312 C30.9664035,98.4374922 32.3182719,98.7971543 33.7251798,98.5724961 C33.948636,99.8920234 34.6618816,101.126912 35.816886,101.967656 C37.3691228,103.097217 39.2990088,103.227832 40.9071096,102.531496 C41.2589912,103.458133 41.8706096,104.294906 42.7238246,104.916008 C44.9517895,106.5371 48.020807,106.114324 49.7519737,104.014031 L53.4934211,106.261031 C55.9677237,107.747537 59.1602193,106.921422 60.6273202,104.410057 C61.0024956,103.768057 61.2352281,103.068377 61.320364,102.349262 L61.3288158,102.354486 C63.7994079,103.837857 66.9991184,103.007354 68.4627149,100.503303 C68.8865395,99.777918 69.1188596,98.9910918 69.1753421,98.2025937 C71.3530088,98.7576562 73.7263026,97.8303926 74.9281009,95.7739863 C75.3224474,95.0993848 75.551057,94.3706562 75.6262982,93.6373301 C77.9602193,94.5658477 80.6880746,93.6684687 82.006136,91.4131094 C82.7150526,90.1999551 82.9156272,88.7796973 82.5707544,87.4135664 C82.3734781,86.6319648 82.0106711,85.9224629 81.512636,85.3233047 L83.574864,84.101791 C85.3194298,84.8278027 87.3103333,84.7116074 88.9788333,83.7097363 L92.1781316,81.787916 C93.7975702,80.8161387 94.3325044,78.7005898 93.3729211,77.0585996 L93.3729211,77.0585996 Z M18.6763158,81.0017236 L15.4766053,79.0796875 C15.3343684,78.9942129 15.2871623,78.8073809 15.3712675,78.6631816 L28.5271447,56.1507578 C28.6118684,56.0059316 28.7967763,55.9589102 28.9381886,56.0441758 L32.137693,57.9657871 C33.559443,58.8199062 34.0042939,60.668582 33.1772588,62.0836152 L22.7381053,79.9475996 C21.904886,81.373709 20.0830175,81.8462227 18.6763158,81.0017236 L18.6763158,81.0017236 Z M25.7562061,90.7700645 C24.8133202,90.0837598 24.5976974,88.7542012 25.2750746,87.7978887 L27.3445175,84.8754512 C28.0037544,83.9444258 29.3174868,83.6896738 30.2762456,84.3874727 C31.2172763,85.0723145 31.4331053,86.4054258 30.7577895,87.3594395 L28.6881404,90.281877 C28.0126184,91.2363086 26.6968246,91.4544883 25.7562061,90.7700645 L25.7562061,90.7700645 Z M31.6920175,95.0903984 C30.7509868,94.4053477 30.5351579,93.0718184 31.2106798,92.1180137 L33.2801228,89.1957852 C33.2801228,89.1957852 33.2801228,89.1957852 33.2801228,89.1955762 C33.2801228,89.1955762 33.2801228,89.1953672 33.2803289,89.1953672 L35.5641579,85.9703203 C35.8915088,85.5082559 36.376557,85.2027207 36.93025,85.1107676 C37.0452763,85.091541 37.1605088,85.0821367 37.2749167,85.0821367 C37.7106974,85.0821367 38.1347281,85.2196484 38.495886,85.4823418 C38.9514561,85.814209 39.2528333,86.3057402 39.3435351,86.8670723 C39.434443,87.4286133 39.3043684,87.9922441 38.9770175,88.4543086 L34.6235395,94.6022109 C33.9469868,95.5583145 32.6353158,95.7771211 31.6920175,95.0903984 L31.6920175,95.0903984 Z M37.6278289,99.4103145 C36.6872105,98.7256816 36.4711754,97.3931973 37.1454605,96.4393926 C37.1456667,96.4389746 37.1460789,96.4385566 37.1462851,96.4381387 L41.4997632,90.2904453 C42.1748728,89.3366406 43.4908728,89.117625 44.4314912,89.8022578 C45.3725219,90.4870996 45.5883509,91.8204199 44.9128289,92.7744336 L42.978614,95.5060684 C42.978614,95.5060684 42.978614,95.5060684 42.9784079,95.5062773 L40.5593509,98.9223359 C39.8838289,99.8763496 38.5690658,100.095574 37.6278289,99.4103145 L37.6278289,99.4103145 Z M44.5347675,102.358666 C43.5943553,101.674033 43.378114,100.342176 44.0519868,99.3881621 L45.5009474,97.3422051 C46.1762632,96.3879824 47.492057,96.1698027 48.4326754,96.8542266 C49.3735,97.5388594 49.5895351,98.8723887 48.9140132,99.8264023 L47.4662895,101.870479 C46.7909737,102.824701 45.475386,103.043717 44.5347675,102.358666 L44.5347675,102.358666 Z M79.3351754,89.8087363 C78.7443772,90.8195937 77.453114,91.1548047 76.455807,90.5560645 C74.7671053,89.5418633 63.8738246,82.9991895 62.7124298,82.3015996 C61.9744474,81.8585527 61.0222851,82.1053633 60.5852675,82.8533184 C60.14825,83.6012734 60.3917018,84.5667812 61.1294781,85.0098281 L71.5195702,91.2503105 L71.5197763,91.2505195 C72.5172895,91.8494687 72.85,93.1545762 72.2569342,94.1698223 C71.6659298,95.1810977 70.3740482,95.5156816 69.3771535,94.9173594 C65.5342851,92.6093359 62.4139386,90.7351641 58.9814956,88.6735332 C58.243307,88.2304863 57.2913509,88.4772969 56.8543333,89.225252 C56.4173158,89.973207 56.6607675,90.9387148 57.3985439,91.3817617 L65.0541842,95.9798359 L65.0558333,95.9808809 C66.0539649,96.5817109 66.3833772,97.8861914 65.7915482,98.8993477 C65.2005439,99.910623 63.9090746,100.245625 62.9115614,99.6466758 L58.8029781,97.1791973 C58.8025658,97.1789883 58.8019474,97.1787793 58.8015351,97.1783613 C58.8011228,97.1781523 58.8007105,97.1779434 58.8002982,97.1777344 L55.8019868,95.376707 C55.0640044,94.9334512 54.1118421,95.1802617 53.6748246,95.9284258 C53.237807,96.6763809 53.4812588,97.6418887 54.2190351,98.0849355 L57.2179649,99.8861719 C57.2183772,99.8863809 57.2187895,99.8867988 57.2192018,99.8870078 C58.2167149,100.485957 58.5494254,101.790855 57.9563596,102.806102 C57.3653553,103.817377 56.073886,104.152379 55.0763728,103.55343 L51.5779649,101.45251 C53.077636,99.1064512 52.5072456,95.9449355 50.2436184,94.2977207 C49.5788158,93.8141309 48.8385658,93.5129844 48.0814123,93.383623 C48.8845351,91.2066328 48.1921096,88.6649648 46.2422281,87.2459609 C45.0878421,86.4054258 43.7056711,86.1151465 42.4012149,86.322459 C42.1691009,84.9462969 41.4267895,83.740875 40.3068289,82.9260449 C38.2004868,81.3935625 35.3380219,81.6880215 33.5699561,83.5013789 C33.2106535,82.8616777 32.7146798,82.2878066 32.0871886,81.8311758 C30.3368509,80.557625 28.0643596,80.5457129 26.3315439,81.6184297 L25.6201535,81.1927285 L35.3850219,64.4825469 L35.8498684,64.7604961 C37.9030263,65.9935039 40.4084561,66.2505547 42.7304211,65.3402187 L45.7149211,64.1705332 C47.4227939,63.5013652 48.3646491,63.4576875 50.0539693,64.2658301 C48.9486447,65.524752 48.2925,67.1776094 48.2925,68.9589922 L48.2925,75.9380254 C48.2925,77.7917168 49.7789781,79.300793 51.606,79.3020469 L51.6105351,79.3020469 C53.4431228,79.3020469 55.1664561,78.578752 56.4628728,77.2652852 C57.2185833,76.4995664 57.7763991,75.5867227 58.1107588,74.5902852 C60.1154737,75.7938262 76.6782325,85.7370937 78.5984298,86.8904785 C79.0814167,87.1805488 79.4240219,87.6438672 79.5631667,88.195168 C79.7023114,88.7458418 79.6212982,89.3190859 79.3351754,89.8087363 L79.3351754,89.8087363 Z M90.5962105,79.0796875 L87.3962939,81.0017168 C85.9895921,81.8460137 84.1677237,81.373082 83.3349167,79.9478086 L78.4419693,71.5748496 C78.0047456,70.8268945 77.0519649,70.580084 76.314807,71.0227129 C75.5770307,71.4657598 75.3333728,72.4312676 75.7701842,73.1792227 L80.6631316,81.5523906 C80.7552763,81.7099648 80.8552544,81.8598066 80.9587368,82.0058867 L79.5984167,82.8115215 C79.3234254,82.9766191 79.0589474,83.1584355 78.8060132,83.3559258 L57.713114,70.6925176 C56.6797325,70.0724609 55.3695044,70.8283574 55.3695044,72.0467363 C55.3532193,72.1407793 55.5298816,73.7587363 54.2676842,75.0379297 C53.5577368,75.7570449 52.6140263,76.1532793 51.6103289,76.1532793 C51.6095044,76.1532793 51.6086798,76.1532793 51.6078553,76.1532793 C51.4917982,76.1532793 51.397386,76.0563105 51.397386,75.9371895 L51.397386,68.9581562 C51.397386,67.1349766 52.6346404,65.5968516 54.3078816,65.1673887 L59.4646886,63.8443086 C61.3358246,63.3648984 62.3935307,64.3778457 65.1951842,65.3391738 C67.1401184,66.1019668 69.2549123,66.0549453 71.1320263,65.2422051 L72.0691404,66.8459512 C72.506364,67.5943242 73.4587325,67.8409258 74.1963026,67.3980879 C74.9340789,66.955041 75.1777368,65.9895332 74.7409254,65.2415781 L72.8951447,62.0831973 C72.0600702,60.6541621 72.5253289,58.8125918 73.9347105,57.9655781 L77.1344211,56.0439668 C77.2741842,55.9597461 77.4590921,56.0027969 77.5456711,56.1507578 L90.701136,78.6627637 C90.7860658,78.8080078 90.7392719,78.9937949 90.5962105,79.0796875 L90.5962105,79.0796875 Z" id="Shape"></path>
                    </g>
                </g>
            </g>
        </g>
    </g>
</svg>