<?xml version="1.0" encoding="UTF-8"?>
<svg width="92px" height="74px" viewBox="0 0 92 74" version="1.1" xmlns="http://www.w3.org/2000/svg" xmlns:xlink="http://www.w3.org/1999/xlink">
    <title>comments_icon</title>
    <g id="Project-Dashboard---Web" stroke="none" stroke-width="1" fill="none" fill-rule="evenodd" opacity="0.5">
        <g id="Project_Dashboard_Empty_Screen" transform="translate(-1218.000000, -653.000000)" fill="#CBD2D5" fill-rule="nonzero">
            <g id="comments_icon" transform="translate(1263.948957, 690.004466) rotate(-10.000000) translate(-1263.948957, -690.004466) translate(1222.948957, 660.004466)">
                <path d="M70.4524842,0 L37.8131408,0 C31.4456787,0 26.265625,5.12038259 26.265625,11.4144953 L26.265625,12.441664 L11.5475158,12.441664 C5.18005371,12.441664 0,17.5620465 0,23.8561593 L0,42.1831711 C0,47.2454239 4.10588078,51.3769789 9.19834904,51.4957124 C10.3738709,54.7163588 12.2363129,57.4150726 14.5942383,59.3104798 C15.03154,59.6617331 15.5626831,59.8429254 16.1000824,59.8429254 C16.4385376,59.8429254 16.7801209,59.7711907 17.1029357,59.6240106 C17.934372,59.2455475 18.4661407,58.4478066 18.4892883,57.5424636 C18.5161895,56.4750989 18.6306763,54.8734335 19.0210571,53.3020696 C19.284439,52.2402704 20.2347412,51.4988044 21.3314361,51.4988044 L44.1868592,51.4988044 C50.5543213,51.4988044 55.734375,46.3778034 55.734375,40.0836906 L55.734375,39.0565221 L60.6685639,39.0565221 C61.7652588,39.0565221 62.715561,39.7986065 62.9789429,40.8604056 C63.3693237,42.4311511 63.4838105,44.033435 63.5107117,45.1007998 C63.5338593,46.0061428 64.0650024,46.8038835 64.8970643,47.1823466 C65.2198791,47.3289084 65.5608368,47.4012616 65.8999176,47.4012616 C66.4373169,47.4012616 66.96846,47.2200693 67.4057617,46.8681975 C69.7636871,44.9727902 71.6261291,42.2746949 72.801651,39.0540484 C77.894745,38.9353149 82,34.8031415 82,29.7408888 L82,11.4144953 C82,5.12038259 76.8199463,0 70.4524842,0 L70.4524842,0 Z M52.53125,40.0836906 C52.53125,44.6320498 48.7882232,48.3325775 44.1868592,48.3325775 L21.3314361,48.3325775 C18.7551728,48.3325775 16.526123,50.0653447 15.9098969,52.547617 C15.636505,53.6483756 15.4788514,54.7497527 15.3893891,55.7187912 C13.6964874,53.9235654 12.7055206,51.8222296 12.1487275,50.2471553 C11.7433319,49.1018717 10.6485138,48.3319591 9.42419434,48.3319591 C5.99397274,48.3325775 3.203125,45.5738786 3.203125,42.1825528 L3.203125,23.8561593 C3.203125,19.3084186 6.94615177,15.6078909 11.5475158,15.6078909 L26.265625,15.6078909 L26.265625,27.6426451 C26.265625,33.9361395 31.4456787,39.0571406 37.8131408,39.0571406 L52.53125,39.0571406 L52.53125,40.0836906 Z M78.796875,29.7408888 C78.796875,33.1315963 76.0060273,35.8902951 72.5758057,35.8902951 C71.3514862,35.8902951 70.2566681,36.6602077 69.8512725,37.8054915 C69.2938537,39.3805656 68.3035126,41.4819014 66.6106109,43.2771274 C66.5211486,42.3080888 66.363495,41.2067117 66.0901031,40.1059532 C65.473877,37.6236807 63.2442017,35.8909137 60.6685639,35.8909137 L37.8131408,35.8909137 C33.2117768,35.8909137 29.46875,32.190386 29.46875,27.6420268 L29.46875,11.4144953 C29.46875,6.86613625 33.2117768,3.16622691 37.8131408,3.16622691 L70.4524842,3.16622691 C75.0538482,3.16622691 78.796875,6.86613625 78.796875,11.4144953 L78.796875,29.7408888 Z" id="Shape"></path>
                <path d="M68.0664062,21.530343 L40.0922393,21.530343 C39.2076264,21.530343 38.4906768,22.2390336 38.4906768,23.1134565 C38.4906768,23.9878794 39.2076264,24.6965699 40.0922393,24.6965699 L68.0664062,24.6965699 C68.9510194,24.6965699 69.6679688,23.9878794 69.6679688,23.1134565 C69.6679688,22.2390336 68.9510194,21.530343 68.0664062,21.530343 Z" id="Path"></path>
                <path d="M18.0976562,33.4036939 L8.77543644,33.4036939 C7.89144905,33.4036939 7.17387394,34.1123845 7.17387394,34.9868074 C7.17387394,35.8612303 7.89144905,36.5699208 8.77543644,36.5699208 L18.0976562,36.5699208 C18.9822694,36.5699208 19.6992188,35.8612303 19.6992188,34.9868074 C19.6992188,34.1123845 18.9822694,33.4036939 18.0976562,33.4036939 Z" id="Path"></path>
                <path d="M25.9822236,34.3807718 C25.9421845,34.2855375 25.8921357,34.1933954 25.8345795,34.1080558 C25.7770234,34.0208609 25.710083,33.9404683 25.6362609,33.8674968 C25.562439,33.7945251 25.480484,33.7283558 25.3928985,33.6708443 C25.3059386,33.6139512 25.2133485,33.5650973 25.1157531,33.5255194 C25.0194092,33.4859416 24.918686,33.454403 24.8160859,33.4352326 C24.6096344,33.3937995 24.3981781,33.3937995 24.1917266,33.4352326 C24.0891265,33.454403 23.9884033,33.4859416 23.8920594,33.5255194 C23.794464,33.5650973 23.7018739,33.6139512 23.614914,33.6708443 C23.526703,33.7283558 23.4453735,33.7945251 23.3715516,33.8674968 C23.2977295,33.9404683 23.2307891,34.0208609 23.173233,34.1080558 C23.1138,34.1933954 23.065628,34.2855375 23.0255889,34.3807718 C22.9855499,34.4772427 22.9536437,34.5768057 22.9329986,34.6782239 C22.9117279,34.7796421 22.9023438,34.8841523 22.9023438,34.9868074 C22.9023438,35.0894625 22.9123535,35.1939727 22.9329986,35.2953909 C22.9536437,35.3968091 22.9855499,35.496372 23.0255889,35.5916061 C23.065628,35.6880773 23.1138,35.7796008 23.173233,35.865559 C23.2307891,35.9521355 23.2977295,36.0331464 23.3715516,36.106118 C23.4453735,36.1790897 23.526703,36.2452589 23.614914,36.3021521 C23.7018739,36.3590452 23.794464,36.4085175 23.8920594,36.4480954 C23.9884033,36.4876732 24.0891265,36.5192118 24.1917266,36.5383822 C24.2943267,36.5587897 24.4000549,36.5699208 24.5039062,36.5699208 C24.6077576,36.5699208 24.7134858,36.5587897 24.8160859,36.5383822 C24.918686,36.5192118 25.0194092,36.4876732 25.1157531,36.4480954 C25.2133485,36.4085175 25.3059386,36.3590452 25.3928985,36.3021521 C25.480484,36.2452589 25.562439,36.1790897 25.6362609,36.106118 C25.710083,36.0331464 25.7770234,35.9521355 25.8345795,35.865559 C25.8921357,35.7796008 25.9421845,35.6880773 25.9822236,35.5916061 C26.0222626,35.496372 26.0541688,35.3968091 26.0735626,35.2953909 C26.0942078,35.1939727 26.1054688,35.0894625 26.1054688,34.9868074 C26.1054688,34.8841523 26.0942078,34.7790237 26.0735626,34.6782239 C26.0541688,34.5768057 26.0222626,34.4772427 25.9822236,34.3807718 Z" id="Path"></path>
            </g>
        </g>
    </g>
</svg>