<?xml version="1.0" encoding="UTF-8"?>
<svg width="147px" height="137px" viewBox="0 0 147 137" version="1.1" xmlns="http://www.w3.org/2000/svg" xmlns:xlink="http://www.w3.org/1999/xlink">
    <title>Delete_Project_Icon</title>
    <g id="Project-Dashboard-(Edit,-Sign,-Chagne-State,-Close,-Delete)" stroke="none" stroke-width="1" fill="none" fill-rule="evenodd">
        <g id="Project_Dashboard_Delete_Project" transform="translate(-115.000000, -324.000000)">
            <g id="Delete_Project_Icon" transform="translate(115.777692, 324.500000)">
                <path d="M73,126 C107.078715,126 105.250841,99.1741935 137.321189,65.4387097 C169.391536,31.7032258 104.745291,0 70.6665753,0 C36.58786,0 -2.32690658,19.2632918 0.108816012,58.5290323 C2.54453861,97.7947727 38.9212847,126 73,126 Z" id="Oval" fill-opacity="0.160456731" fill="#86C04F"></path>
                <g id="file-(3)" transform="translate(28.222308, 33.500000)" fill-rule="nonzero">
                    <g id="Group" transform="translate(2.000000, 1.000000)">
                        <g id="Path">
                            <path d="M0.155880399,5.35240571 L0.155880399,93.468565 C0.155880399,96.3698931 2.51840532,98.7217529 5.43289037,98.7217529 L72.8136877,98.7217529 C75.7281728,98.7217529 78.0906977,96.3698931 78.0906977,93.468565 L78.0906977,23.266584 L54.8182724,0.0992178421 L5.43289037,0.0992178421 C2.51840532,0.0992178421 0.155880399,2.45107757 0.155880399,5.35240571 Z" fill="#EAECF0"></path>
                            <path d="M59.9009302,5.15893092 L59.9009302,26.9364535 C59.9009302,29.1285725 61.6859801,30.9055641 63.8880399,30.9055641 L67.5930897,30.9055641 L67.5930897,98.7217529 L72.8134884,98.7217529 C75.7279734,98.7217529 78.0904983,96.3696947 78.0904983,93.468565 L78.0904983,23.266584 L59.9009302,5.15893092 Z" fill="#D3D7DE"></path>
                            <path d="M54.8180731,0.0992178421 L78.0906977,23.266584 L58.8053821,23.266584 C56.6033223,23.266584 54.8180731,21.4895924 54.8180731,19.297275 L54.8180731,0.0992178421 L54.8180731,0.0992178421 Z" fill="#DF705D"></path>
                        </g>
                        <g transform="translate(39.867110, 41.274622)" id="Path">
                            <path d="M41.6226578,11.67794 L13.319402,11.67794 L13.319402,6.43526924 C13.319402,2.9461746 16.1607309,0.117870796 19.6654485,0.117870796 L35.2766113,0.117870796 C38.7815282,0.117870796 41.6226578,2.94637304 41.6226578,6.43526924 L41.6226578,11.67794 Z" fill="#8DAE5C"></path>
                            <g transform="translate(0.000000, 6.151506)">
                                <path d="M40.5051827,51.2545482 L14.4368771,51.2545482 C11.2198007,51.2545482 8.55887043,48.7608069 8.36511628,45.564008 L5.72352159,1.98038813 L49.2187375,1.98038813 L46.5767442,45.5638096 C46.38299,48.7606085 43.7222591,51.2545482 40.5051827,51.2545482 L40.5051827,51.2545482 Z" fill="#676E84"></path>
                                <path d="M39.3470432,1.98038813 L36.3603987,51.2545482 L40.5049834,51.2545482 C43.7220598,51.2545482 46.38299,48.7608069 46.5767442,45.564008 L49.2185382,1.98038813 L39.3470432,1.98038813 Z" fill="#4A4E67"></path>
                                <path d="M51.0239203,7.73859481 L3.91813953,7.73859481 C1.79900332,7.73859481 0.0813289037,6.02847608 0.0813289037,3.91910476 C0.0813289037,1.809535 1.79920266,0.0996147134 3.91813953,0.0996147134 L51.0239203,0.0996147134 C53.1430565,0.0996147134 54.8607309,1.80973344 54.8607309,3.91910476 C54.8607309,6.02847608 53.1428571,7.73859481 51.0239203,7.73859481 Z" fill="#AED180"></path>
                                <path d="M51.0239203,0.0994162777 L44.3633223,0.0994162777 L44.3633223,7.73859481 L51.0239203,7.73859481 C53.1428571,7.73859481 54.8607309,6.02847608 54.8607309,3.91910476 C54.8607309,1.809535 53.1428571,0.0994162777 51.0239203,0.0994162777 Z" fill="#8DAE5C"></path>
                            </g>
                        </g>
                    </g>
                    <g id="Group" fill="#000000">
                        <path d="M55.5486,62.957707 L56.9756,92.4396914 C57.0142,93.2393555 57.6774,93.8619141 58.4726,93.8619141 C58.4968,93.8619141 58.5214,93.8613164 58.546,93.8601211 C59.3734,93.8204766 60.0118,93.1200234 59.972,92.2956563 L58.5452,62.8136719 C58.5054,61.9895039 57.8074,61.3545937 56.9746,61.3932422 C56.1472,61.4330859 55.5088,62.1333398 55.5486,62.957707 Z" id="Path"></path>
                        <path d="M63.9666,92.3916797 C63.9796,93.2086758 64.6486,93.8617148 65.466,93.8617148 C65.474,93.8617148 65.4824,93.8617148 65.4904,93.8617148 C66.3188,93.8483672 66.9794,93.1686328 66.9662,92.3434687 L66.4904,62.8614844 C66.4774,62.0365195 65.7984,61.3840781 64.9666,61.3915832 C64.1382,61.4047969 63.4776,62.0845312 63.4908,62.9096953 L63.9666,92.3916797 Z" id="Path"></path>
                        <path d="M72.4348,93.8617148 C72.443,93.8617148 72.4512,93.8617148 72.4594,93.8617148 C73.2764,93.8617148 73.9456,93.2084766 73.9586,92.3916797 L74.4342,62.9096953 C74.4474,62.0845312 73.7868,61.4049961 72.9584,61.3914772 C72.1268,61.3792969 71.4476,62.0365195 71.4346,62.8614844 L70.959,92.3434687 C70.9458,93.1686328 71.6064,93.8483672 72.4348,93.8617148 L72.4348,93.8617148 Z" id="Path"></path>
                        <path d="M79.3792,93.8601211 C79.4038,93.8613164 79.4282,93.8619141 79.4526,93.8619141 C80.248,93.8619141 80.911,93.2393555 80.9496,92.4396914 L82.3766,62.957707 C82.4164,62.1333398 81.778,61.4330859 80.9506,61.3932422 C80.1262,61.3563867 79.4202,61.9895039 79.38,62.8136719 L77.953,92.2956562 C77.9132,93.1200234 78.5518,93.8202773 79.3792,93.8601211 L79.3792,93.8601211 Z" id="Path"></path>
                        <path d="M41.4814,13.4223633 L11.2562,13.4223633 C10.4276,13.4223633 9.7562,14.0913398 9.7562,14.9165039 C9.7562,15.741668 10.4276,16.4106445 11.2562,16.4106445 L41.4814,16.4106445 C42.31,16.4106445 42.9814,15.741668 42.9814,14.9165039 C42.9814,14.0913398 42.31,13.4223633 41.4814,13.4223633 Z" id="Path"></path>
                        <path d="M41.4814,23.2587891 L11.2562,23.2587891 C10.4276,23.2587891 9.7562,23.9277656 9.7562,24.7529297 C9.7562,25.5780937 10.4276,26.2470703 11.2562,26.2470703 L41.4814,26.2470703 C42.31,26.2470703 42.9814,25.5780937 42.9814,24.7529297 C42.9814,23.9277656 42.31,23.2587891 41.4814,23.2587891 Z" id="Path"></path>
                        <path d="M45.6,99.0117187 L6.851,99.0117187 C4.7586,99.0117187 3.0564,97.316168 3.0564,95.2319414 L3.0564,6.76805859 C3.0564,4.68383203 4.7586,2.98828125 6.851,2.98828125 L54.901,2.98828125 L54.901,20.7681562 C54.901,23.7893086 57.3686,26.2470703 60.4016,26.2470703 L78.251,26.2470703 L78.251,36.1582031 C78.251,36.9833672 78.9224,37.6523437 79.751,37.6523437 C80.5796,37.6523437 81.251,36.9833672 81.251,36.1582031 L81.251,24.7529297 C81.251,24.3566836 81.093,23.9765742 80.8118,23.6964727 L57.4618,0.437683594 C57.1802,0.157382812 56.7988,0 56.401,0 L6.851,0 C3.1044,0 0.0564,3.03609375 0.0564,6.76805859 L0.0564,95.2319414 C0.0564,98.9639062 3.1044,102 6.851,102 L45.6,102 C46.4286,102 47.1,101.331023 47.1,100.505859 C47.1,99.6806953 46.4286,99.0117187 45.6,99.0117187 Z M57.901,20.7681562 L57.901,5.10119531 L76.1298,23.2587891 L60.4016,23.2587891 C59.0226,23.2587891 57.901,22.1415703 57.901,20.7681562 L57.901,20.7681562 Z" id="Shape"></path>
                        <path d="M92.594,47.6134805 L84.4832,47.6134805 C83.7184,44.0641992 80.5812,41.4562266 76.7942,41.4562266 L61.1312,41.4562266 C57.3442,41.4562266 54.2072,44.0641992 53.4422,47.6134805 L45.3314,47.6134805 C42.3816,47.6134805 39.9816,50.0039062 39.9816,52.9421836 C39.9816,55.8804609 42.3816,58.2710859 45.3314,58.2710859 L46.0808,58.2710859 L48.2962,94.8414727 C48.5378,98.8324219 51.8714,101.958762 55.8852,101.958762 L82.04,101.958762 C86.054,101.958762 89.3876,98.8326211 89.6292,94.8414727 L91.8446,58.2710859 L92.594,58.2710859 C95.5438,58.2710859 97.9436,55.8804609 97.9436,52.9421836 C97.9436,50.0039062 95.5438,47.6134805 92.594,47.6134805 Z M61.131,44.4445078 L76.794,44.4445078 C78.9028,44.4445078 80.686,45.7513828 81.3662,47.6134805 L56.5588,47.6134805 C57.2392,45.7513828 59.0222,44.4445078 61.131,44.4445078 L61.131,44.4445078 Z M92.594,55.2828047 L58.4738,55.2828047 C57.6452,55.2828047 56.9738,55.9517812 56.9738,56.7769453 C56.9738,57.6021094 57.6452,58.2710859 58.4738,58.2710859 L88.8392,58.2710859 L86.6348,94.6615781 C86.4886,97.0777031 84.4702,98.9704805 82.04,98.9704805 L55.885,98.9704805 C53.455,98.9704805 51.4368,97.0779023 51.2904,94.6615781 L49.086,58.2710859 L51.4946,58.2710859 C52.3232,58.2710859 52.9946,57.6021094 52.9946,56.7769453 C52.9946,55.9517812 52.3232,55.2828047 51.4946,55.2828047 L45.3314,55.2828047 C44.0356,55.2828047 42.9816,54.2327227 42.9816,52.9421836 C42.9816,51.6516445 44.0358,50.6017617 45.3314,50.6017617 L92.594,50.6017617 C93.8896,50.6017617 94.9436,51.6516445 94.9436,52.9421836 C94.9436,54.2327227 93.8894,55.2828047 92.594,55.2828047 Z" id="Shape"></path>
                    </g>
                </g>
            </g>
        </g>
    </g>
</svg>