<?xml version="1.0" encoding="UTF-8"?>
<svg width="18px" height="18px" viewBox="0 0 18 18" version="1.1" xmlns="http://www.w3.org/2000/svg" xmlns:xlink="http://www.w3.org/1999/xlink">
    <title>Due Date</title>
    <g id="Due-Date" stroke="none" stroke-width="1" fill="none" fill-rule="evenodd">
        <path d="M15.5357143,4.16493506 L12.6986597,4.16493506 L12.6986597,3.19053182 C12.6986597,2.9710513 12.5537192,2.59775606 12.1026094,2.61190967 C11.6514996,2.62606329 11.5518673,2.9710513 11.5518673,3.19053182 L11.5518673,4.16493506 L7.46232296,4.16493506 L7.46232296,3.19053182 C7.46232296,2.9710513 7.3239787,2.59805005 6.88882847,2.59805005 C6.45367824,2.59805005 6.30106614,2.9710513 6.30106614,3.19053182 L6.30106614,4.16493506 L3.46428571,4.16493506 C3.26309524,4.16493506 3.09285714,4.35064935 3.09285714,4.57012987 L3.09285714,15.5441558 C3.09285714,15.7636364 3.26309524,15.9493506 3.46428571,15.9493506 L15.5357143,15.9493506 C15.752381,15.9493506 15.9071429,15.7636364 15.9071429,15.5441558 L15.9071429,4.57012987 C15.9071429,4.35064935 15.752381,4.16493506 15.5357143,4.16493506 Z M6.29183433,5.49517747 L6.29183433,6.30537402 C6.29183433,6.52485454 6.4751219,6.83839422 6.8553422,6.84013758 C7.2355625,6.84188094 7.45814275,6.52485454 7.45814275,6.30537402 L7.45814275,5.49517747 L11.5645497,5.49517747 L11.5645497,6.30537402 C11.5645497,6.52485454 11.8100201,6.84013758 12.1800435,6.84013758 C12.550067,6.84013758 12.7361,6.52485454 12.7361,6.30537402 L12.7361,5.49517747 L14.7505532,5.49517747 L14.7505532,7.90881448 L4.18122375,7.90881448 L4.18122375,5.49517747 L6.29183433,5.49517747 Z M4.19418702,14.7560504 L4.19418702,9.14046627 L14.7752761,9.14046627 L14.7752761,14.7560504 L4.19418702,14.7560504 Z" id="Calendar_Grey_Outlined" fill="#97A3A9" fill-rule="nonzero"></path>
    </g>
</svg>