<svg xmlns="http://www.w3.org/2000/svg" width="24" height="24" viewBox="0 0 24 24">
    <g fill="none" fill-rule="evenodd">
        <g>
            <g>
                <g>
                    <path d="M0 0H24V24H0z" transform="translate(-572 -894) translate(556 854) translate(16 40)"/>
                    <path fill="#AAADB8" d="M5.806 19.5v.833h12.638V19.5h1.806v.833c0 .871-.727 1.588-1.65 1.66l-.156.007H5.806c-.944 0-1.72-.67-1.8-1.523L4 20.333V19.5h1.806zm-2.19-8.497c.759 0 1.328.165 1.708.497.38.33.57.801.57 1.411 0 .67-.197 1.188-.593 1.554-.395.365-.957.548-1.684.548H3.16v1.99H1.54v-6h2.077zm5.311 0c.758 0 1.327.165 1.707.497.38.33.57.801.57 1.411 0 .67-.197 1.188-.592 1.554-.395.365-.957.548-1.685.548h-.455v1.99H6.85v-6h2.076zm7.342 0v1.326h-1.46v4.674h-1.622v-4.674h-1.465v-1.326h4.547zm2.142 0l1.084 1.855 1.042-1.855h1.851l-1.9 3.057 2.044 2.943h-1.876l-1.17-1.876-1.157 1.876h-1.834l1.99-3.07-1.871-2.93h1.797zM3.58 12.313H3.16v1.378h.296c.243 0 .437-.068.58-.205.144-.137.216-.326.216-.567 0-.404-.225-.607-.673-.607zm5.31 0h-.418v1.378h.295c.244 0 .437-.068.58-.205.144-.137.216-.326.216-.567 0-.404-.224-.607-.673-.607zM16.11 2l4.14 4.095V8.25h-1.806v-.893h-3.61V3.786H5.805V8.25H4V3.786c0-.935.73-1.705 1.658-1.78L5.806 2H16.11z" transform="translate(-572 -894) translate(556 854) translate(16 40)"/>
                </g>
            </g>
        </g>
    </g>
</svg>
