<svg xmlns="http://www.w3.org/2000/svg" width="24" height="24" viewBox="0 0 24 24">
    <g fill="none" fill-rule="evenodd">
        <g>
            <g>
                <g>
                    <path d="M0 0H24V24H0z" transform="translate(-572 -978) translate(556 938) translate(16 40)"/>
                    <path fill="#AAADB8" d="M5.806 19.5v.833h12.638V19.5h1.806v.833c0 .871-.727 1.588-1.65 1.66l-.156.007H5.806c-.944 0-1.72-.67-1.8-1.523L4 20.333V19.5h1.806zm12.338-8.593c.254 0 .491.02.713.062.222.041.427.098.616.171.19.073.364.16.524.262.158.1.302.212.464.394l.004.227-.346.532c-.085.136-.205.225-.35.257-.146.032-.296-.001-.446-.092-.091-.056-.18-.105-.267-.15-.082-.04-.17-.077-.263-.109-.092-.03-.193-.054-.303-.07-.11-.017-.241-.026-.39-.026-.24 0-.454.04-.644.122-.188.08-.347.193-.479.34-.132.147-.235.326-.308.538-.075.216-.112.46-.112.731 0 .295.041.555.123.782.08.223.192.409.335.559.142.15.313.263.513.342.204.08.433.12.688.12.174 0 .326-.017.458-.05.092-.025.183-.054.273-.09v-.602h-.431c-.133 0-.249-.04-.336-.123-.09-.084-.137-.196-.137-.322l.03-.739.195-.154 2.063.03.154.195-.01 2.441-.082.137c-.317.23-.655.4-1.015.508-.355.106-.731.159-1.126.159-.504 0-.963-.079-1.376-.237-.415-.159-.771-.38-1.068-.666-.297-.286-.527-.625-.688-1.016-.16-.39-.241-.816-.241-1.274 0-.462.076-.889.23-1.278.154-.392.374-.73.66-1.014.287-.283.632-.504 1.035-.662.401-.157.848-.235 1.34-.235zm-12.328.064l.07.03.155.195-.03 5.875-.195.154-1.279-.03L4.383 17l.03-5.875.195-.154h1.208zm2.528 0l.151.004c.063.005.12.017.173.037.06.024.114.06.161.107.042.042.08.095.114.16l1.69 3.224 1.684-3.224c.035-.067.075-.121.12-.164.048-.045.1-.08.159-.103.053-.02.11-.032.176-.037l.073-.003 1.058.028.154.196-.03 5.875-.195.154-1.13-.03-.155-.195v-3.102l-1.208 2.29c-.129.247-.345.381-.619.381h-.168c-.134 0-.257-.033-.365-.099-.109-.066-.195-.163-.254-.281l-1.22-2.31-.025 3.192-.196.154-1.13-.03L7.206 17l.03-5.875.195-.154h.912zM16.11 2l4.14 4.095V8.25h-1.806v-.893h-3.61V3.786H5.805V8.25H4V3.786c0-.935.73-1.705 1.658-1.78L5.806 2H16.11z" transform="translate(-572 -978) translate(556 938) translate(16 40)"/>
                </g>
            </g>
        </g>
    </g>
</svg>
