<?xml version="1.0" encoding="UTF-8"?>
<svg width="43px" height="45px" viewBox="0 0 43 45" version="1.1" xmlns="http://www.w3.org/2000/svg" xmlns:xlink="http://www.w3.org/1999/xlink">
    <title>good-work-icon</title>
    <g id="Sprint" stroke="none" stroke-width="1" fill="none" fill-rule="evenodd">
        <g id="Sprint-empty-screen-list" transform="translate(-209.000000, -243.000000)" fill-rule="nonzero">
            <g id="good-work-icon" transform="translate(209.000000, 243.599010)">
                <path d="M39,24.4014879 C39,34.8945578 30.492572,43.4009901 19.9995022,43.4009901 C17.425436,43.4009901 14.9715106,42.8892302 12.7336396,41.961292 C6.61608395,39.4273834 2.11014068,33.790059 1.17855174,27.0127248 C1.06040223,26.1594596 1,25.2872773 1,24.4014879 C1,13.9074225 9.50643232,5.4009901 19.9995022,5.4009901 C30.492572,5.4009901 39,13.9074225 39,24.4014879 Z" id="Path" fill="#937DE2"></path>
                <path d="M18.9593192,5.4009901 C17.9525919,5.4009901 16.9644893,5.47964579 16,5.62965583 C25.1100999,7.04844554 32.0816944,14.9120251 32.0816944,24.4014879 C32.0816944,33.8896232 25.1107651,41.7528709 16.0016629,43.1719925 C16.965487,43.3220026 17.9529245,43.4009901 18.9593192,43.4009901 C29.4745801,43.4009901 38,34.8945578 38,24.4014879 C38,13.9074225 29.4745801,5.4009901 18.9593192,5.4009901 Z" id="Path" fill="#7570D6"></path>
                <path d="M40.8896006,23.0993454 L29.9548458,30.2983016 C29.1758466,30.8114201 28.2322841,31.0149383 27.3097938,30.8682855 C26.3852966,30.7219653 25.4393928,30.9228231 24.6583867,31.4369392 L23.1950455,32.4009901 L15,20.3910906 L17.0105473,11.7552031 C17.167083,11.0831276 17.2443474,10.4017408 17.2443474,9.72301435 C17.2443474,7.96717138 16.7279134,6.23394153 15.7371895,4.74613069 C15.4936895,4.38033007 15.3772912,3.96631021 15.3772912,3.55794378 C15.3772912,2.85926454 15.7181243,2.17421974 16.3479464,1.75953492 C17.1968515,1.20019247 18.3220355,1.30427935 19.05287,2.00894439 L20.3553273,3.26330797 C21.8450922,4.70023929 22.9940242,6.44976396 23.7158277,8.38451665 L24.4222453,10.2750407 L31.6954693,5.49735216 C32.8571114,4.73282885 34.4288235,5.06703757 35.1703612,6.24990374 C35.8858097,7.38953896 35.5185528,8.89530734 34.391362,9.63721752 C34.3776484,9.6461962 34.3769794,9.6604957 34.3813276,9.67146979 C34.3876827,9.68310883 34.4013964,9.69142246 34.4167823,9.68510415 C34.7040989,9.57469887 35.0047946,9.52149151 35.3031491,9.52149151 C35.7791112,9.52149151 36.2510597,9.65783533 36.6547746,9.91722123 C36.9327259,10.096131 37.1789017,10.3339015 37.3735678,10.6255443 C37.7488522,11.1895423 37.8609023,11.8509763 37.7381489,12.4655214 C37.545155,13.4342279 36.8373996,13.9330469 36.6982567,14.0271575 C36.6745088,14.0434522 36.6681538,14.0757092 36.6845432,14.1003176 C36.6845432,14.1013153 36.6855466,14.1019803 36.6865501,14.1019803 C36.701936,14.1239284 36.7337114,14.1302468 36.7564559,14.1156147 C36.9544669,14.0677281 37.1561571,14.045115 37.3581819,14.045115 C37.8505335,14.045115 38.3405437,14.1844517 38.7569688,14.4481607 C39.0385994,14.6270705 39.2877854,14.8638433 39.4804448,15.1538234 C40.2366995,16.2888029 39.9239626,17.8188472 38.7813857,18.5707338 C38.7532896,18.5896889 38.7251934,18.608644 38.6970973,18.6266015 C38.6807079,18.6395708 38.6760251,18.6601886 38.6843871,18.6748206 C38.6860595,18.6781461 38.6897388,18.6818041 38.6934181,18.6837994 C38.7061282,18.6937757 38.7261969,18.6944409 38.7425863,18.6818041 C39.4523486,18.4413733 40.2249927,18.550781 40.8467874,18.9511664 C41.1331005,19.1337341 41.3866348,19.3794857 41.5873216,19.6814375 C42.3435764,20.8177472 42.0311739,22.3474589 40.8896006,23.0993454 L40.8896006,23.0993454 Z" id="Path" fill="#FDD7BD"></path>
                <path d="M23.4818123,35.0932137 L18.9568386,38.0835772 L12.4238278,42.4009901 C6.37576456,39.9007804 1.92100656,34.3394837 1,27.6528307 L8.58165235,22.6425886 L13.1968564,19.592634 C13.7280676,19.2409806 14.4449893,19.3870117 14.7970519,19.9180935 L23.8079542,33.4950572 C24.1603451,34.0264664 24.0140077,34.7409056 23.4818123,35.0932137 L23.4818123,35.0932137 Z" id="Path" fill="#87DBFF"></path>
                <path d="M23.4622638,34.359821 L18.7665869,37.4009901 L8,21.6976626 L12.7893112,18.59589 C13.3405621,18.2382621 14.0845295,18.3867742 14.4498736,18.9268789 L23.8007093,32.7345122 C24.166394,33.2749499 24.0145361,34.0015272 23.4622638,34.359821 L23.4622638,34.359821 Z" id="Path" fill="#6FC7FF"></path>
                <g id="Group" transform="translate(32.000000, 9.400990)" fill="#FAC5AA">
                    <path d="M4.92411224,0.416441474 L1.44747867,2.29705126 C0.954012764,2.56326367 0.342613636,2.42434211 0.0108664364,1.97042413 L2.75177553,0.177690361 C2.75784799,0.189320917 2.77095175,0.197074677 2.78565341,0.190936346 C3.06019178,0.0836760075 3.34751416,0.0319842782 3.63259947,0.0319842782 C4.08771311,0.0319842782 4.53835227,0.164767429 4.92411224,0.416441474 L4.92411224,0.416441474 Z" id="Path"></path>
                    <path d="M6.9328125,4.81863841 L3.53192474,6.6569255 C3.03845883,6.92378409 2.42705962,6.78518558 2.0953125,6.3312676 L4.83622159,4.53853383 L4.95447447,4.48231904 C4.96917614,4.50364192 4.99953837,4.50978033 5.02127133,4.49556511 C5.21079545,4.44904255 5.40351565,4.42707356 5.59623584,4.42707356 C6.06700996,4.42707356 6.53522727,4.56211817 6.9328125,4.81863841 Z" id="Path"></path>
                    <path d="M8.9296875,9.19337406 L5.93405542,10.8132637 C5.44186792,11.0791529 4.83014913,10.9405545 4.49776276,10.4866365 L6.87208811,8.93362312 C6.88423295,8.94331528 6.90340909,8.94396147 6.91906958,8.93168472 C7.59726565,8.6981027 8.33554685,8.8043938 8.9296875,9.19337406 Z" id="Path"></path>
                </g>
                <path d="M42.4753798,18.8220922 C42.0225357,18.1489044 41.3361053,17.6850216 40.5380466,17.5091792 C41.0528694,16.5397495 41.0318766,15.3301768 40.3761023,14.3554981 C39.9095962,13.6616423 39.2058385,13.2135066 38.4397689,13.0438974 C38.5763885,12.7873512 38.6773537,12.510465 38.7376663,12.2184879 C38.9049421,11.406529 38.7416649,10.579151 38.276825,9.88857592 C37.8239808,9.21506014 37.1375504,8.75117732 36.3394918,8.57566303 C36.8543146,7.6062333 36.8333218,6.39666057 36.1775475,5.42165377 C35.2188775,3.99621484 33.2602184,3.6041781 31.8120501,4.54834683 L28.6764628,6.59284292 C27.0050381,5.7582476 25.2273166,5.16609174 23.3822851,4.82884174 C22.7991524,3.95717518 22.1210525,3.14685657 21.3619804,2.42249081 L20.0647603,1.1847046 C19.1147539,0.277935155 17.6249334,0.141788491 16.5219797,0.861233345 C15.2170956,1.7119038 14.8585523,3.4493318 15.7225882,4.73403121 C15.7565766,4.78488118 15.7898983,4.83605919 15.822887,4.88723721 C11.570684,5.73429893 7.69535127,7.9559497 4.82700523,11.2113308 C1.71440987,14.7442541 0,19.2689156 0,23.951704 C0,24.8492877 0.0623119066,25.7485116 0.18560276,26.6237869 C1.13560912,33.4281665 5.73935782,39.291986 12.1998008,41.9273257 C14.5956427,42.904957 17.1377678,43.4009901 19.7545337,43.4009901 C23.8987739,43.4009901 27.8657418,42.1513936 31.2269182,39.787691 C34.5151197,37.4748384 36.9752729,34.2831018 38.3418026,30.5576047 C38.4694253,30.2105128 38.2864883,29.8270058 37.9339429,29.7016852 C37.5810645,29.5763647 37.1918651,29.7561439 37.0645755,30.1035639 C35.7920135,33.5728427 33.500469,36.5451045 30.4371901,38.699502 C27.3079338,40.9004847 23.613872,42.0638004 19.7545337,42.0638004 C17.7592205,42.0638004 15.8108911,41.7537798 13.9461996,41.1422681 L19.4716311,37.5397951 C19.4719643,37.539467 19.4722975,37.539467 19.4726308,37.539139 C19.472964,37.539139 19.472964,37.5388109 19.4732972,37.5384828 L24.0653832,34.544569 L24.0657165,34.544569 C24.4779079,34.2755563 24.7594777,33.8648199 24.8581104,33.3874865 C24.9567431,32.9101531 24.8607761,32.4233058 24.5875369,32.0174904 L24.5268911,31.9269447 L25.4189174,31.3452869 C26.0553649,30.9302857 26.8207681,30.7675658 27.5745087,30.8866532 C28.6657998,31.0592149 29.7740849,30.8230087 30.6951012,30.2223231 L38.0938879,25.3984671 C38.0432387,26.0303188 37.959934,26.6585617 37.8436407,27.2763066 C37.7749977,27.6394737 38.0185805,27.988534 38.3874535,28.0557871 C38.4291059,28.0636607 38.4710914,28.0672694 38.5120773,28.0672694 C38.8329669,28.0672694 39.118202,27.8422174 39.1788478,27.5203863 C39.3671164,26.5233992 39.4754124,25.5021354 39.5034028,24.4795593 L41.5883518,23.1200612 C42.289777,22.6627397 42.7686122,21.963635 42.9358879,21.1520041 C43.1034969,20.3400452 42.9398866,19.5126673 42.4753798,18.8220922 L42.4753798,18.8220922 Z M27.3579167,7.45237121 L25.2829642,8.80530789 L24.8744381,7.7217119 C24.7038301,7.26963939 24.5082309,6.82642463 24.2916387,6.3927238 C25.3442764,6.65550321 26.3692569,7.00981254 27.3579167,7.45237121 Z M5.85298535,12.0875903 C8.60970321,8.95884202 12.364744,6.85562241 16.4726634,6.12633567 C17.1317698,7.69841932 17.2897155,9.45487509 16.895851,11.1289866 L15.2400876,18.1715408 C14.9798439,17.8979353 14.6419601,17.7092984 14.2614245,17.6331875 C13.7762582,17.5357525 13.2820949,17.630563 12.8699035,17.8995756 L8.17985112,20.957134 C8.17951793,20.957134 8.17951793,20.957134 8.17918464,20.957462 C8.17918464,20.957462 8.17885145,20.957462 8.17885145,20.9577901 L1.4145131,25.3679571 C1.37752589,24.8981692 1.35819917,24.4247725 1.35819917,23.951704 C1.35819917,19.5910747 2.95464968,15.3774181 5.85298535,12.0875903 Z M23.5272352,33.1207703 C23.5009109,33.2480592 23.4256034,33.3579608 23.3153081,33.4298068 L23.3156413,33.4298068 L19.2823629,36.0592413 L11.7966062,25.0681065 C11.5876782,24.7613665 11.1658233,24.6796785 10.854264,24.8853747 C10.5430377,25.091071 10.4597331,25.5060722 10.6686611,25.8128122 L18.1497528,36.7977139 L12.3920679,40.5517525 C6.67070393,38.0879904 2.57644651,32.8848921 1.59211861,26.8304673 L8.36445429,22.4294861 L9.14385262,23.5744301 C9.27514081,23.7666758 9.48973361,23.8706721 9.70865823,23.8706721 C9.83861355,23.8706721 9.97023484,23.834257 10.0861949,23.75749 C10.3977544,23.5517937 10.4810591,23.1364645 10.272131,22.8297244 L9.49806406,21.692982 L13.6199786,19.0143378 C13.7296076,18.9424918 13.8612289,18.9175588 13.9905177,18.9434759 C14.1198066,18.969393 14.2314348,19.0435354 14.3044097,19.1517967 L23.45526,32.7559629 C23.5279016,32.863896 23.5535594,32.9934814 23.5272352,33.1207703 L23.5272352,33.1207703 Z M41.6050127,20.885616 C41.5097122,21.3475303 41.2374726,21.7451442 40.8382766,22.0052991 L38.4547637,23.5593392 C38.4540972,23.5596673 38.4534308,23.5603234 38.4524311,23.5606515 L29.9450261,29.107561 C29.3085785,29.5225622 28.5431753,29.6856101 27.7894347,29.5661947 C26.6984769,29.393961 25.5901917,29.6298392 24.6688422,30.2305248 L23.7768159,30.8121826 L16.2820623,19.6701381 L18.2193954,11.4308057 C18.7182238,9.30823037 18.4553142,7.07247283 17.5049747,5.12475569 C17.496311,5.10441567 17.4869809,5.08473182 17.4763179,5.06537601 C17.2937141,4.69728802 17.0864521,4.34002612 16.8548652,3.99555867 C16.4043536,3.32565162 16.5912892,2.4198663 17.2720548,1.97599546 C17.8471902,1.60101805 18.6242561,1.67187992 19.119419,2.1446205 L20.4166392,3.38273475 C21.8198228,4.7222209 22.9211105,6.38353801 23.6008765,8.18723502 L24.3073,10.0608096 C24.3086329,10.0644183 24.3099658,10.0673709 24.3112986,10.0706516 C24.3129647,10.0749164 24.314964,10.0795093 24.3166301,10.0837741 C24.3216284,10.0952564 24.3262934,10.1057545 24.3312917,10.1146121 C24.3449537,10.1428257 24.3599485,10.1707111 24.3779424,10.1972843 C24.5852043,10.5053366 25.0063927,10.5896491 25.3189518,10.3855932 L32.5621253,5.66343707 C33.3858418,5.12639599 34.4997917,5.3491516 35.0452706,6.16012631 C35.5907495,6.97110101 35.364494,8.06781957 34.5407775,8.60486073 L33.911994,9.01494093 C33.911994,9.01494093 33.9116607,9.01494093 33.9113275,9.01526898 L32.5088103,9.92991205 C32.506811,9.93122422 32.5054782,9.93253657 32.5034788,9.9335207 C32.4954816,9.93909777 32.4878175,9.94434679 32.4814864,9.94959582 C32.1915862,10.1592289 32.116612,10.5578269 32.3175428,10.8563654 C32.5244716,11.1644176 32.9459932,11.2487301 33.2588855,11.0446742 L34.6624024,10.1293751 C35.0612651,9.86987628 35.5387674,9.77834635 36.007606,9.87217275 C36.4764447,9.96599907 36.8806388,10.2340275 37.144548,10.6270485 C37.4087904,11.0197413 37.5020916,11.4905134 37.4067911,11.9520997 C37.3114905,12.4140141 37.0392509,12.811628 36.640055,13.0717829 L34.6080877,14.3968342 C34.2951954,14.600562 34.2095582,15.0152352 34.4168203,15.3232875 C34.547442,15.5175015 34.7633677,15.6228101 34.9836252,15.6228101 C35.1122475,15.6228101 35.242536,15.586723 35.3578297,15.5115963 L35.6723881,15.3065562 L36.7606801,14.5969533 C37.5847298,14.0599122 38.6983465,14.2826678 39.2438254,15.0936425 C39.7893043,15.9049453 39.5630488,17.0013358 38.7393324,17.538705 L37.7243484,18.2004105 C37.7190169,18.2036911 37.7136854,18.2072998 37.7083539,18.2109086 L36.7073652,18.8634282 C36.3944728,19.0671561 36.3088357,19.4821573 36.5160976,19.7902097 C36.6467193,19.9844237 36.862645,20.0897322 37.0829026,20.0897322 C37.2115249,20.0897322 37.3418134,20.0536451 37.457107,19.9785185 L37.7716654,19.7734784 C37.7716654,19.7734784 37.7716654,19.7731502 37.7719987,19.7731502 L38.8602908,19.0638755 C39.2591534,18.8037206 39.736989,18.7118626 40.2061609,18.8060171 C40.6753327,18.8995153 41.0791937,19.1678718 41.343436,19.5605646 C41.6073452,19.9532575 41.7003132,20.4240296 41.6050127,20.885616 Z" id="Shape" fill="#000000"></path>
            </g>
        </g>
    </g>
</svg>