<svg xmlns="http://www.w3.org/2000/svg" width="80" height="80" viewBox="0 0 80 80">
    <g fill="none" fill-rule="evenodd">
        <path d="M0 0H80V80H0z"/>
        <path fill="#E5E6E9" fill-rule="nonzero" d="M25.17 22.985c1.718 0 3.123 1.405 3.123 3.122v1.25c-2.758 1.196-4.683 3.954-4.683 7.128v16.338c0 1.3.364 2.549.936 3.642v.728c0 1.718-1.405 3.122-3.122 3.122h-6.556c-1.717 0-3.122-1.404-3.122-3.122V42.705h-.624C9.352 42.705 8 41.301 8 39.584V26.107c0-1.717 1.405-3.122 3.122-3.122zm43.551-.052c1.718 0 3.122 1.405 3.122 3.122V39.48c0 1.717-1.404 3.122-3.122 3.122h-.623v12.487c0 1.718-1.405 3.122-3.122 3.122H58.42c-1.718 0-3.122-1.404-3.122-3.122v-.728c.623-1.093.936-2.341.936-3.642V34.433c0-3.174-1.925-5.932-4.683-7.129v-1.249c0-1.717 1.405-3.122 3.122-3.122zM18.146 8.052c3.477 0 6.296 2.819 6.296 6.296 0 3.477-2.819 6.296-6.296 6.296-3.477 0-6.296-2.819-6.296-6.296 0-3.477 2.82-6.296 6.296-6.296zm43.604 0c3.477 0 6.296 2.819 6.296 6.296 0 3.477-2.82 6.296-6.296 6.296-3.478 0-6.296-2.819-6.296-6.296 0-3.477 2.818-6.296 6.296-6.296z"/>
        <path fill="#CDD0D8" fill-rule="nonzero" d="M48.481 31.363c1.717 0 3.122 1.404 3.122 3.122V50.77c0 1.718-1.405 3.122-3.122 3.122h-1.196V68.67c0 1.717-1.405 3.122-3.122 3.122h-8.378c-1.717 0-3.122-1.405-3.122-3.122V53.944h-1.196c-1.717 0-3.122-1.405-3.122-3.122V34.484l.005-.176c.089-1.636 1.409-2.946 3.117-2.945zm-8.533-17.067c3.994 0 7.232 3.238 7.232 7.232 0 3.995-3.238 7.233-7.232 7.233s-7.233-3.238-7.233-7.233c0-3.994 3.239-7.232 7.233-7.232z"/>
    </g>
</svg>
