<svg xmlns="http://www.w3.org/2000/svg" width="80" height="80" viewBox="0 0 80 80">
    <g fill="none" fill-rule="evenodd">
        <path d="M0 0H80V80H0z"/>
        <path fill="#CDD0D8" d="M65.467 21.642H52.86v-2.52c0-2.782-2.262-5.043-5.043-5.043H32.691c-2.781 0-5.043 2.261-5.043 5.042v2.521H15.042c-2.78 0-5.042 2.262-5.042 5.043v7.563c0 2.782 2.261 5.043 5.042 5.043h20.17v-1.26c0-.698.564-1.261 1.26-1.261h7.564c.697 0 1.261.563 1.261 1.26v1.26h20.17c2.78 0 5.042-2.26 5.042-5.042v-7.563c0-2.781-2.261-5.043-5.042-5.043zm-17.649 0H32.691v-2.52h15.127v2.52z"/>
        <path fill="#E5E6E9" fill-rule="nonzero" d="M69.81 41.597c-.43-.213-.943-.164-1.322.124-.897.678-1.94 1.037-3.021 1.037h-20.17v3.781c0 .697-.564 1.261-1.26 1.261h-7.564c-.697 0-1.26-.564-1.26-1.26v-3.782h-20.17c-1.081 0-2.125-.359-3.022-1.037-.38-.29-.892-.34-1.322-.124-.428.213-.699.65-.699 1.129v17.68c0 2.781 2.261 5.043 5.042 5.043h50.425c2.78 0 5.042-2.262 5.042-5.043v-17.68c0-.48-.27-.916-.7-1.13z"/>
    </g>
</svg>
