<svg xmlns="http://www.w3.org/2000/svg" width="22" height="22" viewBox="0 0 22 22">
    <g fill="none" fill-rule="evenodd">
        <g>
            <g>
                <g>
                    <path d="M0 0H22V22H0z" transform="translate(-957.000000, -310.000000) translate(957.000000, 277.000000) translate(0.000000, 33.000000)"/>
                    <path fill="#AAADB8" d="M11 1.833c5.063 0 9.167 4.104 9.167 9.167S16.063 20.167 11 20.167 1.833 16.063 1.833 11 5.937 1.833 11 1.833zm0 1.834C6.95 3.667 3.667 6.95 3.667 11c0 4.05 3.283 7.333 7.333 7.333 4.05 0 7.333-3.283 7.333-7.333 0-4.05-3.283-7.333-7.333-7.333zM11 5.5c.506 0 .917.41.917.917v4.25l2.731 3.255c.326.388.275.966-.113 1.291-.387.326-.966.275-1.291-.113l-2.946-3.51c-.051-.063-.09-.123-.121-.187-.044-.09-.071-.181-.085-.273 0-.01-.002-.02-.003-.029-.003-.026-.005-.05-.005-.076V6.417c0-.507.41-.917.916-.917z" transform="translate(-957.000000, -310.000000) translate(957.000000, 277.000000) translate(0.000000, 33.000000)"/>
                </g>
            </g>
        </g>
    </g>
</svg>
