<svg xmlns="http://www.w3.org/2000/svg" width="24" height="24" viewBox="0 0 24 24">
    <g fill="none" fill-rule="evenodd">
        <g>
            <g>
                <g>
                    <path d="M0 0L24 0 24 24 0 24z" transform="translate(-1081.000000, -309.000000) translate(1081.000000, 276.000000) translate(0.000000, 33.000000)"/>
                    <g>
                        <path d="M0 0L24 0 24 24 0 24z" transform="translate(-1081.000000, -309.000000) translate(1081.000000, 276.000000) translate(0.000000, 33.000000)"/>
                        <path fill="#AAADB8" d="M9 16.2l-3.5-3.5c-.39-.39-1.01-.39-1.4 0-.39.39-.39 1.01 0 1.4l4.19 4.19c.39.39 1.02.39 1.41 0L20.3 7.7c.39-.39.39-1.01 0-1.4-.39-.39-1.01-.39-1.4 0L9 16.2z" transform="translate(-1081.000000, -309.000000) translate(1081.000000, 276.000000) translate(0.000000, 33.000000)"/>
                    </g>
                </g>
            </g>
        </g>
    </g>
</svg>
