<svg xmlns="http://www.w3.org/2000/svg" width="80" height="80" viewBox="0 0 80 80">
    <g fill="none" fill-rule="evenodd">
        <path d="M0 0H80V80H0z"/>
        <path fill="#CDD0D8" d="M62 25v33.635C62 59.39 61.389 60 60.635 60h-49.27C10.61 60 10 59.389 10 58.635V25h52zm-1.365-13c.754 0 1.365.611 1.365 1.365V22H10v-8.635c0-.754.611-1.365 1.365-1.365h49.27zM15.5 15.5c-.828 0-1.5.672-1.5 1.5s.672 1.5 1.5 1.5S17 17.828 17 17s-.672-1.5-1.5-1.5zm5 0c-.828 0-1.5.672-1.5 1.5s.672 1.5 1.5 1.5S22 17.828 22 17s-.672-1.5-1.5-1.5zm5 0c-.828 0-1.5.672-1.5 1.5s.672 1.5 1.5 1.5S27 17.828 27 17s-.672-1.5-1.5-1.5z"/>
        <path fill="#E5E6E9" d="M21 63v3c0 1.105.895 2 2 2h45c1.105 0 2-.895 2-2V21c0-1.105-.895-2-2-2h-3v42.836C65 62.48 64.479 63 63.836 63H21z"/>
    </g>
</svg>
