<?xml version="1.0" encoding="UTF-8"?>
<svg width="18px" height="18px" viewBox="0 0 18 18" version="1.1" xmlns="http://www.w3.org/2000/svg" xmlns:xlink="http://www.w3.org/1999/xlink">
    <title>Indicator_Percentage Warning_Variant 2</title>
    <g id="Indicator_Percentage-Warning_Variant-2" stroke="none" stroke-width="1" fill="none" fill-rule="evenodd">
        <path d="M6.488,9.172 C6.97933333,9.172 7.36983333,9.04366667 7.6595,8.787 C7.94916667,8.53033333 8.105,8.182 8.127,7.742 C8.14166667,7.55133333 8.149,7.3845 8.149,7.2415 C8.149,7.0985 8.14166667,6.92433333 8.127,6.719 C8.105,6.279 7.9565,5.92333333 7.6815,5.652 C7.4065,5.38066667 7.00866667,5.245 6.488,5.245 C5.97466667,5.245 5.5805,5.38066667 5.3055,5.652 C5.0305,5.92333333 4.87833333,6.279 4.849,6.719 C4.84166667,6.92433333 4.838,7.0985 4.838,7.2415 C4.838,7.3845 4.84166667,7.55133333 4.849,7.742 C4.87833333,8.182 5.036,8.53033333 5.322,8.787 C5.608,9.04366667 5.99666667,9.172 6.488,9.172 Z M6.169,13 C6.27166667,13 6.34683333,12.9816667 6.3945,12.945 C6.44216667,12.9083333 6.49166667,12.857 6.543,12.791 L6.543,12.791 L11.966,5.641 C11.9953333,5.60433333 12.01,5.564 12.01,5.52 C12.01,5.37333333 11.933,5.3 11.779,5.3 L11.779,5.3 L11.196,5.3 C11.1006667,5.3 11.0273333,5.31833333 10.976,5.355 C10.9246667,5.39166667 10.8733333,5.443 10.822,5.509 L10.822,5.509 L5.399,12.659 C5.36966667,12.6956667 5.355,12.736 5.355,12.78 C5.355,12.9266667 5.432,13 5.586,13 L5.586,13 L6.169,13 Z M6.488,8.358 C6.334,8.358 6.21116667,8.325 6.1195,8.259 C6.02783333,8.193 5.96183333,8.10866667 5.9215,8.006 C5.88116667,7.90333333 5.85733333,7.797 5.85,7.687 C5.84266667,7.50366667 5.839,7.34783333 5.839,7.2195 C5.839,7.09116667 5.84266667,6.94266667 5.85,6.774 C5.85733333,6.60533333 5.90866667,6.45133333 6.004,6.312 C6.09933333,6.17266667 6.26066667,6.103 6.488,6.103 C6.72266667,6.103 6.88766667,6.17266667 6.983,6.312 C7.07833333,6.45133333 7.12966667,6.60533333 7.137,6.774 C7.15166667,6.94266667 7.159,7.09116667 7.159,7.2195 C7.159,7.34783333 7.15166667,7.50366667 7.137,7.687 C7.137,7.797 7.115,7.90333333 7.071,8.006 C7.027,8.10866667 6.95916667,8.193 6.8675,8.259 C6.77583333,8.325 6.64933333,8.358 6.488,8.358 Z M10.877,13.066 C11.3683333,13.066 11.7588333,12.9303333 12.0485,12.659 C12.3381667,12.3876667 12.494,12.032 12.516,11.592 C12.5306667,11.4013333 12.538,11.2363333 12.538,11.097 C12.538,10.9576667 12.5306667,10.7853333 12.516,10.58 C12.494,10.14 12.3455,9.78433333 12.0705,9.513 C11.7955,9.24166667 11.3976667,9.106 10.877,9.106 C10.3636667,9.106 9.9695,9.24166667 9.6945,9.513 C9.4195,9.78433333 9.26733333,10.14 9.238,10.58 C9.23066667,10.7853333 9.227,10.9576667 9.227,11.097 C9.227,11.2363333 9.23066667,11.4013333 9.238,11.592 C9.26733333,12.032 9.425,12.3876667 9.711,12.659 C9.997,12.9303333 10.3856667,13.066 10.877,13.066 Z M10.877,12.208 C10.723,12.208 10.6001667,12.175 10.5085,12.109 C10.4168333,12.043 10.3508333,11.9586667 10.3105,11.856 C10.2701667,11.7533333 10.2426667,11.6506667 10.228,11.548 C10.2206667,11.3646667 10.217,11.2088333 10.217,11.0805 C10.217,10.9521667 10.2206667,10.8036667 10.228,10.635 C10.2426667,10.459 10.2976667,10.3013333 10.393,10.162 C10.4883333,10.0226667 10.6496667,9.953 10.877,9.953 C11.1116667,9.953 11.2766667,10.0226667 11.372,10.162 C11.4673333,10.3013333 11.5186667,10.459 11.526,10.635 C11.5406667,10.8036667 11.548,10.9521667 11.548,11.0805 C11.548,11.2088333 11.5406667,11.3646667 11.526,11.548 C11.526,11.6506667 11.504,11.7533333 11.46,11.856 C11.416,11.9586667 11.3481667,12.043 11.2565,12.109 C11.1648333,12.175 11.0383333,12.208 10.877,12.208 Z" id="%" fill="#FF005D" fill-rule="nonzero"></path>
        <path d="M9,1 C13.418278,1 17,4.581722 17,9 C17,13.418278 13.418278,17 9,17 C4.581722,17 1,13.418278 1,9 C1,4.581722 4.581722,1 9,1 Z M9,2 C5.13400675,2 2,5.13400675 2,9 C2,12.8659932 5.13400675,16 9,16 C12.8659932,16 16,12.8659932 16,9 C16,5.13400675 12.8659932,2 9,2 Z" id="Combined-Shape" fill="#FF005D" fill-rule="nonzero"></path>
    </g>
</svg>