<?xml version="1.0" encoding="UTF-8"?>
<svg width="110px" height="105px" viewBox="0 0 110 105" version="1.1" xmlns="http://www.w3.org/2000/svg" xmlns:xlink="http://www.w3.org/1999/xlink">
    <title>issues_icon</title>
    <g id="Project-Dashboard---Web" stroke="none" stroke-width="1" fill="none" fill-rule="evenodd" opacity="0.5">
        <g id="Project_Dashboard_Empty_Screen" transform="translate(-837.000000, -698.000000)" fill="#CBD2D5" fill-rule="nonzero">
            <g id="issues_icon" transform="translate(891.708375, 750.346113) rotate(-20.000000) translate(-891.708375, -750.346113) translate(847.708375, 711.346113)">
                <g id="Group" transform="translate(0.251559, 0.573338)">
                    <path d="M9.50882812,77 C8.17494141,77 6.88863281,76.7330667 5.68558594,76.2043333 C4.54371094,75.7012667 3.52927734,74.9894444 2.66947266,74.0876889 C1.82666016,73.2047556 1.16566406,72.1815111 0.705175781,71.0504667 C0.237890625,69.9006 0.00169921875,68.6942667 -4.33500085e-06,67.4622667 C-0.00169921875,65.7118 0.496171875,63.9835778 1.4409375,62.4606889 L35.4049219,4.52246667 L35.4287109,4.48311111 C36.3106055,3.06631111 37.5425391,1.90617778 38.9919727,1.12762222 C40.3666406,0.390133333 41.9163281,-7.90281421e-15 43.4745117,-7.90281421e-15 L43.4999957,-7.90281421e-15 L43.5254883,-7.90281421e-15 C45.0836719,-7.90281421e-15 46.6333594,0.390133333 48.0080273,1.12762222 C49.4574609,1.90617778 50.6893945,3.06631111 51.5712891,4.48311111 L51.5950781,4.52246667 L73.2533203,41.4687778 L73.2533203,41.4704889 C73.4844141,41.8640444 73.5489844,42.3243333 73.4351367,42.7658 C73.3212891,43.2089778 73.0443164,43.5802889 72.6534961,43.813 C72.3918164,43.9687111 72.0944531,44.0508444 71.7919922,44.0508444 C71.192168,44.0508444 70.6314258,43.7274444 70.3272656,43.2089778 L48.6860156,6.29175556 C47.5475391,4.47626667 45.6563086,3.43077778 43.4999957,3.42222222 C41.3487891,3.43077778 39.460957,4.47284444 38.3207812,6.27977778 L4.35509766,64.2214222 L4.33130859,64.2607778 C3.71449219,65.2549333 3.40013672,66.3312222 3.3984375,67.4622667 C3.39673828,69.0210889 4.02375,70.5713556 5.11804687,71.7143778 C6.28710937,72.9292667 7.81130859,73.5743556 9.52412109,73.5777778 L77.4758789,73.5777778 C79.1886914,73.5743556 80.7111914,72.9292667 81.8802539,71.7143778 C82.97625,70.5713556 83.6032617,69.0210889 83.6015625,67.4622667 C83.5998633,66.3329333 83.2855078,65.2549333 82.6669922,64.2607778 L82.6449023,64.2214222 L78.1011914,56.4700889 C77.8700977,56.0765333 77.8055273,55.6162444 77.919375,55.1730667 C78.0315234,54.7316 78.3101953,54.3585778 78.7010156,54.1275778 C78.9626953,53.9718667 79.2600586,53.8897333 79.5625195,53.8897333 C80.1623437,53.8897333 80.7230859,54.2114222 81.0272461,54.7298889 L85.5624609,62.4675333 C86.5055273,63.987 87.0016992,65.7135111 86.9999957,67.4622667 C86.9983008,68.6942667 86.7621094,69.9006 86.2948242,71.0504667 C85.8343359,72.1815111 85.1733398,73.2047556 84.3288281,74.0876889 C83.4707227,74.9894444 82.4562891,75.7012667 81.3144141,76.2043333 C80.1113672,76.7313556 78.8250586,77 77.4911719,77 L9.50882812,77 Z" id="Path"></path>
                    <path d="M76.6347656,68.4444444 L10.3652344,68.4444444 C9.75504492,68.4444444 9.19175391,68.1150556 8.88929297,67.58136 C8.58700195,67.0476644 8.59192969,66.3917956 8.90220703,65.8628911 L42.0369727,9.39622444 C42.342832,8.87519111 42.8989863,8.55555556 43.5,8.55555556 C44.1010137,8.55555556 44.657168,8.87519111 44.9628574,9.39622444 L78.097623,65.8628911 C78.4080703,66.3917956 78.4128281,67.0478356 78.1105371,67.58136 C77.8082461,68.1150556 77.2449551,68.4444444 76.6347656,68.4444444 Z M13.3429453,65.0222222 L73.6568848,65.0222222 L43.5,13.6301978 L13.3429453,65.0222222 Z" id="Shape"></path>
                    <path d="M43.5,61.4288889 C40.6891523,61.4288889 38.4023438,59.1260756 38.4023438,56.2955556 C38.4023438,53.4650356 40.6891523,51.1622222 43.5,51.1622222 C46.3108477,51.1622222 48.5976562,53.4650356 48.5976562,56.2955556 C48.5976562,59.1260756 46.3108477,61.4288889 43.5,61.4288889 Z M43.5,54.5844444 C42.5630508,54.5844444 41.8007812,55.3520489 41.8007812,56.2955556 C41.8007812,57.2390622 42.5630508,58.0066667 43.5,58.0066667 C44.4369492,58.0066667 45.1992188,57.2390622 45.1992188,56.2955556 C45.1992188,55.3520489 44.4369492,54.5844444 43.5,54.5844444 Z" id="Shape"></path>
                    <path d="M43.5,47.74 C41.6378262,47.74 40.8905098,45.56398 40.5712266,44.6348467 C40.1736094,43.4771089 39.7885664,41.9011756 39.4266328,39.9508511 C38.7919746,36.5308533 38.4023438,32.9140778 38.4023438,31.8266667 C38.4023438,28.9961467 40.6891523,26.6933333 43.5,26.6933333 C46.3108477,26.6933333 48.5976562,28.9961467 48.5976562,31.8266667 C48.5976562,32.9140778 48.2080254,36.5308533 47.5733672,39.9508511 C47.2114336,41.9011756 46.8263906,43.4771089 46.4287734,44.6348467 C46.1094902,45.56398 45.3623437,47.74 43.5,47.74 Z M43.5,30.1155556 C42.5630508,30.1155556 41.8007812,30.88316 41.8007812,31.8266667 C41.8007812,32.4797978 42.0760547,35.3110022 42.6019629,38.3933978 C42.9311016,40.3221622 43.2396797,41.66778 43.5,42.5999933 C43.7601504,41.6676089 44.0688984,40.3221622 44.3980371,38.3933978 C44.9239453,35.3110022 45.1992188,32.4797978 45.1992188,31.8266667 C45.1992188,30.88316 44.4369492,30.1155556 43.5,30.1155556 Z" id="Shape"></path>
                    <ellipse id="Oval" cx="75.6758965" cy="48.9702889" rx="1.69921875" ry="1.71111111"></ellipse>
                </g>
            </g>
        </g>
    </g>
</svg>