<?xml version="1.0" encoding="UTF-8"?>
<svg width="105px" height="96px" viewBox="0 0 105 96" version="1.1" xmlns="http://www.w3.org/2000/svg" xmlns:xlink="http://www.w3.org/1999/xlink">
    <title>label_icon</title>
    <g id="Project-Dashboard---Web" stroke="none" stroke-width="1" fill="none" fill-rule="evenodd" opacity="0.5">
        <g id="Project_Dashboard_Empty_Screen" transform="translate(-454.000000, -478.000000)" fill-rule="nonzero">
            <g id="label_icon" transform="translate(506.644033, 525.660994) rotate(10.000000) translate(-506.644033, -525.660994) translate(460.644033, 485.660994)">
                <g id="Group-4" transform="translate(39.091031, 6.062818)">
                    <path d="M49.5522086,41.6172293 L15.1304779,1.60710516 C14.2010354,0.526606805 12.8038459,-0.0658965402 11.3533437,0.00583834684 L0,0.567200378 L35.9116272,42.3087016 C38.8095407,45.677076 38.3401746,50.715043 34.8625501,53.5610395 L16.8578533,68.2977216 L18.5169916,70.2255695 C21.356259,73.5261767 26.4193608,73.9407404 29.8263665,71.1524507 L48.2014801,56.1128661 C52.6805541,52.4460676 53.2853908,45.9565334 49.5522086,41.6172293 Z" id="Path"></path>
                    <path d="M14.656306,17.7237327 L14.6518369,17.7245402 C13.749743,17.887543 13.145755,18.7501158 13.3008895,19.651716 C13.4559143,20.5526786 14.3153052,21.1514854 15.2180377,20.9883673 C16.1207701,20.8252491 16.7265636,19.9616926 16.5715388,19.06073 C16.4164043,18.1591299 15.5583999,17.5607299 14.656306,17.7237327 Z" id="Path" fill="#CBD2D5"></path>
                </g>
                <g id="Group-5" transform="translate(0.337795, 0.453287)">
                    <path d="M73.8877358,46.9958482 L38.830702,6.51837876 L38.5127014,6.15069611 C36.8382993,4.21831367 34.3151768,3.16467223 31.6911194,3.30392097 L12.3172804,4.32860002 C10.1968057,4.44013301 8.3938361,5.90637431 7.91265153,7.91112614 L3.51237388,26.2243225 C2.91627218,28.7053157 3.54860856,31.2958922 5.22246872,33.2290193 L40.5973929,74.0735426 C43.4264544,77.3405434 48.4929006,77.7329889 51.9133315,74.9507784 L55.1041846,72.3551877 L72.8161571,57.9482015 C76.2372402,55.1658751 76.7166873,50.2622203 73.8877358,46.9958482 L73.8877358,46.9958482 Z M18.0195691,22.2830163 C16.1822394,20.1616531 16.4938078,16.9782783 18.714574,15.1714219 C20.9361025,13.365079 24.2250441,13.6195279 26.0623738,15.7408911 C27.898941,17.8617413 27.588135,21.0456293 25.3666065,22.8519723 C23.1458403,24.6588286 19.8561363,24.4038665 18.0195691,22.2830163 Z" id="Shape"></path>
                    <path d="M15.740033,12.5287324 C12.7155009,14.8748693 12.3011531,19.0377408 14.8172987,21.8087269 C16.0357269,23.1509585 17.7527143,23.970209 19.6500382,24.1155671 C20.2844284,24.1645473 20.9126688,24.1359118 21.5237805,24.0340478 C22.7419656,23.830993 23.8897325,23.3359811 24.8657477,22.5786902 C26.3311163,21.4425298 27.2342035,19.8515252 27.4083116,18.0987963 C27.5830926,16.3459551 27.007699,14.641435 25.7892706,13.2992036 C23.2731252,10.5282174 18.7652379,10.1824835 15.740033,12.5287324 Z M23.9268101,17.8313272 C23.8381678,18.7252191 23.3774486,19.5366363 22.6299521,20.1164563 C21.8831286,20.696164 20.9385166,20.9744564 19.9705367,20.900522 C19.0024411,20.8259675 18.1272324,20.408579 17.5054256,19.7238979 C16.2223885,18.3105982 16.4335439,16.1872603 17.9765016,14.9908542 C18.4839642,14.5974576 19.0725122,14.3523024 19.6809318,14.2508872 C20.9213269,14.0441302 22.2399879,14.4355531 23.1011437,15.3840326 C23.7222774,16.0688257 24.0161257,16.9373231 23.9268101,17.8313272 Z" id="Shape" fill="#CBD2D5"></path>
                    <path d="M87.2077295,44.8680109 L53.421035,4.94859209 C52.1773782,3.47966767 50.2749139,2.66192384 48.3325418,2.76156965 L38.0070009,3.29096908 C35.9981465,1.07859534 33.0346717,-0.142039253 30.0106258,0.0132044103 L10.5968174,1.00855596 C7.72019408,1.15541495 5.25837033,3.20375085 4.61216857,5.98880863 L0.254611781,24.7720291 C-0.45014274,27.8092708 0.328478922,31.040031 2.33782948,33.414124 L37.9072199,75.4385357 C40.2142751,78.164909 43.7471776,79.2897066 47.0720922,78.6951166 C48.7009017,78.4038388 50.2801996,77.6999152 51.6403191,76.5684078 L53.5259474,74.9993321 L54.0686104,75.6407452 C55.7065729,77.5758529 58.0130642,78.7568282 60.5636569,78.9665854 C61.4152361,79.0367014 62.2596005,78.9955744 63.0808704,78.8487367 C64.7181685,78.555912 66.2607974,77.842565 67.5719658,76.7511076 L85.6462845,61.7122478 C88.1251466,59.6495449 89.6534353,56.7613468 89.94841,53.5796439 C90.2428435,50.3987036 89.2697141,47.304606 87.2077295,44.8680109 L87.2077295,44.8680109 Z M86.5681685,53.3019158 C86.3561613,55.5891615 85.257961,57.6653223 83.4753297,59.1487269 L65.4015544,74.186837 C64.1291285,75.2453979 62.5212617,75.7540016 60.8733828,75.6178672 C59.2256161,75.4823785 57.7355265,74.7194033 56.6775075,73.4696469 L56.1348443,72.828233 L72.5393981,59.1780026 C72.6630166,59.075325 72.7835725,58.9705314 72.9009537,58.8629763 C72.9037713,58.859809 72.9067012,58.8572873 72.909631,58.8547657 C72.9321926,58.8334184 72.9555198,58.8125997 72.9774279,58.7913692 C72.9925064,58.7773529 73.007585,58.7633365 73.0226633,58.7493201 C73.0336174,58.7387048 73.0440304,58.7288521 73.0549845,58.7182369 C74.7534188,57.0954055 75.7973212,54.9510473 76.0147198,52.6095671 C76.2508154,50.0656463 75.4823628,47.5908318 73.8510361,45.6318952 C73.8476367,45.6278419 73.8442374,45.6237887 73.8407257,45.6190896 C73.8272406,45.6035226 73.8144087,45.5878386 73.8010358,45.5729172 L59.6065143,28.800869 C59.0065109,28.0931332 57.9368562,28.00475 57.2165329,28.6043394 C56.4955563,29.2040458 56.3976297,30.2643214 56.9969796,30.972174 L71.1920423,47.7434595 C73.008191,49.88975 73.1101006,52.9092568 71.6500114,55.1706576 C71.3082959,55.7005436 70.8804824,56.1885608 70.3690824,56.6142842 L52.6596491,71.3495213 C52.6579137,71.3511633 52.6555247,71.3529224 52.6537893,71.3545644 L49.4692538,74.0042507 C46.7743021,76.2460985 42.7578187,75.9162703 40.5161164,73.267434 L4.94737015,31.2428529 C3.61193023,29.6644891 3.09364143,27.5164977 3.56226577,25.4963236 L7.91981925,6.71308345 C8.22441474,5.40010525 9.38482953,4.43348993 10.7430548,4.3643942 L30.1562101,3.36916232 C32.2435038,3.2622452 34.2872027,4.14063164 35.6232959,5.7188784 L47.9964013,20.3375877 C48.5957512,21.0454403 49.6660592,21.1337067 50.3863825,20.5341173 C51.1067058,19.9345277 51.205398,18.8747811 50.605936,18.1662827 L40.7431745,6.51326965 L48.4786685,6.11677146 C49.3694413,6.07134077 50.2409911,6.44618667 50.8113902,7.11926389 L84.5982059,47.0393785 C86.0802472,48.7906229 86.7801757,51.01467 86.5681685,53.3019158 L86.5681685,53.3019158 Z" id="Shape" fill="#CBD2D5"></path>
                </g>
            </g>
        </g>
    </g>
</svg>