<?xml version="1.0" encoding="UTF-8"?>
<svg width="91px" height="81px" viewBox="0 0 91 81" version="1.1" xmlns="http://www.w3.org/2000/svg" xmlns:xlink="http://www.w3.org/1999/xlink">
    <title>manage-tag-icon</title>
    <g id="Project-Details---Web" stroke="none" stroke-width="1" fill="none" fill-rule="evenodd">
        <g id="Project_Details_empty_Tag_Sec" transform="translate(-875.000000, -1262.000000)">
            <g id="manage-tag-icon" transform="translate(875.777692, 1262.000000)">
                <path d="M45,76 C66.0074272,76 64.8806557,59.8193548 84.650048,39.4709677 C104.41944,19.1225806 64.5690147,0 43.5615875,0 C22.5541603,0 -1.43439447,11.6191284 0.0670783634,35.3032258 C1.5685512,58.9873232 23.9925728,76 45,76 Z" id="Oval" fill-opacity="0.160456731" fill="#86C04F"></path>
                <g id="tags" transform="translate(14.222308, 25.000000)" fill-rule="nonzero">
                    <path d="M52.1109211,37.6941665 L35.2348253,8.35050293 C34.779161,7.55807437 33.9809014,7.02454545 33.0767719,6.90848701 L26,6 L43.6065986,36.6135048 C45.0273735,39.0838923 44.1842251,42.2429785 41.7229602,43.6692649 L28.9800277,51.0549201 L29.7935325,52.4688779 C31.1855108,54.8895262 34.2684442,55.7185153 36.6797386,54.3211372 L49.684805,46.7837132 C52.8549752,44.9459081 53.941201,40.8766345 52.1109211,37.6941665 Z" id="Path" fill="#EE4A77"></path>
                    <path d="M44.2958991,37.4144785 L26.3335316,6.57666568 L26.1706537,6.29659828 C25.3126283,4.8243177 23.8104359,3.83294779 22.1090745,3.61754428 L9.54803279,2.02492887 C8.17329122,1.85020796 6.84996218,2.60733192 6.31510041,3.87491501 L1.4261705,15.4536015 C0.763857912,17.0222356 0.878347671,18.8071296 1.73594106,20.2798385 L19.8611864,51.3972906 C21.3106702,53.886207 24.5211367,54.7388279 27.0317033,53.3020911 L29.3737755,51.9617076 L42.3741988,44.5219369 C44.8851974,43.0852 45.745383,39.9029669 44.2958991,37.4144785 L44.2958991,37.4144785 Z M11.1893411,14.5500202 C10.2479326,12.9338518 10.8065563,10.868034 12.4366318,9.93490436 C14.0671391,9.00220307 16.1512852,9.55548596 17.0926937,11.1716544 C18.0336701,12.7873946 17.4754784,14.8536407 15.8449711,15.786342 C14.2148957,16.7194716 12.1303175,16.1657605 11.1893411,14.5500202 Z" id="Shape" fill="#FFCA49"></path>
                    <path d="M16.5307317,10.7500542 C15.5641272,9.07635135 13.423757,8.50322013 11.7500542,9.46938092 C10.0763513,10.4355418 9.50322009,12.5759119 10.469381,14.2496147 C11.4355418,15.9233177 13.5759119,16.4968925 15.2496148,15.5307316 C16.9233177,14.5641272 17.4968925,12.4237571 16.5307317,10.7500542 Z" id="Path" fill="#EEF8FD"></path>
                    <g id="Group" fill="#231F20">
                        <path d="M11.7486511,8.06304886 C9.63584442,9.29394328 8.90913042,12.0295966 10.1292139,14.1615518 C10.7199865,15.1942044 11.6745398,15.932912 12.8158535,16.2413833 C13.1974207,16.3447767 13.5840698,16.3956189 13.9686014,16.3956189 C14.7351237,16.3956189 15.4919057,16.1926773 16.1737295,15.7953388 C17.1973121,15.1993314 17.9295315,14.2367471 18.2352935,13.084893 C18.541479,11.933039 18.384363,10.7299156 17.7935902,9.69726308 C16.5735069,7.56530782 13.8618812,6.83215445 11.7486511,8.06304886 Z M16.1411205,12.5183655 C15.9852751,13.1058282 15.6117543,13.5967333 15.0895874,13.9009321 C14.567844,14.2051309 13.9597081,14.2858803 13.3774052,14.128654 C12.7951023,13.9710004 12.3085088,13.5945971 12.0069818,13.0678032 C11.3848706,11.9804633 11.755427,10.5850794 12.8332167,9.95745559 C13.1876803,9.75109607 13.574753,9.65282954 13.9575906,9.65282954 C14.7380882,9.65282954 15.4982581,10.0612763 15.9158223,10.7910117 C16.2169258,11.3178054 16.2973895,11.9309028 16.1411205,12.5183655 Z" id="Shape"></path>
                        <path d="M34.2759381,19.0808572 L34.2729736,19.0808572 C33.674578,19.0808572 33.1905255,19.5704807 33.1905255,20.1746058 C33.1905255,20.7783038 33.6771189,21.2683544 34.2759381,21.2683544 C34.8747573,21.2683544 35.3600802,20.7783038 35.3600802,20.1746058 C35.3600802,19.5704807 34.8743337,19.0808572 34.2759381,19.0808572 Z" id="Path"></path>
                        <path d="M52.9634141,36.9653561 L36.0867942,7.47515898 C35.4655299,6.38995527 34.3589427,5.64697523 33.1270016,5.48803988 L26.5781057,4.64294823 C25.5570641,2.99292585 23.8275186,1.86969731 21.9095188,1.62232211 L9.59645959,0.0333959782 C7.77205172,-0.202443567 6.00058044,0.829354363 5.28995923,2.54218187 L0.497712352,14.0940471 C-0.277279906,15.9619647 -0.140915104,18.1242544 0.86276327,19.8780975 L18.629989,50.9234684 C19.7823134,52.9375039 21.8802977,54.0645777 24.0354537,54.0645777 C25.0912218,54.0645777 26.1609651,53.7941312 27.1396574,53.2241857 L28.496529,52.4337813 L28.7675645,52.9075966 C29.585753,54.3371603 30.9066277,55.3595589 32.4871036,55.7868044 C33.014776,55.9295045 33.5500711,56 34.0824018,56 C35.1436753,56 36.191397,55.7192997 37.1349394,55.1694346 L50.1408332,47.5939437 C51.9245857,46.5548825 53.2009936,44.8770893 53.7341714,42.8694624 C54.2669255,40.8622628 53.9933491,38.7653416 52.9634141,36.9653561 L52.9634141,36.9653561 Z M51.6395749,42.3033621 C51.2563137,43.7465975 50.3390278,44.9527117 49.0562675,45.6999642 L36.0507973,53.2750279 C35.1352054,53.8082304 34.0688501,53.9500758 33.0478084,53.673648 C32.0267667,53.3976473 31.1734283,52.7371257 30.644909,51.813848 L30.3738735,51.3400327 L42.1783176,44.4639428 C42.2672512,44.4122461 42.3544907,44.3588404 42.4400364,44.3032985 C42.4421538,44.3015895 42.4442712,44.3003078 42.4463887,44.299026 C42.4629049,44.2879177 42.4798447,44.2772364 42.4959373,44.2661281 C42.5069482,44.258865 42.5179591,44.2516018 42.5289698,44.2443386 C42.5370162,44.2387844 42.5446391,44.2336574 42.5526854,44.2281033 C43.7977549,43.3817298 44.6883607,42.1256279 45.0809386,40.6482128 C45.5073961,39.0430512 45.2948027,37.3669669 44.4833901,35.9228769 C44.4816961,35.9198862 44.4800022,35.9168954 44.4783082,35.9134775 C44.4715323,35.9019419 44.4651799,35.8904063 44.458404,35.8792978 L37.3682841,23.4891768 C37.0684509,22.9662282 36.4056844,22.7867852 35.887329,23.0888477 C35.3685501,23.3909104 35.1911065,24.0599768 35.4905161,24.5829254 L42.5810595,36.9726192 C43.4881815,38.5581275 43.2222279,40.5072217 42.0571987,41.7906674 C41.7844691,42.0914483 41.4621909,42.355486 41.0941755,42.5699633 L28.3508474,49.9925003 C28.349577,49.9933547 28.3478829,49.9942093 28.3466125,49.9950637 L26.0550918,51.3297788 C24.1159173,52.4589888 21.627049,51.7865043 20.5073334,49.8297198 L2.74053132,18.7843488 C2.07352981,17.6183956 1.98247878,16.1807144 2.49786975,14.9382843 L7.29011673,3.38641908 C7.62509962,2.57892493 8.46022783,2.091865 9.32161266,2.20337606 L21.6342483,3.79230231 C22.9580875,3.96320053 24.1468323,4.76129522 24.8142573,5.92724831 L30.9947143,16.7267343 C31.2941239,17.2496828 31.9573139,17.4291258 32.4756693,17.1270633 C32.9940247,16.8250007 33.1718918,16.1563614 32.8724823,15.6329856 L27.9459881,7.02441489 L32.8521547,7.65759286 C33.4170943,7.73065188 33.9240154,8.07116655 34.2090262,8.56848038 L51.085646,38.0591047 C51.8259118,39.3528042 52.022836,40.8601266 51.6395749,42.3033621 L51.6395749,42.3033621 Z" id="Shape"></path>
                    </g>
                </g>
            </g>
        </g>
    </g>
</svg>