<?xml version="1.0" encoding="UTF-8"?>
<svg width="97px" height="97px" viewBox="0 0 97 97" version="1.1" xmlns="http://www.w3.org/2000/svg" xmlns:xlink="http://www.w3.org/1999/xlink">
    <title>open_risk_icon</title>
    <g id="Project-Dashboard---Web" stroke="none" stroke-width="1" fill="none" fill-rule="evenodd" opacity="0.5">
        <g id="Project_Dashboard_Empty_Screen" transform="translate(-846.000000, -601.000000)" fill="#CBD2D5" fill-rule="nonzero">
            <g id="open_risk_icon" transform="translate(894.195345, 649.171869) rotate(-20.000000) translate(-894.195345, -649.171869) translate(856.695345, 611.671869)">
                <g id="Group" transform="translate(0.375218, 0.271684)">
                    <path d="M68.4079216,4.63020312 C64.260149,0.796945312 59.208851,-0.731183594 54.1843961,0.327363281 C48.6454235,1.49430859 43.7901529,5.77879297 41.1968157,11.7886914 C39.4560745,15.8212578 39.0682275,20.1726602 38.693149,24.3809766 C38.6229216,25.1679492 38.5505176,25.9819492 38.4704235,26.7745586 C38.4678118,26.7988398 38.4663608,26.8232656 38.4654902,26.8476914 L38.2990627,31.933168 C38.2521961,33.4400508 38.7124471,34.6844648 39.6300471,35.5318516 C40.4060314,36.248293 41.441451,36.6184375 42.6528745,36.6184375 C42.8735686,36.6184375 43.100502,36.6061523 43.3323686,36.5814375 C43.3323686,36.5814375 50.0916157,35.753707 50.8792078,35.6240625 C53.4528118,35.2005859 56.1140549,34.7628008 58.6709725,34.0142734 C59.2474471,33.8454609 59.5775451,33.2430547 59.4080706,32.6686875 C59.2385961,32.0943203 58.6338275,31.7652227 58.0572078,31.9343242 C55.6281216,32.6455625 53.0336235,33.0723633 50.5245882,33.4852891 C49.7428,33.6139219 43.1003569,34.4258984 43.1003569,34.4258984 C42.5003765,34.4899258 41.6682392,34.4578398 41.1096118,33.9420078 C40.5506941,33.4258867 40.4555098,32.6011914 40.4740824,32.0021094 L40.639349,26.9550781 C40.719298,26.161457 40.7912667,25.3541055 40.8607686,24.5727695 C41.2207569,20.5345664 41.5929333,16.3587695 43.1961216,12.6450391 C45.5105804,7.28148437 49.7867647,3.46976172 54.6346353,2.44835937 C58.9479647,1.53969141 63.3132392,2.87891797 66.9274863,6.21946875 C70.5447804,9.56276562 72.2134078,13.8017227 71.626051,18.155582 C70.9661451,23.0457969 67.4714588,27.5768516 62.2773843,30.2761172 C61.7444392,30.5530391 61.5379647,31.2077656 61.8159725,31.7384844 C62.0939804,32.2692031 62.7514196,32.4748711 63.2839294,32.1980937 C66.1876314,30.6891875 68.6801255,28.6251367 70.4919647,26.2293867 C72.2760902,23.8699141 73.4140941,21.177875 73.7829333,18.4445 C74.4672157,13.3721758 72.5583059,8.46635156 68.4079216,4.63020313 L68.4079216,4.63020312 Z" id="Path"></path>
                    <path d="M16.0253529,30.162082 C18.8682588,32.0135273 22.1127961,32.8789805 25.2503961,33.7161055 C25.8386235,33.8730664 27.0853059,34.2128594 27.1095373,34.217918 L30.9276471,35.0102383 C31.2655804,35.0800469 31.5929216,35.1147344 31.9070588,35.1147344 C32.7111922,35.1147344 33.4295725,34.8878203 34.019251,34.4420859 C34.840651,33.8208906 35.318749,32.8455937 35.4020353,31.6214141 C35.4021804,31.6205469 35.4021804,31.6196797 35.4023255,31.6188125 C35.4023255,31.6188125 35.6632118,26.4408359 35.6691608,25.8353945 C35.7006471,22.5984727 35.7330039,19.251418 34.7041137,16.0225898 C33.1611412,11.1904766 29.734651,7.51620313 25.5381255,6.19374219 C21.7208863,4.99095313 17.688902,5.78977734 14.1849294,8.44337109 C10.6806667,11.0971094 8.82921569,14.7530273 8.97141176,18.7374648 C9.12768235,23.1169062 11.7648392,27.3880937 16.0253529,30.162082 L16.0253529,30.162082 Z M15.5019843,10.1687852 C18.4270157,7.95384375 21.7584667,7.27628125 24.881702,8.26039453 C28.4046824,9.37053906 31.3014196,12.5178516 32.6299373,16.6789062 C33.5534863,19.5767578 33.5227255,22.7477734 33.4929804,25.814293 C33.4870314,26.4140977 33.4810824,27.0339922 33.4822431,27.6449258 L33.2307882,31.475582 C33.2032196,31.8804141 33.0891725,32.4235625 32.7033569,32.7153711 C32.3189922,33.0060234 31.7660235,32.969457 31.3704863,32.8877969 L27.5895216,32.1032812 C26.998102,31.9382266 26.3960902,31.7776523 25.8135216,31.6222812 C22.8411882,30.8293828 19.7677216,30.009457 17.2161725,28.3477812 C13.5466431,25.9585352 11.2774549,22.3370156 11.1462863,18.6602852 C11.0299176,15.3996602 12.5768078,12.3840156 15.5019843,10.1687852 Z" id="Shape"></path>
                    <path d="M34.3676314,38.4629453 C33.4506118,37.6177266 32.1709922,37.256832 30.6702431,37.4198633 C30.6702431,37.4198633 23.9376941,38.2418125 23.1631608,38.3687109 C22.3268157,38.5057266 21.4618863,38.6475117 20.6094353,38.7988359 C20.0177255,38.9039102 19.6236392,39.4667148 19.7289804,40.0561133 C19.8344667,40.6453672 20.4002039,41.0377695 20.9911882,40.9331289 C21.8295647,40.7844063 22.6872392,40.6437773 23.5166196,40.5077734 C24.285349,40.3817422 30.9042863,39.5751133 30.9042863,39.5751133 C31.5025255,39.5100742 32.3326314,39.5407148 32.8895176,40.0540898 C33.4481451,40.5690547 33.5433294,41.3949063 33.5246118,41.9951445 C33.5246118,41.9951445 33.2065569,48.6597695 33.1364745,49.4471758 C32.7779373,53.4791641 32.4073569,57.648457 30.8069255,61.3561172 C28.49,66.7203945 24.2128,70.5321172 19.3655098,71.5523633 C15.0533412,72.4601641 10.6869059,71.1196367 7.07077255,67.7774961 C3.4559451,64.4381016 1.78789804,60.2026133 2.37351373,55.8513555 C3.03225882,50.9585391 6.52839608,46.4238711 11.7259529,43.7208477 C13.0945176,43.0085977 14.628349,42.422957 16.4156667,41.9306836 C16.994898,41.7711211 17.3347176,41.1740625 17.1743843,40.5970937 C17.0143412,40.020125 16.4155216,39.6814883 15.8355647,39.8413398 C13.8983608,40.3749492 12.2243647,41.0153672 10.7183922,41.7993047 C4.89488235,44.8278125 0.968819608,49.973125 0.216341176,55.5631602 C-0.466054902,60.6325937 1.4427098,65.5348047 5.59048235,69.3667617 C8.88203137,72.4088555 12.7409137,74 16.7041216,74 C17.7366392,74 18.7769922,73.8918906 19.8153137,73.6733594 C22.5247294,73.1030391 25.1356235,71.7711836 27.3654902,69.8217461 C29.6294549,67.8423906 31.510651,65.2111992 32.8057961,62.2126094 C34.5442157,58.1855352 34.9304667,53.8404922 35.303949,49.6383906 C35.3744667,48.8453477 35.6993412,42.0639414 35.6993412,42.0639414 C35.746498,40.5546016 35.2858118,39.3094648 34.3676314,38.4629453 L34.3676314,38.4629453 Z" id="Path"></path>
                    <path d="M57.9106588,43.324832 C55.067898,41.4735313 51.823651,40.6080781 48.6861961,39.7710977 C48.0976784,39.6141367 43.0118471,38.4768203 43.0118471,38.4768203 C41.8057922,38.2282266 40.7348235,38.4256563 39.914149,39.0477188 C39.0942,39.6694922 38.6182784,40.6446445 38.5378941,41.867957 C38.5378941,41.867957 38.2726549,47.0449219 38.2667059,47.6499297 C38.2352196,50.8877187 38.2028627,54.2356406 39.2317529,57.4646133 C40.7747255,62.2967266 44.2012157,65.971 48.3977412,67.2934609 C49.5578,67.6589805 50.7371569,67.8396446 51.9159333,67.8396446 C54.6162078,67.8396446 57.3118392,66.8910859 59.7509373,65.043832 C63.2565059,62.389082 65.1085373,58.7321523 64.9657608,54.7465586 C64.8092,50.3675508 62.1714627,46.0976641 57.9106588,43.324832 L57.9106588,43.324832 Z M58.4341725,63.3182734 C55.5092863,65.5335039 52.1781255,66.2110664 49.0544549,65.2266641 C45.5314745,64.1165195 42.6347373,60.969207 41.3062196,56.8081523 C40.3826706,53.9101563 40.4134314,50.738418 40.4431765,47.6708867 C40.4489804,47.0718047 40.7097216,42.0108984 40.7097216,42.0108984 C40.7097216,42.0106094 40.7097216,42.0101758 40.7098667,42.0097422 C40.7364196,41.6060664 40.8485804,41.0637852 41.2328,40.7724102 C41.6174549,40.4808906 42.1730353,40.5173125 42.5694431,40.5991172 C42.5694431,40.5991172 47.5403569,41.7094063 48.1233608,41.8649219 C51.0954039,42.6578203 54.1685804,43.4777461 56.7202745,45.1392773 C60.389949,47.5273672 62.6595725,51.1477305 62.7913216,54.8237383 C62.9078353,58.085375 61.3605098,61.1018867 58.4341725,63.3182734 Z" id="Shape"></path>
                    <path d="M20.825051,49.5090352 L16.3003137,49.5090352 C15.6993176,49.5090352 15.2122235,49.9943711 15.2122235,50.592875 C15.2122235,51.1915234 15.6993176,51.6767148 16.3003137,51.6767148 L20.825051,51.6767148 C21.4260471,51.6767148 21.9131412,51.1913789 21.9131412,50.592875 C21.9132863,49.9943711 21.4261922,49.5090352 20.825051,49.5090352 Z" id="Path"></path>
                    <path d="M25.6122706,54.6050625 L11.5132392,54.6050625 C10.9122431,54.6050625 10.425149,55.0903984 10.425149,55.6889023 C10.425149,56.2874063 10.9122431,56.7727422 11.5132392,56.7727422 L25.6122706,56.7727422 C26.2132667,56.7727422 26.7003608,56.2874063 26.7003608,55.6889023 C26.7003608,55.0903984 26.2134118,54.6050625 25.6122706,54.6050625 Z" id="Path"></path>
                    <path d="M25.6122706,59.7010898 L11.5132392,59.7010898 C10.9122431,59.7010898 10.425149,60.1864258 10.425149,60.7849297 C10.425149,61.3834336 10.9122431,61.8687695 11.5132392,61.8687695 L25.6122706,61.8687695 C26.2132667,61.8687695 26.7003608,61.3834336 26.7003608,60.7849297 C26.7003608,60.1864258 26.2134118,59.7010898 25.6122706,59.7010898 Z" id="Path"></path>
                    <path d="M46.7045922,51.3616367 L51.4250667,51.3616367 C52.0260627,51.3616367 52.5131569,50.8763008 52.5131569,50.2777969 C52.5131569,49.679293 52.0260627,49.193957 51.4250667,49.193957 L46.7045922,49.193957 C46.1035961,49.193957 45.616502,49.679293 45.616502,50.2777969 C45.616502,50.8763008 46.103451,51.3616367 46.7045922,51.3616367 Z" id="Path"></path>
                    <path d="M56.5242471,54.5096719 L46.7044471,54.5096719 C46.103451,54.5096719 45.6163569,54.9950078 45.6163569,55.5935117 C45.6163569,56.1921602 46.103451,56.6773516 46.7044471,56.6773516 L56.5242471,56.6773516 C57.1252431,56.6773516 57.6123373,56.1920156 57.6123373,55.5935117 C57.6124824,54.9950078 57.1253882,54.5096719 56.5242471,54.5096719 Z" id="Path"></path>
                    <path d="M17.7364941,17.6877344 L22.4569686,17.6877344 C23.0579647,17.6877344 23.5450588,17.2023984 23.5450588,16.6038945 C23.5450588,16.0052461 23.0579647,15.5200547 22.4569686,15.5200547 L17.7364941,15.5200547 C17.135498,15.5200547 16.6484039,16.0053906 16.6484039,16.6038945 C16.6482588,17.2023984 17.135498,17.6877344 17.7364941,17.6877344 L17.7364941,17.6877344 Z" id="Path"></path>
                    <path d="M17.7364941,23.0035937 L27.5562941,23.0035937 C28.1572902,23.0035937 28.6443843,22.5182578 28.6443843,21.9197539 C28.6443843,21.3211055 28.1572902,20.8359141 27.5562941,20.8359141 L17.7364941,20.8359141 C17.135498,20.8359141 16.6484039,21.32125 16.6484039,21.9197539 C16.6482588,22.5182578 17.135498,23.0035937 17.7364941,23.0035937 Z" id="Path"></path>
                    <path d="M58.8636627,12.6372344 C59.4646588,12.6372344 59.9517529,12.1518984 59.9517529,11.5533945 C59.9517529,10.9547461 59.4646588,10.4695547 58.8636627,10.4695547 L54.3389255,10.4695547 C53.7379294,10.4695547 53.2508353,10.9548906 53.2508353,11.5533945 C53.2508353,12.152043 53.7379294,12.6372344 54.3389255,12.6372344 L58.8636627,12.6372344 Z" id="Path"></path>
                    <path d="M48.4636157,16.6536133 C48.4636157,17.2522617 48.9507098,17.7374531 49.5517059,17.7374531 L63.6507373,17.7374531 C64.2517333,17.7374531 64.7388275,17.2521172 64.7388275,16.6536133 C64.7388275,16.0551094 64.2517333,15.5697734 63.6507373,15.5697734 L49.5517059,15.5697734 C48.9507098,15.5696289 48.4636157,16.0549648 48.4636157,16.6536133 Z" id="Path"></path>
                    <path d="M49.5517059,22.833625 L63.6507373,22.833625 C64.2517333,22.833625 64.7388275,22.3482891 64.7388275,21.7497852 C64.7388275,21.1512813 64.2517333,20.6659453 63.6507373,20.6659453 L49.5517059,20.6659453 C48.9507098,20.6659453 48.4636157,21.1512813 48.4636157,21.7497852 C48.4636157,22.3482891 48.9507098,22.833625 49.5517059,22.833625 Z" id="Path"></path>
                </g>
            </g>
        </g>
    </g>
</svg>