<svg xmlns="http://www.w3.org/2000/svg" width="24" height="24" viewBox="0 0 24 24">
    <g fill="none" fill-rule="evenodd">
        <g>
            <g>
                <g>
                    <path d="M0 0H24V24H0z" transform="translate(-976 -198) translate(948 176) translate(28 22)"/>
                    <path fill="#F8971D" d="M12 2c5.523 0 10 4.477 10 10s-4.477 10-10 10S2 17.523 2 12 6.477 2 12 2zm0 2c-4.418 0-8 3.582-8 8s3.582 8 8 8 8-3.582 8-8-3.582-8-8-8zm0 2c.552 0 1 .448 1 1v4.636l2.98 3.551c.355.424.3 1.054-.123 1.41-.423.354-1.054.3-1.41-.124l-3.213-3.83c-.08-.098-.14-.202-.18-.316l-.014-.047-.016-.061c-.004-.019-.008-.038-.01-.056-.004-.019-.006-.038-.008-.057-.003-.026-.005-.051-.006-.077V7c0-.552.448-1 1-1z" transform="translate(-976 -198) translate(948 176) translate(28 22)"/>
                </g>
            </g>
        </g>
    </g>
</svg>
