<svg xmlns="http://www.w3.org/2000/svg" width="14" height="14" viewBox="0 0 14 14">
    <g fill="none" fill-rule="evenodd">
        <g fill="#BDC4CC" fill-rule="nonzero">
            <g>
                <path d="M5.49 0H.51C.227 0 0 .228 0 .51v4.98c0 .282.228.51.51.51h4.98c.282 0 .51-.228.51-.51V.51C6 .227 5.772 0 5.49 0zM13.49 0H8.51C8.227 0 8 .228 8 .51v4.98c0 .282.228.51.51.51h4.98c.282 0 .51-.228.51-.51V.51c0-.282-.228-.51-.51-.51zM5.49 8H.51C.227 8 0 8.228 0 8.51v4.98c0 .282.228.51.51.51h4.98c.282 0 .51-.228.51-.51V8.51C6 8.227 5.772 8 5.49 8zM13.49 8H8.51c-.282 0-.51.228-.51.51v4.98c0 .282.228.51.51.51h4.98c.282 0 .51-.228.51-.51V8.51c0-.282-.228-.51-.51-.51z" transform="translate(-195 -637) translate(195 637)"/>
            </g>
        </g>
    </g>
</svg>
