<svg xmlns="http://www.w3.org/2000/svg" width="17" height="18" viewBox="0 0 17 18">
    <g fill="none" fill-rule="evenodd">
        <g fill="#BDC4CC" fill-rule="nonzero">
            <g>
                <path d="M16.044 18H.956C.429 18 0 17.551 0 17c0-.551.43-1 .956-1h15.088c.527 0 .956.449.956 1 0 .551-.43 1-.956 1zM4.577 15.333H2.615c-.361 0-.653-.298-.653-.666v-2c0-.177.068-.347.191-.472l7.846-8c.256-.26.67-.26.925 0l1.961 2c.256.26.256.683 0 .943l-7.846 8c-.122.125-.288.195-.462.195zM3.269 14h1.037l7.192-7.333-1.036-1.058-7.193 7.334V14z" transform="translate(-542.000000, -618.000000) translate(542.000000, 618.000000)"/>
                <path d="M16.808 2.195l-1.961-2c-.256-.26-.67-.26-.925 0L11.77 2.391l-.845-.862c-.256-.26-.67-.26-.925 0L6.73 4.862c-.255.26-.255.682 0 .943.128.13.295.195.462.195.168 0 .335-.065.463-.195l2.807-2.862.845.862 1.961 2c.128.13.295.195.463.195.167 0 .334-.065.462-.195l2.615-2.667c.256-.26.256-.682 0-.943zm-3.077 2.196l-1.037-1.058 1.69-1.724 1.038 1.058L13.73 4.39z" transform="translate(-542.000000, -618.000000) translate(542.000000, 618.000000)"/>
            </g>
        </g>
    </g>
</svg>
