<?xml version="1.0" encoding="UTF-8"?>
<svg width="147px" height="127px" viewBox="0 0 147 127" version="1.1" xmlns="http://www.w3.org/2000/svg" xmlns:xlink="http://www.w3.org/1999/xlink">
    <title>Sign_Project_Icon</title>
    <g id="Project-Dashboard-(Edit,-Sign,-Chagne-State,-Close,-Delete)" stroke="none" stroke-width="1" fill="none" fill-rule="evenodd">
        <g id="Project_Dashboard_Sign_Project" transform="translate(-115.000000, -396.000000)">
            <g id="Sign_Project_Icon" transform="translate(115.777692, 396.500000)">
                <path d="M73,126 C107.078715,126 105.250841,99.1741935 137.321189,65.4387097 C169.391536,31.7032258 104.745291,0 70.6665753,0 C36.58786,0 -2.32690658,19.2632918 0.108816012,58.5290323 C2.54453861,97.7947727 38.9212847,126 73,126 Z" id="Oval" fill-opacity="0.160456731" fill="#86C04F"></path>
                <g id="signature-(1)" transform="translate(29.222308, 25.792208)" fill-rule="nonzero">
                    <g id="Group" transform="translate(2.000000, 1.707792)">
                        <g id="Path">
                            <g>
                                <path d="M6.61773389,0.0961927711 C3.03309564,0.0961927711 0.12709967,2.97889157 0.12709967,6.53455422 L0.12709967,89.4654458 C0.12709967,93.0211084 3.03309564,95.9036145 6.61773389,95.9036145 L67.6415115,95.9036145 C71.2261498,95.9036145 74.1321458,93.0211084 74.1321458,89.4654458 L74.1321458,19.9491084 C74.1321458,18.6556145 73.61403,17.4149398 72.6918772,16.500241 L57.5944187,1.52481928 C56.6722659,0.610120482 55.4216751,0.0961927711 54.1174459,0.0961927711 L6.61773389,0.0961927711 L6.61773389,0.0961927711 Z" fill="#F4F8F8"></path>
                                <path d="M62.6449786,17.9288675 C62.5040807,17.9288675 62.3647375,17.9228916 62.2261716,17.9140241 L62.2261716,89.4654458 C62.2261716,93.0211084 59.3201757,95.9036145 55.7355374,95.9036145 L67.6417059,95.9036145 C71.2263441,95.9036145 74.1323401,93.0211084 74.1323401,89.4654458 L74.1323401,19.9491084 C74.1323401,19.2451084 73.9778382,18.557494 73.6894347,17.9288675 L62.6449786,17.9288675 Z" fill="#E7ECF1"></path>
                                <path d="M72.6920715,16.500241 L57.594613,1.52481928 C57.1742513,1.10785542 56.6852868,0.775325301 56.1543444,0.535710843 L56.1543444,11.4906988 C56.1543444,15.0463614 59.0603404,17.9288675 62.6449786,17.9288675 L73.6892403,17.9288675 C73.4474789,17.4024096 73.1122389,16.9172048 72.6920715,16.500241 L72.6920715,16.500241 Z" fill="#FC8086"></path>
                            </g>
                            <g transform="translate(41.006163, 30.650602)">
                                <g>
                                    <path d="M12.3599571,45.5354217 L7.87532099,42.0057831 C5.7826463,44.6218795 3.6769507,45.668241 1.4278307,45.7324337 C1.24981342,45.7374458 1.10308521,45.8723855 1.08403969,46.048 L0.0689914111,55.4957108 C0.0207945943,55.9448675 0.460396205,56.2908916 0.890280716,56.1420723 L9.93495754,53.0141687 C10.1030634,52.9559518 10.2019835,52.7836145 10.1666132,52.610506 C9.71865489,50.4233253 10.2672824,48.1515181 12.3599571,45.5354217 Z" fill="#C2D0DA"></path>
                                    <g transform="translate(6.801970, 0.000000)" fill="#7C8B96">
                                        <path d="M32.3814589,12.0308434 L28.0305301,8.60645783 L25.4401456,8.83585542 L13.1639499,22.5087229 C10.3516268,25.6410602 7.82926194,29.0178313 5.6271727,32.598747 L0.404231366,41.0918554 C-0.0219606464,41.7850602 0.139343216,42.6847229 0.780671826,43.1893976 L4.46248108,46.0871325 C5.10380969,46.5918072 6.02363039,46.5432289 6.60723942,45.9739759 L13.7582478,38.9983614 C16.7732696,36.0574458 19.5152409,32.8532048 21.9511236,29.4247711 L32.584352,14.4586024 L32.3814589,12.0308434 Z"></path>
                                        <path d="M37.6187815,0.888289157 C35.9604612,-0.416963855 33.5632526,-0.21146988 32.1552448,1.35672289 L29.0982451,4.76163855 L29.0102082,6.74004819 L33.6812182,10.4163855 L35.752904,9.99922892 L38.4008138,6.27238554 C39.6201155,4.55595181 39.2771019,2.19354217 37.6187815,0.888289157 L37.6187815,0.888289157 Z"></path>
                                    </g>
                                </g>
                                <polygon fill="#C2D0DA" points="32.2421157 8.83585542 39.3863221 14.4587952 42.5548741 9.99922892 35.9000209 4.76163855"></polygon>
                            </g>
                        </g>
                        <path d="M25.0883865,16.0971566 L9.84109035,16.0971566 C9.27516644,16.0971566 8.81651931,15.6422169 8.81651931,15.0808675 L8.81651931,9.5739759 C8.81651931,9.01262651 9.27516644,8.55768675 9.84109035,8.55768675 L25.0883865,8.55768675 C25.6543105,8.55768675 26.1129576,9.01262651 26.1129576,9.5739759 L26.1129576,15.0808675 C26.1129576,15.6420241 25.6543105,16.0971566 25.0883865,16.0971566 Z" id="Path" fill="#BED8FB"></path>
                    </g>
                    <g id="Group" transform="translate(0.000000, 0.707792)" fill="#000000">
                        <path d="M88.1257792,45.7592695 L85.6934416,43.8434648 L86.3187662,42.9627129 L88.972987,39.2244961 C90.6401299,36.8761465 90.1700649,33.637957 87.9029221,31.8526699 C85.6361688,30.0673828 82.3519481,30.3489141 80.4270779,32.494043 L77.3637662,35.9081895 C77.3635714,35.9085762 77.3631818,35.9087695 77.3627922,35.9091562 L73.695974,39.9958066 C73.6957792,39.9961934 73.6953896,39.9963867 73.6951948,39.9967734 L61.3905195,53.7105937 C58.5206494,56.9091445 55.9262338,60.3845859 53.6795455,64.040625 C53.2595455,64.7243437 53.4773377,65.6166973 54.1661688,66.0337734 C54.4038312,66.1776328 54.666039,66.246082 54.9255195,66.246082 C55.417987,66.246082 55.898961,65.9987754 56.1742208,65.5507617 C58.3297403,62.0428359 60.818961,58.7081602 63.5725325,55.6393535 L74.9600649,42.9478242 L79.958961,46.8848145 L70.0955844,60.7767187 C67.710974,64.1355645 65.0051299,67.2995039 62.0532468,70.1809453 L54.8853896,77.1776543 C54.8263636,77.235082 54.7324675,77.2403027 54.6677922,77.1892559 L50.9772078,74.2824844 C50.9123377,74.2314375 50.895974,74.1399785 50.9392208,74.0697891 L52.5574675,71.4366211 C52.9774675,70.752709 52.7596753,69.8603555 52.0708442,69.4432793 C51.3824026,69.0263965 50.482987,69.2421855 50.0625974,69.9260977 L48.4445455,72.5592656 C48.052013,73.1979316 47.9242208,73.930377 48.0331169,74.6249238 C46.7158442,75.8699648 45.3728571,76.4761465 43.8574675,76.5196523 C42.9525974,76.5455625 42.1981169,77.2387559 42.1020779,78.1320762 L41.0848052,87.6084258 C40.9252597,89.0918789 42.3787013,90.2860664 43.8418831,89.7800449 L52.9083117,86.6424023 C53.7631169,86.3465625 54.2715584,85.4594297 54.0911688,84.5792578 C53.789026,83.1045059 54.0787013,81.6686191 55.0011039,80.1122695 C55.7074675,80.0596758 56.3966883,79.7698301 56.9341558,79.2454395 L64.1022078,72.2485371 C67.1787662,69.2452793 69.9991558,65.9477285 72.4842857,62.4471504 L83.1428571,47.4353086 L84.0075974,46.2175312 L86.3098052,48.0306621 C86.6742857,48.3178008 86.7356494,48.8458652 86.4463636,49.2076406 L79.6036364,57.7672734 C79.102013,58.3947246 79.207987,59.3068008 79.8399351,59.8047012 C80.1085714,60.0162363 80.4288312,60.1189102 80.7471429,60.1189102 C81.1776623,60.1189102 81.6040909,59.9307715 81.8925974,59.5699629 L88.7355195,51.0101367 C90.0259091,49.396166 89.7524026,47.040082 88.1257792,45.7592695 L88.1257792,45.7592695 Z M46.709026,85.7165977 L49.1347403,82.682209 C49.6363636,82.0547578 49.5303896,81.1426816 48.8984416,80.6447812 C48.2662987,80.1468809 47.3472078,80.251875 46.8457792,80.8793262 L44.4200649,83.9137148 L44.9113636,79.3386387 C46.6537013,79.0957793 48.2475974,78.3264023 49.7376623,77.0088516 L52.2746104,79.0070273 C51.3208442,80.7466816 50.9283117,82.462166 51.0861039,84.201627 L46.709026,85.7165977 Z M82.6090909,34.4229961 C83.5046104,33.4252617 85.0322727,33.2941641 86.0867532,34.1246426 C87.1412338,34.9551211 87.36,36.4613906 86.5844805,37.5536777 L84.8212987,40.0369922 L80.5733766,36.691875 L82.6090909,34.4229961 Z M78.6268831,38.8613672 L83.1350649,42.411832 L81.645,44.5103613 L76.9067532,40.7785254 L78.6268831,38.8613672 Z" id="Shape"></path>
                        <path d="M8.08227273,87.4477441 C8.36474026,88.1977852 9.2061039,88.5790898 9.96175325,88.2985254 C10.0383117,88.2702949 11.3624026,87.7766484 13.0692857,86.9800078 C14.0228571,87.711293 15.1833117,88.1523457 16.4748701,88.2416777 C20.1338961,88.4943984 21.8842208,87.7760684 23.0425325,87.300791 C24.0155844,86.9015039 24.1174675,86.8597383 25.3498052,87.7227012 C26.9195455,88.8217559 29.1368182,89.181791 30.998961,89.181791 C31.9484416,89.181791 32.8055844,89.0882051 33.4367532,88.9511133 C34.2249351,88.7799902 34.7242208,88.0069395 34.5518182,87.2244141 C34.3794156,86.442082 33.600974,85.946502 32.8122078,86.117625 C31.5650649,86.3883281 28.5901948,86.4418887 27.0342857,85.3526953 C24.6646753,83.6934785 23.4734416,83.9854512 21.9261039,84.6204434 C20.9129221,85.036166 19.6517532,85.5539824 16.6778571,85.348248 C16.5418831,85.3389668 16.4115584,85.3231113 16.2864935,85.3016484 C19.4994156,83.4049863 21.1357792,81.580834 21.2791558,79.7439199 C21.3631169,78.6684551 20.9725325,77.1128789 18.6354545,75.8088633 C15.5522727,74.0887383 13.5033117,75.1137363 12.5563636,75.8778926 C10.6007143,77.4560918 9.85538961,80.7149707 10.784026,83.6265762 C10.8977922,83.9837109 11.0337662,84.3234434 11.19,84.645 C9.89688312,85.2241113 8.95422078,85.575832 8.93902597,85.5814395 C8.18337662,85.8623906 7.79980519,86.6977031 8.08227273,87.4477441 L8.08227273,87.4477441 Z M14.3998052,78.1285957 C14.691039,77.8936641 15.0377922,77.7761016 15.4379221,77.7761016 C15.9430519,77.7761016 16.5333117,77.9632734 17.2038312,78.3374238 C17.5651948,78.5389043 18.4018831,79.0578809 18.3658442,79.5198164 C18.3142208,80.1832324 17.1031169,81.5806406 13.8598052,83.3355703 C13.8438312,83.3440781 13.8276623,83.3529727 13.8116883,83.3614805 C13.7066883,83.1433711 13.6281818,82.934543 13.5697403,82.7512383 C13.0168831,81.0177715 13.3891558,78.9439922 14.3998052,78.1285957 L14.3998052,78.1285957 Z" id="Shape"></path>
                        <path d="M49.6975325,29.1438984 L10.2017532,29.1438984 C9.39487013,29.1438984 8.74071429,29.7931992 8.74071429,30.5940938 C8.74071429,31.3949883 9.39487013,32.0442891 10.2017532,32.0442891 L49.6975325,32.0442891 C50.5046104,32.0442891 51.1585714,31.3949883 51.1585714,30.5940938 C51.1585714,29.7931992 50.5046104,29.1438984 49.6975325,29.1438984 Z" id="Path"></path>
                        <path d="M49.6975325,37.6511309 L10.2017532,37.6511309 C9.39487013,37.6511309 8.74071429,38.3004316 8.74071429,39.1013262 C8.74071429,39.9022207 9.39487013,40.5515215 10.2017532,40.5515215 L49.6975325,40.5515215 C50.5046104,40.5515215 51.1585714,39.9022207 51.1585714,39.1013262 C51.1585714,38.3004316 50.5046104,37.6511309 49.6975325,37.6511309 Z" id="Path"></path>
                        <path d="M51.1585714,47.6083652 C51.1585714,46.8074707 50.5046104,46.1581699 49.6975325,46.1581699 L10.2017532,46.1581699 C9.39487013,46.1581699 8.74071429,46.8074707 8.74071429,47.6083652 C8.74071429,48.4092598 9.39487013,49.0585605 10.2017532,49.0585605 L49.6975325,49.0585605 C50.5046104,49.0585605 51.1585714,48.4092598 51.1585714,47.6083652 Z" id="Path"></path>
                        <path d="M10.2017532,57.565793 L26.9848052,57.565793 C27.7916883,57.565793 28.4458442,56.9164922 28.4458442,56.1155977 C28.4458442,55.3147031 27.7916883,54.6654023 26.9848052,54.6654023 L10.2017532,54.6654023 C9.39487013,54.6654023 8.74071429,55.3147031 8.74071429,56.1155977 C8.74071429,56.9164922 9.39487013,57.565793 10.2017532,57.565793 Z" id="Path"></path>
                        <path d="M75.6730519,62.1166992 C74.865974,62.1166992 74.212013,62.766 74.212013,63.5668945 L74.212013,91.0919883 C74.212013,93.8531602 71.948961,96.0996094 69.1671429,96.0996094 L7.99772727,96.0996094 C5.21590909,96.0996094 2.95266234,93.8531602 2.95266234,91.0919883 L2.95266234,7.90801172 C2.95266234,5.14683984 5.21590909,2.90039063 7.99772727,2.90039063 L55.6108442,2.90039063 C55.8075974,2.90039063 56.0012338,2.91991992 56.1913636,2.95163086 L56.1913636,12.8792813 C56.1913636,17.2397285 59.7654545,20.7870996 64.1583117,20.7870996 L74.1601948,20.7870996 C74.1921429,20.9760117 74.2118182,21.1680176 74.2118182,21.3633105 L74.2118182,32.5325215 C74.2118182,33.333416 74.8657792,33.9827168 75.6728571,33.9827168 C76.4799351,33.9827168 77.1338961,33.333416 77.1338961,32.5325215 L77.1338961,21.3633105 C77.1338961,19.6690957 76.4692208,18.0763945 75.2624026,16.8785332 L60.1291558,1.85760352 C58.9223377,0.659742187 57.3175325,0 55.6108442,0 L7.99772727,0 C3.60467532,0 0.0305844156,3.54756445 0.0305844156,7.90801172 L0.0305844156,91.0919883 C0.0305844156,95.4524355 3.60467532,99 7.99772727,99 L69.1669481,99 C73.56,99 77.1338961,95.4524355 77.1338961,91.0919883 L77.1338961,63.5668945 C77.1338961,62.766 76.4801299,62.1166992 75.6730519,62.1166992 Z M72.1457143,17.8869023 L64.1585065,17.8869023 C61.3766883,17.8869023 59.1136364,15.6404531 59.1136364,12.8794746 L59.1136364,4.95135352 L72.1457143,17.8869023 Z" id="Shape"></path>
                        <path d="M11.2287662,18.9499922 L26.5124026,18.9499922 C27.8844156,18.9499922 29.0004545,17.8422363 29.0004545,16.4804062 L29.0004545,10.956709 C29.0004545,9.59487891 27.8844156,8.48712305 26.5124026,8.48712305 L11.2287662,8.48712305 C9.85694805,8.48712305 8.74071429,9.59487891 8.74071429,10.956709 L8.74071429,16.4804062 C8.74071429,17.842043 9.85694805,18.9499922 11.2287662,18.9499922 Z M11.6627922,11.3875137 L26.0783766,11.3875137 L26.0783766,16.0496016 L11.6627922,16.0496016 L11.6627922,11.3875137 Z" id="Shape"></path>
                    </g>
                </g>
            </g>
        </g>
    </g>
</svg>