<?xml version="1.0" encoding="UTF-8"?>
<svg width="91px" height="87px" viewBox="0 0 91 87" version="1.1" xmlns="http://www.w3.org/2000/svg" xmlns:xlink="http://www.w3.org/1999/xlink">
    <title>sprint_icon</title>
    <g id="Project-Dashboard---Web" stroke="none" stroke-width="1" fill="none" fill-rule="evenodd">
        <g id="Project_Dashboard_Empty_Screen" transform="translate(-1069.000000, -445.000000)">
            <g id="sprint_icon" transform="translate(1069.777692, 445.000000)">
                <path d="M45,76 C66.0074272,76 64.8806557,59.8193548 84.650048,39.4709677 C104.41944,19.1225806 64.5690147,0 43.5615875,0 C22.5541603,0 -1.43439447,11.6191284 0.0670783634,35.3032258 C1.5685512,58.9873232 23.9925728,76 45,76 Z" id="Oval" fill-opacity="0.160456731" fill="#86C04F"></path>
                <g id="timeline-(1)" transform="translate(7.222308, 19.847656)">
                    <path d="M12.5,10.4023438 C14.9845234,10.4023438 17,8.38693582 17,5.90234375 C17,3.41775168 14.9845234,1.40234375 12.5,1.40234375 C10.0154766,1.40234375 8,3.4179049 8,5.90249698 C8,8.38693582 10.0154766,10.4023438 12.5,10.4023438 L12.5,10.4023438 Z" id="Path" fill="#A7E9A6"></path>
                    <path d="M57.5,1.40234375 C55.0154766,1.40234375 53,3.41775168 53,5.90234375 C53,8.38693582 55.0154766,10.4023438 57.5,10.4023438 C59.9889672,10.4023438 62,8.38693582 62,5.90234375 C62,3.41775168 59.988814,1.40234375 57.5,1.40234375 Z" id="Path" fill="#A7E9A6"></path>
                    <path d="M41,60.9044879 C41,58.4167914 38.9845234,56.4023438 36.5,56.4023438 C34.0154766,56.4023438 32,58.4167914 32,60.9044879 C32,63.3878961 34.0154766,65.4023438 36.5,65.4023438 C38.9845234,65.4023438 41,63.387743 41,60.9044879 Z" id="Path" fill="#A7E9A6"></path>
                    <path d="M11.6164295,10.4023438 C14.0366703,10.4023438 16,8.38693582 16,5.90234375 C16,3.41775168 14.0366703,1.40234375 11.6164295,1.40234375 C11.0959299,1.40234375 10.5966265,1.49351441 10.1312071,1.66727497 C11.7559956,2.32753443 12.9026769,3.95205772 12.9026769,5.850093 C12.9026769,7.80037903 11.6925565,9.46397546 10,10.0894522 C10.4993034,10.2938583 11.0451786,10.4023438 11.6164295,10.4023438 L11.6164295,10.4023438 Z" id="Path" fill="#7FDBAE"></path>
                    <path d="M56.1312103,1.6674282 C57.7560393,2.32768766 58.9027491,3.95221095 58.9027491,5.85024623 C58.9027491,7.80053225 57.6925986,9.46412869 56,10.0896054 C56.5034955,10.2937051 57.0452046,10.4023438 57.6163204,10.4023438 C60.0409504,10.4023438 62,8.38693582 62,5.90234375 C62,3.41775168 60.0409504,1.40234375 57.6163204,1.40234375 C57.0959572,1.40249698 56.5966414,1.49366764 56.1312103,1.6674282 L56.1312103,1.6674282 Z" id="Path" fill="#7FDBAE"></path>
                    <path d="M41,60.9044879 C41,58.4167914 39.0366703,56.4023438 36.6164295,56.4023438 C36.0959299,56.4023438 35.5966265,56.4979125 35.1312071,56.6671487 C36.7559956,57.3270936 37.9026769,58.9551312 37.9026769,60.8524152 C37.9026769,62.801772 36.6925565,64.4645757 35,65.0897544 C35.4993034,65.2894685 36.0451786,65.4023438 36.6162802,65.4023438 C39.0366703,65.4021906 41,63.387743 41,60.9044879 L41,60.9044879 Z" id="Path" fill="#7FDBAE"></path>
                    <polygon id="Path" fill="#FFD772" points="32 34.400299 22.9335757 20.4023438 11.9155651 20.4023438 1 20.4023438 10.0620553 34.400299 1 48.4023438 22.9335757 48.4023438"></polygon>
                    <polygon id="Path" fill="#75CEF8" points="23 20.4023438 32.0651908 34.400299 23 48.4023438 36.3862952 48.4023438 44.9348092 48.4023438 54 34.400299 44.9348092 20.4023438"></polygon>
                    <polygon id="Path" fill="#EB5468" points="45 20.4023438 54.0651908 34.400299 45 48.4023438 66.9348092 48.4023438 76 34.400299 66.9348092 20.4023438 57.4641101 20.4023438"></polygon>
                    <polygon id="Path" fill="#FBBA58" points="16 20.4023438 25.0780912 34.400299 16 48.4023438 22.917683 48.4023438 32 34.400299 22.917683 20.4023438"></polygon>
                    <polygon id="Path" fill="#60B7FF" points="38 20.4023438 47.078026 34.400299 38 48.4023438 44.9175973 48.4023438 54 34.400299 44.9175973 20.4023438"></polygon>
                    <polygon id="Path" fill="#E5384F" points="60 20.4023438 69.0798536 34.400299 60 48.4023438 66.9199955 48.4023438 76 34.400299 66.9199955 20.4023438"></polygon>
                    <path d="M76.8273144,33.7410067 L67.7768285,19.4799619 C67.570493,19.1548395 67.2097068,18.9573853 66.8215495,18.9573853 L58.4939896,18.9573853 L58.4939896,11.2599446 C61.0145304,10.7433199 62.9147113,8.53114823 62.9147113,5.88820799 C62.9147113,2.86330471 60.4256021,0.40234375 57.3660627,0.40234375 C54.308779,0.40234375 51.8216249,2.86330471 51.8216249,5.88820799 C51.8216249,8.53085064 53.7200012,10.7427247 56.2381357,11.259647 L56.2381357,18.9573853 L36.3962462,18.9573853 C35.7733298,18.9573853 35.2683193,19.4570471 35.2683193,20.0733661 C35.2683193,20.6896851 35.7733298,21.189347 36.3962462,21.189347 L44.2988033,21.189347 L52.6411014,34.3345597 L44.2986529,47.4837901 L37.5156009,47.4837901 L37.5156009,41.5641813 C37.5156009,40.9478622 37.0105905,40.4482004 36.387674,40.4482004 C35.7647575,40.4482004 35.259747,40.9478622 35.259747,41.5641813 L35.259747,47.4837901 L25.0628362,47.4837901 L33.0288579,34.9278152 C33.2591054,34.565047 33.2591054,34.1037749 33.0288579,33.7410067 L25.0632873,21.189347 L31.1910889,21.189347 C31.8140054,21.189347 32.3190159,20.6896851 32.3190159,20.0733661 C32.3190159,19.4570471 31.8140054,18.9573853 31.1910889,18.9573853 L23.0230931,18.9573853 L13.1523787,18.9573853 L13.1523787,11.2597958 C15.6705132,10.7428735 17.5688895,8.53085064 17.5688895,5.88835679 C17.5688895,2.86345351 15.0815849,0.40234375 12.0244517,0.40234375 C8.96731849,0.40234375 6.48001397,2.86345351 6.48001397,5.88835679 C6.48001397,8.53099943 8.37839023,10.7428735 10.8965248,11.2597958 L10.8965248,18.9575341 L1.12807575,18.9575341 C0.717660728,18.9575341 0.339579612,19.1780519 0.141064467,19.533529 C-0.0576010675,19.8888573 -0.0454194563,20.3228994 0.172646422,20.6667703 L8.84249458,34.3347085 L0.172496032,48.0068131 C-0.0455698466,48.350684 -0.0577514577,48.7847261 0.140914077,49.1400544 C0.339579612,49.4953827 0.717510337,49.7159006 1.12792536,49.7159006 L7.38175397,49.7159006 C8.00467043,49.7159006 8.50968093,49.2162387 8.50968093,48.5999197 C8.50968093,47.9836007 8.00467043,47.4839389 7.38175397,47.4839389 L3.16736769,47.4839389 L11.1297801,34.9276664 C11.3597268,34.5648982 11.3597268,34.1040725 11.1297801,33.7413043 L3.16781886,21.1894958 L10.8966752,21.1894958 L10.8966752,25.240655 C10.8966752,25.8569741 11.4016856,26.3566359 12.0246021,26.3566359 C12.6475186,26.3566359 13.1525291,25.8569741 13.1525291,25.240655 L13.1525291,21.1894958 L22.3997254,21.1894958 L30.7420236,34.3347085 L22.399575,47.4839389 L12.5870617,47.4839389 C11.9641452,47.4839389 11.4591347,47.9836007 11.4591347,48.5999197 C11.4591347,49.2162387 11.9641452,49.7159006 12.5870617,49.7159006 L35.259747,49.7159006 L35.259747,55.5408742 C32.7416125,56.0582429 30.8432362,58.2719025 30.8432362,60.9164795 C30.8432362,63.9413828 33.3305408,66.4023438 36.387674,66.4023438 C39.4449576,66.4023438 41.9321117,63.9413828 41.9321117,60.9164795 C41.9321117,58.2719025 40.0337355,56.0582429 37.5156009,55.5408742 L37.5156009,49.7159006 L66.8215495,49.7159006 C67.2097068,49.7159006 67.570493,49.5184463 67.7768285,49.1931751 L76.8273144,34.9278152 C77.0575619,34.565047 77.0575619,34.1037749 76.8273144,33.7410067 L76.8273144,33.7410067 Z M54.0776292,5.88820799 C54.0776292,4.09400839 55.5529577,2.63430544 57.3662131,2.63430544 C59.1818747,2.63430544 60.6590078,4.09400839 60.6590078,5.88820799 C60.6590078,7.6824076 59.1818747,9.14211054 57.3662131,9.14211054 C55.5528073,9.14225934 54.0776292,7.6824076 54.0776292,5.88820799 Z M8.73586788,5.88820799 C8.73586788,4.09400839 10.2111963,2.63430544 12.0244517,2.63430544 C13.8378575,2.63430544 15.3130356,4.09400839 15.3130356,5.88820799 C15.3130356,7.6824076 13.8377071,9.14211054 12.0244517,9.14211054 C10.211046,9.14225934 8.73586788,7.6824076 8.73586788,5.88820799 Z M39.6762578,60.9164795 C39.6762578,62.7106791 38.2009294,64.1703821 36.387674,64.1703821 C34.5744186,64.1703821 33.0990902,62.7106791 33.0990902,60.9164795 C33.0990902,59.1198991 34.5744186,57.6584106 36.387674,57.6584106 C38.2010798,57.6582618 39.6762578,59.1198991 39.6762578,60.9164795 Z M66.1978811,47.4837901 L46.9620644,47.4837901 L54.9280861,34.9278152 C55.1583336,34.565047 55.1583336,34.1037749 54.9280861,33.7410067 L46.9625156,21.189347 L56.2384365,21.189347 L56.2384365,25.2405062 C56.2384365,25.8568253 56.743447,26.3564871 57.3663634,26.3564871 C57.9892799,26.3564871 58.4942904,25.8568253 58.4942904,25.2405062 L58.4942904,21.189347 L66.1981819,21.189347 L74.5404801,34.3345597 L66.1978811,47.4837901 Z" id="Shape" fill="#000000" fill-rule="nonzero"></path>
                </g>
            </g>
        </g>
    </g>
</svg>