<?xml version="1.0" encoding="UTF-8"?>
<svg width="11px" height="16px" viewBox="0 0 11 16" version="1.1" xmlns="http://www.w3.org/2000/svg" xmlns:xlink="http://www.w3.org/1999/xlink">
    <title>flag (1) copy 2</title>
    <g id="Sprint" stroke="none" stroke-width="1" fill="none" fill-rule="evenodd">
        <g id="Project_Dashboard_Description_Seemore_Expand-Copy" transform="translate(-570.000000, -232.000000)" fill="#2B3443" fill-rule="nonzero">
            <g id="flag-(1)-copy-2" transform="translate(570.000000, 232.000000)">
                <path d="M10.7720355,0.6465625 C10.0454984,0.2115 9.27105778,0 8.40428542,0 C7.36722066,0 6.349286,0.30478125 5.36488383,0.59953125 C4.40314974,0.88746875 3.49479835,1.1594375 2.59571458,1.15953125 C2.59558934,1.15953125 2.59546411,1.15953125 2.59533887,1.15953125 C1.99425898,1.15953125 1.44994322,1.03253125 0.939285176,0.7725625 L0.939285176,0.46875 C0.939285176,0.209875 0.729010534,0 0.469642588,0 C0.210274641,0 0,0.209875 0,0.46875 L0,1.0485 L0,7.42025 L0,15.53125 C0,15.790125 0.210274641,16 0.469642588,16 C0.729010534,16 0.939285176,15.790125 0.939285176,15.53125 L0.939285176,8.17040625 C1.45798976,8.37040625 2.00543647,8.46875 2.59571458,8.46875 C3.63271673,8.46875 4.65058876,8.16396875 5.63492832,7.86921875 C6.59672503,7.58125 7.50510772,7.30925 8.40428542,7.30925 C9.09597502,7.30925 9.71236526,7.47703125 10.288742,7.8221875 C10.4337989,7.9090625 10.6144861,7.911375 10.761766,7.82815625 C10.9089833,7.74496875 11,7.589125 11,7.42025 L11,1.0485 C11,0.88384375 10.9134292,0.73125 10.7720355,0.6465625 Z" id="Path"></path>
            </g>
        </g>
    </g>
</svg>