<svg xmlns="http://www.w3.org/2000/svg" width="16" height="17" viewBox="0 0 16 17">
    <g fill="none" fill-rule="evenodd">
        <g fill="#BDC4CC" fill-rule="nonzero">
            <path d="M229.976 239c-.101.005-.2.031-.285.078l-7.414 3.994c-.172.093-.277.255-.277.43 0 .174.105.337.277.429l7.414 3.993c.19.101.429.101.618 0l7.414-3.993c.172-.092.277-.255.277-.43 0-.174-.105-.336-.277-.429l-7.414-3.994c-.1-.054-.215-.081-.333-.078zm-6.28 8l-1.422.674c-.17.081-.274.223-.274.375s.103.294.274.375l7.417 3.51c.19.088.429.088.618 0l7.417-3.51c.17-.081.274-.223.274-.375s-.103-.294-.274-.375l-1.422-.674-5.372 2.539-.004.001c-.566.266-1.29.266-1.856 0l-.004-.001-5.372-2.539zm.003 4l-1.423.673c-.172.081-.276.224-.276.377s.104.295.276.376l7.415 3.507c.19.09.429.09.618 0l7.415-3.507c.172-.08.276-.223.276-.376s-.104-.296-.276-.377L236.3 251l-5.37 2.542-.003.002c-.566.265-1.29.265-1.856 0l-.004-.002L223.7 251z" transform="translate(-222 -239)"/>
        </g>
    </g>
</svg>
