<?xml version="1.0" encoding="UTF-8"?>
<svg width="98px" height="89px" viewBox="0 0 98 89" version="1.1" xmlns="http://www.w3.org/2000/svg" xmlns:xlink="http://www.w3.org/1999/xlink">
    <title>tag_icon</title>
    <g id="Project-Dashboard-(Edit,-Sign,-Chagne-State,-Close,-Delete)" stroke="none" stroke-width="1" fill="none" fill-rule="evenodd" opacity="0.5">
        <g id="Project_Dashboard_empty_2" transform="translate(-274.000000, -704.000000)" fill-rule="nonzero">
            <g id="tag_icon" transform="translate(323.047769, 748.546271) rotate(10.000000) translate(-323.047769, -748.546271) translate(280.047769, 711.046271)">
                <g id="Group-4" transform="translate(36.952231, 5.953729)">
                    <path d="M46.6934273,38.7667341 L14.2575657,1.49702946 C13.3817449,0.490537846 12.0651625,-0.0613830786 10.6983431,0.00543846007 L0,0.528351037 L33.8398026,39.4108453 C36.5705288,42.5485092 36.1282415,47.24141 32.8512491,49.8924752 L15.8852849,63.6197955 L17.4487036,65.415599 C20.1241671,68.4901372 24.8951669,68.8763061 28.1056146,66.2789951 L45.4206255,52.2695192 C49.6412913,48.8538712 50.2112337,42.8088256 46.6934273,38.7667341 Z" id="Path"></path>
                    <path d="M13.8107498,16.5097784 L13.8065387,16.5105306 C12.9564886,16.6623688 12.3873461,17.4658613 12.5335305,18.3057081 C12.6796115,19.1449609 13.4894222,19.7027535 14.3400739,19.5508079 C15.1907257,19.3988622 15.7615695,18.5944534 15.6154885,17.7552006 C15.4693041,16.9153539 14.6607999,16.3579402 13.8107498,16.5097784 Z" id="Path" fill="#CBD2D5"></path>
                </g>
                <g id="Group-5" transform="translate(0.952231, 0.953729)">
                    <path d="M68.9618867,44.0214275 L36.2419885,6.10582314 L35.945188,5.76141155 C34.3824127,3.95133179 32.0274983,2.96437652 29.5783781,3.09481205 L11.4961284,4.05463799 C9.51701865,4.15911193 7.83424703,5.53255315 7.38514143,7.41042195 L3.27821562,24.5645553 C2.72185403,26.8885236 3.31203465,29.3151395 4.87430414,31.1259168 L37.8909,69.3853437 C40.5313574,72.4455723 45.2600406,72.8131795 48.4524427,70.2070582 L51.4305723,67.7757454 L67.9617467,54.2805938 C71.1547575,51.674364 71.6022414,47.0810671 68.9618867,44.0214275 L68.9618867,44.0214275 Z M16.8182645,20.8726988 C15.1034235,18.8855991 15.3942206,15.9037037 17.4669357,14.2112054 C19.5403623,12.5191879 22.6100412,12.7575325 24.3248823,14.7446322 C26.0390116,16.7312514 25.748926,19.7136274 23.6754994,21.4056449 C21.6027843,23.0981432 18.5323939,22.859318 16.8182645,20.8726988 Z" id="Shape"></path>
                    <path d="M14.6906975,11.7357747 C11.8678008,13.9334218 11.4810762,17.8328205 13.8294787,20.4284277 C14.9666784,21.6857079 16.5692,22.4531071 18.3400357,22.5892654 C18.9321332,22.6351456 19.5184909,22.6083224 20.0888618,22.5129055 C21.2258346,22.3227023 22.2970837,21.8590202 23.2080312,21.1496592 C24.5757086,20.0854077 25.4185899,18.5950996 25.5810908,16.9533028 C25.7442198,15.311401 25.2071858,13.7147619 24.0699859,12.4574819 C21.7215835,9.86187456 17.5142221,9.53802248 14.6906975,11.7357747 Z M22.3316895,16.7027622 C22.2489566,17.5400787 21.818952,18.3001404 21.1212886,18.8432628 C20.4242534,19.3862802 19.5426155,19.6469592 18.6391675,19.5777041 C17.7356117,19.5078683 16.9187502,19.1168968 16.3383972,18.47555 C15.1408959,17.1516996 15.3379743,15.1627502 16.7780681,14.042066 C17.2516999,13.6735679 17.8010114,13.4439288 18.3688697,13.3489323 C19.5265718,13.1552612 20.757322,13.5219105 21.5610675,14.4103596 C22.1407922,15.0518114 22.4150506,15.8653406 22.3316895,16.7027622 Z" id="Shape" fill="#CBD2D5"></path>
                    <path d="M81.3938855,42.0282896 L49.8596335,4.63539532 C48.6988871,3.25944003 46.9232537,2.4934516 45.1103731,2.58679061 L35.4732015,3.08268316 C33.5982704,1.0103319 30.8323604,-0.13304813 28.0099176,0.0123698134 L9.89036294,0.944723322 C7.20551445,1.08228728 4.90781242,3.0009824 4.30469098,5.60977192 L0.237639433,23.2041892 C-0.420131219,26.0492017 0.306582603,29.075485 2.18197668,31.2993202 L35.3800783,70.663981 C37.53333,73.2178005 40.8307059,74.2714092 43.9339595,73.7144514 C45.4541817,73.4416089 46.928193,72.7822372 48.1976378,71.7223439 L49.9575575,70.2525762 L50.464043,70.8533939 C51.9928082,72.6660274 54.1455335,73.7722581 56.5260867,73.9687399 C57.320894,74.0344183 58.1089675,73.9958943 58.8754887,73.858365 C60.4036309,73.5840586 61.8434178,72.9158599 63.0671749,71.8934817 L79.9365382,57.806443 C82.2501426,55.8742903 83.6765452,53.1688883 83.9518547,50.1885576 C84.226659,47.2089412 83.3184047,44.310671 81.3938855,42.0282896 L81.3938855,42.0282896 Z M80.7969573,49.9283769 C80.5990839,52.0708602 79.5740969,54.0156184 77.9103077,55.4051366 L61.0414507,69.4914676 C59.8538532,70.4830309 58.3531776,70.9594445 56.8151573,70.8319263 C55.2772417,70.7050127 53.8864914,69.9903272 52.899007,68.8196693 L52.3925214,68.2188512 L67.7034382,55.4325594 C67.8188155,55.3363804 67.9313343,55.2382193 68.0408901,55.1374715 C68.0435199,55.1345046 68.0462544,55.1321426 68.048989,55.1297806 C68.0700465,55.1097843 68.0918185,55.0902833 68.112266,55.0703965 C68.1263393,55.0572673 68.1404126,55.044138 68.1544857,55.0310087 C68.1647096,55.0210652 68.1744283,55.0118362 68.1846522,55.0018927 C69.7698575,53.4817722 70.7441665,51.4731329 70.9470718,49.2798477 C71.1674277,46.8969345 70.4502053,44.5787538 68.9276337,42.7438006 C68.924461,42.7400038 68.9212882,42.7362071 68.9180107,42.7318055 C68.9054245,42.7172237 68.8934481,42.7025323 68.8809667,42.6885553 L55.6327467,26.9780292 C55.0727435,26.3150868 54.0743991,26.2322974 53.4020974,26.7939382 C52.7291859,27.3556885 52.6377877,28.348858 53.1971809,29.0119098 L66.4459061,44.7217216 C68.1409783,46.7321709 68.2360939,49.5605697 66.8733439,51.6788438 C66.5544095,52.1751927 66.1551169,52.6323228 65.6778103,53.0311017 L49.1490059,66.8337288 C49.1473862,66.8352669 49.1451564,66.8369146 49.1435367,66.8384527 L46.1713035,69.3204374 C43.6560153,71.4203961 39.9072974,71.1114431 37.815042,68.6302547 L4.61754548,29.2654571 C3.37113488,27.7869898 2.88739866,25.7749472 3.32478138,23.8826323 L7.3918313,6.28820475 C7.67612043,5.05832644 8.75917423,4.1528893 10.0268511,4.08816671 L28.1457961,3.1559242 C30.0939368,3.05577398 32.0013892,3.87856634 33.2484095,5.35692407 L44.7966412,19.0503986 C45.3560344,19.7134504 46.3549886,19.7961304 47.0272904,19.2344896 C47.6995921,18.6728487 47.7917048,17.6801747 47.2322069,17.016518 L38.0269629,6.1010374 L45.2467573,5.72963402 C46.0781452,5.6870787 46.8915917,6.03820017 47.4239642,6.66867757 L78.9583255,44.0622027 C80.3415641,45.7026088 80.9948306,47.7858934 80.7969573,49.9283769 L80.7969573,49.9283769 Z" id="Shape" fill="#CBD2D5"></path>
                </g>
            </g>
        </g>
    </g>
</svg>