<svg xmlns="http://www.w3.org/2000/svg" width="20" height="20" viewBox="0 0 20 20">
    <g fill="none" fill-rule="evenodd">
        <path d="M0 0H20V20H0z" transform="matrix(-1 0 0 1 20 0)"/>
        <path fill="#AAADB8" d="M10.809 10.003l-4.76-4.988c-.131-.137-.203-.32-.203-.516 0-.195.072-.378.203-.516l.417-.437c.13-.137.306-.213.492-.213.187 0 .361.076.492.213l5.668 5.94c.131.137.203.32.203.516 0 .197-.071.38-.203.518l-5.662 5.934c-.131.137-.306.213-.493.213-.186 0-.36-.076-.492-.213l-.417-.437c-.271-.285-.271-.748 0-1.032l4.755-4.982z"/>
    </g>
</svg>
