<?xml version="1.0" encoding="UTF-8"?>
<svg width="147px" height="139px" viewBox="0 0 147 139" version="1.1" xmlns="http://www.w3.org/2000/svg" xmlns:xlink="http://www.w3.org/1999/xlink">
    <title>close-request-icon</title>
    <g id="Sprint-Details" stroke="none" stroke-width="1" fill="none" fill-rule="evenodd">
        <g id="Sprint_Web_Dash_Action_Close_Request" transform="translate(-656.000000, -350.000000)">
            <g id="close-request-icon" transform="translate(656.777692, 350.500000)">
                <path d="M73,126 C107.078715,126 105.250841,99.1741935 137.321189,65.4387097 C169.391536,31.7032258 104.745291,0 70.6665753,0 C36.58786,0 -2.32690658,19.2632918 0.108816012,58.5290323 C2.54453861,97.7947727 38.9212847,126 73,126 Z" id="Oval" fill-opacity="0.160456731" fill="#86C04F"></path>
                <g id="file-copy-2" transform="translate(31.053441, 32.448462)">
                    <g id="Group" transform="translate(1.168867, 2.051538)">
                        <path d="M73.3782798,29.606012 L73.3782798,83.6686747 C73.3782798,88.1933373 69.6814679,91.8614458 65.1213991,91.8614458 L8.35534404,91.8614458 C3.79527523,91.8614458 0.0984633028,88.1933373 0.0984633028,83.6686747 L0.0984633028,8.29518072 C0.0984633028,3.77051807 3.79527523,0.102409639 8.35534404,0.102409639 L43.6941743,0.102409639 C45.338945,0.102409639 46.9160092,0.751686747 48.0777523,1.90666265 L71.5691972,25.2656867 C72.7276376,26.4177952 73.3782798,27.9787229 73.3782798,29.606012 Z" id="Path" fill="#F9F8F9" fill-rule="nonzero"></path>
                        <path d="M73.3782798,29.6066265 L73.3782798,33.2093976 L51.8443349,33.2093976 C45.3523624,33.2093976 40.0700229,27.9619277 40.0700229,21.5142169 L40.0700229,0.102409639 L43.6947936,0.102409639 C45.3379128,0.102409639 46.9149771,0.751686747 48.077133,1.90686747 L71.5700229,25.266506 C72.7280505,26.4175904 73.3782798,27.9783133 73.3782798,29.6066265 Z" id="Path" fill="#E3E0E4" fill-rule="nonzero"></path>
                        <path d="M14.5480046,91.8614458 L8.35534404,91.8614458 C3.79548165,91.8614458 0.0984633028,88.1931325 0.0984633028,83.6686747 L0.0984633028,8.29518072 C0.0984633028,3.77072289 3.79548165,0.102409639 8.35534404,0.102409639 L14.5480046,0.102409639 C9.9881422,0.102409639 6.29112385,3.77072289 6.29112385,8.29518072 L6.29112385,83.6686747 C6.29112385,88.1931325 9.9881422,91.8614458 14.5480046,91.8614458 Z" id="Path" fill="#E3E0E4" fill-rule="nonzero"></path>
                        <g transform="translate(45.908257, 0.614458)" fill="#A29AA5" fill-rule="nonzero" id="Path">
                            <path d="M26.9147477,26.4503614 L5.93607798,26.4503614 C2.85419725,26.4503614 0.354426606,23.9638554 0.354426606,20.899759 L0.354426606,0.045060241 C1.02323394,0.344096386 1.64043578,0.766024096 2.16887615,1.29240964 L25.6617661,24.6520482 C26.1881422,25.1763855 26.6133716,25.786747 26.9147477,26.4503614 Z"></path>
                        </g>
                        <ellipse id="Oval" fill="#FF7800" fill-rule="nonzero" cx="68.9379358" cy="81.1084337" rx="20.9541055" ry="20.7891566"></ellipse>
                        <path d="M85.6748394,93.616747 C81.8519037,98.6471084 75.7769037,101.89759 68.9381422,101.89759 C57.3661239,101.89759 47.9842431,92.5906024 47.9842431,81.1084337 C47.9842431,74.3227711 51.2601606,68.296988 56.3298853,64.5037349 C53.6814908,67.9836145 52.1126835,72.3155422 52.1126835,77.0120482 C52.1126835,88.4942169 61.4945642,97.8012048 73.0665826,97.8012048 C77.7998394,97.8012048 82.1656651,96.2445783 85.6748394,93.616747 Z" id="Path" fill="#C4620B" fill-rule="nonzero"></path>
                        <g id="icon-/-other-/-info" transform="translate(54.000000, 64.951172)">
                            <polygon id="base" points="0 0 32 0 32 32 0 32"></polygon>
                            <path d="M16,2.66666667 C23.36,2.66666667 29.3333333,8.64 29.3333333,16 C29.3333333,23.36 23.36,29.3333333 16,29.3333333 C8.64,29.3333333 2.66666667,23.36 2.66666667,16 C2.66666667,8.64 8.64,2.66666667 16,2.66666667 Z M16,5.33333333 C10.1127593,5.33333333 5.33333333,10.1127593 5.33333333,16 C5.33333333,21.8872407 10.1127593,26.6666667 16,26.6666667 C21.8872407,26.6666667 26.6666667,21.8872407 26.6666667,16 C26.6666667,10.1127593 21.8872407,5.33333333 16,5.33333333 Z M17.3333333,20 L17.3333333,22.6666667 L14.6666667,22.6666667 L14.6666667,20 L17.3333333,20 Z M17.3333333,9.33333333 L17.3333333,17.3333333 L14.6666667,17.3333333 L14.6666667,9.33333333 L17.3333333,9.33333333 Z" id="shape" fill="#FFFFFF" transform="translate(16.000000, 16.000000) scale(1, -1) translate(-16.000000, -16.000000) "></path>
                        </g>
                    </g>
                    <g id="Group" transform="translate(0.168867, 0.051538)" fill="#000000" fill-rule="nonzero">
                        <path d="M1.55475333,22.8662109 C2.41097333,22.8662109 3.10475333,22.1775586 3.10475333,21.328125 L3.10475333,9.74121094 C3.10475333,6.06621094 6.11774667,3.07617188 9.82142,3.07617188 L27.2752467,3.07617188 C28.1314667,3.07617188 28.8252467,2.38751953 28.8252467,1.53808594 C28.8252467,0.688652344 28.1314667,0 27.2752467,0 L9.82142,0 C4.40861333,0 0.00475333333,4.37000977 0.00475333333,9.74121094 L0.00475333333,21.328125 C0.00475333333,22.1775586 0.698533333,22.8662109 1.55475333,22.8662109 Z" id="Path"></path>
                        <path d="M16.7352467,91.875 L9.82142,91.875 C6.11774667,91.875 3.10475333,88.8849609 3.10475333,85.2099609 L3.10475333,28.5058594 C3.10475333,27.6564258 2.41097333,26.9677734 1.55475333,26.9677734 C0.698533333,26.9677734 0.00475333333,27.6564258 0.00475333333,28.5058594 L0.00475333333,85.2099609 C0.00475333333,90.5811621 4.40861333,94.9511719 9.82142,94.9511719 L16.7352467,94.9511719 C17.5914667,94.9511719 18.2852467,94.2625195 18.2852467,93.4130859 C18.2852467,92.5636523 17.5914667,91.875 16.7352467,91.875 Z" id="Path"></path>
                        <path d="M76.47142,61.1001562 L76.47142,31.0789746 C76.47142,29.0277832 75.66728,27.0986133 74.2073867,25.6468652 L50.6878933,2.25832031 C49.22366,0.802060547 47.2752067,-5.82867088e-15 45.2021333,-5.82867088e-15 L34.50858,-5.82867088e-15 C33.65236,-5.82867088e-15 32.95858,0.688652344 32.95858,1.53808594 C32.95858,2.38751953 33.65236,3.07617187 34.50858,3.07617187 L45.2021333,3.07617187 C45.5505733,3.07617187 45.8919867,3.11780273 46.2238933,3.19142578 L46.2238933,22.9763379 C46.2238933,26.8892285 49.4264,30.0726562 53.36278,30.0726562 L73.2569267,30.0726562 C73.3300867,30.3997559 73.3712133,30.736084 73.3712133,31.0791797 L73.3712133,60.4783594 C72.4205467,60.356543 71.4519,60.2931738 70.4683733,60.2931738 C61.5916267,60.2931738 53.5148867,65.491084 49.89202,73.5352734 C49.54296,74.3108789 49.89326,75.2204004 50.6748733,75.5669824 C51.45566,75.9131543 52.3728467,75.565957 52.72232,74.7903516 C55.84712,67.8521484 62.81282,63.3691406 70.46858,63.3691406 C71.8875533,63.3691406 73.2707733,63.522334 74.60398,63.8102637 C74.6066667,63.8108789 74.6091467,63.8114941 74.6118333,63.8119043 C83.3395733,65.7008789 89.89504,73.4276074 89.89504,82.6464844 C89.89504,93.2760937 81.18032,101.923828 70.4683733,101.923828 C59.7564267,101.923828 51.0417067,93.2760937 51.0417067,82.6464844 C51.0417067,82.1760352 51.0590667,81.6998437 51.0931667,81.2314453 C51.15496,80.3842676 50.5128467,79.647627 49.6591067,79.5865137 C48.8049533,79.5272461 48.0628133,80.162373 48.0014333,81.0095508 C47.96196,81.5515723 47.9419133,82.1024121 47.9419133,82.6464844 C47.9419133,85.9353223 48.6617333,89.0603027 49.9525733,91.875 L23.96858,91.875 C23.11236,91.875 22.41858,92.5636523 22.41858,93.4130859 C22.41858,94.2625195 23.11236,94.9511719 23.96858,94.9511719 L51.6716267,94.9511719 C55.7072067,101.001182 62.62558,105 70.46858,105 C82.8898667,105 92.9952467,94.9722949 92.9952467,82.6464844 C92.9952467,72.3827344 85.9878,63.713877 76.47142,61.1001562 L76.47142,61.1001562 Z M49.3241,22.9763379 L49.3241,5.25697266 L71.1853,26.9964844 L53.3629867,26.9964844 C51.13574,26.9964844 49.3241,25.1930273 49.3241,22.9763379 L49.3241,22.9763379 Z" id="Shape"></path>
                    </g>
                </g>
            </g>
        </g>
    </g>
</svg>