<?xml version="1.0" encoding="UTF-8"?>
<svg width="147px" height="129px" viewBox="0 0 147 129" version="1.1" xmlns="http://www.w3.org/2000/svg" xmlns:xlink="http://www.w3.org/1999/xlink">
    <title>delete-meeting-icon</title>
    <g id="Review-Meeting" stroke="none" stroke-width="1" fill="none" fill-rule="evenodd">
        <g id="Meeting_Review_Delete" transform="translate(-115.000000, -322.000000)">
            <g id="delete-meeting-icon" transform="translate(115.777692, 322.500000)">
                <path d="M73,126 C107.078715,126 105.250841,99.1741935 137.321189,65.4387097 C169.391536,31.7032258 104.745291,0 70.6665753,0 C36.58786,0 -2.32690658,19.2632918 0.108816012,58.5290323 C2.54453861,97.7947727 38.9212847,126 73,126 Z" id="Oval" fill-opacity="0.160456731" fill="#86C04F"></path>
                <g id="meeting" transform="translate(13.222308, 22.500000)" fill-rule="nonzero">
                    <g id="Group" transform="translate(3.000000, 3.000000)">
                        <path d="M51.0002073,16.5855732 C52.8670976,16.5855732 54.5901098,15.9685976 55.9760244,14.9274512 C57.9901098,13.4144512 59.2928902,11.0058415 59.2928902,8.29289024 C59.2928902,7.72504878 59.2356707,7.17026829 59.1270366,6.63456098 C58.3587195,2.84936585 55.0122073,0.000207317073 51.0002073,0.000207317073 C46.9882073,0.000207317073 43.6416951,2.84915854 42.873378,6.63456098 C42.7647439,7.17047561 42.7075244,7.72504878 42.7075244,8.29289024 C42.7075244,11.0058415 44.0103049,13.4144512 46.0243902,14.9274512 C47.4105122,15.9685976 49.1333171,16.5855732 51.0002073,16.5855732 Z" id="Path" fill="#6D91AC"></path>
                        <path d="M46.0243902,14.9274512 C44.0103049,13.4144512 42.7075244,11.0058415 42.7075244,8.29289024 C42.7075244,7.72504878 42.7647439,7.17026829 42.8735854,6.63456098 L38.5609756,6.63456098 C36.2804878,6.63456098 34.4146341,8.50041463 34.4146341,10.7809024 L34.4146341,14.9276585 L46.0243902,14.9276585 L46.0243902,14.9274512 Z" id="Path" fill="#A7BDCD"></path>
                        <path d="M59.2928902,8.29289024 C59.2928902,11.0058415 57.9901098,13.4144512 55.9756098,14.9274512 L67.5855732,14.9274512 L67.5855732,10.7806951 C67.5855732,8.50082927 65.7197195,6.63435366 63.4392317,6.63435366 L59.1268293,6.63435366 C59.235878,7.17026829 59.2928902,7.72484146 59.2928902,8.29289024 Z" id="Path" fill="#A7BDCD"></path>
                        <path d="M30.8659878,28.5859146 C30.8659878,25.6345488 28.4513659,23.2199268 25.5,23.2199268 C22.5486341,23.2199268 20.1340122,25.6345488 20.1340122,28.5859146 L20.1340122,31.2690122 C20.1340122,32.640622 20.655622,33.8965488 21.5103902,34.8477195 C22.4945244,35.9431829 23.9204512,36.6347927 25.5,36.6347927 C27.0795488,36.6347927 28.5052683,35.9431829 29.4896098,34.8477195 C30.344378,33.8965488 30.8659878,32.640622 30.8659878,31.2690122 L30.8659878,28.5859146 Z" id="Path" fill="#FFDCD5"></path>
                        <path d="M29.4896098,34.8477195 C28.5054756,35.9431829 27.0795488,36.6347927 25.5,36.6347927 C23.9204512,36.6347927 22.4945244,35.9431829 21.5105976,34.8475122 C18.3262073,36.3542927 16.1095732,39.6017073 16.1095732,43.342122 L16.1095732,46.0248049 L34.8904268,46.0248049 L34.8904268,43.342122 C34.8906341,39.6019146 32.6737927,36.3542927 29.4896098,34.8477195 L29.4896098,34.8477195 Z" id="Path" fill="#FFC144"></path>
                        <path d="M30.8659878,59.6834756 C30.8659878,56.7321098 28.4513659,54.3174878 25.5,54.3174878 C22.5486341,54.3174878 20.1340122,56.7321098 20.1340122,59.6834756 L20.1340122,62.3663659 C20.1340122,63.7379756 20.655622,64.9939024 21.5103902,65.9450732 C22.4945244,67.0405366 23.9204512,67.7321463 25.5,67.7321463 C27.0795488,67.7321463 28.5052683,67.0405366 29.4896098,65.9450732 C30.344378,64.9939024 30.8659878,63.7379756 30.8659878,62.3663659 L30.8659878,59.6834756 Z" id="Path" fill="#FFDCD5"></path>
                        <path d="M29.4896098,65.9450732 C28.5054756,67.0405366 27.0795488,67.7321463 25.5,67.7321463 C23.9204512,67.7321463 22.4945244,67.0405366 21.5105976,65.9448659 C18.3262073,67.4516463 16.1095732,70.699061 16.1095732,74.4394756 L16.1095732,77.1221585 L34.8904268,77.1221585 L34.8904268,74.4394756 C34.8906341,70.6992683 32.6737927,67.4518537 29.4896098,65.9450732 L29.4896098,65.9450732 Z" id="Path" fill="#00CCF2"></path>
                        <path d="M81.8661951,28.5859146 C81.8661951,25.6345488 79.4515732,23.2199268 76.5002073,23.2199268 C73.5488415,23.2199268 71.1342195,25.6345488 71.1342195,28.5859146 L71.1342195,31.2690122 C71.1342195,32.640622 71.6558293,33.8965488 72.5105976,34.8477195 C73.4947317,35.9431829 74.9206585,36.6347927 76.5002073,36.6347927 C78.0797561,36.6347927 79.5054756,35.9431829 80.4898171,34.8477195 C81.3445854,33.8965488 81.8661951,32.640622 81.8661951,31.2690122 L81.8661951,28.5859146 Z" id="Path" fill="#FFDCD5"></path>
                        <path d="M80.4900244,34.8477195 C79.5058902,35.9431829 78.0799634,36.6347927 76.5004146,36.6347927 C74.9208659,36.6347927 73.494939,35.9431829 72.5110122,34.8475122 C69.3268293,36.3542927 67.1099878,39.6017073 67.1099878,43.342122 L67.1099878,46.0248049 L85.8908415,46.0248049 L85.8908415,43.342122 C85.8908415,39.6019146 83.674,36.3542927 80.4900244,34.8477195 L80.4900244,34.8477195 Z" id="Path" fill="#88DF8E"></path>
                        <path d="M81.8661951,59.6834756 C81.8661951,56.7321098 79.4515732,54.3174878 76.5002073,54.3174878 C73.5488415,54.3174878 71.1342195,56.7321098 71.1342195,59.6834756 L71.1342195,62.3663659 C71.1342195,63.7379756 71.6558293,64.9939024 72.5105976,65.9450732 C73.4947317,67.0405366 74.9206585,67.7321463 76.5002073,67.7321463 C78.0797561,67.7321463 79.5054756,67.0405366 80.4898171,65.9450732 C81.3445854,64.9939024 81.8661951,63.7379756 81.8661951,62.3663659 L81.8661951,59.6834756 Z" id="Path" fill="#FFDCD5"></path>
                        <path d="M80.4900244,65.9450732 C79.5058902,67.0405366 78.0799634,67.7321463 76.5004146,67.7321463 C74.9208659,67.7321463 73.494939,67.0405366 72.5110122,65.9448659 C69.3268293,67.4516463 67.1099878,70.699061 67.1099878,74.4394756 L67.1099878,77.1221585 L85.8908415,77.1221585 L85.8908415,74.4394756 C85.8908415,70.6992683 83.674,67.4518537 80.4900244,65.9450732 L80.4900244,65.9450732 Z" id="Path" fill="#FF5D7D"></path>
                        <path d="M51.0002073,77.1223659 L34.8904268,77.1223659 L16.1095732,77.1223659 L0.000207317073,77.1223659 L0.000207317073,81.2689146 C0.000207317073,83.5494024 1.86606098,85.4152561 4.14654878,85.4152561 L85.8908415,85.4152561 L85.8908415,77.1223659 L67.1099878,77.1223659 L51.0002073,77.1223659 Z" id="Path" fill="#8481E2"></path>
                        <path d="M85.8908415,77.1223659 L85.8908415,85.4152561 L97.8540732,85.4152561 C100.134561,85.4152561 102.000415,83.5494024 102.000415,81.2689146 L102.000415,77.1223659 L86.3672561,77.1223659 L85.8908415,77.1223659 Z" id="Path" fill="#B5B3EE"></path>
                        <path d="M34.8906341,46.0250122 L51.0004146,46.0250122 L51.0004146,16.5855732 C49.1335244,16.5855732 47.4105122,15.9685976 46.0248049,14.9274512 L34.4148415,14.9274512 L4.14634146,14.9274512 C1.86585366,14.9274512 -0.000207317073,16.7933049 -0.000207317073,19.0737927 L-0.000207317073,46.0250122 L16.1095732,46.0250122 L16.1095732,43.3423293 C16.1095732,39.6019146 18.3262073,36.3545 21.5101829,34.8479268 C20.655622,33.8967561 20.1340122,32.6408293 20.1340122,31.2692195 L20.1340122,28.586122 C20.1340122,25.6347561 22.5486341,23.2201341 25.5,23.2201341 C28.4513659,23.2201341 30.8659878,25.6349634 30.8659878,28.586122 L30.8659878,31.2690122 C30.8659878,32.6408293 30.344378,33.8965488 29.4896098,34.8477195 C32.6737927,36.3545 34.8904268,39.6017073 34.8904268,43.342122 L34.8904268,46.0250122 L34.8906341,46.0250122 Z" id="Path" fill="#FF9EB1"></path>
                        <path d="M51.0004146,46.0248049 L34.8904268,46.0248049 L16.1095732,46.0248049 L0.000207317073,46.0248049 L0.000207317073,77.1221585 L16.1097805,77.1221585 L16.1097805,74.4394756 C16.1097805,70.699061 18.3264146,67.4516463 21.5103902,65.9450732 C20.6558293,64.9939024 20.1342195,63.7379756 20.1342195,62.3663659 L20.1342195,59.6832683 C20.1342195,56.7319024 22.5488415,54.3172805 25.5002073,54.3172805 C28.4515732,54.3172805 30.8661951,56.7319024 30.8661951,59.6832683 L30.8661951,62.3661585 C30.8661951,63.7379756 30.3445854,64.9936951 29.4898171,65.9448659 C32.674,67.451439 34.8906341,70.6988537 34.8906341,74.4392683 L34.8906341,77.1221585 L51.0004146,77.1221585 L51.0004146,46.0248049 L51.0004146,46.0248049 Z" id="Path" fill="#B8ECBB"></path>
                        <path d="M51.0002073,16.5855732 L51.0002073,46.0250122 L67.1099878,46.0250122 L67.1099878,43.3423293 C67.1099878,39.6019146 69.326622,36.3545 72.5105976,34.8479268 C71.6560366,33.8967561 71.1344268,32.6408293 71.1344268,31.2692195 L71.1344268,28.586122 C71.1344268,25.6347561 73.5490488,23.2201341 76.5004146,23.2201341 C79.4517805,23.2201341 81.8664024,25.6349634 81.8664024,28.586122 L81.8664024,31.2690122 C81.8664024,32.6408293 81.3447927,33.8965488 80.4900244,34.8477195 C83.6742073,36.3545 85.8908415,39.6017073 85.8908415,43.342122 L85.8908415,46.0250122 L102.000415,46.0250122 L102.000415,19.0735854 C102.000415,16.7930976 100.134561,14.9272439 97.8540732,14.9272439 L67.5857805,14.9272439 L55.9760244,14.9272439 C54.5901098,15.9685976 52.8673049,16.5855732 51.0002073,16.5855732 Z" id="Path" fill="#66E0F7"></path>
                        <path d="M67.1099878,46.0248049 L51.0002073,46.0248049 L51.0002073,77.1221585 L67.1099878,77.1221585 L67.1099878,74.4394756 C67.1099878,70.699061 69.326622,67.4516463 72.5105976,65.9450732 C71.6560366,64.9939024 71.1344268,63.7379756 71.1344268,62.3663659 L71.1344268,59.6832683 C71.1344268,56.7319024 73.5490488,54.3172805 76.5004146,54.3172805 C79.4517805,54.3172805 81.8664024,56.7319024 81.8664024,59.6832683 L81.8664024,62.3661585 C81.8664024,63.7379756 81.3447927,64.9936951 80.4900244,65.9448659 C83.6742073,67.451439 85.8908415,70.6988537 85.8908415,74.4392683 L85.8908415,77.1221585 L102.000415,77.1221585 L102.000415,46.0248049 L85.8908415,46.0248049 L67.1099878,46.0248049 Z" id="Path" fill="#FFDA8F"></path>
                        <polygon id="Path" fill="#B5B3EE" points="40.5027073 85.4152561 61.5045488 85.4152561 65.612122 102.000415 36.3885 102.000415"></polygon>
                    </g>
                    <g id="Group" fill="#000000">
                        <path d="M99.7894766,14.9068711 L71.6332266,14.9068711 L71.6332266,12.8361445 C71.6332266,9.41143359 68.847,6.62520703 65.4222891,6.62520703 L62.6553164,6.62520703 C61.1559961,2.75372266 57.3946523,0 53.000207,0 C48.6057617,0 44.844625,2.75372266 43.3453047,6.62520703 L40.578125,6.62520703 C37.1534141,6.62520703 34.3671875,9.41143359 34.3671875,12.8361445 L34.3671875,14.9066641 L6.2109375,14.9066641 C2.78622656,14.9066641 0,17.6928906 0,21.1176016 L0,83.2269766 C0,86.6516875 2.78622656,89.4379141 6.2109375,89.4379141 L39.8740117,89.4379141 L36.7927656,101.859789 L34.3669805,101.859789 C33.2237539,101.859789 32.296668,102.786668 32.296668,103.930102 C32.296668,105.073535 33.2237539,106.000414 34.3669805,106.000414 L71.6334336,106.000414 C72.7766602,106.000414 73.7037461,105.073535 73.7037461,103.930102 C73.7037461,102.786668 72.7766602,101.859789 71.6334336,101.859789 L69.2140664,101.859789 L66.1270234,89.4379141 L99.7892695,89.4379141 C103.21398,89.4379141 106.000207,86.6516875 106.000207,83.2269766 L106.000207,21.1176016 C106.000207,17.6928906 103.214187,14.9068711 99.7894766,14.9068711 Z M81.7535352,64.3506953 C81.7535352,66.163875 80.2784375,67.6389727 78.4650508,67.6389727 C76.6518711,67.6389727 75.1767734,66.163875 75.1767734,64.3506953 L75.1767734,61.6715039 C75.1767734,59.8583242 76.6518711,58.3832266 78.4650508,58.3832266 C80.2784375,58.3832266 81.7535352,59.8583242 81.7535352,61.6715039 L81.7535352,64.3506953 Z M74.2449258,70.4597734 C75.4444648,71.2910039 76.8984453,71.7795977 78.4650508,71.7795977 C80.0333125,71.7795977 81.4885352,71.2899688 82.6889023,70.457082 C84.6132578,71.8205898 85.7722187,74.0116016 85.7722187,76.4071602 L85.7722187,77.015832 L71.1580898,77.015832 L71.1580898,76.4071602 C71.1580898,74.0505234 72.3416875,71.8232813 74.2449258,70.4597734 L74.2449258,70.4597734 Z M85.3097109,67.2389883 C85.6860937,66.3506172 85.8941602,65.3744648 85.8941602,64.3506953 L85.8941602,61.6715039 C85.8941602,57.5751836 82.5613711,54.2426016 78.4650508,54.2426016 C74.3687305,54.2426016 71.0361484,57.5751836 71.0361484,61.6715039 L71.0361484,64.3506953 C71.0361484,65.3744648 71.2444219,66.3506172 71.6205977,67.2389883 C68.7405859,69.3805195 67.0174648,72.7400156 67.0174648,76.4071602 L67.0174648,77.015832 L55.0705195,77.015832 L55.0705195,66.6644766 C55.0705195,65.521043 54.1434336,64.5941641 53.000207,64.5941641 C51.8569805,64.5941641 50.9298945,65.521043 50.9298945,66.6644766 L50.9298945,77.015832 L38.9829492,77.015832 L38.9829492,76.4071602 C38.9829492,72.7414648 37.2596211,69.3809336 34.3796094,67.2389883 C34.7559922,66.3506172 34.9640586,65.3744648 34.9640586,64.3506953 L34.9640586,61.6715039 C34.9640586,57.5751836 31.6314766,54.2426016 27.5351562,54.2426016 C23.4388359,54.2426016 20.1062539,57.5751836 20.1062539,61.6715039 L20.1062539,64.3506953 C20.1062539,65.3744648 20.3145273,66.3506172 20.6907031,67.2389883 C17.8104844,69.3805195 16.0873633,72.7400156 16.0873633,76.4071602 L16.0873633,77.015832 L4.140625,77.015832 L4.140625,77.015832 L4.140625,50.1017695 L101.859789,50.1017695 L101.859789,50.1017695 L101.859789,77.015832 L101.859789,77.015832 L89.9128437,77.015832 L89.9128437,76.4071602 C89.9128437,72.7414648 88.1897227,69.3809336 85.3097109,67.2389883 Z M30.8234336,64.3506953 C30.8234336,66.163875 29.3483359,67.6389727 27.5351562,67.6389727 C25.7219766,67.6389727 24.2468789,66.163875 24.2468789,64.3506953 L24.2468789,61.6715039 C24.2468789,59.8583242 25.7219766,58.3832266 27.5351562,58.3832266 C29.3483359,58.3832266 30.8234336,59.8583242 30.8234336,61.6715039 L30.8234336,64.3506953 Z M23.3148242,70.4595664 C24.5143633,71.2907969 25.9683437,71.7795977 27.5351562,71.7795977 C29.103418,71.7795977 30.5586406,71.2899687 31.7588008,70.4572891 C33.6833633,71.8207969 34.8423242,74.0118086 34.8423242,76.4073672 L34.8423242,77.0160391 L20.2279883,77.0160391 L20.2279883,76.4073672 C20.2279883,74.0505234 21.4115859,71.8230742 23.3148242,70.4595664 Z M30.8234336,33.2962148 C30.8234336,35.1093945 29.3483359,36.5844922 27.5351562,36.5844922 C25.7219766,36.5844922 24.2468789,35.1093945 24.2468789,33.2962148 L24.2468789,30.6168164 C24.2468789,28.8038437 25.7219766,27.3287461 27.5351562,27.3287461 C29.3483359,27.3287461 30.8234336,28.8038437 30.8234336,30.6168164 L30.8234336,33.2962148 Z M23.3150312,39.4050859 C24.5145703,40.2363164 25.9685508,40.7249102 27.5351562,40.7249102 C29.103418,40.7249102 30.5586406,40.2352812 31.7588008,39.4026016 C33.6833633,40.7661094 34.8423242,42.9571211 34.8423242,45.3526797 L34.8423242,45.9613516 L20.2279883,45.9613516 L20.2279883,45.3526797 C20.2279883,42.996043 21.4115859,40.7688008 23.3150313,39.4050859 L23.3150312,39.4050859 Z M81.7535352,33.2962148 C81.7535352,35.1093945 80.2784375,36.5844922 78.4650508,36.5844922 C76.6518711,36.5844922 75.1767734,35.1093945 75.1767734,33.2962148 L75.1767734,30.6168164 C75.1767734,28.8038437 76.6518711,27.3287461 78.4650508,27.3287461 C80.2784375,27.3287461 81.7535352,28.8038437 81.7535352,30.6168164 L81.7535352,33.2962148 Z M74.2449258,39.4050859 C75.4444648,40.2363164 76.8984453,40.7249102 78.4650508,40.7249102 C80.0333125,40.7249102 81.4885352,40.2352812 82.6889023,39.4023945 C84.6132578,40.7659023 85.7722187,42.9569141 85.7722187,45.3524727 L85.7722187,45.9611445 L71.1580898,45.9611445 L71.1580898,45.3524727 C71.1580898,42.996043 72.3416875,40.7688008 74.2449258,39.4050859 Z M101.859789,21.1176016 L101.859789,45.9613516 L101.859789,45.9613516 L89.9128437,45.9613516 L89.9128437,45.3526797 C89.9128437,41.6869844 88.1897227,38.3264531 85.3097109,36.1845078 C85.6860937,35.2961367 85.8941602,34.3199844 85.8941602,33.2962148 L85.8941602,30.6168164 C85.8941602,26.5204961 82.5613711,23.1881211 78.4650508,23.1881211 C74.3687305,23.1881211 71.0361484,26.5207031 71.0361484,30.6168164 L71.0361484,33.2962148 C71.0361484,34.3201914 71.2444219,35.2961367 71.6205977,36.1845078 C68.7405859,38.3262461 67.0174648,41.6855352 67.0174648,45.3526797 L67.0174648,45.9613516 L55.0705195,45.9613516 L55.0705195,20.4950586 C56.3505937,20.2341992 57.5437148,19.7342187 58.6055781,19.0474961 L99.7894766,19.0474961 C100.931047,19.0474961 101.859789,19.9762383 101.859789,21.1176016 Z M67.4926016,12.8361445 L67.4926016,14.9066641 L62.2930117,14.9066641 C62.9124492,13.6481211 63.2828281,12.2465195 63.341418,10.765832 L65.4222891,10.765832 C66.5638594,10.765832 67.4926016,11.6945742 67.4926016,12.8361445 L67.4926016,12.8361445 Z M53.000207,4.140625 C56.425125,4.140625 59.2113516,6.92685156 59.2113516,10.3515625 C59.2113516,13.7762734 56.425125,16.5625 53.000207,16.5625 C49.5754961,16.5625 46.7892695,13.7762734 46.7892695,10.3515625 C46.7892695,6.92685156 49.5754961,4.140625 53.000207,4.140625 Z M38.5078125,14.9066641 L38.5078125,12.8361445 C38.5078125,11.6945742 39.4365547,10.765832 40.578125,10.765832 L42.6592031,10.765832 C42.717793,12.2467266 43.0881719,13.6481211 43.7076094,14.9066641 L38.5078125,14.9066641 C38.5078125,14.9068711 38.5078125,14.9068711 38.5078125,14.9066641 L38.5078125,14.9066641 Z M4.140625,21.1176016 C4.140625,19.9760312 5.06936719,19.0472891 6.2109375,19.0472891 L47.395043,19.0472891 C48.4566992,19.7340117 49.6500273,20.2339922 50.9298945,20.4948516 L50.9298945,45.9613516 L38.9829492,45.9613516 L38.9829492,45.3526797 C38.9829492,41.6869844 37.2596211,38.3264531 34.3796094,36.1845078 C34.7559922,35.2961367 34.9640586,34.3199844 34.9640586,33.2962148 L34.9640586,30.6168164 C34.9640586,26.5204961 31.6314766,23.1881211 27.5351562,23.1881211 C23.4388359,23.1881211 20.1062539,26.5207031 20.1062539,30.6168164 L20.1062539,33.2962148 C20.1062539,34.3199844 20.3145273,35.2961367 20.6907031,36.1845078 C17.8104844,38.3260391 16.0873633,41.6855352 16.0873633,45.3526797 L16.0873633,45.9613516 L4.140625,45.9613516 L4.140625,21.1176016 Z M4.140625,83.2271836 L4.140625,81.1566641 L4.140625,81.1566641 L85.7722188,81.1566641 L85.7722188,85.2972891 L6.2109375,85.2972891 C5.06957422,85.2972891 4.140625,84.3687539 4.140625,83.2271836 Z M64.9475664,101.859789 L41.0590586,101.859789 L44.1403047,89.4379141 L61.8607305,89.4379141 L64.9475664,101.859789 Z M99.7894766,85.2972891 L89.9128437,85.2972891 L89.9128437,81.1566641 L101.859582,81.1566641 L101.859789,81.1566641 L101.859789,83.2271836 C101.859789,84.3687539 100.931047,85.2972891 99.7894766,85.2972891 L99.7894766,85.2972891 Z" id="Shape"></path>
                        <path d="M53.0010352,12.421875 C54.1442617,12.421875 55.0713477,11.4949961 55.0713477,10.3515625 C55.0713477,9.20812891 54.1442617,8.28125 53.0010352,8.28125 L52.9993789,8.28125 C51.8561523,8.28125 50.9298945,9.20812891 50.9298945,10.3515625 C50.9298945,11.4949961 51.8578086,12.421875 53.0010352,12.421875 Z" id="Path"></path>
                        <path d="M53.000207,55.2777578 C51.8569805,55.2777578 50.9298945,56.2052578 50.9298945,57.3486914 C50.9298945,58.492125 51.8569805,59.4190039 53.000207,59.4190039 C54.1434336,59.4190039 55.0705195,58.492125 55.0705195,57.3486914 L55.0705195,57.3472422 C55.0705195,56.2040156 54.1436406,55.2777578 53.000207,55.2777578 Z" id="Path"></path>
                    </g>
                </g>
            </g>
        </g>
    </g>
</svg>