<?xml version="1.0" encoding="UTF-8"?>
<svg width="147px" height="139px" viewBox="0 0 147 139" version="1.1" xmlns="http://www.w3.org/2000/svg" xmlns:xlink="http://www.w3.org/1999/xlink">
    <title>delete-icon-sprint</title>
    <g id="Sprint-Details" stroke="none" stroke-width="1" fill="none" fill-rule="evenodd">
        <g id="Sprint_Web_Dash_Action_Delete" transform="translate(-669.000000, -334.000000)">
            <g id="delete-icon-sprint" transform="translate(669.777692, 334.000000)">
                <path d="M73,126 C107.078715,126 105.250841,99.1741935 137.321189,65.4387097 C169.391536,31.7032258 104.745291,0 70.6665753,0 C36.58786,0 -2.32690658,19.2632918 0.108816012,58.5290323 C2.54453861,97.7947727 38.9212847,126 73,126 Z" id="Oval" fill-opacity="0.160456731" fill="#86C04F"></path>
                <g id="file" transform="translate(29.053441, 32.448462)" fill-rule="nonzero">
                    <g id="Group" transform="translate(1.168867, 2.051538)">
                        <path d="M73.3782798,29.606012 L73.3782798,83.6686747 C73.3782798,88.1933373 69.6814679,91.8614458 65.1213991,91.8614458 L8.35534404,91.8614458 C3.79527523,91.8614458 0.0984633028,88.1933373 0.0984633028,83.6686747 L0.0984633028,8.29518072 C0.0984633028,3.77051807 3.79527523,0.102409639 8.35534404,0.102409639 L43.6941743,0.102409639 C45.338945,0.102409639 46.9160092,0.751686747 48.0777523,1.90666265 L71.5691972,25.2656867 C72.7276376,26.4177952 73.3782798,27.9787229 73.3782798,29.606012 Z" id="Path" fill="#F9F8F9"></path>
                        <path d="M73.3782798,29.6066265 L73.3782798,33.2093976 L51.8443349,33.2093976 C45.3523624,33.2093976 40.0700229,27.9619277 40.0700229,21.5142169 L40.0700229,0.102409639 L43.6947936,0.102409639 C45.3379128,0.102409639 46.9149771,0.751686747 48.077133,1.90686747 L71.5700229,25.266506 C72.7280505,26.4175904 73.3782798,27.9783133 73.3782798,29.6066265 Z" id="Path" fill="#E3E0E4"></path>
                        <path d="M14.5480046,91.8614458 L8.35534404,91.8614458 C3.79548165,91.8614458 0.0984633028,88.1931325 0.0984633028,83.6686747 L0.0984633028,8.29518072 C0.0984633028,3.77072289 3.79548165,0.102409639 8.35534404,0.102409639 L14.5480046,0.102409639 C9.9881422,0.102409639 6.29112385,3.77072289 6.29112385,8.29518072 L6.29112385,83.6686747 C6.29112385,88.1931325 9.9881422,91.8614458 14.5480046,91.8614458 Z" id="Path" fill="#E3E0E4"></path>
                        <g transform="translate(45.908257, 0.614458)" fill="#A29AA5" id="Path">
                            <path d="M26.9147477,26.4503614 L5.93607798,26.4503614 C2.85419725,26.4503614 0.354426606,23.9638554 0.354426606,20.899759 L0.354426606,0.045060241 C1.02323394,0.344096386 1.64043578,0.766024096 2.16887615,1.29240964 L25.6617661,24.6520482 C26.1881422,25.1763855 26.6133716,25.786747 26.9147477,26.4503614 Z"></path>
                        </g>
                        <ellipse id="Oval" fill="#DC4955" cx="68.9379358" cy="81.1084337" rx="20.9541055" ry="20.7891566"></ellipse>
                        <path d="M85.6748394,93.616747 C81.8519037,98.6471084 75.7769037,101.89759 68.9381422,101.89759 C57.3661239,101.89759 47.9842431,92.5906024 47.9842431,81.1084337 C47.9842431,74.3227711 51.2601606,68.296988 56.3298853,64.5037349 C53.6814908,67.9836145 52.1126835,72.3155422 52.1126835,77.0120482 C52.1126835,88.4942169 61.4945642,97.8012048 73.0665826,97.8012048 C77.7998394,97.8012048 82.1656651,96.2445783 85.6748394,93.616747 Z" id="Path" fill="#C42430"></path>
                        <path d="M77.0410321,89.1463614 C75.8324312,90.3455783 73.8708028,90.3455783 72.6622018,89.1463614 L68.9402064,85.4532651 L65.218211,89.1463614 C64.0096101,90.3455783 62.0479817,90.3455783 60.8393807,89.1463614 C59.6307798,87.9471446 59.6307798,86.000747 60.8393807,84.8015301 L64.5613761,81.1084337 L60.8393807,77.4153373 C59.6307798,76.2161205 59.6307798,74.2697229 60.8393807,73.070506 C62.0479817,71.8712892 64.0096101,71.8712892 65.218211,73.070506 L68.9402064,76.7636024 L72.6622018,73.070506 C73.8708028,71.8712892 75.8324312,71.8712892 77.0410321,73.070506 C78.249633,74.2697229 78.249633,76.2161205 77.0410321,77.4153373 L73.3190367,81.1084337 L77.0410321,84.8015301 C78.249633,86.000747 78.249633,87.9473494 77.0410321,89.1463614 Z" id="Path" fill="#F9F8F9"></path>
                    </g>
                    <g id="Group" transform="translate(0.168867, 0.051538)" fill="#000000">
                        <path d="M1.55475333,22.8662109 C2.41097333,22.8662109 3.10475333,22.1775586 3.10475333,21.328125 L3.10475333,9.74121094 C3.10475333,6.06621094 6.11774667,3.07617188 9.82142,3.07617188 L27.2752467,3.07617188 C28.1314667,3.07617188 28.8252467,2.38751953 28.8252467,1.53808594 C28.8252467,0.688652344 28.1314667,0 27.2752467,0 L9.82142,0 C4.40861333,0 0.00475333333,4.37000977 0.00475333333,9.74121094 L0.00475333333,21.328125 C0.00475333333,22.1775586 0.698533333,22.8662109 1.55475333,22.8662109 Z" id="Path"></path>
                        <path d="M16.7352467,91.875 L9.82142,91.875 C6.11774667,91.875 3.10475333,88.8849609 3.10475333,85.2099609 L3.10475333,28.5058594 C3.10475333,27.6564258 2.41097333,26.9677734 1.55475333,26.9677734 C0.698533333,26.9677734 0.00475333333,27.6564258 0.00475333333,28.5058594 L0.00475333333,85.2099609 C0.00475333333,90.5811621 4.40861333,94.9511719 9.82142,94.9511719 L16.7352467,94.9511719 C17.5914667,94.9511719 18.2852467,94.2625195 18.2852467,93.4130859 C18.2852467,92.5636523 17.5914667,91.875 16.7352467,91.875 Z" id="Path"></path>
                        <path d="M76.47142,61.1001562 L76.47142,31.0789746 C76.47142,29.0277832 75.66728,27.0986133 74.2073867,25.6468652 L50.6878933,2.25832031 C49.22366,0.802060547 47.2752067,-5.82867088e-15 45.2021333,-5.82867088e-15 L34.50858,-5.82867088e-15 C33.65236,-5.82867088e-15 32.95858,0.688652344 32.95858,1.53808594 C32.95858,2.38751953 33.65236,3.07617187 34.50858,3.07617187 L45.2021333,3.07617187 C45.5505733,3.07617187 45.8919867,3.11780273 46.2238933,3.19142578 L46.2238933,22.9763379 C46.2238933,26.8892285 49.4264,30.0726562 53.36278,30.0726562 L73.2569267,30.0726562 C73.3300867,30.3997559 73.3712133,30.736084 73.3712133,31.0791797 L73.3712133,60.4783594 C72.4205467,60.356543 71.4519,60.2931738 70.4683733,60.2931738 C61.5916267,60.2931738 53.5148867,65.491084 49.89202,73.5352734 C49.54296,74.3108789 49.89326,75.2204004 50.6748733,75.5669824 C51.45566,75.9131543 52.3728467,75.565957 52.72232,74.7903516 C55.84712,67.8521484 62.81282,63.3691406 70.46858,63.3691406 C71.8875533,63.3691406 73.2707733,63.522334 74.60398,63.8102637 C74.6066667,63.8108789 74.6091467,63.8114941 74.6118333,63.8119043 C83.3395733,65.7008789 89.89504,73.4276074 89.89504,82.6464844 C89.89504,93.2760937 81.18032,101.923828 70.4683733,101.923828 C59.7564267,101.923828 51.0417067,93.2760937 51.0417067,82.6464844 C51.0417067,82.1760352 51.0590667,81.6998437 51.0931667,81.2314453 C51.15496,80.3842676 50.5128467,79.647627 49.6591067,79.5865137 C48.8049533,79.5272461 48.0628133,80.162373 48.0014333,81.0095508 C47.96196,81.5515723 47.9419133,82.1024121 47.9419133,82.6464844 C47.9419133,85.9353223 48.6617333,89.0603027 49.9525733,91.875 L23.96858,91.875 C23.11236,91.875 22.41858,92.5636523 22.41858,93.4130859 C22.41858,94.2625195 23.11236,94.9511719 23.96858,94.9511719 L51.6716267,94.9511719 C55.7072067,101.001182 62.62558,105 70.46858,105 C82.8898667,105 92.9952467,94.9722949 92.9952467,82.6464844 C92.9952467,72.3827344 85.9878,63.713877 76.47142,61.1001562 L76.47142,61.1001562 Z M49.3241,22.9763379 L49.3241,5.25697266 L71.1853,26.9964844 L53.3629867,26.9964844 C51.13574,26.9964844 49.3241,25.1930273 49.3241,22.9763379 L49.3241,22.9763379 Z" id="Shape"></path>
                        <path d="M59.9004733,88.5195117 C59.9004733,89.7522363 60.3840733,90.9111328 61.2619933,91.7823047 C62.992,93.5718164 66.10812,93.5716113 67.8381267,91.7823047 L70.46858,89.1720703 L73.0990333,91.7823047 C74.82904,93.5718164 77.94516,93.5716113 79.6751667,91.7823047 L79.67496,91.7823047 C81.47854,90.0653906 81.4783333,86.9734277 79.6751667,85.2567188 L77.0445067,82.6464844 L79.67496,80.03625 C81.47854,78.3193359 81.47854,75.227373 79.6751667,73.5106641 C77.94516,71.7211523 74.82904,71.7213574 73.0990333,73.5106641 L70.46858,76.1208984 L67.8381267,73.5106641 C66.1083267,71.7213574 62.9917933,71.7213574 61.2622,73.5106641 C59.45862,75.2275781 59.4588267,78.319541 61.2619933,80.03625 L63.8926533,82.6464844 L61.2622,85.2567188 C60.3840733,86.1278906 59.9004733,87.286582 59.9004733,88.5195117 L59.9004733,88.5195117 Z M63.4543133,87.4317773 L67.18072,83.7340137 C67.7860467,83.1333398 67.7860467,82.1594238 67.18072,81.5589551 L63.4541067,77.8609863 C62.8535333,77.2892285 62.8533267,76.2576855 63.4543133,75.6859277 C64.0586067,75.0862793 65.0419267,75.0862793 65.6460133,75.6859277 L69.37242,79.3836914 C69.9779533,79.9843652 70.9592067,79.9843652 71.5645333,79.3836914 L75.29094,75.6859277 C75.8952333,75.0862793 76.8783467,75.0862793 77.4828467,75.6859277 C78.0836267,76.2578906 78.0836267,77.2892285 77.48264,77.8609863 L73.7562333,81.55875 C73.1509067,82.1594238 73.1509067,83.1333398 73.7562333,83.7338086 L77.4828467,87.4317773 C78.08342,88.0035352 78.08342,89.0350781 77.4828467,89.6068359 L77.48264,89.6068359 C76.8783467,90.2064844 75.8950267,90.2064844 75.29094,89.6068359 L71.5645333,85.9090723 C70.959,85.3083984 69.9779533,85.3083984 69.37242,85.9090723 L65.6460133,89.6068359 C65.04172,90.2064844 64.0586067,90.2064844 63.4541067,89.6068359 C62.8533267,89.0350781 62.8533267,88.0037402 63.4543133,87.4317773 L63.4543133,87.4317773 Z" id="Shape"></path>
                    </g>
                </g>
                <g id="timeline-(1)" transform="translate(11.222308, 48.597656)">
                    <path d="M11,8.90234375 C13.2084653,8.90234375 15,7.11087004 15,4.90234375 C15,2.69381746 13.2084653,0.90234375 11,0.90234375 C8.79153472,0.90234375 7,2.69395367 7,4.90247995 C7,7.11087004 8.79153472,8.90234375 11,8.90234375 L11,8.90234375 Z" id="Path" fill="#A7E9A6"></path>
                    <path d="M53,0.90234375 C50.7915347,0.90234375 49,2.69381746 49,4.90234375 C49,7.11087004 50.7915347,8.90234375 53,8.90234375 C55.2124153,8.90234375 57,7.11087004 57,4.90234375 C57,2.69381746 55.2122791,0.90234375 53,0.90234375 Z" id="Path" fill="#A7E9A6"></path>
                    <path d="M37,56.9042497 C37,54.6929639 35.2084653,52.9023438 33,52.9023438 C30.7915347,52.9023438 29,54.6929639 29,56.9042497 C29,59.1117236 30.7915347,60.9023438 33,60.9023438 C35.2084653,60.9023438 37,59.1115875 37,56.9042497 Z" id="Path" fill="#A7E9A6"></path>
                    <path d="M10.6164295,8.90234375 C13.0366703,8.90234375 15,7.11087004 15,4.90234375 C15,2.69381746 13.0366703,0.90234375 10.6164295,0.90234375 C10.0959299,0.90234375 9.59662653,0.983384338 9.13120709,1.13783817 C10.7559956,1.72473547 11.9026769,3.16875617 11.9026769,4.85589864 C11.9026769,6.58948622 10.6925565,8.0682386 9,8.6242179 C9.49930341,8.80591226 10.0451786,8.90234375 10.6164295,8.90234375 L10.6164295,8.90234375 Z" id="Path" fill="#7FDBAE"></path>
                    <path d="M51.1312103,1.13797437 C52.7560393,1.72487167 53.9027491,3.16889237 53.9027491,4.85603484 C53.9027491,6.58962242 52.6925986,8.0683748 51,8.6243541 C51.5034955,8.80577606 52.0452046,8.90234375 52.6163204,8.90234375 C55.0409504,8.90234375 57,7.11087004 57,4.90234375 C57,2.69381746 55.0409504,0.90234375 52.6163204,0.90234375 C52.0959572,0.902479953 51.5966414,0.983520541 51.1312103,1.13797437 L51.1312103,1.13797437 Z" id="Path" fill="#7FDBAE"></path>
                    <path d="M37,56.9042497 C37,54.6929639 35.0366703,52.9023438 32.6164295,52.9023438 C32.0959299,52.9023438 31.5966265,52.9872937 31.1312071,53.137726 C32.7559956,53.7243436 33.9026769,55.1714881 33.9026769,56.8579628 C33.9026769,58.5907244 32.6925565,60.0687722 31,60.6244866 C31.4993034,60.8020102 32.0451786,60.9023438 32.6162802,60.9023438 C35.0366703,60.9022076 37,59.1115875 37,56.9042497 L37,56.9042497 Z" id="Path" fill="#7FDBAE"></path>
                    <polygon id="Path" fill="#FFD772" points="30 31.9004451 21.5185063 18.9023438 11.2113351 18.9023438 1 18.9023438 9.47740659 31.9004451 1 44.9023438 21.5185063 44.9023438"></polygon>
                    <polygon id="Path" fill="#75CEF8" points="21 18.9023438 29.4803398 31.9004451 21 44.9023438 33.5226632 44.9023438 41.5196602 44.9023438 50 31.9004451 41.5196602 18.9023438"></polygon>
                    <polygon id="Path" fill="#EB5468" points="41 18.9023438 49.4803398 31.9004451 41 44.9023438 61.5196602 44.9023438 70 31.9004451 61.5196602 18.9023438 52.659974 18.9023438"></polygon>
                    <polygon id="Path" fill="#FBBA58" points="15 18.9023438 23.5107105 31.9004451 15 44.9023438 21.4853278 44.9023438 30 31.9004451 21.4853278 18.9023438"></polygon>
                    <polygon id="Path" fill="#60B7FF" points="35 18.9023438 43.5106493 31.9004451 35 44.9023438 41.4852475 44.9023438 50 31.9004451 41.4852475 18.9023438"></polygon>
                    <polygon id="Path" fill="#E5384F" points="55 18.9023438 63.5123628 31.9004451 55 44.9023438 61.4874958 44.9023438 70 31.9004451 61.4874958 18.9023438"></polygon>
                    <path d="M70.8407704,31.7153505 L62.4955172,18.5346878 C62.3052598,18.2341959 61.9725868,18.0517003 61.6146756,18.0517003 L53.9360164,18.0517003 L53.9360164,10.9373991 C56.2601514,10.4599126 58.0122663,8.41532971 58.0122663,5.97261222 C58.0122663,3.17686827 55.7171137,0.90234375 52.8959799,0.90234375 C50.0769261,0.90234375 47.7835762,3.17686827 47.7835762,5.97261222 C47.7835762,8.41505466 49.5340271,10.4593625 51.8559433,10.937124 L51.8559433,18.0517003 L33.5601751,18.0517003 C32.9857976,18.0517003 32.5201386,18.513509 32.5201386,19.0831372 C32.5201386,19.6527653 32.9857976,20.114574 33.5601751,20.114574 L40.8469485,20.114574 L48.5391974,32.2639373 L40.8468098,44.4170138 L34.5923074,44.4170138 L34.5923074,38.9458602 C34.5923074,38.3762321 34.1266483,37.9144234 33.5522708,37.9144234 C32.9778933,37.9144234 32.5122343,38.3762321 32.5122343,38.9458602 L32.5122343,44.4170138 L23.1098879,44.4170138 L30.4551807,32.8122492 C30.6674868,32.4769634 30.6674868,32.0506362 30.4551807,31.7153505 L23.1103039,20.114574 L28.7606145,20.114574 C29.334992,20.114574 29.800651,19.6527653 29.800651,19.0831372 C29.800651,18.513509 29.334992,18.0517003 28.7606145,18.0517003 L21.2290858,18.0517003 L12.127518,18.0517003 L12.127518,10.9372616 C14.4494343,10.4595 16.1998851,8.41505466 16.1998851,5.97274974 C16.1998851,3.1770058 13.9063965,0.90234375 11.0874815,0.90234375 C8.2685664,0.90234375 5.97507781,3.1770058 5.97507781,5.97274974 C5.97507781,8.41519218 7.72552865,10.4595 10.0474449,10.9372616 L10.0474449,18.0518378 L1.04017374,18.0518378 C0.661739113,18.0518378 0.313118863,18.2556498 0.130072431,18.5841968 C-0.0531126726,18.9126063 -0.0418802779,19.3137664 0.159193454,19.6315865 L8.15346902,32.2640749 L0.159054783,44.9004139 C-0.0420189495,45.218234 -0.0532513442,45.6193941 0.129933759,45.9478036 C0.313118863,46.2762131 0.661600441,46.480025 1.04003507,46.480025 L6.80655236,46.480025 C7.38092988,46.480025 7.84658891,46.0182164 7.84658891,45.4485882 C7.84658891,44.87896 7.38092988,44.4171514 6.80655236,44.4171514 L2.92055982,44.4171514 L10.2625245,32.8121116 C10.4745532,32.4768259 10.4745532,32.0509112 10.2625245,31.7156255 L2.92097583,20.1147115 L10.0475836,20.1147115 L10.0475836,23.8589648 C10.0475836,24.428593 10.5132426,24.8904016 11.0876201,24.8904016 C11.6619976,24.8904016 12.1276567,24.428593 12.1276567,23.8589648 L12.1276567,20.1147115 L20.6542923,20.1147115 L28.3465412,32.2640749 L20.6541536,44.4171514 L11.6062517,44.4171514 C11.0318742,44.4171514 10.5662151,44.87896 10.5662151,45.4485882 C10.5662151,46.0182164 11.0318742,46.480025 11.6062517,46.480025 L32.5122343,46.480025 L32.5122343,51.8637128 C30.190318,52.3418869 28.4398672,54.387845 28.4398672,56.8320753 C28.4398672,59.6278192 30.7333558,61.9023438 33.5522708,61.9023438 C36.3713245,61.9023438 38.6646745,59.6278192 38.6646745,56.8320753 C38.6646745,54.387845 36.9142236,52.3418869 34.5923074,51.8637128 L34.5923074,46.480025 L61.6146756,46.480025 C61.9725868,46.480025 62.3052598,46.2975295 62.4955172,45.9969 L70.8407704,32.8122492 C71.0530765,32.4769634 71.0530765,32.0506362 70.8407704,31.7153505 L70.8407704,31.7153505 Z M49.863788,5.97261222 C49.863788,4.31433682 51.2241558,2.96521743 52.8961185,2.96521743 C54.5703,2.96521743 55.9323319,4.31433682 55.9323319,5.97261222 C55.9323319,7.63088761 54.5703,8.980007 52.8961185,8.980007 C51.2240171,8.98014452 49.863788,7.63088761 49.863788,5.97261222 Z M8.0551509,5.97261222 C8.0551509,4.31433682 9.4155187,2.96521743 11.0874815,2.96521743 C12.7595829,2.96521743 14.119812,4.31433682 14.119812,5.97261222 C14.119812,7.63088761 12.7594442,8.980007 11.0874815,8.980007 C9.41538003,8.98014452 8.0551509,7.63088761 8.0551509,5.97261222 Z M36.5846014,56.8320753 C36.5846014,58.4903507 35.2242336,59.8394701 33.5522708,59.8394701 C31.8803081,59.8394701 30.5199403,58.4903507 30.5199403,56.8320753 C30.5199403,55.1715995 31.8803081,53.8208298 33.5522708,53.8208298 C35.2243722,53.8206923 36.5846014,55.1715995 36.5846014,56.8320753 Z M61.0396047,44.4170138 L43.3026828,44.4170138 L50.6479755,32.8122492 C50.8602817,32.4769634 50.8602817,32.0506362 50.6479755,31.7153505 L43.3030988,20.114574 L51.8562207,20.114574 L51.8562207,23.8588273 C51.8562207,24.4284554 52.3218797,24.8902641 52.8962572,24.8902641 C53.4706347,24.8902641 53.9362937,24.4284554 53.9362937,23.8588273 L53.9362937,20.114574 L61.039882,20.114574 L68.732131,32.2639373 L61.0396047,44.4170138 Z" id="Shape" fill="#000000" fill-rule="nonzero"></path>
                </g>
            </g>
        </g>
    </g>
</svg>