<?xml version="1.0" encoding="UTF-8"?>
<svg width="146px" height="145px" viewBox="0 0 146 145" version="1.1" xmlns="http://www.w3.org/2000/svg" xmlns:xlink="http://www.w3.org/1999/xlink">
    <title>sign-sprint-icon</title>
    <g id="Sprint-Details" stroke="none" stroke-width="1" fill="none" fill-rule="evenodd">
        <g id="Sprint_Web_Dash_Action_Sprint" transform="translate(-648.000000, -347.000000)">
            <g id="sign-sprint-icon" transform="translate(648.000000, 347.000000)">
                <path d="M73,126 C107.078715,126 105.250841,99.1741935 137.321189,65.4387097 C169.391536,31.7032258 104.745291,0 70.6665753,0 C36.58786,0 -2.32690658,19.2632918 0.108816012,58.5290323 C2.54453861,97.7947727 38.9212847,126 73,126 Z" id="Oval" fill-opacity="0.160456731" fill="#86C04F"></path>
                <g id="calendar" transform="translate(23.651687, 22.463921)" fill-rule="nonzero">
                    <g id="Group" transform="translate(2.570621, 6.036079)">
                        <path d="M82.0558565,90.9419483 L5.9441435,90.9419483 C2.67492377,90.9419483 0.0248609865,88.3078513 0.0248609865,85.0583276 L0.0248609865,76.8736228 L87.975139,60.987847 L87.975139,85.0583276 C87.975139,88.3076552 85.3248789,90.9419483 82.0558565,90.9419483 Z" id="Path" fill="#CDBFBA"></path>
                        <path d="M65.9526457,85.0583276 L5.95400897,85.0583276 C2.67946188,85.0583276 0.0248609865,82.4197198 0.0248609865,79.1649009 L0.0248609865,6.08523276 C0.0248609865,2.83041379 2.67946188,0.191806034 5.95400897,0.191806034 L82.0457937,0.191806034 C85.3203408,0.191806034 87.9749417,2.83041379 87.9749417,6.08523276 L87.9749417,63.1685129 C87.9749417,64.7315948 84.3906188,66.2305453 83.278583,67.3358815 L70.1450762,80.3902629 C69.033435,81.4955991 67.5252018,85.0583276 65.9526457,85.0583276 Z" id="Path" fill="#F9F3F1"></path>
                        <path d="M58.8268161,85.0585237 L63.5229776,85.0585237 C66.205991,85.0585237 68.3809327,82.8964892 68.3809327,80.2296401 L68.3809327,70.4110539 C68.3809327,67.7442047 70.5558744,65.5823664 73.2388879,65.5823664 L83.1169865,65.5823664 C85.8,65.5823664 87.9749417,63.420528 87.9749417,60.7536789 L87.9749417,54.6372629 L87.9749417,63.1412522 C87.9749417,64.7043341 87.3502601,66.2032845 86.2382242,67.3086207 L70.1174529,83.3322694 C69.005417,84.4376056 67.4973812,85.0585237 65.9248251,85.0585237 L58.8268161,85.0585237 L58.8268161,85.0585237 Z" id="Path" fill="#EFE2DD"></path>
                        <path d="M87.9743498,6.07464224 L87.9743498,21.2112371 L0.0256502242,21.2112371 L0.0256502242,6.07464224 C0.0256502242,2.82688362 2.6755157,0.191021552 5.94493274,0.191021552 L82.0550673,0.191021552 C85.3244843,0.191021552 87.9743498,2.82688362 87.9743498,6.07464224 Z" id="Path" fill="#FECE85"></path>
                        <g transform="translate(9.273543, 0.000000)" fill="#FDB441" id="Path">
                            <path d="M7.50762332,10.4602931 C6.37861883,10.4602931 5.42008969,10.4597047 4.6032287,10.4597047 C2.12107623,10.4597047 0.102600897,8.45339009 0.102600897,5.98815302 L0.102600897,0.190825431 L3.06224215,0.190825431 L3.06224215,5.98815302 C3.06224215,6.83147198 3.75282511,7.5178944 4.6032287,7.5178944 C5.42008969,7.51809052 8.3244843,10.4602931 7.50762332,10.4602931 Z"></path>
                            <path d="M61.2659552,10.4602931 C61.2659552,10.4602931 59.1790135,10.4597047 58.3601794,10.4597047 C55.88,10.4597047 53.8615247,8.45339009 53.8615247,5.98815302 L53.8615247,0.190825431 L56.8211659,0.190825431 L56.8211659,5.98815302 C56.8211659,6.83147198 57.5117489,7.5178944 58.3601794,7.5178944 C59.1790135,7.51809052 61.2659552,9.64835345 61.2659552,10.4602931 Z"></path>
                        </g>
                        <g transform="translate(8.878924, 30.006466)" fill="#FEDBA6" id="Path">
                            <g>
                                <path d="M8.48095067,9.83388362 L1.43424215,9.83388362 C0.655856502,9.83388362 0.0248609865,9.20668966 0.0248609865,8.43299353 L0.0248609865,1.42873922 C0.0248609865,0.655043103 0.655856502,0.0278491379 1.43424215,0.0278491379 L8.48095067,0.0278491379 C9.25933632,0.0278491379 9.89033184,0.655043103 9.89033184,1.42873922 L9.89033184,8.43299353 C9.89033184,9.20668966 9.25933632,9.83388362 8.48095067,9.83388362 Z"></path>
                                <path d="M28.5899372,9.83388362 L21.5432287,9.83388362 C20.764843,9.83388362 20.1338475,9.20668966 20.1338475,8.43299353 L20.1338475,1.42873922 C20.1338475,0.655043103 20.764843,0.0278491379 21.5432287,0.0278491379 L28.5899372,0.0278491379 C29.3683229,0.0278491379 29.9993184,0.655043103 29.9993184,1.42873922 L29.9993184,8.43299353 C29.9993184,9.20668966 29.3683229,9.83388362 28.5899372,9.83388362 Z"></path>
                                <path d="M48.6989238,9.83388362 L41.6522152,9.83388362 C40.8738296,9.83388362 40.2428341,9.20668966 40.2428341,8.43299353 L40.2428341,1.42873922 C40.2428341,0.655043103 40.8738296,0.0278491379 41.6522152,0.0278491379 L48.6989238,0.0278491379 C49.4773094,0.0278491379 50.1083049,0.655043103 50.1083049,1.42873922 L50.1083049,8.43299353 C50.1083049,9.20668966 49.4773094,9.83388362 48.6989238,9.83388362 Z"></path>
                                <path d="M68.8079103,9.83388362 L61.7612018,9.83388362 C60.9828161,9.83388362 60.3518206,9.20668966 60.3518206,8.43299353 L60.3518206,1.42873922 C60.3518206,0.655043103 60.9828161,0.0278491379 61.7612018,0.0278491379 L68.8079103,0.0278491379 C69.586296,0.0278491379 70.2172915,0.655043103 70.2172915,1.42873922 L70.2172915,8.43299353 C70.2172915,9.20668966 69.586296,9.83388362 68.8079103,9.83388362 Z"></path>
                            </g>
                            <g transform="translate(0.000000, 18.043103)">
                                <path d="M8.48095067,9.98548491 L1.43424215,9.98548491 C0.655856502,9.98548491 0.0248609865,9.35829095 0.0248609865,8.58459483 L0.0248609865,1.58034052 C0.0248609865,0.806644397 0.655856502,0.179450431 1.43424215,0.179450431 L8.48095067,0.179450431 C9.25933632,0.179450431 9.89033184,0.806644397 9.89033184,1.58034052 L9.89033184,8.58459483 C9.89033184,9.35829095 9.25933632,9.98548491 8.48095067,9.98548491 Z"></path>
                                <path d="M28.5899372,9.98548491 L21.5432287,9.98548491 C20.764843,9.98548491 20.1338475,9.35829095 20.1338475,8.58459483 L20.1338475,1.58034052 C20.1338475,0.806644397 20.764843,0.179450431 21.5432287,0.179450431 L28.5899372,0.179450431 C29.3683229,0.179450431 29.9993184,0.806644397 29.9993184,1.58034052 L29.9993184,8.58459483 C29.9993184,9.35829095 29.3683229,9.98548491 28.5899372,9.98548491 Z"></path>
                                <path d="M48.6989238,9.98548491 L41.6522152,9.98548491 C40.8738296,9.98548491 40.2428341,9.35829095 40.2428341,8.58459483 L40.2428341,1.58034052 C40.2428341,0.806644397 40.8738296,0.179450431 41.6522152,0.179450431 L48.6989238,0.179450431 C49.4773094,0.179450431 50.1083049,0.806644397 50.1083049,1.58034052 L50.1083049,8.58459483 C50.1083049,9.35829095 49.4773094,9.98548491 48.6989238,9.98548491 Z"></path>
                            </g>
                            <path d="M68.8079103,28.4653491 L61.7612018,28.4653491 C60.9828161,28.4653491 60.3518206,27.8381552 60.3518206,27.0644591 L60.3518206,20.0602047 C60.3518206,19.2865086 60.9828161,18.6593147 61.7612018,18.6593147 L68.8079103,18.6593147 C69.586296,18.6593147 70.2172915,19.2865086 70.2172915,20.0602047 L70.2172915,27.0644591 C70.2172915,27.8381552 69.586296,28.4653491 68.8079103,28.4653491 Z"></path>
                            <g transform="translate(0.000000, 36.282328)">
                                <path d="M8.48095067,9.94096552 L1.43424215,9.94096552 C0.655856502,9.94096552 0.0248609865,9.31377155 0.0248609865,8.54007543 L0.0248609865,1.53582112 C0.0248609865,0.762125 0.655856502,0.134931034 1.43424215,0.134931034 L8.48095067,0.134931034 C9.25933632,0.134931034 9.89033184,0.762125 9.89033184,1.53582112 L9.89033184,8.54007543 C9.89033184,9.31377155 9.25933632,9.94096552 8.48095067,9.94096552 Z"></path>
                                <path d="M28.5899372,9.94096552 L21.5432287,9.94096552 C20.764843,9.94096552 20.1338475,9.31377155 20.1338475,8.54007543 L20.1338475,1.53582112 C20.1338475,0.762125 20.764843,0.134931034 21.5432287,0.134931034 L28.5899372,0.134931034 C29.3683229,0.134931034 29.9993184,0.762125 29.9993184,1.53582112 L29.9993184,8.54007543 C29.9993184,9.31377155 29.3683229,9.94096552 28.5899372,9.94096552 Z"></path>
                                <path d="M48.6989238,9.94096552 L41.6522152,9.94096552 C40.8738296,9.94096552 40.2428341,9.31377155 40.2428341,8.54007543 L40.2428341,1.53582112 C40.2428341,0.762125 40.8738296,0.134931034 41.6522152,0.134931034 L48.6989238,0.134931034 C49.4773094,0.134931034 50.1083049,0.762125 50.1083049,1.53582112 L50.1083049,8.54007543 C50.1083049,9.31377155 49.4773094,9.94096552 48.6989238,9.94096552 Z"></path>
                            </g>
                        </g>
                    </g>
                    <path d="M70.9439101,49.6570675 L77.9200879,49.6570675 C79.497219,49.6570675 80.7803717,48.3868898 80.7803717,46.8257062 L80.7803717,39.9200694 C80.7803717,38.3588859 79.497219,37.0887081 77.9200879,37.0887081 L70.9439101,37.0887081 C69.366779,37.0887081 68.0836264,38.3588859 68.0836264,39.9200694 L68.0836264,46.8257062 C68.0836264,48.3868898 69.366779,49.6570675 70.9439101,49.6570675 Z M71.0136445,39.9890987 L77.8503535,39.9890987 L77.8503535,46.7566769 L71.0136445,46.7566769 L71.0136445,39.9890987 Z M70.9439101,68.0262081 L77.9200879,68.0262081 C79.497219,68.0262081 80.7803717,66.7560304 80.7803717,65.1948468 L80.7803717,58.2892101 C80.7803717,56.7280265 79.497219,55.4578487 77.9200879,55.4578487 L70.9439101,55.4578487 C69.366779,55.4578487 68.0836264,56.7280265 68.0836264,58.2892101 L68.0836264,65.1948468 C68.0836264,66.7560304 69.366779,68.0262081 70.9439101,68.0262081 L70.9439101,68.0262081 Z M71.0136445,58.3582394 L77.8503535,58.3582394 L77.8503535,65.1258175 L71.0136445,65.1258175 L71.0136445,58.3582394 Z M51.0361948,49.6570675 L58.0123727,49.6570675 C59.5895038,49.6570675 60.8726564,48.3868898 60.8726564,46.8257062 L60.8726564,39.9200694 C60.8726564,38.3588859 59.5895038,37.0887081 58.0123727,37.0887081 L51.0361948,37.0887081 C49.4590637,37.0887081 48.1759111,38.3588859 48.1759111,39.9200694 L48.1759111,46.8257062 C48.1759111,48.3868898 49.4590637,49.6570675 51.0361948,49.6570675 Z M51.1059292,39.9890987 L57.9426382,39.9890987 L57.9426382,46.7566769 L51.1059292,46.7566769 L51.1059292,39.9890987 Z M18.1969421,72.9657667 L11.2207642,72.9657667 C9.64363314,72.9657667 8.36048053,74.2359444 8.36048053,75.797128 L8.36048053,82.7027648 C8.36048053,84.2639484 9.64363314,85.5341261 11.2207642,85.5341261 L18.1969421,85.5341261 C19.7740732,85.5341261 21.0572258,84.2639484 21.0572258,82.7027648 L21.0572258,75.797128 C21.0572258,74.2359444 19.7740732,72.9657667 18.1969421,72.9657667 Z M18.1272077,82.6337355 L11.2904987,82.6337355 L11.2904987,75.8661573 L18.1272077,75.8661573 L18.1272077,82.6337355 Z M18.1969421,37.0887081 L11.2207642,37.0887081 C9.64363314,37.0887081 8.36048053,38.3588859 8.36048053,39.9200694 L8.36048053,46.8257062 C8.36048053,48.3868898 9.64363314,49.6570675 11.2207642,49.6570675 L18.1969421,49.6570675 C19.7740732,49.6570675 21.0572258,48.3868898 21.0572258,46.8257062 L21.0572258,39.9200694 C21.0572258,38.3586925 19.7740732,37.0887081 18.1969421,37.0887081 Z M18.1272077,46.7566769 L11.2904987,46.7566769 L11.2904987,39.9890987 L18.1272077,39.9890987 L18.1272077,46.7566769 Z M51.0361948,67.5955968 L58.0123727,67.5955968 C59.5895038,67.5955968 60.8726564,66.3254191 60.8726564,64.7642355 L60.8726564,57.8585987 C60.8726564,56.2974152 59.5895038,55.0272374 58.0123727,55.0272374 L51.0361948,55.0272374 C49.4590637,55.0272374 48.1759111,56.2974152 48.1759111,57.8585987 L48.1759111,64.7642355 C48.1759111,66.3254191 49.4590637,67.5955968 51.0361948,67.5955968 Z M51.1059292,57.927628 L57.9426382,57.927628 L57.9426382,64.6952062 L51.1059292,64.6952062 L51.1059292,57.927628 Z M82.2354187,7.66327843 L75.9718212,7.66327843 L75.9718212,5.44602648 C75.9718212,3.01433898 73.9733535,1.03607921 71.5168263,1.03607921 L70.8440941,1.03607921 C68.3877623,1.03607921 66.3892945,3.01433898 66.3892945,5.44602648 L66.3892945,7.66327843 L22.7515576,7.66327843 L22.7515576,5.44602648 C22.7515576,3.01433898 20.7530899,1.03607921 18.2965627,1.03607921 L17.6238306,1.03607921 C15.1673033,1.03607921 13.1688356,3.01433898 13.1688356,5.44602648 L13.1688356,7.66327843 L6.90543352,7.66327843 C2.8610318,7.66327843 -0.429378573,10.9204171 -0.429378573,14.923923 L-0.429378573,92.7851027 C-0.429378573,96.7833878 2.85653911,100.036079 6.89566679,100.036079 L82.2455761,100.036079 C86.2847037,100.036079 89.5706214,96.7833878 89.5706214,92.7851027 L89.5706214,14.923923 C89.5706214,10.9204171 86.2800157,7.66327843 82.2354187,7.66327843 L82.2354187,7.66327843 Z M69.3193127,5.44602648 C69.3193127,4.61361437 70.0033743,3.93646984 70.8442895,3.93646984 L71.5170216,3.93646984 C72.3579368,3.93646984 73.0419984,4.61361437 73.0419984,5.44602648 L73.0419984,7.66327843 L69.3193127,7.66327843 L69.3193127,5.44602648 Z M16.0990491,5.44602648 C16.0990491,4.61361437 16.7831107,3.93646984 17.6240259,3.93646984 L18.2967581,3.93646984 C19.1376733,3.93646984 19.8217348,4.61361437 19.8217348,5.44602648 L19.8217348,7.66327843 L16.0992444,7.66327843 L16.0992444,5.44602648 L16.0990491,5.44602648 Z M86.6404079,92.7851027 C86.6404079,95.1841124 84.6688964,97.1356886 82.2453807,97.1356886 L6.89547145,97.1356886 C4.47195578,97.1356886 2.50044424,95.1841124 2.50044424,92.7851027 L2.50044424,92.7760148 C3.7279265,93.6915714 5.25368462,94.235298 6.90543352,94.235298 L66.3033473,94.235298 C68.2625528,94.235298 70.1045575,93.4800362 71.4898701,92.1085382 L86.6404079,77.1111984 L86.6404079,92.7851027 Z M69.9949749,89.4865851 C70.1098316,89.0173019 70.1723386,88.5279093 70.1723386,88.0242081 L70.1723386,78.3438644 C70.1723386,76.5185519 71.6727033,75.0333585 73.5168567,75.0333585 L83.2958899,75.0333585 C83.8047364,75.0333585 84.2991281,74.9714835 84.7732051,74.8577882 L69.9949749,89.4865851 Z M86.6404079,28.3875362 L24.2165667,28.3875362 C23.407491,28.3875362 22.7515576,29.036837 22.7515576,29.8377316 C22.7515576,30.6386261 23.407491,31.2879269 24.2165667,31.2879269 L86.6404079,31.2879269 L86.6404079,68.822462 C86.6404079,70.6479679 85.1400433,72.1331612 83.2958899,72.1331612 L73.5168567,72.1331612 C70.0570913,72.1331612 67.2423205,74.9194698 67.2423205,78.3440577 L67.2423205,88.0244015 C67.2423205,89.8499073 65.7419559,91.3351007 63.8979978,91.3351007 L6.90543352,91.3351007 C4.47664381,91.3351007 2.50044424,89.3790773 2.50044424,86.9746534 L2.50044424,31.2879269 L18.3565304,31.2879269 C19.1656061,31.2879269 19.8215395,30.6386261 19.8215395,29.8377316 C19.8215395,29.036837 19.1656061,28.3875362 18.3565304,28.3875362 L2.50044424,28.3875362 L2.50044424,14.923923 C2.50044424,12.5196925 4.47644847,10.5636691 6.90523818,10.5636691 L13.1688356,10.5636691 L13.1688356,14.82763 C13.1688356,17.2593175 15.1673033,19.2375773 17.6238306,19.2375773 C18.4329062,19.2375773 19.0888396,18.5882765 19.0888396,17.7873819 C19.0888396,16.9864874 18.4329062,16.3371866 17.6238306,16.3371866 C16.7829153,16.3371866 16.0988538,15.6600421 16.0988538,14.82763 L16.0988538,10.5636691 L66.3892945,10.5636691 L66.3892945,14.82763 C66.3892945,17.2593175 68.3877623,19.2375773 70.8442895,19.2375773 C71.6533651,19.2375773 72.3092985,18.5882765 72.3092985,17.7873819 C72.3092985,16.9864874 71.6533651,16.3371866 70.8442895,16.3371866 C70.0033743,16.3371866 69.3193127,15.6600421 69.3193127,14.82763 L69.3193127,10.5636691 L82.235614,10.5636691 C84.6644037,10.5636691 86.6404079,12.5196925 86.6404079,14.923923 L86.6404079,28.3875362 Z M18.1969421,55.0272374 L11.2207642,55.0272374 C9.64363314,55.0272374 8.36048053,56.2974152 8.36048053,57.8585987 L8.36048053,64.7642355 C8.36048053,66.3254191 9.64363314,67.5955968 11.2207642,67.5955968 L18.1969421,67.5955968 C19.7740732,67.5955968 21.0572258,66.3254191 21.0572258,64.7642355 L21.0572258,57.8585987 C21.0572258,56.2972218 19.7740732,55.0272374 18.1969421,55.0272374 Z M18.1272077,64.6952062 L11.2904987,64.6952062 L11.2904987,57.927628 L18.1272077,57.927628 L18.1272077,64.6952062 Z M31.1284795,49.6570675 L38.1046574,49.6570675 C39.6817885,49.6570675 40.9649411,48.3868898 40.9649411,46.8257062 L40.9649411,39.9200694 C40.9649411,38.3588859 39.6817885,37.0887081 38.1046574,37.0887081 L31.1284795,37.0887081 C29.5513484,37.0887081 28.2681958,38.3588859 28.2681958,39.9200694 L28.2681958,46.8257062 C28.2681958,48.3868898 29.5513484,49.6570675 31.1284795,49.6570675 Z M31.198214,39.9890987 L38.034923,39.9890987 L38.034923,46.7566769 L31.198214,46.7566769 L31.198214,39.9890987 Z M51.1041712,82.6337355 C51.067839,81.8647452 50.4265557,81.2525694 49.6407248,81.2525694 C48.8316491,81.2525694 48.1757158,81.9018702 48.1757158,82.7027648 C48.1757158,84.2639484 49.4588684,85.5341261 51.0359995,85.5341261 L58.0121773,85.5341261 C59.5893084,85.5341261 60.872461,84.2639484 60.872461,82.7027648 L60.872461,75.797128 C60.872461,74.2359444 59.5893084,72.9657667 58.0121773,72.9657667 L51.0359995,72.9657667 C49.4588684,72.9657667 48.1757158,74.2359444 48.1757158,75.797128 L48.1757158,77.7887296 C48.1757158,78.5896241 48.8316491,79.2389249 49.6407248,79.2389249 C50.4498005,79.2389249 51.1057339,78.5896241 51.1057339,77.7887296 L51.1057339,75.8661573 L57.9424429,75.8661573 L57.9424429,82.6337355 L51.1041712,82.6337355 Z M31.1284795,67.5955968 L38.1046574,67.5955968 C39.6817885,67.5955968 40.9649411,66.3254191 40.9649411,64.7642355 L40.9649411,57.8585987 C40.9649411,56.2974152 39.6817885,55.0272374 38.1046574,55.0272374 L31.1284795,55.0272374 C29.5513484,55.0272374 28.2681958,56.2974152 28.2681958,57.8585987 L28.2681958,64.7642355 C28.2681958,66.3254191 29.5513484,67.5955968 31.1284795,67.5955968 Z M31.198214,57.927628 L38.034923,57.927628 L38.034923,64.6952062 L31.198214,64.6952062 L31.198214,57.927628 Z M31.1284795,85.5341261 L38.1046574,85.5341261 C39.6817885,85.5341261 40.9649411,84.2639484 40.9649411,82.7027648 L40.9649411,75.797128 C40.9649411,74.2359444 39.6817885,72.9657667 38.1046574,72.9657667 L31.1284795,72.9657667 C29.5513484,72.9657667 28.2681958,74.2359444 28.2681958,75.797128 L28.2681958,82.7027648 C28.2681958,84.2639484 29.5513484,85.5341261 31.1284795,85.5341261 Z M31.198214,75.8661573 L38.034923,75.8661573 L38.034923,82.6337355 L31.198214,82.6337355 L31.198214,75.8661573 Z" id="Shape" fill="#000000"></path>
                </g>
                <g id="Group-4" transform="translate(87.651687, 62.463921)">
                    <g id="Group-2" transform="translate(31.149585, 40.338710) rotate(20.000000) translate(-31.149585, -40.338710) translate(18.422312, 2.645161)">
                        <g id="Group" transform="translate(2.121088, 1.804484)" fill-rule="nonzero">
                            <g transform="translate(0.636364, 0.860474)" id="Path">
                                <path d="M13.2864242,14.7171888 L6.20751515,14.7531215 L6.20751515,3.68452377 C6.20751515,1.68470216 7.79057576,0.055968001 9.74421212,0.0459040363 L9.74569697,0.0459040363 C11.7008182,0.0359327633 13.2866364,1.65116492 13.2866364,3.65272872 L13.2866364,14.7171888 L13.2864242,14.7171888 Z" fill="#FED23A"></path>
                                <path d="M9.74909091,70.3796524 C7.55109091,68.1415857 6.31357576,65.095794 6.3110303,61.9175955 L6.29787879,45.8081755 C6.29787879,45.6679289 6.4090303,45.5535974 6.54627273,45.5527263 L12.9179697,45.5202751 C13.0552121,45.5196246 13.1663636,45.6328672 13.1663636,45.7731139 L13.1795191,61.905618 C13.1820606,65.0700966 11.9600303,68.1060885 9.78239394,70.3456796 L9.74909091,70.3796524 Z" fill="#54B1FF"></path>
                                <path d="M9.74887879,62.7915964 L9.74675758,62.7915964 C6.685,62.8072037 4.20190909,60.2779727 4.20190909,57.1435468 L4.20190909,10.6428489 C4.20190909,9.16677458 5.36369697,7.96792693 6.80145455,7.96074038 L12.6615152,7.9308713 C14.1094545,7.92350097 15.2871515,9.12648633 15.2871515,10.6130139 L15.2871515,57.0938943 C15.2871515,60.2254891 12.8080909,62.7758442 9.74887879,62.7915964 L9.74887879,62.7915964 Z" fill="#FDF385"></path>
                                <path d="M12.6615152,7.93065353 L7.61960606,7.95638489 C8.90018182,8.12842661 9.891,9.24996437 9.891,10.6127961 L9.891,57.0938943 C9.891,59.2330915 8.73387879,61.1002885 7.02587879,62.0743931 C7.82981818,62.5349857 8.75763636,62.7967505 9.74654545,62.7916007 L9.74866667,62.7916007 C12.8078788,62.7758442 15.2869394,60.2254891 15.2869394,57.0938943 L15.2869394,10.6130139 C15.2871515,9.12648633 14.1094545,7.9232832 12.6615152,7.93065353 Z" fill="#FAEE6E"></path>
                                <path d="M18.0884242,14.5745107 L2.89736364,14.6518565 C1.34781818,14.6596963 0.0918484848,15.9515336 0.0918484848,17.5369307 C0.0918484848,19.1225455 1.34781818,20.4013164 2.89736364,20.3934765 L15.2829091,20.3303219 L15.2829091,37.2054365 C15.2829091,38.7910513 16.5388788,40.0698221 18.0884242,40.0620181 C19.6379697,40.0541424 20.8939394,38.7623051 20.8939394,37.176908 L20.8939394,17.4308746 C20.8939394,15.8454775 19.6377576,14.5667067 18.0884242,14.5745107 L18.0884242,14.5745107 Z" fill="#54B1FF"></path>
                                <path d="M18.0884242,14.5745107 L9.93427273,14.6154881 L9.89884848,20.3453484 L15.282697,20.3307575 L15.282697,37.205872 C15.282697,38.7914869 16.5386667,40.0702577 18.0882121,40.0624537 C19.6377576,40.0545779 20.8937273,38.7627406 20.8937273,37.1773436 L20.8937273,17.4313101 C20.8939394,15.8454775 19.6377576,14.5667067 18.0884242,14.5745107 Z" fill="#3DA7FF"></path>
                            </g>
                        </g>
                        <g id="Group" transform="translate(0.848361, 0.481904)"></g>
                        <path d="M23.7480554,16.9234307 C22.9246481,16.0819594 21.7925422,15.6503745 20.6431104,15.6184776 L19.4455039,15.6245532 L19.4455039,13.2986814 C19.4455039,11.8819806 18.6261111,10.3852119 17.4523807,9.63986541 L17.4523807,6.36381248 C17.4523807,-0.377722044 7.23173435,-0.348428949 7.23173435,6.39549242 L7.23173435,9.67197932 C6.03602945,10.4309959 5.23396269,11.7856388 5.23396269,13.3286255 L5.23396269,15.7115645 C-0.0411687015,16.0804405 -0.0561704771,24.3356686 5.23987888,24.6583266 C5.2736857,31.9436278 5.27199536,39.1095867 5.23396269,46.5168339 C5.22360935,48.559539 8.39257597,48.6793153 8.4033519,46.5339758 C8.44138457,39.120436 8.44307491,31.9481845 8.40947938,24.6568077 L16.2718888,24.6166653 C16.2718888,24.6166653 16.2617468,48.6691169 16.2617468,59.5045242 C16.2617468,64.7855267 8.39764699,64.8206784 8.39764699,59.4496267 L8.4003938,56.4819108 C8.52399998,54.3814874 5.36052697,54.1855491 5.23670949,56.2857555 L5.23670949,59.0705524 C5.23670949,61.4573972 5.95552697,63.4788377 7.34710012,64.9007462 C7.47091759,68.3059057 8.86798435,71.6008364 11.2283341,74.0046061 C11.905527,74.6946212 12.8430323,74.4837109 13.498462,73.9651146 C15.8998025,71.4947303 17.2529204,68.2379891 17.3374375,64.7618752 C18.3835472,63.6919178 19.4309247,62.6145829 19.4309247,58.9258228 L19.4321924,44.0946204 C22.1726576,44.8950814 25.030179,42.717194 25.030179,39.7666199 L25.030179,20.0920756 C25.030179,18.8936625 24.5748434,17.7683737 23.7480554,16.9234307 Z M8.4033519,15.6807525 L8.4033519,13.3284085 C8.4033519,12.8469168 8.72515055,12.4431061 9.1583004,12.3231129 L15.5023611,12.290782 C15.6798469,12.3359151 15.8435987,12.4220584 15.9762905,12.5578916 C16.1696232,12.7555658 16.2761147,13.0185527 16.2761147,13.2986814 L16.2761147,15.6408271 L8.4033519,15.6807525 Z M12.3483963,4.39748637 C13.3211875,4.39748637 14.2827802,5.37696067 14.2827802,6.36381248 L14.2827802,9.00366278 L10.4009123,9.0234085 L10.4009123,6.39549242 C10.4011236,5.29906273 11.2741846,4.40291102 12.3483963,4.39748637 L12.3483963,4.39748637 Z M12.3460721,70.3397144 C11.6092947,69.2673702 11.0764148,68.0546361 10.7789148,66.779844 C11.2695362,66.8889879 11.7664964,66.9458382 12.2636679,66.9458382 C12.8187336,66.9458382 13.373588,66.8751008 13.9199907,66.7381827 C13.6296747,68.0322865 13.0976399,69.2523982 12.3460721,70.3397144 Z M21.8607898,39.7666199 C21.8607898,41.3074367 19.4410667,41.4287318 19.4410667,39.7950451 C19.4410667,39.7950451 19.4438135,24.3946887 19.4455039,22.9829786 C19.4465603,22.0725058 18.7095717,21.3536315 17.8485543,21.3536315 L5.51138989,21.4165574 C3.98120878,21.4165574 4.01691724,18.9578904 5.52702555,18.9502958 L20.6587461,18.8732659 C21.3904524,18.9372767 21.7910632,19.3436913 21.8605785,20.0920756 L21.8605785,39.7666199 L21.8607898,39.7666199 Z" id="Shape" fill="#060606" fill-rule="nonzero"></path>
                    </g>
                    <path d="M29.0595618,75.1385305 C26.2463147,75.1462292 23.4330675,75.152431 20.6198203,75.1569219 C19.6742155,75.1584188 18.7288193,75.159702 17.7834231,75.1603435 C16.070114,75.1616266 14.9157421,74.8089828 14.5319942,72.8766056 C14.207477,71.2427674 11.9533755,71.4623946 11.5154024,72.8766056 C10.4329832,76.3703247 8.64271601,75.0014506 7.63996618,72.6514182 C6.63951049,70.306946 6.38298339,67.6829676 5.94605309,65.1879428 C5.62487282,63.3545796 2.92070179,63.8684687 2.87356754,65.614366 C2.81141707,67.9135013 2.60202422,70.1760678 2.03286775,72.4059148 C1.44577525,74.7065471 0.56586644,76.917575 -0.307577049,79.1157717 C-1.06902456,81.0321099 1.95882944,81.8565138 2.70901479,79.9686181 C3.48297582,78.0208434 4.25797964,76.0623762 4.83485278,74.0418915 C5.90684407,76.6851166 8.12465641,79.6747838 11.2849451,77.9128476 C11.8728719,77.5850107 12.4220067,77.1190247 12.9039857,76.5756238 C14.5474276,78.5229707 16.9936116,78.3694241 19.2825424,78.366644 C22.5416879,78.362367 25.8008335,78.3550959 29.059979,78.346328 C31.0723611,78.3409816 31.0761151,75.1331842 29.0595618,75.1385305 L29.0595618,75.1385305 Z" id="Path" fill="#060606" fill-rule="nonzero"></path>
                </g>
            </g>
        </g>
    </g>
</svg>