<?xml version="1.0" encoding="utf-8"?>
<!-- Generator: Adobe Illustrator 24.0.3, SVG Export Plug-In . SVG Version: 6.00 Build 0)  -->
<svg version="1.1" id="Layer_1" xmlns="http://www.w3.org/2000/svg" xmlns:xlink="http://www.w3.org/1999/xlink" x="0px" y="0px"
	 viewBox="0 0 24 24" style="enable-background:new 0 0 24 24;" xml:space="preserve">
<style type="text/css">
	.st0{clip-path:url(#SVGID_2_);fill:#AAADB8;}
</style>
<g>
	<defs>
		<path id="SVGID_1_" d="M16.1,2l4.1,4.1v2.2h-1.8V7.4h-3.6V3.8h-9v4.5H4V3.8C4,2.9,4.7,2.1,5.7,2l0.1,0H16.1z M8.9,12.3H8.5v1.4
			h0.3c0.2,0,0.4-0.1,0.6-0.2c0.1-0.1,0.2-0.3,0.2-0.6C9.6,12.5,9.3,12.3,8.9,12.3z M3.6,12.3H3.2v1.4h0.3c0.2,0,0.4-0.1,0.6-0.2
			c0.1-0.1,0.2-0.3,0.2-0.6C4.3,12.5,4,12.3,3.6,12.3z M18.4,11l1.1,1.9l1-1.9h1.9l-1.9,3.1l2,2.9h-1.9l-1.2-1.9L18.3,17h-1.8l2-3.1
			L16.6,11H18.4z M16.3,11v1.3h-1.5V17h-1.6v-4.7h-1.5V11H16.3z M8.9,11c0.8,0,1.3,0.2,1.7,0.5c0.4,0.3,0.6,0.8,0.6,1.4
			c0,0.7-0.2,1.2-0.6,1.6c-0.4,0.4-1,0.5-1.7,0.5H8.5v2H6.9v-6H8.9z M3.6,11c0.8,0,1.3,0.2,1.7,0.5c0.4,0.3,0.6,0.8,0.6,1.4
			c0,0.7-0.2,1.2-0.6,1.6c-0.4,0.4-1,0.5-1.7,0.5H3.2v2H1.5v-6H3.6z M5.8,19.5v0.8h12.6v-0.8h1.8v0.8c0,0.9-0.7,1.6-1.6,1.7l-0.2,0
			H5.8c-0.9,0-1.7-0.7-1.8-1.5l0-0.1v-0.8H5.8z"/>
	</defs>
	<clipPath id="SVGID_2_">
		<use xlink:href="#SVGID_1_"  style="overflow:visible;"/>
	</clipPath>
	<rect x="-3.5" y="-3" class="st0" width="31" height="30"/>
</g>
</svg>
