<svg xmlns="http://www.w3.org/2000/svg" width="24" height="24"
     viewBox="0 0 26 26">
  <g fill="none" fill-rule="evenodd">
    <path
      class="icon-path stroke-color"
      fill="#AAADB8"
      d="M39.574 259.764c-.422.423-1.108.423-1.53 0-.205-.204-.317-.475-.317-.763.001-.289.114-.56.319-.765.21-.212.489-.317.766-.317.276 0 .552.105.762.314.422.422.422 1.11 0 1.531zm4.384-6.456c.357 0 .648.29.648.646 0 .358-.291.65-.648.65-.358 0-.65-.292-.65-.65 0-.356.292-.646.65-.646zm5.042-5.58h.002c.288 0 .559.111.762.315.422.422.422 1.108 0 1.53-.422.424-1.108.423-1.53 0-.42-.42-.42-1.105.002-1.528.205-.205.476-.317.764-.318zm5.693 6.226c0 .358-.29.65-.648.65-.358 0-.649-.292-.649-.65 0-.356.291-.646.65-.646.356 0 .647.29.647.646zm-7.498 6.851c-.996-.995-.996-2.614 0-3.61.482-.481 1.123-.747 1.805-.747.682 0 1.323.266 1.804.747.996.996.996 2.615 0 3.61-.995.995-2.614.995-3.61 0zm11.997-2.886c.277 0 .554.105.765.317.422.422.422 1.108 0 1.53-.41.41-1.122.41-1.53 0-.188-.188-.288-.428-.309-.674l.002-.006c0-.008-.003-.013-.004-.02-.018-.299.082-.603.31-.83.21-.212.488-.317.766-.317zm-5.147 6.774c-.358 0-.649-.291-.649-.648 0-.358.291-.65.65-.65.356 0 .647.292.647.65 0 .357-.29.648-.648.648zm-4.279 5.264c-.423.42-1.107.42-1.53 0-.422-.422-.422-1.11 0-1.531.21-.21.487-.316.765-.316.015 0 .03.003.045.004.013.002.024.007.037.007l.014-.002c.244.021.483.12.67.307.204.205.317.476.317.765 0 .29-.113.561-.318.766zm-6.457-5.912c0-.358.29-.65.649-.65.357 0 .648.292.648.65 0 .357-.291.648-.648.648-.358 0-.65-.291-.65-.648zM37 258.999c0 .483.187.938.53 1.28.352.352.815.529 1.279.529.463 0 .926-.177 1.279-.53.28-.28.445-.632.502-.997h5.144c.056.648.303 1.283.742 1.812l-1.789 1.79c-.213-.134-.461-.215-.73-.215-.758 0-1.375.619-1.375 1.377s.617 1.376 1.376 1.376c.758 0 1.375-.618 1.375-1.376 0-.226-.06-.436-.156-.624L47 261.597c.51.392 1.107.616 1.719.668v5.144c-.366.058-.718.221-.998.503-.706.705-.706 1.853 0 2.559.353.353.815.529 1.279.529.464 0 .927-.176 1.28-.53.342-.34.53-.795.53-1.278 0-.484-.188-.939-.53-1.28-.239-.239-.53-.39-.834-.467v-5.2c.553-.076 1.09-.291 1.552-.649l1.826 1.827c-.096.187-.156.396-.156.622 0 .758.618 1.376 1.376 1.376.76 0 1.375-.618 1.375-1.376 0-.758-.616-1.377-1.375-1.377-.27 0-.519.081-.73.215l-1.791-1.79c.401-.483.64-1.054.72-1.644h5.202c.077.304.228.594.466.831.342.342.795.53 1.28.53.483 0 .938-.188 1.28-.53.705-.705.705-1.853 0-2.559-.706-.706-1.855-.704-2.56 0-.281.282-.446.635-.502 1h-5.145c-.055-.649-.302-1.284-.742-1.813l1.792-1.792c.212.134.461.214.73.214.76 0 1.375-.617 1.375-1.376 0-.757-.616-1.373-1.375-1.373-.758 0-1.376.616-1.376 1.373 0 .226.06.435.156.623L51 256.404c-.498-.385-1.09-.617-1.72-.67v-5.144c.366-.057.718-.221 1-.502.705-.706.705-1.853 0-2.559-.341-.341-.794-.529-1.276-.529H49c-.483 0-.937.189-1.278.53-.706.707-.706 1.854-.002 2.558.237.238.527.389.832.466v5.2c-.567.077-1.098.3-1.551.65l-1.825-1.826c.097-.188.157-.398.157-.624 0-.757-.617-1.373-1.375-1.373-.759 0-1.376.616-1.376 1.373 0 .759.617 1.376 1.376 1.376.268 0 .516-.08.728-.213l1.79 1.79c-.401.484-.64 1.056-.72 1.646h-5.201c-.078-.305-.229-.596-.467-.834-.704-.704-1.85-.703-2.557.002-.342.342-.53.796-.53 1.278z"
      transform="translate(-36 -246)"/>
  </g>
</svg>
