<svg xmlns="http://www.w3.org/2000/svg" width="24" height="24"
     viewBox="0 0 17 29">
  <g fill="none" fill-rule="evenodd">
    <g class="icon-path" fill="#AAADB8">
      <g>
        <path class="icon-path stroke-color" stroke-width=".6"
              d="M6.03 8.684H8.97v-6.5H6.03v6.5zM5.105.804h4.79c.403 0 .75.237.906.575H4.199c.157-.338.504-.575.905-.575h0zm7.359 9.85H2.537c.18-.67.803-1.166 1.541-1.166h6.843c.738 0 1.36.495 1.542 1.166h0zm-4.41 8.982l-.554.87-.554-.87v-8.177h1.109v8.177zM4.079 8.684c-1.33 0-2.411 1.065-2.411 2.372 0 .222.182.403.407.403h4.053v8.292c0 .075.022.15.063.212l.963 1.515c.074.118.205.189.346.189.142 0 .272-.071.347-.19l.964-1.514c.04-.063.062-.137.062-.212v-8.292h4.052c.227 0 .41-.18.41-.403 0-1.307-1.083-2.372-2.413-2.372H9.786v-6.5h1.511c.225 0 .41-.18.41-.403C11.706.8 10.892 0 9.894 0h-4.79c-.998 0-1.811.799-1.811 1.781 0 .222.183.403.409.403h1.51v6.5H4.078z"
              transform="translate(-316 -315) translate(317 316)"/>
        <path
          class="icon-path stroke-color"
          d="M12.563 19.21c-.203-.104-.444-.016-.544.196-.098.212-.015.47.186.573 1.26.65 1.982 1.528 1.982 2.407 0 1.856-3.063 3.425-6.687 3.425-3.626 0-6.688-1.569-6.688-3.425 0-.884.722-1.761 1.98-2.406.202-.104.287-.36.188-.573-.098-.211-.34-.3-.543-.197C.865 20.016 0 21.144 0 22.386c0 2.4 3.294 4.28 7.5 4.28 4.205 0 7.5-1.88 7.5-4.28 0-1.236-.866-2.364-2.437-3.176"
          transform="translate(-316 -315) translate(317 316)"/>
        <path
          class="icon-path stroke-color"
          d="M5.07 20.745c.192-.095.272-.33.179-.525-.094-.193-.327-.274-.52-.18-.887.434-1.396 1.08-1.396 1.774 0 1.32 1.832 2.353 4.17 2.353 2.335 0 4.164-1.033 4.164-2.353 0-.695-.494-1.325-1.388-1.773-.194-.096-.427-.017-.522.176-.096.194-.016.43.176.526.608.304.956.695.956 1.071 0 .742-1.39 1.569-3.387 1.569-1.998 0-3.391-.827-3.391-1.569 0-.38.35-.771.958-1.07"
          transform="translate(-316 -315) translate(317 316)"/>
      </g>
    </g>
  </g>
</svg>
