<svg xmlns="http://www.w3.org/2000/svg"
     xmlns:xlink="http://www.w3.org/1999/xlink" width="24" height="24"
     viewBox="0 0 21 25">
  <defs>
    <filter id="0vw3k004ja">
      <feColorMatrix in="SourceGraphic"
                     values="0 0 0 0 0.666667 0 0 0 0 0.678431 0 0 0 0 0.721569 0 0 0 1.000000 0"/>
    </filter>
    <path id="2m29hgatcb" d="M0.32 0L19.451 0 19.451 23.478 0.32 23.478z"/>
  </defs>
  <g fill="none" fill-rule="evenodd">
    <g transform="translate(-108 -246)">
      <g transform="translate(108.632 247)">
        <mask id="c4g90xbe1c" fill="#fff">
          <use xlink:href="#2m29hgatcb"/>
        </mask>
        <use stroke="#979797" xlink:href="#2m29hgatcb"/>
        <path class="icon-path stroke-color" fill="#000" stroke="#979797"
              d="M8.872 20.147h7.245v-8.99H8.872v8.99zm-.362.723h7.97c.2 0 .362-.162.362-.362v-9.711c0-.2-.162-.362-.363-.362H8.51c-.2 0-.363.162-.363.362v9.711c0 .2.163.362.364.362h0zM8.872 8.02h7.245V3.284H8.872v4.734zm-.362.676h7.97c.2 0 .362-.152.362-.339v-5.41c0-.187-.162-.338-.363-.338H8.51c-.2 0-.363.15-.363.338v5.41c0 .187.163.339.364.339h0z"
              mask="url(#c4g90xbe1c)"/>
        <path class="icon-path stroke-color" fill="#AAADB8" stroke="#AAADB8"
              d="M5.412 19.432h-.919c.142-.377.499-.646.919-.646.544 0 .985.45.985 1.001 0 .552-.441 1.002-.985 1.002-.42 0-.777-.27-.919-.646h.919c.193 0 .35-.16.35-.356 0-.195-.157-.355-.35-.355h0zm0-16.097h-.919c.142-.377.499-.646.919-.646.544 0 .985.45.985 1.002s-.441 1.001-.985 1.001c-.42 0-.777-.269-.919-.645h.919c.193 0 .35-.16.35-.356 0-.197-.157-.356-.35-.356h0zm0 5.366h-.919c.142-.377.499-.646.919-.646.544 0 .985.449.985 1.002 0 .552-.441 1-.985 1-.42 0-.777-.268-.919-.645h.919c.193 0 .35-.16.35-.355 0-.197-.157-.356-.35-.356h0zm0 5.366h-.919c.142-.378.499-.647.919-.647.544 0 .985.45.985 1.002 0 .553-.441 1.002-.985 1.002-.42 0-.777-.27-.919-.646h.919c.193 0 .35-.159.35-.356 0-.196-.157-.355-.35-.355h0zm-2.891.71h1.243c.161.775.838 1.358 1.648 1.358.93 0 1.685-.768 1.685-1.713 0-.944-.756-1.713-1.685-1.713-.81 0-1.487.583-1.648 1.358H2.52V9.412h1.243c.161.774.838 1.358 1.648 1.358.93 0 1.685-.769 1.685-1.713 0-.946-.756-1.714-1.685-1.714-.81 0-1.487.583-1.648 1.358H2.52V4.047h1.243c.161.774.838 1.357 1.648 1.357.93 0 1.685-.768 1.685-1.713 0-.945-.756-1.713-1.685-1.713-.81 0-1.487.582-1.648 1.357H2.52V.712h16.23v22.055H2.52v-2.624h1.243c.161.774.838 1.357 1.648 1.357.93 0 1.685-.768 1.685-1.713 0-.944-.756-1.713-1.685-1.713-.81 0-1.487.584-1.648 1.358H2.52v-4.654zM.67 19.433c-.194 0-.35.16-.35.355 0 .197.156.356.35.356h1.15v2.98c0 .196.157.355.35.355h16.93c.193 0 .35-.16.35-.355V.356c0-.197-.157-.356-.35-.356H2.17c-.193 0-.35.16-.35.356v2.979H.67c-.194 0-.35.16-.35.356 0 .196.156.356.35.356h1.15V8.7H.67c-.194 0-.35.159-.35.356 0 .196.156.355.35.355h1.15v4.655H.67c-.194 0-.35.16-.35.355 0 .197.156.356.35.356h1.15v4.654H.67z"
              mask="url(#c4g90xbe1c)"/>
      </g>
    </g>
  </g>
</svg>
