<svg xmlns="http://www.w3.org/2000/svg" width="24" height="24"
     viewBox="0 0 25 21">
  <g fill="none" fill-rule="evenodd">
    <g fill="#000" stroke="#AAADB8" class="icon-path stroke-color">
      <path
        d="M266.63 257.958v7.871c0 .431-.35.783-.783.783h-20.358c-.43 0-.781-.352-.781-.783v-7.871c.017.025.038.048.057.072.058.08.12.158.184.233.032.037.066.073.1.109.064.068.132.135.2.199.036.032.07.065.106.096.082.07.166.135.254.198l.079.06c.116.079.236.151.359.218.029.015.058.028.086.041.098.05.198.096.3.137.045.019.09.034.136.05.09.033.182.062.276.088l.148.038c.097.023.196.04.296.055.046.008.092.016.137.022.147.016.294.027.445.027h4.176l3.371 3.367c.062.06.138.09.217.096.012.002.022.008.034.008.024 0 .048-.01.072-.015.065-.014.128-.04.177-.09l3.367-3.366h4.182c.15 0 .298-.011.444-.027.046-.006.091-.014.137-.022.1-.014.199-.032.297-.055l.148-.038c.093-.026.185-.055.275-.087.045-.017.092-.032.137-.05.102-.042.202-.088.3-.138.028-.013.057-.026.084-.041.124-.067.245-.14.36-.219.028-.018.053-.04.08-.059.087-.063.172-.129.253-.198.036-.031.07-.064.106-.096.07-.064.136-.13.2-.2.034-.035.067-.071.1-.108.065-.075.125-.154.185-.233.018-.024.04-.047.057-.072h0zm-13.936 1.289l2.975-2.974 2.97 2.974-2.97 2.97-2.975-2.97zm-7.986-6.576c0-.431.35-.783.781-.783h20.358c.433 0 .783.352.783.783v3.059c0 1.745-1.418 3.164-3.163 3.164h-4.182l-3.367-3.371c-.065-.067-.155-.104-.25-.104-.093 0-.183.037-.25.104l-3.371 3.37h-4.176c-1.745 0-3.163-1.418-3.163-3.163v-3.06zm6.022-3.11c0-.58.473-1.053 1.055-1.053h7.763c.582 0 1.056.472 1.056 1.054v1.618h-9.874v-1.618zm15.117 1.62h-4.536v-1.62c0-.97-.791-1.76-1.763-1.76h-7.763c-.972 0-1.763.79-1.763 1.76v1.62h-4.533c-.82 0-1.49.667-1.49 1.49V265.83c0 .82.67 1.489 1.49 1.489h20.358c.822 0 1.49-.67 1.49-1.49v-13.158c0-.823-.668-1.49-1.49-1.49h0z"
        transform="translate(-243 -247)"/>
    </g>
  </g>
</svg>
