<svg xmlns="http://www.w3.org/2000/svg" width="24" height="24"
     viewBox="0 0 27 26">
  <defs>
    <filter id="9fnsbd48fa">
      <feColorMatrix in="SourceGraphic"
                     values="0 0 0 0 0.666667 0 0 0 0 0.678431 0 0 0 0 0.721569 0 0 0 1.000000 0"/>
    </filter>
  </defs>
  <g fill="none" fill-rule="evenodd">
    <g transform="translate(-173 -316)">
      <g>
        <path class="icon-path stroke-color" fill="#AAADB8" stroke="#AAADB8"
              d="M2.4 20.08c.267 0 .524.064.761.188.537.286.871.839.871 1.444 0 .901-.731 1.636-1.631 1.636-.902 0-1.636-.735-1.636-1.636 0-.9.734-1.632 1.636-1.632h0zm9.447-15.405c.02.007.041.01.062.016.09.027.179.049.27.066.02.004.039.01.058.013v6.829c-1.612.19-2.869 1.563-2.869 3.227 0 .545.137 1.058.375 1.51l-5.44 3.924c-.029-.038-.06-.073-.09-.109-.025-.03-.051-.056-.078-.085-.077-.081-.158-.156-.247-.226-.015-.013-.028-.03-.045-.04l8.004-15.125zm.771-3.91c.902 0 1.636.734 1.636 1.636 0 .608-.334 1.162-.869 1.447-.357.186-.776.232-1.16.14-.13-.03-.255-.078-.374-.14-.533-.287-.865-.841-.865-1.447 0-.902.732-1.636 1.632-1.636h0zm8.733 19.073c-.09.072-.173.149-.25.231l-.075.081c-.023.028-.048.054-.07.082l-5.444-3.927c.228-.444.36-.946.36-1.479 0-1.664-1.257-3.037-2.87-3.227V4.77l.063-.014c.089-.016.177-.038.264-.065.02-.007.04-.008.06-.015L21.393 19.8c-.015.012-.026.027-.042.038h0zm3.125 1.874c0 .901-.735 1.636-1.637 1.636-.899 0-1.63-.735-1.63-1.636 0-.076.004-.15.014-.224.071-.513.383-.967.85-1.219.236-.123.501-.189.766-.189.902 0 1.637.732 1.637 1.632h0zM12.62 18.078c.986 0 1.868-.443 2.465-1.137l5.5 3.966c-.006.012-.007.027-.011.04-.035.105-.065.214-.085.325-.003.02-.012.037-.015.057H4.766c-.002-.02-.011-.038-.015-.058-.02-.11-.049-.22-.085-.325v-.004l5.512-3.977c.596.68 1.469 1.113 2.442 1.113h0zm0-5.74c1.371 0 2.487 1.116 2.487 2.488 0 1.37-1.116 2.487-2.487 2.487s-2.487-1.116-2.487-2.487c0-1.372 1.116-2.487 2.487-2.487h0zM2.4 24.114c1.191 0 2.175-.877 2.359-2.019h15.723c.184 1.142 1.167 2.019 2.357 2.019 1.325 0 2.402-1.078 2.402-2.401 0-1.321-1.077-2.397-2.402-2.397-.26 0-.52.047-.768.13l-8.008-15.13c.596-.45.956-1.152.956-1.914C15.019 1.077 13.942 0 12.618 0c-1.321 0-2.397 1.077-2.397 2.401 0 .76.358 1.462.952 1.914l-8.008 15.13c-.246-.084-.501-.13-.764-.13-1.324 0-2.4 1.076-2.4 2.397 0 1.323 1.076 2.4 2.4 2.4h0z"
              transform="translate(174 317)"/>
      </g>
    </g>
  </g>
</svg>
