<svg xmlns="http://www.w3.org/2000/svg" width="24" height="24"
     viewBox="0 0 26 24">
  <g fill="none" fill-rule="evenodd">
    <g fill="#AAADB8" stroke="#AAADB8" class="icon-path stroke-color">
      <g>
        <path
          d="M22.131 3.613l-3.104 3.105c-.142.142-.142.371 0 .513.821.823.821 2.161 0 2.984l-.133.131-5.24-5.24.132-.133c.399-.398.928-.617 1.491-.617.563 0 1.093.22 1.491.617.137.137.378.137.514 0l3.104-3.105c.069-.068.107-.16.107-.256v-.373l2.267 2.268h-.372c-.097 0-.188.038-.257.106h0zm1.506.62c.146 0 .279-.089.335-.224.056-.136.025-.292-.078-.396L20.386.106c-.103-.104-.26-.134-.395-.078-.135.055-.224.188-.224.335v1.098L17.01 4.22c-.494-.383-1.096-.59-1.732-.59-.757 0-1.47.295-2.004.83l-.39.39c-.068.067-.106.16-.106.255 0 .097.038.19.107.258l2.62 2.62-4.639 4.64c-.142.14-.142.37 0 .512.07.071.164.106.257.106s.186-.035.256-.106l4.64-4.639 2.62 2.62c.07.071.163.106.256.106s.186-.035.257-.105l.39-.389c1.017-1.019 1.097-2.625.239-3.736l2.758-2.76h1.099z"
          transform="translate(-37 -317) translate(38 318)"/>
        <path
          d="M5.012 19.89v-1.258h12.804v1.259c0 .952-.792 1.727-1.766 1.727H4.288c.468-.46.724-1.073.724-1.727h0zM0 19.89c0 1.354 1.125 2.455 2.508 2.455H16.05c1.383 0 2.509-1.101 2.509-2.454v-1.623c0-.2-.167-.362-.372-.362h-2.13v-5.67c0-.202-.166-.364-.371-.364-.206 0-.372.162-.372.364v5.67H4.641c-.205 0-.372.162-.372.362v1.623c0 .463-.182.896-.512 1.22-.338.327-.782.507-1.249.507-.973 0-1.766-.775-1.766-1.727V8.62H11.78c.205 0 .371-.163.371-.364 0-.2-.166-.362-.37-.362H.37c-.204 0-.37.162-.37.362v11.634z"
          transform="translate(-37 -317) translate(38 318)"/>
      </g>
    </g>
  </g>
</svg>
