<?xml version="1.0" encoding="UTF-8"?>
<svg width="33px" height="35px" viewBox="0 0 33 35" version="1.1" xmlns="http://www.w3.org/2000/svg" xmlns:xlink="http://www.w3.org/1999/xlink">
    <title>icon / logo / engagement pro</title>
    <defs>
        <path d="M30.6825,14.4805 L30.9355403,14.9030519 C32.0448554,16.7897219 33.3058333,19.3649048 34.14,21.2855 L34.14,21.2855 C33.8088485,21.3951194 22.9364303,25.0262711 19.4008333,30.4671667 L19.4008333,30.4671667 L19.9658333,31.5188333 L35.6058333,25.3421667 L35.7878881,25.9527592 C36.5608844,28.658017 37.1264286,32.0985952 37.4591667,34.858 L37.4591667,34.858 L36.8061259,35.078956 C32.0021235,36.6733277 26.8692754,37.6896667 21.5366667,37.6896667 L21.5366667,37.6896667 L20.8106437,37.6834082 C15.4958003,37.5919193 10.3880435,36.5040145 5.615,34.858 L5.615,34.858 L5.69589529,34.2092439 C6.06420493,31.35121 6.66285714,27.921631 7.46916667,25.3363333 C15.4325,20.0438333 24.0816667,16.5955 30.6825,14.4805 L30.6825,14.4805 Z M21.5366667,3.49966667 C23.46,5.22133333 25.8075,7.79716667 27.4375,9.8005 L27.4375,9.8005 L27.0526638,9.99927189 C16.182675,15.6535672 8.1975,23.1771667 8.1975,23.1771667 L8.1975,23.1771667 L8.29977543,22.8322359 C10.1715474,16.7886687 17.1420126,7.43318868 21.5366667,3.49966667 Z" id="path-1"></path>
        <linearGradient x1="107.744159%" y1="50.0018875%" x2="-0.30565148%" y2="50.0018875%" id="linearGradient-3">
            <stop stop-color="#000000" offset="0%"></stop>
            <stop stop-color="#26A59A" offset="100%"></stop>
        </linearGradient>
        <linearGradient x1="108.207118%" y1="50.0025918%" x2="-62.7845062%" y2="50.0025918%" id="linearGradient-4">
            <stop stop-color="#000000" offset="0%"></stop>
            <stop stop-color="#26A59A" offset="100%"></stop>
        </linearGradient>
        <path d="M30.6825,14.4805 L31.1136165,15.2003633 C32.1053516,16.8891589 32.9973958,18.6414375 33.7841667,20.4505 L33.7841667,20.4505 L33.4323459,20.5703868 C29.5770577,21.8879755 22.4962374,24.4342626 17.5225,26.9813333 L17.5225,26.9813333 L19.9658333,31.5188333 L35.6058333,25.3421667 L35.8586517,26.1800925 C36.5954667,28.703325 37.1366667,31.311 37.4591667,33.9855 L37.4591667,33.9855 L36.7763448,34.2152842 C31.9809125,35.7895496 26.8582576,36.643 21.5366667,36.643 L21.5366667,36.643 L20.7777031,36.6372085 C15.4746952,36.5562283 10.3781818,35.6281136 5.615,33.9855 L5.615,33.9855 L5.73054667,33.0959758 C6.10124167,30.4349083 6.68766667,27.8420833 7.46916667,25.3363333 C15.4325,20.0438333 24.0816667,16.5955 30.6825,14.4805 L30.6825,14.4805 Z M21.5366667,3.49966667 C23.46,5.22133333 25.2441667,7.09383333 26.875,9.09716667 L26.875,9.09716667 L26.1686251,9.41373292 C19.8465115,12.270129 14.4825,15.3136845 10.5675,17.7396667 L10.5675,17.7396667 L10.9031575,17.0938619 C13.6255627,11.9499067 17.2366667,7.34846667 21.5366667,3.49966667 Z" id="path-5"></path>
        <linearGradient x1="10.7313504%" y1="100.805568%" x2="82.1116719%" y2="42.8042158%" id="linearGradient-7">
            <stop stop-color="#93C74B" offset="0%"></stop>
            <stop stop-color="#63B35B" offset="100%"></stop>
        </linearGradient>
        <path d="M30.6825,14.4805 L31.1136165,15.2003633 C32.1053516,16.8891589 32.9973958,18.6414375 33.7841667,20.4505 L33.7841667,20.4505 L33.4323459,20.5703868 C29.5770577,21.8879755 22.4962374,24.4342626 17.5225,26.9813333 L17.5225,26.9813333 L19.9658333,31.5188333 L35.6058333,25.3421667 L35.8586517,26.1800925 C36.5954667,28.703325 37.1366667,31.311 37.4591667,33.9855 L37.4591667,33.9855 L36.7763448,34.2152842 C31.9809125,35.7895496 26.8582576,36.643 21.5366667,36.643 L21.5366667,36.643 L20.7777031,36.6372085 C15.4746952,36.5562283 10.3781818,35.6281136 5.615,33.9855 L5.615,33.9855 L5.73054667,33.0959758 C6.10124167,30.4349083 6.68766667,27.8420833 7.46916667,25.3363333 C15.4325,20.0438333 24.0816667,16.5955 30.6825,14.4805 L30.6825,14.4805 Z M30.6058333,14.6888333 L30.1361376,14.8411406 C24.118186,16.8078088 15.526859,20.2010556 7.6175,25.4471667 L7.6175,25.4471667 L7.3694925,26.2718417 C6.64725,28.7536667 6.1215,31.3036667 5.805,33.8671667 C10.86,35.593 16.1525,36.4688333 21.5366667,36.4688333 L21.5366667,36.4688333 L22.3051887,36.4628781 C27.4242687,36.3834932 32.4532937,35.5108175 37.2691667,33.8671667 L37.2691667,33.8671667 L37.1574575,33.0262608 C36.8,30.5055333 36.242,28.0045833 35.495,25.5738333 L35.495,25.5738333 L20.0308333,31.6813333 L19.8866667,31.738 L19.8125,31.6021667 L17.3691667,27.0646667 L17.285,26.9071667 L17.4433333,26.8263333 L17.9528691,26.5689842 C22.9428722,24.0823657 29.7477222,21.6400556 33.5483333,20.3463333 L33.5483333,20.3463333 L33.1740695,19.5161657 C32.4093027,17.8614864 31.5479762,16.2424048 30.6058333,14.6888333 L30.6058333,14.6888333 Z M21.5366667,3.49966667 C23.46,5.22133333 25.2441667,7.09383333 26.875,9.09716667 L26.875,9.09716667 L26.1686251,9.41373292 C19.8465115,12.270129 14.4825,15.3136845 10.5675,17.7396667 L10.5675,17.7396667 L10.9031575,17.0938619 C13.6255627,11.9499067 17.2366667,7.34846667 21.5366667,3.49966667 Z M21.5366667,3.73466667 C17.2383333,7.60716667 13.7008333,12.1538333 11.0133333,17.2605 L11.0133333,17.2605 L12.1816454,16.5514331 C16.8678994,13.7390207 21.7073077,11.2143462 26.595,9.0305 L26.595,9.0305 L26.0064925,8.32781283 C24.6173047,6.70036979 23.1175,5.15945833 21.5366667,3.73466667 Z" id="path-8"></path>
        <linearGradient x1="58.4854037%" y1="92.3302914%" x2="-3.23478215%" y2="-70.667398%" id="linearGradient-10">
            <stop stop-color="#80CAC3" offset="0%"></stop>
            <stop stop-color="#AED480" offset="100%"></stop>
        </linearGradient>
    </defs>
    <g id="Project-List---Filter---Web" stroke="none" stroke-width="1" fill="none" fill-rule="evenodd">
        <g id="Project_List_Status_Dropdown_Status_Manager" transform="translate(-146.000000, -18.000000)">
            <g id="icon-/-logo-/-engagement-pro" transform="translate(141.000000, 14.500000)">
                <rect id="base" x="0" y="0" width="42" height="42"></rect>
                <mask id="mask-2" fill="white">
                    <use xlink:href="#path-1"></use>
                </mask>
                <g id="Combined-Shape"></g>
                <path d="M7.46916667,25.3363333 C6.60083333,28.1205 5.97333333,31.8838333 5.615,34.858 L5.615,34.858 C10.605,36.5788333 15.9608333,37.6896667 21.5366667,37.6896667 L21.5366667,37.6896667 C27.1116667,37.6896667 32.4683333,36.5788333 37.4591667,34.858 L37.4591667,34.858 C37.1008333,31.8863333 36.4725,28.1246667 35.6058333,25.3421667 L35.6058333,25.3421667 L19.9658333,31.5188333 L19.4008333,30.4671667 C22.99,24.9438333 34.14,21.2855 34.14,21.2855 L34.14,21.2855 C33.2416667,19.2171667 31.8483333,16.3896667 30.6825,14.4805 L30.6825,14.4805 C24.0816667,16.5955 15.4325,20.0438333 7.46916667,25.3363333" id="Fill-30" fill="url(#linearGradient-3)" mask="url(#mask-2)"></path>
                <path d="M21.5366667,3.49966667 C17.0575,7.50883333 9.9025,17.1505 8.1975,23.1771667 L8.1975,23.1771667 C8.1975,23.1771667 16.3716667,15.4755 27.4375,9.8005 L27.4375,9.8005 C25.8075,7.79716667 23.46,5.22133333 21.5366667,3.49966667 Z" id="Fill-33" fill="url(#linearGradient-4)" mask="url(#mask-2)"></path>
                <mask id="mask-6" fill="white">
                    <use xlink:href="#path-5"></use>
                </mask>
                <g id="Combined-Shape"></g>
                <path d="M30.6825,14.4805 L31.1136165,15.2003633 C32.1053516,16.8891589 32.9973958,18.6414375 33.7841667,20.4505 L33.7841667,20.4505 L33.4323459,20.5703868 C29.5770577,21.8879755 22.4962374,24.4342626 17.5225,26.9813333 L17.5225,26.9813333 L19.9658333,31.5188333 L35.6058333,25.3421667 L35.8586517,26.1800925 C36.5954667,28.703325 37.1366667,31.311 37.4591667,33.9855 L37.4591667,33.9855 L36.7763448,34.2152842 C31.9809125,35.7895496 26.8582576,36.643 21.5366667,36.643 L21.5366667,36.643 L20.7777031,36.6372085 C15.4746952,36.5562283 10.3781818,35.6281136 5.615,33.9855 L5.615,33.9855 L5.73054667,33.0959758 C6.10124167,30.4349083 6.68766667,27.8420833 7.46916667,25.3363333 C15.4325,20.0438333 24.0816667,16.5955 30.6825,14.4805 L30.6825,14.4805 Z M21.5366667,3.49966667 C23.46,5.22133333 25.2441667,7.09383333 26.875,9.09716667 L26.875,9.09716667 L26.1686251,9.41373292 C19.8465115,12.270129 14.4825,15.3136845 10.5675,17.7396667 L10.5675,17.7396667 L10.9031575,17.0938619 C13.6255627,11.9499067 17.2366667,7.34846667 21.5366667,3.49966667 Z" id="Combined-Shape" fill="url(#linearGradient-7)" mask="url(#mask-6)"></path>
                <mask id="mask-9" fill="white">
                    <use xlink:href="#path-8"></use>
                </mask>
                <g id="Combined-Shape"></g>
                <path d="M30.6825,14.4805 L31.1136165,15.2003633 C32.1053516,16.8891589 32.9973958,18.6414375 33.7841667,20.4505 L33.7841667,20.4505 L33.4323459,20.5703868 C29.5770577,21.8879755 22.4962374,24.4342626 17.5225,26.9813333 L17.5225,26.9813333 L19.9658333,31.5188333 L35.6058333,25.3421667 L35.8586517,26.1800925 C36.5954667,28.703325 37.1366667,31.311 37.4591667,33.9855 L37.4591667,33.9855 L36.7763448,34.2152842 C31.9809125,35.7895496 26.8582576,36.643 21.5366667,36.643 L21.5366667,36.643 L20.7777031,36.6372085 C15.4746952,36.5562283 10.3781818,35.6281136 5.615,33.9855 L5.615,33.9855 L5.73054667,33.0959758 C6.10124167,30.4349083 6.68766667,27.8420833 7.46916667,25.3363333 C15.4325,20.0438333 24.0816667,16.5955 30.6825,14.4805 L30.6825,14.4805 Z M30.6058333,14.6888333 L30.1361376,14.8411406 C24.118186,16.8078088 15.526859,20.2010556 7.6175,25.4471667 L7.6175,25.4471667 L7.3694925,26.2718417 C6.64725,28.7536667 6.1215,31.3036667 5.805,33.8671667 C10.86,35.593 16.1525,36.4688333 21.5366667,36.4688333 L21.5366667,36.4688333 L22.3051887,36.4628781 C27.4242687,36.3834932 32.4532937,35.5108175 37.2691667,33.8671667 L37.2691667,33.8671667 L37.1574575,33.0262608 C36.8,30.5055333 36.242,28.0045833 35.495,25.5738333 L35.495,25.5738333 L20.0308333,31.6813333 L19.8866667,31.738 L19.8125,31.6021667 L17.3691667,27.0646667 L17.285,26.9071667 L17.4433333,26.8263333 L17.9528691,26.5689842 C22.9428722,24.0823657 29.7477222,21.6400556 33.5483333,20.3463333 L33.5483333,20.3463333 L33.1740695,19.5161657 C32.4093027,17.8614864 31.5479762,16.2424048 30.6058333,14.6888333 L30.6058333,14.6888333 Z M21.5366667,3.49966667 C23.46,5.22133333 25.2441667,7.09383333 26.875,9.09716667 L26.875,9.09716667 L26.1686251,9.41373292 C19.8465115,12.270129 14.4825,15.3136845 10.5675,17.7396667 L10.5675,17.7396667 L10.9031575,17.0938619 C13.6255627,11.9499067 17.2366667,7.34846667 21.5366667,3.49966667 Z M21.5366667,3.73466667 C17.2383333,7.60716667 13.7008333,12.1538333 11.0133333,17.2605 L11.0133333,17.2605 L12.1816454,16.5514331 C16.8678994,13.7390207 21.7073077,11.2143462 26.595,9.0305 L26.595,9.0305 L26.0064925,8.32781283 C24.6173047,6.70036979 23.1175,5.15945833 21.5366667,3.73466667 Z" id="Combined-Shape" fill="url(#linearGradient-10)" mask="url(#mask-9)"></path>
            </g>
        </g>
    </g>
</svg>