<?xml version="1.0" encoding="utf-8"?>
<!-- Generator: Adobe Illustrator 24.0.3, SVG Export Plug-In . SVG Version: 6.00 Build 0)  -->
<svg version="1.1" id="Layer_1" xmlns="http://www.w3.org/2000/svg" xmlns:xlink="http://www.w3.org/1999/xlink" x="0px" y="0px"
	 viewBox="0 0 24 24" style="enable-background:new 0 0 24 24;" xml:space="preserve">
<style type="text/css">
	.st0{clip-path:url(#SVGID_2_);fill:#AAADB8;}
</style>
<g>
	<defs>
		<path id="SVGID_1_" d="M16.1,2l4.1,4.1v2.2h-1.8V7.4h-3.6V3.8h-9v4.5H4V3.8C4,2.9,4.7,2.1,5.7,2l0.1,0H16.1z M12.6,10v4.8h2.2v1.4
			H11V10H12.6z M6,10c0.1,0,0.2,0,0.3,0.1c0.1,0,0.1,0.1,0.2,0.2L7.6,12l1.1-1.7c0-0.1,0.1-0.1,0.2-0.2C8.8,10,8.9,10,9,10h1.5l-2,3
			l2,3.2H9c-0.1,0-0.2,0-0.3-0.1C8.6,16,8.6,16,8.5,15.9l-1.1-1.8l-1.1,1.8c0,0.1-0.1,0.1-0.2,0.2c-0.1,0.1-0.2,0.1-0.3,0.1H4.4
			l2-3.2l-2-3H6z M17.7,9.9c0.4,0,0.7,0.1,1,0.2c0.3,0.1,0.6,0.3,0.8,0.5l0.1,0.1l-0.4,0.7c-0.1,0.1-0.1,0.1-0.2,0.2
			c-0.1,0.1-0.2,0.1-0.3,0.1c-0.1,0-0.2,0-0.3-0.1l-0.1-0.1l-0.2-0.1c-0.1,0-0.1-0.1-0.2-0.1c-0.1,0-0.2-0.1-0.3-0.1
			c-0.2,0-0.4,0-0.5,0.1c-0.1,0.1-0.1,0.2-0.1,0.3c0,0.1,0,0.1,0.1,0.2c0.1,0.1,0.1,0.1,0.2,0.2c0.1,0,0.2,0.1,0.2,0.1l0.4,0.1
			l0.2,0.1c0.2,0.1,0.3,0.1,0.5,0.2c0.2,0.1,0.3,0.2,0.5,0.3c0.1,0.1,0.3,0.3,0.3,0.5c0.1,0.2,0.1,0.4,0.1,0.7
			c0,0.3-0.1,0.6-0.2,0.8c-0.1,0.3-0.3,0.5-0.4,0.7c-0.2,0.2-0.4,0.3-0.7,0.5c-0.3,0.1-0.6,0.2-0.9,0.2c-0.2,0-0.4,0-0.6-0.1
			c-0.2,0-0.4-0.1-0.6-0.2c-0.2-0.1-0.4-0.2-0.5-0.3c-0.2-0.1-0.3-0.2-0.4-0.3l-0.1-0.1l0.4-0.7c0-0.1,0.1-0.1,0.2-0.2
			c0.1,0,0.2-0.1,0.3-0.1c0.1,0,0.2,0,0.3,0.1l0.3,0.2c0.1,0.1,0.2,0.1,0.3,0.2c0.1,0,0.3,0.1,0.4,0.1c0.2,0,0.4-0.1,0.5-0.1
			c0.1-0.1,0.2-0.2,0.2-0.4c0-0.1,0-0.2-0.1-0.2C18,14,17.9,14,17.8,13.9c-0.1,0-0.2-0.1-0.2-0.1l-0.1,0c-0.2,0-0.3-0.1-0.5-0.1
			c-0.2-0.1-0.3-0.1-0.5-0.2c-0.2-0.1-0.3-0.2-0.5-0.3c-0.1-0.1-0.3-0.3-0.3-0.5c-0.1-0.2-0.1-0.5-0.1-0.8c0-0.2,0-0.5,0.1-0.7
			c0.1-0.2,0.2-0.4,0.4-0.6c0.2-0.2,0.4-0.3,0.7-0.4C17,10,17.3,9.9,17.7,9.9z M5.8,19.5v0.8h12.6v-0.8h1.8v0.8
			c0,0.9-0.7,1.6-1.6,1.7l-0.2,0H5.8c-0.9,0-1.7-0.7-1.8-1.5l0-0.1v-0.8H5.8z"/>
	</defs>
	<clipPath id="SVGID_2_">
		<use xlink:href="#SVGID_1_"  style="overflow:visible;"/>
	</clipPath>
	<rect x="-1" y="-3" class="st0" width="26.2" height="30"/>
</g>
</svg>
