<?xml version="1.0" encoding="utf-8"?>
<!-- Generator: Adobe Illustrator 24.0.3, SVG Export Plug-In . SVG Version: 6.00 Build 0)  -->
<svg version="1.1" id="Layer_1" xmlns="http://www.w3.org/2000/svg" xmlns:xlink="http://www.w3.org/1999/xlink" x="0px" y="0px"
	 viewBox="0 0 24 24" style="enable-background:new 0 0 24 24;" xml:space="preserve">
<style type="text/css">
	.st0{clip-path:url(#SVGID_2_);fill:#AAADB8;}
</style>
<g>
	<defs>
		<path id="SVGID_1_" d="M16.1,2l4.1,4.1v2.2h-1.8V7.4h-3.6V3.8h-9v4.5H4V3.8C4,2.9,4.7,2.1,5.7,2l0.1,0H16.1z M6.5,11.6H6.1v1.4
			h0.3c0.2,0,0.4-0.1,0.6-0.2c0.1-0.1,0.2-0.3,0.2-0.6C7.2,11.8,7,11.6,6.5,11.6z M11.9,11.6h-0.5v3.4h0.4c0.5,0,0.9-0.1,1.1-0.4
			c0.2-0.3,0.3-0.7,0.3-1.3c0-0.5-0.1-1-0.3-1.2C12.7,11.7,12.3,11.6,11.9,11.6z M19.5,10.3v1.3h-1.9v1.1h1.8V14h-1.8v2.3H16v-6
			H19.5z M11.9,10.3c1,0,1.7,0.2,2.2,0.7c0.5,0.5,0.8,1.2,0.8,2.1c0,1-0.3,1.8-0.8,2.3s-1.3,0.8-2.3,0.8H9.8v-6H11.9z M6.6,10.3
			c0.8,0,1.3,0.2,1.7,0.5c0.4,0.3,0.6,0.8,0.6,1.4c0,0.7-0.2,1.2-0.6,1.6c-0.4,0.4-1,0.5-1.7,0.5H6.1v2H4.5v-6H6.6z M5.8,19.5v0.8
			h12.6v-0.8h1.8v0.8c0,0.9-0.7,1.6-1.6,1.7l-0.2,0H5.8c-0.9,0-1.7-0.7-1.8-1.5l0-0.1v-0.8H5.8z"/>
	</defs>
	<clipPath id="SVGID_2_">
		<use xlink:href="#SVGID_1_"  style="overflow:visible;"/>
	</clipPath>
	<rect x="-1" y="-3" class="st0" width="26.2" height="30"/>
</g>
</svg>
