<?xml version="1.0" encoding="utf-8"?>
<!-- Generator: Adobe Illustrator 24.0.3, SVG Export Plug-In . SVG Version: 6.00 Build 0)  -->
<svg version="1.1" id="Layer_1" xmlns="http://www.w3.org/2000/svg" xmlns:xlink="http://www.w3.org/1999/xlink" x="0px" y="0px"
	 viewBox="0 0 24 24" style="enable-background:new 0 0 24 24;" xml:space="preserve">
<style type="text/css">
	.st0{clip-path:url(#SVGID_2_);fill:#AAADB8;}
</style>
<g>
	<defs>
		<path id="SVGID_1_" d="M16.1,2l4.1,4.1v2.2h-1.8V7.4h-3.6V3.8h-9v4.5H4V3.8C4,2.9,4.7,2.1,5.7,2l0.1,0H16.1z M3.1,12.5H2.6v3.3H3
			c0.5,0,0.8-0.1,1.1-0.4c0.2-0.3,0.3-0.7,0.3-1.3c0-0.5-0.1-0.9-0.3-1.2C3.8,12.7,3.5,12.5,3.1,12.5z M9.7,12.5
			c-0.8,0-1.2,0.6-1.2,1.7c0,1.1,0.4,1.7,1.2,1.7c0.4,0,0.7-0.1,0.9-0.4c0.2-0.3,0.3-0.7,0.3-1.3c0-0.6-0.1-1-0.3-1.3
			C10.3,12.6,10,12.5,9.7,12.5z M20.1,11.3l1.1,1.8l1-1.8h1.8l-1.8,3l2,2.9h-1.8l-1.1-1.8L20,17.1h-1.8l1.9-3l-1.8-2.8H20.1z
			 M3.1,11.3c0.9,0,1.7,0.2,2.2,0.7C5.7,12.5,6,13.2,6,14.1c0,1-0.3,1.7-0.8,2.2s-1.3,0.8-2.3,0.8H1v-5.8H3.1z M16.1,11.2
			c0.6,0,1.2,0.1,1.8,0.4l-0.5,1.2c-0.2-0.1-0.4-0.2-0.6-0.3c-0.2-0.1-0.4-0.1-0.7-0.1c-0.4,0-0.7,0.2-0.9,0.5
			c-0.2,0.3-0.3,0.7-0.3,1.3c0,1.1,0.4,1.7,1.3,1.7c0.3,0,0.5,0,0.7-0.1c0.2-0.1,0.5-0.2,0.7-0.3v1.3c-0.5,0.2-1,0.3-1.7,0.3
			c-0.9,0-1.6-0.3-2-0.8c-0.5-0.5-0.7-1.2-0.7-2.2c0-0.6,0.1-1.1,0.3-1.6c0.2-0.5,0.6-0.8,1-1.1C15.1,11.3,15.6,11.2,16.1,11.2z
			 M9.7,11.2c0.9,0,1.6,0.3,2.1,0.8c0.5,0.5,0.7,1.3,0.7,2.2c0,1-0.2,1.7-0.7,2.2c-0.5,0.5-1.2,0.8-2.1,0.8c-0.9,0-1.6-0.3-2.1-0.8
			c-0.5-0.5-0.7-1.3-0.7-2.2c0-1,0.2-1.7,0.7-2.2C8,11.4,8.7,11.2,9.7,11.2z M5.8,19.5v0.8h12.6v-0.8h1.8v0.8c0,0.9-0.7,1.6-1.6,1.7
			l-0.2,0H5.8c-0.9,0-1.7-0.7-1.8-1.5l0-0.1v-0.8H5.8z"/>
	</defs>
	<clipPath id="SVGID_2_">
		<use xlink:href="#SVGID_1_"  style="overflow:visible;"/>
	</clipPath>
	<rect x="-4" y="-3" class="st0" width="33" height="30"/>
</g>
</svg>
