<?xml version="1.0" encoding="utf-8"?>
<!-- Generator: Adobe Illustrator 24.0.3, SVG Export Plug-In . SVG Version: 6.00 Build 0)  -->
<svg version="1.1" id="Layer_1" xmlns="http://www.w3.org/2000/svg" xmlns:xlink="http://www.w3.org/1999/xlink" x="0px" y="0px"
	 viewBox="0 0 24 24" style="enable-background:new 0 0 24 24;" xml:space="preserve">
<style type="text/css">
	.st0{clip-path:url(#SVGID_2_);fill:#AAADB8;}
</style>
<g>
	<defs>
		<path id="SVGID_1_" d="M16.1,2l4.1,4.1v2.2h-1.8V7.4h-3.6V3.8h-9v4.5H4V3.8C4,2.9,4.7,2.1,5.7,2l0.1,0H16.1z M8.3,11l0.2,0
			c0.1,0,0.1,0,0.2,0c0.1,0,0.1,0.1,0.2,0.1c0,0,0.1,0.1,0.1,0.2l1.7,3.2l1.7-3.2c0-0.1,0.1-0.1,0.1-0.2c0,0,0.1-0.1,0.2-0.1
			c0.1,0,0.1,0,0.2,0l0.1,0l1.1,0l0.2,0.2l0,5.9l-0.2,0.2l-1.1,0L12.5,17v-3.1l-1.2,2.3c-0.1,0.2-0.3,0.4-0.6,0.4h-0.2
			c-0.1,0-0.3,0-0.4-0.1c-0.1-0.1-0.2-0.2-0.3-0.3l-1.2-2.3l0,3.2l-0.2,0.2l-1.1,0L7.2,17l0-5.9L7.4,11H8.3z M5.8,11L5.8,11L6,11.2
			l0,5.9l-0.2,0.2l-1.3,0L4.4,17l0-5.9L4.6,11H5.8z M18.1,10.9c0.3,0,0.5,0,0.7,0.1c0.2,0,0.4,0.1,0.6,0.2c0.2,0.1,0.4,0.2,0.5,0.3
			c0.2,0.1,0.3,0.2,0.5,0.4l0,0.2l-0.3,0.5c-0.1,0.1-0.2,0.2-0.4,0.3c-0.1,0-0.3,0-0.4-0.1c-0.1-0.1-0.2-0.1-0.3-0.1
			c-0.1,0-0.2-0.1-0.3-0.1c-0.1,0-0.2-0.1-0.3-0.1c-0.1,0-0.2,0-0.4,0c-0.2,0-0.5,0-0.6,0.1c-0.2,0.1-0.3,0.2-0.5,0.3
			c-0.1,0.1-0.2,0.3-0.3,0.5c-0.1,0.2-0.1,0.5-0.1,0.7c0,0.3,0,0.6,0.1,0.8c0.1,0.2,0.2,0.4,0.3,0.6c0.1,0.1,0.3,0.3,0.5,0.3
			c0.2,0.1,0.4,0.1,0.7,0.1c0.2,0,0.3,0,0.5-0.1c0.1,0,0.2-0.1,0.3-0.1v-0.6h-0.4c-0.1,0-0.2,0-0.3-0.1c-0.1-0.1-0.1-0.2-0.1-0.3
			l0-0.7l0.2-0.2l2.1,0l0.2,0.2l0,2.4l-0.1,0.1c-0.3,0.2-0.7,0.4-1,0.5c-0.4,0.1-0.7,0.2-1.1,0.2c-0.5,0-1-0.1-1.4-0.2
			c-0.4-0.2-0.8-0.4-1.1-0.7c-0.3-0.3-0.5-0.6-0.7-1c-0.2-0.4-0.2-0.8-0.2-1.3c0-0.5,0.1-0.9,0.2-1.3c0.2-0.4,0.4-0.7,0.7-1
			c0.3-0.3,0.6-0.5,1-0.7C17.2,11,17.7,10.9,18.1,10.9z M5.8,19.5v0.8h12.6v-0.8h1.8v0.8c0,0.9-0.7,1.6-1.6,1.7l-0.2,0H5.8
			c-0.9,0-1.7-0.7-1.8-1.5l0-0.1v-0.8H5.8z"/>
	</defs>
	<clipPath id="SVGID_2_">
		<use xlink:href="#SVGID_1_"  style="overflow:visible;"/>
	</clipPath>
	<rect x="-1" y="-3" class="st0" width="26.5" height="30"/>
</g>
</svg>
