<svg xmlns="http://www.w3.org/2000/svg"
     xmlns:xlink="http://www.w3.org/1999/xlink" width="24" height="24"
     viewBox="0 0 9 15">
  <g fill="none" fill-rule="evenodd">
    <g>
      <g transform="translate(-326 -305) translate(326 305)">
        <path class="icon-path" fill="#C6C9D2"
              d="M1.444 2.625h6.111v-.594c0-.327-.274-.593-.61-.593h-4.89c-.337 0-.61.266-.61.593v.594zm0 8.312h6.111V4.062h-6.11v6.875zm0 1.438v.594c0 .327.274.593.611.593h4.89c.336 0 .61-.266.61-.593v-.594h-6.11zM6.944 15H2.055C.922 15 0 14.088 0 12.969V2.031C0 .911.922 0 2.055 0h4.89C8.077 0 9 .911 9 2.031v10.938C9 14.088 8.078 15 6.944 15z"/>
      </g>
    </g>
  </g>
</svg>
