<svg
  xmlns="http://www.w3.org/2000/svg"
  width="24"
  height="24"
  viewBox="0 0 24 24"
>
  <g fill="none" fill-rule="evenodd">
    <path d="M0 0H24V24H0z"/>
    <path
      class="icon-path"
      fill="#AAADB8"
      d="M7.71 2.187V3.95h8.815V2.187h1.762V3.95h.882c.97 0 1.763.793 1.763 1.763v14.102c0 .97-.794 1.763-1.763 1.763H5.066c-.97 0-1.763-.793-1.763-1.763V5.713c0-.97.794-1.763 1.763-1.763h.882V2.187H7.71zM19.17 10.12H5.066v9.695H19.17V10.12zM17 14v4h-4v-4h4zm2.169-8.287H5.066v2.644H19.17V5.713z"
    />
  </g>
</svg>
