<svg xmlns="http://www.w3.org/2000/svg" width="24" height="24" viewBox="0 0 24 24">
    <g fill="none" fill-rule="evenodd">
        <path d="M0 0H24V24H0z"/>
        <path fill="#AAADB8" class="icon-path" d="M17 5c2.21 0 4 1.79 4 4 0 1.402-.721 2.635-1.813 3.35 2.713.89 4.694 3.394 4.808 6.378L24 19h-2c0-2.761-2.239-5-5-5-1.52 0-2.882.679-3.8 1.75.472.896.754 1.906.795 2.978L14 19h-2c0-2.761-2.239-5-5-5-2.689 0-4.882 2.122-4.995 4.783L2 19H0c0-3.102 2.018-5.733 4.812-6.651C3.722 11.635 3 10.402 3 9c0-2.21 1.79-4 4-4s4 1.79 4 4c0 1.402-.721 2.635-1.813 3.35 1.077.353 2.038.96 2.814 1.752.773-.791 1.734-1.399 2.81-1.753C13.72 11.635 13 10.401 13 9c0-2.21 1.79-4 4-4zM7 7c-1.105 0-2 .895-2 2s.895 2 2 2 2-.895 2-2-.895-2-2-2zm10 0c-1.105 0-2 .895-2 2s.895 2 2 2 2-.895 2-2-.895-2-2-2z"/>
    </g>
</svg>
