<svg
  xmlns="http://www.w3.org/2000/svg"
  width="24"
  height="24"
  viewBox="0 0 24 24"
>
  <g fill="none" fill-rule="evenodd">
    <path d="M0 0H24V24H0z"/>
    <path
      class="icon-path"
      fill="#AAADB8"
      d="M19.545 2.95c.97 0 1.763.793 1.763 1.763v15.102c0 .97-.793 1.763-1.763 1.763H4.443c-.97 0-1.763-.793-1.763-1.763V4.713c0-.97.793-1.763 1.763-1.763zm0 8.17H4.443v8.695h15.102V11.12zm0-6.407H4.443v4.644h15.102V4.713zM6.472 6c.605 0 1.095.488 1.095 1.09 0 .603-.49 1.092-1.095 1.092S5.377 7.693 5.377 7.09c0-.603.49-1.091 1.095-1.091zm3.286 0c.604 0 1.095.488 1.095 1.09 0 .603-.49 1.092-1.095 1.092S8.662 7.693 8.662 7.09c0-.603.49-1.091 1.096-1.091zm3.285 0c.605 0 1.095.488 1.095 1.09 0 .603-.49 1.092-1.095 1.092s-1.095-.489-1.095-1.091c0-.603.49-1.091 1.095-1.091z"
    />
  </g>
</svg>
