<?xml version="1.0" encoding="utf-8"?>
<!-- Generator: Adobe Illustrator 24.0.3, SVG Export Plug-In . SVG Version: 6.00 Build 0)  -->
<svg version="1.1" id="Layer_1" xmlns="http://www.w3.org/2000/svg" xmlns:xlink="http://www.w3.org/1999/xlink" x="0px" y="0px"
	 viewBox="0 0 24 24" style="enable-background:new 0 0 24 24;" xml:space="preserve">
<style type="text/css">
	.st0{clip-path:url(#SVGID_2_);fill:#AAADB8;}
	.st1{fill:none;}
</style>
<g>
	<g>
		<defs>
			<path id="SVGID_1_" d="M23,8c0,1.1-0.9,2-2,2c-0.2,0-0.4,0-0.5-0.1l-3.6,3.5c0,0.2,0.1,0.3,0.1,0.5c0,1.1-0.9,2-2,2s-2-0.9-2-2
				c0-0.2,0-0.4,0.1-0.5l-2.5-2.5C10.4,11,10.2,11,10,11s-0.4,0-0.5-0.1l-4.5,4.6C5,15.6,5,15.8,5,16c0,1.1-0.9,2-2,2s-2-0.9-2-2
				s0.9-2,2-2c0.2,0,0.3,0,0.5,0.1l4.6-4.5C8,9.4,8,9.2,8,9c0-1.1,0.9-2,2-2s2,0.9,2,2c0,0.2,0,0.4-0.1,0.5l2.5,2.5
				c0.2,0,0.3-0.1,0.5-0.1s0.4,0,0.5,0.1l3.5-3.6C19,8.4,19,8.2,19,8c0-1.1,0.9-2,2-2S23,6.9,23,8z"/>
		</defs>
		<clipPath id="SVGID_2_">
			<use xlink:href="#SVGID_1_"  style="overflow:visible;"/>
		</clipPath>
		<rect x="-4" y="1" class="st0" width="32" height="22"/>
	</g>
	<rect class="st1" width="24" height="24"/>
</g>
</svg>
