<svg xmlns="http://www.w3.org/2000/svg" width="24" height="24" viewBox="0 0 24 24">
    <g fill="none" fill-rule="evenodd">
        <path d="M0 0L25.509 0 25.509 24 0 24z" transform="translate(.48)"/>
        <path fill="#FFF" d="M12.754 10.236L7.156 4.97c-.193-.181-.493-.181-.686 0L5.326 6.046c-.202.19-.211.506-.022.707l.022.021L10.88 12l-5.554 5.226c-.202.19-.211.506-.022.707l.022.021 1.144 1.077c.193.181.493.181.686 0l5.598-5.267 5.599 5.267c.193.181.493.181.685 0l1.145-1.077c.201-.19.21-.506.022-.707l-.022-.021L14.629 12l5.554-5.226c.201-.19.21-.506.022-.707l-.022-.021-1.145-1.077c-.192-.181-.492-.181-.685 0l-5.599 5.267z" transform="translate(.48)"/>
    </g>
</svg>
