<?xml version="1.0" encoding="UTF-8"?>
<svg width="90px" height="81px" viewBox="0 0 90 81" version="1.1" xmlns="http://www.w3.org/2000/svg" xmlns:xlink="http://www.w3.org/1999/xlink">
    <title>add-attachment-icon</title>
    <g id="Project-Details---Web" stroke="none" stroke-width="1" fill="none" fill-rule="evenodd">
        <g id="Project_Details" transform="translate(-881.000000, -477.000000)">
            <g id="add-attachment-icon" transform="translate(881.000000, 477.000000)">
                <path d="M45,76 C66.0074272,76 64.8806557,59.8193548 84.650048,39.4709677 C104.41944,19.1225806 64.5690147,0 43.5615875,0 C22.5541603,0 -1.43439447,11.6191284 0.0670783634,35.3032258 C1.5685512,58.9873232 23.9925728,76 45,76 Z" id="Oval" fill-opacity="0.160456731" fill="#86C04F"></path>
                <rect id="Rectangle" fill="#4ACFD9" fill-rule="nonzero" x="28" y="22" width="43" height="53"></rect>
                <rect id="Rectangle" fill="#0295AA" fill-rule="nonzero" x="29" y="22" width="21" height="53"></rect>
                <polygon id="Path" fill="#E6EAEA" fill-rule="nonzero" points="19 32 19 69.752763 29.2701964 80 59 80 59 32"></polygon>
                <polygon id="Path" fill="#CDD4D5" fill-rule="nonzero" points="18 32 18 69.752763 28.4999365 80 39 80 39 32"></polygon>
                <g id="Group" transform="translate(24.000000, 38.000000)" fill="#365558" fill-rule="nonzero">
                    <path d="M27.9691805,2.02901075 L1.03081947,2.02901075 C0.461359039,2.02901075 0,1.5748289 0,1.01450538 C0,0.454181851 0.461359039,0 1.03081947,0 L27.9691805,0 C28.538641,0 29,0.454181851 29,1.01450538 C29,1.5748289 28.5385145,2.02901075 27.9691805,2.02901075 Z" id="Path"></path>
                    <path d="M27.9691805,10.6859657 L1.03081947,10.6859657 C0.461359039,10.6859657 0,10.2317838 0,9.67146031 C0,9.11113679 0.461359039,8.65695494 1.03081947,8.65695494 L27.9691805,8.65695494 C28.538641,8.65695494 29,9.11113679 29,9.67146031 C29,10.2317838 28.5385145,10.6859657 27.9691805,10.6859657 Z" id="Path"></path>
                    <path d="M27.9691805,19.3430451 L1.03081947,19.3430451 C0.461359039,19.3430451 0,18.8888632 0,18.3285397 C0,17.7682162 0.461359039,17.3140343 1.03081947,17.3140343 L27.9691805,17.3140343 C28.538641,17.3140343 29,17.7682162 29,18.3285397 C29,18.8888632 28.5385145,19.3430451 27.9691805,19.3430451 Z" id="Path"></path>
                    <path d="M27.9691805,28 L1.03081947,28 C0.461359039,28 0,27.5458181 0,26.9854946 C0,26.4251711 0.461359039,25.9709892 1.03081947,25.9709892 L27.9691805,25.9709892 C28.538641,25.9709892 29,26.4251711 29,26.9854946 C29,27.5456937 28.5385145,28 27.9691805,28 Z" id="Path"></path>
                </g>
                <polygon id="Path" fill="#CDD4D5" fill-rule="nonzero" points="30 69 19 69 30 80"></polygon>
                <path d="M70.9851888,21 L28.2180804,21 C27.657326,21 27.2030203,21.4589155 27.2030203,22.025079 L27.2030203,30.2938568 L19.0150601,30.2938568 C18.4543057,30.2938568 18,30.7527724 18,31.3189358 L18,69.5872107 C18,69.6212836 18.001743,69.6553565 18.0051046,69.6893037 C18.0064741,69.703134 18.0090886,69.7164614 18.0109561,69.730166 C18.0136952,69.7496542 18.0159362,69.7691424 18.0197957,69.7885049 C18.0229083,69.8047241 18.0273903,69.8204404 18.0312499,69.8362824 C18.0353584,69.8528788 18.0389689,69.8693495 18.0438245,69.8856944 C18.0485556,69.9014107 18.0544071,69.9164983 18.0597607,69.9318374 C18.0654877,69.9480566 18.0708413,69.9644016 18.0773154,69.9803693 C18.0832914,69.9947026 18.090139,70.0085329 18.0966131,70.0226147 C18.1042077,70.0388339 18.1113043,70.0553046 18.1197704,70.0712723 C18.1269914,70.0848512 18.135084,70.0975499 18.1428031,70.1106259 C18.1520162,70.1262164 18.1608558,70.1420585 18.1708159,70.1572718 C18.1802781,70.1716051 18.1908607,70.1850582 18.2010698,70.1990143 C18.2106564,70.2119645 18.2196205,70.2252919 18.2299541,70.2378649 C18.2497498,70.2620051 18.2706661,70.2852652 18.2924538,70.3076452 C18.2940723,70.3092797 18.2954419,70.3111657 18.2970604,70.3128002 L28.5828695,80.7001333 C28.584239,80.7015163 28.585733,80.7026479 28.5869781,80.7037795 C28.6093883,80.7261594 28.6329191,80.7476593 28.6573214,80.7680276 C28.668651,80.7774574 28.6807276,80.7856299 28.6924308,80.7945567 C28.7073709,80.8057467 28.7218131,80.8174396 28.7372513,80.8278752 C28.7510709,80.837305 28.7655131,80.8453518 28.7795817,80.8540271 C28.7937749,80.8625768 28.8077191,80.8716294 28.8224102,80.8795504 C28.8368524,80.8873457 28.8519171,80.8940094 28.8668572,80.901176 C28.8820464,80.9084684 28.8968621,80.9160122 28.9124248,80.9225501 C28.9268669,80.9285852 28.9418071,80.9334887 28.9564983,80.9387694 C28.973057,80.9448044 28.9892421,80.9512167 29.0060498,80.9562459 C29.02099,80.9607722 29.0359302,80.9640411 29.0509948,80.967813 C29.0680515,80.9722136 29.0849837,80.9769914 29.1022894,80.9803861 C29.1197196,80.9839065 29.1373988,80.9860439 29.1549535,80.9884328 C29.1701427,80.9905702 29.1850829,80.9935878 29.2003965,80.9949708 C29.2336384,80.9982398 29.2671293,81 29.3004957,81 L59.0751342,81 C59.6358886,81 60.0901943,80.5410845 60.0901943,79.974921 L60.0901943,75.5329958 L70.9849398,75.5329958 C71.5456942,75.5329958 72,75.0740803 72,74.5079168 L72,22.0249533 C72,21.4589155 71.5459432,21 70.9851888,21 Z M28.2180804,70.6129184 L28.2858091,70.6129184 L28.2858091,74.5081683 L28.2858091,77.5004233 L21.4656215,70.6129184 L28.2180804,70.6129184 Z M58.0603232,78.9500935 L30.3158047,78.9500935 L30.3158047,74.5081683 L30.3158047,69.5878394 C30.3158047,69.0216759 29.8614991,68.5627604 29.3007447,68.5627604 L28.2180804,68.5627604 L20.0301201,68.5627604 L20.0301201,32.3440148 L28.2180804,32.3440148 L58.0603232,32.3440148 L58.0603232,74.508294 L58.0603232,78.9500935 Z M69.9702533,73.4830893 L60.0904433,73.4830893 L60.0904433,31.3189358 C60.0904433,30.7527724 59.6361376,30.2938568 59.0753832,30.2938568 L29.2331404,30.2938568 L29.2331404,23.0500323 L69.9702533,23.0500323 L69.9702533,73.4830893 Z" id="Shape" fill="#000000" fill-rule="nonzero"></path>
                <path d="M46,20.6764923 C46,18.6492193 44.4401527,17 42.5229979,17 L38.4770021,17 C36.5598473,17 35,18.6492193 35,20.6764923 L35,38.3235077 C35,40.3507807 36.5598473,42 38.4770021,42 L39.9942796,42 C41.9114344,42 43.4712817,40.3507807 43.4712817,38.3235077 L43.4712817,25.4893594 C43.4712817,24.9355612 43.0468628,24.4866685 42.5229979,24.4866685 C41.999133,24.4866685 41.574714,24.9355612 41.574714,25.4893594 L41.574714,38.3236307 C41.574714,39.245152 40.8657982,39.9947412 39.9942796,39.9947412 L38.4770021,39.9947412 C37.6054835,39.9947412 36.8965678,39.245152 36.8965678,38.3236307 L36.8965678,20.6764923 C36.8965678,19.754971 37.6054835,19.0053818 38.4770021,19.0053818 L42.5229979,19.0053818 C43.3945165,19.0053818 44.1034322,19.754971 44.1034322,20.6764923 L44.1034322,21.211228 L46,21.211228 L46,20.6764923 Z" id="Path" fill="#F0353D" fill-rule="nonzero"></path>
            </g>
        </g>
    </g>
</svg>