<svg xmlns="http://www.w3.org/2000/svg" width="78" height="91" viewBox="0 0 78 91">
    <g fill="none" fill-rule="evenodd" opacity=".513">
        <g fill="#F3F5F6" fill-rule="nonzero">
            <g>
                <path d="M16.06 37.44c-.278-.28-.665-.44-1.06-.44s-.781.16-1.06.44c-.28.279-.44.666-.44 1.06 0 .395.16.782.44 1.06.279.28.665.44 1.06.44s.782-.16 1.06-.44c.28-.279.44-.666.44-1.06 0-.395-.16-.782-.44-1.06zM16.06 48.44c-.278-.28-.665-.44-1.06-.44s-.781.16-1.06.44c-.28.279-.44.664-.44 1.06 0 .395.16.782.44 1.06.279.28.665.44 1.06.44s.782-.16 1.06-.44c.28-.279.44-.666.44-1.06 0-.395-.16-.782-.44-1.06zM16.06 58.44c-.278-.28-.665-.44-1.06-.44s-.781.16-1.06.44c-.28.279-.44.666-.44 1.06 0 .395.16.782.44 1.06.279.28.665.44 1.06.44s.782-.16 1.06-.44c.28-.279.44-.666.44-1.06 0-.395-.16-.782-.44-1.06zM44.017 37H20.983c-.819 0-1.483.672-1.483 1.5s.664 1.5 1.483 1.5h23.034c.819 0 1.483-.672 1.483-1.5s-.664-1.5-1.483-1.5zM44.017 48H20.983c-.819 0-1.483.672-1.483 1.5s.664 1.5 1.483 1.5h23.034c.819 0 1.483-.672 1.483-1.5s-.664-1.5-1.483-1.5zM44.017 58H20.983c-.819 0-1.483.672-1.483 1.5s.664 1.5 1.483 1.5h23.034c.819 0 1.483-.672 1.483-1.5s-.664-1.5-1.483-1.5z" transform="translate(-356 -253) rotate(-17 1081.164 -1056.047)"/>
                <path d="M57.498 30.306l-.002-.017c-.001-.024-.004-.045-.008-.065-.034-.336-.177-.659-.423-.909l-15.444-15.64c-.27-.272-.624-.423-.989-.438-.019-.002-.039-.003-.061-.003H30.497v-2.707C30.497 4.723 25.834 0 20.102 0 14.37 0 9.707 4.723 9.707 10.527v2.707H6.44C3.165 13.234.5 15.933.5 19.25v51.734C.5 74.301 3.165 77 6.44 77h45.12c3.275 0 5.94-2.699 5.94-6.016V30.38c0-.026 0-.05-.002-.073zM42.056 18.369L52.43 28.875h-7.033c-1.842 0-3.341-1.518-3.341-3.384V18.37zM20.102 3.008c4.094 0 7.425 3.373 7.425 7.52v13.769c0 2.524-2.028 4.578-4.52 4.578-2.494 0-4.522-2.054-4.522-4.578V10.416c0-.885.71-1.604 1.584-1.604.874 0 1.584.72 1.584 1.604v13.697c0 .83.665 1.503 1.485 1.503.82 0 1.485-.673 1.485-1.503V10.416c0-2.543-2.043-4.612-4.554-4.612-2.51 0-4.554 2.069-4.554 4.612v2.818h-2.838v-2.707c0-4.146 3.33-7.52 7.425-7.52zM54.53 70.984c0 1.659-1.332 3.008-2.97 3.008H6.44c-1.638 0-2.97-1.35-2.97-3.008V19.25c0-1.659 1.332-3.008 2.97-3.008h9.075v8.055c0 4.183 3.36 7.586 7.491 7.586 4.13 0 7.491-3.403 7.491-7.586v-8.055h8.588v9.25c0 3.524 2.832 6.39 6.312 6.39h9.133v39.102z" transform="translate(-356 -253) rotate(-17 1081.164 -1056.047)"/>
            </g>
        </g>
    </g>
</svg>
