<?xml version="1.0" encoding="UTF-8"?>
<svg width="147px" height="140px" viewBox="0 0 147 140" version="1.1" xmlns="http://www.w3.org/2000/svg" xmlns:xlink="http://www.w3.org/1999/xlink">
    <title>Change_State_Icon</title>
    <g id="Project-Dashboard-(Edit,-Sign,-Chagne-State,-Close,-Delete)" stroke="none" stroke-width="1" fill="none" fill-rule="evenodd">
        <g id="Project_Dashboard_Change_State" transform="translate(-115.000000, -235.000000)">
            <g id="Change_State_Icon" transform="translate(115.777692, 235.500000)">
                <path d="M73,126 C107.078715,126 105.250841,99.1741935 137.321189,65.4387097 C169.391536,31.7032258 104.745291,0 70.6665753,0 C36.58786,0 -2.32690658,19.2632918 0.108816012,58.5290323 C2.54453861,97.7947727 38.9212847,126 73,126 Z" id="Oval" fill-opacity="0.160456731" fill="#86C04F"></path>
                <g id="steps" transform="translate(21.222308, 37.500000)" fill-rule="nonzero">
                    <g id="Group" transform="translate(76.000000, 3.000000)">
                        <ellipse id="Oval" fill="#01D0FB" cx="12.9525397" cy="12.5456349" rx="12.9442857" ry="12.4464286"></ellipse>
                        <path d="M7.01587302,12.5456349 C7.01587302,6.83968254 11.0105873,2.03412698 16.4563492,0.564484127 C15.3414444,0.263492063 14.1673175,0.0992063492 12.952746,0.0992063492 C5.80377778,0.0992063492 0.00846031746,5.67162698 0.00846031746,12.5456349 C0.00846031746,19.4196429 5.80377778,24.9920635 12.952746,24.9920635 C14.1675238,24.9920635 15.3416508,24.8277778 16.4563492,24.5267857 C11.0105873,23.0571429 7.01587302,18.2513889 7.01587302,12.5456349 Z" id="Path" fill="#01C0FA"></path>
                    </g>
                    <g id="Group" transform="translate(1.000000, 3.000000)">
                        <ellipse id="Oval" fill="#4FC123" cx="13.0474603" cy="12.5456349" rx="12.9442857" ry="12.4464286"></ellipse>
                        <path d="M7.01587302,12.5456349 C7.01587302,6.82321429 11.0336984,2.00595238 16.5038095,0.551587302 C15.4029365,0.258928571 14.2449048,0.0992063492 13.0474603,0.0992063492 C5.89849206,0.0992063492 0.103174603,5.67162698 0.103174603,12.5456349 C0.103174603,19.4196429 5.89849206,24.9920635 13.0474603,24.9920635 C14.2449048,24.9920635 15.4031429,24.8323413 16.5038095,24.5396825 C11.0336984,23.085119 7.01587302,18.2680556 7.01587302,12.5456349 Z" id="Path" fill="#47A920"></path>
                    </g>
                    <g id="Group" transform="translate(76.000000, 75.000000)">
                        <ellipse id="Oval" fill="#FAC600" cx="12.9525397" cy="12.4543651" rx="12.9442857" ry="12.4464286"></ellipse>
                        <path d="M7.01587302,12.4543651 C7.01587302,6.7484127 11.0105873,1.94285714 16.4563492,0.473214286 C15.3414444,0.172420635 14.1673175,0.00793650794 12.952746,0.00793650794 C5.80377778,0.00793650794 0.00846031746,5.58035714 0.00846031746,12.4543651 C0.00846031746,19.328373 5.80377778,24.9007937 12.952746,24.9007937 C14.1675238,24.9007937 15.3416508,24.7365079 16.4563492,24.4355159 C11.0105873,22.965873 7.01587302,18.1603175 7.01587302,12.4543651 Z" id="Path" fill="#E8B800"></path>
                    </g>
                    <g id="Group" transform="translate(1.000000, 75.000000)">
                        <ellipse id="Oval" fill="#FB2B3A" cx="13.0474603" cy="12.4543651" rx="12.9442857" ry="12.4464286"></ellipse>
                        <path d="M8.00738095,17.2323413 C6.7457619,16.0021825 5.96534921,14.3144841 5.96534921,12.4545635 C5.96534921,10.5944444 6.7457619,8.90694444 8.0071746,7.67678571 C9.52322222,4.1765873 12.6523016,1.48452381 16.5033968,0.460515873 C15.4027302,0.167857143 14.2444921,0.00813492063 13.0470476,0.00813492063 C5.89807937,0.00813492063 0.102761905,5.58055556 0.102761905,12.4545635 C0.102761905,19.3285714 5.89807937,24.9009921 13.0470476,24.9009921 C14.2444921,24.9009921 15.4027302,24.7412698 16.5033968,24.4486111 C12.6525079,23.4246032 9.52342857,20.7323413 8.00738095,17.2323413 L8.00738095,17.2323413 Z" id="Path" fill="#E41F2D"></path>
                        <ellipse id="Oval" fill="#FFFFFF" cx="13.047254" cy="12.4545635" rx="5.53428571" ry="5.32142857"></ellipse>
                        <path d="M12.1746032,12.4545635 C12.1746032,10.3206349 13.4882222,8.47718254 15.3781746,7.6297619 C14.6693651,7.31190476 13.879873,7.13313492 13.0474603,7.13313492 C9.9957619,7.13313492 7.5131746,9.5202381 7.5131746,12.4545635 C7.5131746,15.3888889 9.9957619,17.7759921 13.0474603,17.7759921 C13.879873,17.7759921 14.6693651,17.5972222 15.3781746,17.2793651 C13.4882222,16.431746 12.1746032,14.5882937 12.1746032,12.4545635 Z" id="Path" fill="#F2FBFF"></path>
                    </g>
                    <polygon id="Path" fill="#FB2B3A" points="28 60 15 54 15 66"></polygon>
                    <polygon id="Path" fill="#E41F2D" points="17 55.5782682 14 54 14 66 17 64.4219303"></polygon>
                    <g id="Group" transform="translate(33.000000, 28.000000)">
                        <path d="M37.3586489,45.9910339 L0.641351064,45.9910339 C0.306425532,45.9910339 0.0349680851,45.7292627 0.0349680851,45.4062881 L0.0349680851,0.593711864 C0.0349680851,0.270737288 0.306425532,0.00896610169 0.641351064,0.00896610169 L37.3588511,0.00896610169 C37.6937766,0.00896610169 37.965234,0.270737288 37.965234,0.593711864 L37.965234,45.4064831 C37.965234,45.7292627 37.6935745,45.9910339 37.3586489,45.9910339 L37.3586489,45.9910339 Z" id="Path" fill="#DFF6FD"></path>
                        <path d="M6.87234043,45.4062881 L6.87234043,0.593711864 C6.87234043,0.270737288 7.14379787,0.00896610169 7.4787234,0.00896610169 L0.641351064,0.00896610169 C0.306425532,0.00896610169 0.0349680851,0.270737288 0.0349680851,0.593711864 L0.0349680851,45.4064831 C0.0349680851,45.7294576 0.306425532,45.9912288 0.641351064,45.9912288 L7.4787234,45.9912288 C7.14379787,45.9912288 6.87234043,45.7292627 6.87234043,45.4062881 L6.87234043,45.4062881 Z" id="Path" fill="#C8EFFE"></path>
                    </g>
                    <g id="Group" fill="#000000">
                        <path d="M45.6279941,15.3332598 L47.2373691,15.3332598 C48.070623,15.3332598 48.7461582,14.6708418 48.7461582,13.8537676 C48.7461582,13.0366934 48.070623,12.3742754 47.2373691,12.3742754 L45.6279941,12.3742754 C44.7947402,12.3742754 44.1192051,13.0366934 44.1192051,13.8537676 C44.1192051,14.6708418 44.7947402,15.3332598 45.6279941,15.3332598 Z" id="Path"></path>
                        <path d="M38.9893223,15.3332598 L40.5986973,15.3332598 C41.4319512,15.3332598 42.1074863,14.6708418 42.1074863,13.8537676 C42.1074863,13.0366934 41.4319512,12.3742754 40.5986973,12.3742754 L38.9893223,12.3742754 C38.1560684,12.3742754 37.4805332,13.0366934 37.4805332,13.8537676 C37.4805332,14.6708418 38.1560684,15.3332598 38.9893223,15.3332598 Z" id="Path"></path>
                        <path d="M32.3506504,15.3332598 L33.9600254,15.3332598 C34.7932793,15.3332598 35.4688145,14.6708418 35.4688145,13.8537676 C35.4688145,13.0366934 34.7932793,12.3742754 33.9600254,12.3742754 L32.3506504,12.3742754 C31.5173965,12.3742754 30.8418613,13.0366934 30.8418613,13.8537676 C30.8418613,14.6708418 31.5173965,15.3332598 32.3506504,15.3332598 Z" id="Path"></path>
                        <path d="M72.1826816,15.3332598 L73.7920566,15.3332598 C74.1764961,15.3332598 74.526334,15.1910312 74.7926855,14.9590469 C75.3694453,22.0829004 81.461332,27.7077324 88.8719004,27.7077324 C96.6622812,27.7077324 103,21.4928789 103,13.8539648 C103,11.5212988 102.39568,9.21289648 101.252219,7.1779043 C100.850076,6.46242187 99.9325312,6.20183398 99.2026797,6.5959707 C98.4728281,6.99030469 98.2072812,7.8900332 98.6092227,8.60571289 C99.5076562,10.2043535 99.9824219,12.0191973 99.9824219,13.8537676 C99.9824219,19.8612949 94.9983887,24.7485508 88.8719004,24.7485508 C82.7454121,24.7485508 77.7613789,19.8610977 77.7613789,13.8537676 C77.7613789,7.8464375 82.7452109,2.95898438 88.8719004,2.95898438 C90.7427988,2.95898438 92.5935801,3.42453125 94.223877,4.30551953 C94.9537285,4.69985352 95.8712734,4.43946289 96.273416,3.72358594 C96.6753574,3.00790625 96.4098105,2.10817773 95.679959,1.71384375 C93.6048711,0.592585938 91.2505566,0 88.8719004,0 C81.461332,0 75.3694453,5.62483203 74.7926855,12.7486855 C74.526334,12.5165039 74.1764961,12.3744727 73.7920566,12.3744727 L72.1826816,12.3744727 C71.3492266,12.3744727 70.6738926,13.0368906 70.6738926,13.8539648 C70.6738926,14.6710391 71.3492266,15.3332598 72.1826816,15.3332598 L72.1826816,15.3332598 Z" id="Path"></path>
                        <path d="M52.266666,15.3332598 L53.876041,15.3332598 C54.7094961,15.3332598 55.3848301,14.6708418 55.3848301,13.8537676 C55.3848301,13.0366934 54.7094961,12.3742754 53.876041,12.3742754 L52.266666,12.3742754 C51.4334121,12.3742754 50.757877,13.0366934 50.757877,13.8537676 C50.757877,14.6708418 51.4332109,15.3332598 52.266666,15.3332598 Z" id="Path"></path>
                        <path d="M65.5440098,15.3332598 L67.1533848,15.3332598 C67.9868398,15.3332598 68.6621738,14.6708418 68.6621738,13.8537676 C68.6621738,13.0366934 67.9868398,12.3742754 67.1533848,12.3742754 L65.5440098,12.3742754 C64.7105547,12.3742754 64.0352207,13.0366934 64.0352207,13.8537676 C64.0352207,14.6708418 64.7105547,15.3332598 65.5440098,15.3332598 Z" id="Path"></path>
                        <path d="M58.9053379,15.3332598 L60.5147129,15.3332598 C61.348168,15.3332598 62.023502,14.6708418 62.023502,13.8537676 C62.023502,13.0366934 61.348168,12.3742754 60.5147129,12.3742754 L58.9053379,12.3742754 C58.0718828,12.3742754 57.3965488,13.0366934 57.3965488,13.8537676 C57.3965488,14.6708418 58.0718828,15.3332598 58.9053379,15.3332598 Z" id="Path"></path>
                        <path d="M90.3806895,55.2262871 C90.3806895,54.4092129 89.7053555,53.7467949 88.8719004,53.7467949 C88.0384453,53.7467949 87.3631113,54.4092129 87.3631113,55.2262871 L87.3631113,56.8044121 C87.3631113,57.6214863 88.0384453,58.2839043 88.8719004,58.2839043 C89.7053555,58.2839043 90.3806895,57.6214863 90.3806895,56.8044121 L90.3806895,55.2262871 Z" id="Path"></path>
                        <path d="M88.8719004,66.7663262 C88.0384453,66.7663262 87.3631113,67.4287441 87.3631113,68.2458184 L87.3631113,69.8239434 C87.3631113,70.6410176 88.0384453,71.3034355 88.8719004,71.3034355 C89.7053555,71.3034355 90.3806895,70.6410176 90.3806895,69.8239434 L90.3806895,68.2458184 C90.3806895,67.4287441 89.7051543,66.7663262 88.8719004,66.7663262 Z" id="Path"></path>
                        <path d="M90.3806895,61.7360527 C90.3806895,60.9189785 89.7053555,60.2565605 88.8719004,60.2565605 C88.0384453,60.2565605 87.3631113,60.9189785 87.3631113,61.7360527 L87.3631113,63.3141777 C87.3631113,64.131252 88.0384453,64.7936699 88.8719004,64.7936699 C89.7053555,64.7936699 90.3806895,64.131252 90.3806895,63.3141777 L90.3806895,61.7360527 Z" id="Path"></path>
                        <path d="M90.3806895,48.7165215 C90.3806895,47.8994473 89.7053555,47.2370293 88.8719004,47.2370293 C88.0384453,47.2370293 87.3631113,47.8994473 87.3631113,48.7165215 L87.3631113,50.2946465 C87.3631113,51.1117207 88.0384453,51.7741387 88.8719004,51.7741387 C89.7053555,51.7741387 90.3806895,51.1117207 90.3806895,50.2946465 L90.3806895,48.7165215 Z" id="Path"></path>
                        <path d="M90.3806895,42.2067559 C90.3806895,41.3896816 89.7053555,40.7272637 88.8719004,40.7272637 C88.0384453,40.7272637 87.3631113,41.3896816 87.3631113,42.2067559 L87.3631113,43.7848809 C87.3631113,44.6019551 88.0384453,45.264373 88.8719004,45.264373 C89.7053555,45.264373 90.3806895,44.6019551 90.3806895,43.7848809 L90.3806895,42.2067559 Z" id="Path"></path>
                        <path d="M90.3806895,29.1872246 C90.3806895,28.3701504 89.7053555,27.7077324 88.8719004,27.7077324 C88.0384453,27.7077324 87.3631113,28.3701504 87.3631113,29.1872246 L87.3631113,30.7653496 C87.3631113,31.5824238 88.0384453,32.2448418 88.8719004,32.2448418 C89.7053555,32.2448418 90.3806895,31.5824238 90.3806895,30.7653496 L90.3806895,29.1872246 Z" id="Path"></path>
                        <path d="M90.3806895,35.6969902 C90.3806895,34.879916 89.7053555,34.217498 88.8719004,34.217498 C88.0384453,34.217498 87.3631113,34.879916 87.3631113,35.6969902 L87.3631113,37.2751152 C87.3631113,38.0921895 88.0384453,38.7546074 88.8719004,38.7546074 C89.7053555,38.7546074 90.3806895,38.0921895 90.3806895,37.2751152 L90.3806895,35.6969902 Z" id="Path"></path>
                        <path d="M40.7167852,85.6667402 L39.1074102,85.6667402 C38.2741562,85.6667402 37.5986211,86.3291582 37.5986211,87.1462324 C37.5986211,87.9633066 38.2741562,88.6257246 39.1074102,88.6257246 L40.7167852,88.6257246 C41.5500391,88.6257246 42.2255742,87.9633066 42.2255742,87.1462324 C42.2255742,86.3291582 41.5502402,85.6667402 40.7167852,85.6667402 Z" id="Path"></path>
                        <path d="M28.1968535,85.8679512 C28.0365195,84.1375371 27.5490801,82.473207 26.7407715,80.9051426 C26.3647812,80.1760488 25.4568926,79.8835039 24.7135625,80.2521934 C23.9698301,80.6208828 23.6718945,81.5109453 24.0476836,82.2400391 C24.8380879,83.7729902 25.2388223,85.4235117 25.2388223,87.1460352 C25.2388223,93.1535625 20.2545879,98.0408184 14.1283008,98.0408184 C8.00201367,98.0408184 3.01757813,93.1535625 3.01757813,87.1462324 C3.01757813,81.1389023 8.0018125,76.2514492 14.1280996,76.2514492 C16.1345879,76.2514492 18.1020488,76.7828828 19.8174414,77.7881484 C20.5330098,78.2073379 21.4592051,77.9785098 21.8866953,77.2772305 C22.3141855,76.5757539 22.0808262,75.6673457 21.3656602,75.2481562 C19.6150625,74.2221777 17.6588672,73.585207 15.6368887,73.3725547 L15.6368887,66.4514902 L27.6009824,60.890375 C28.1278516,60.6455684 28.4636074,60.1249844 28.4636074,59.5535059 C28.4636074,58.9820273 28.1278516,58.4614434 27.6009824,58.2166367 L15.6368887,52.6557187 L15.6368887,51.604293 C15.6368887,50.7872187 14.9613535,50.1248008 14.1280996,50.1248008 C13.2948457,50.1248008 12.6193105,50.7872187 12.6193105,51.604293 L12.6193105,73.3725547 C5.53604883,74.1130898 0,80.0069922 0,87.1462324 C0,94.7851465 6.33791992,101 14.1280996,101 C21.4781152,101 27.5323828,95.4670937 28.1936348,88.4260918 C28.6442598,88.1702383 28.9482305,87.6934473 28.9482305,87.1460352 C28.9482305,86.6000039 28.6458691,86.1243965 28.1968535,85.8679512 L28.1968535,85.8679512 Z M23.4322988,59.5533086 L15.6368887,63.1766836 L15.6368887,55.9299336 L23.4322988,59.5533086 Z" id="Shape"></path>
                        <path d="M47.355457,85.6667402 L45.746082,85.6667402 C44.9128281,85.6667402 44.237293,86.3291582 44.237293,87.1462324 C44.237293,87.9633066 44.9128281,88.6257246 45.746082,88.6257246 L47.355457,88.6257246 C48.1887109,88.6257246 48.8642461,87.9633066 48.8642461,87.1462324 C48.8642461,86.3291582 48.1889121,85.6667402 47.355457,85.6667402 Z" id="Path"></path>
                        <path d="M34.0781133,85.6667402 L32.4687383,85.6667402 C31.6354844,85.6667402 30.9599492,86.3291582 30.9599492,87.1462324 C30.9599492,87.9633066 31.6354844,88.6257246 32.4687383,88.6257246 L34.0781133,88.6257246 C34.9113672,88.6257246 35.5869023,87.9633066 35.5869023,87.1462324 C35.5869023,86.3291582 34.9115684,85.6667402 34.0781133,85.6667402 Z" id="Path"></path>
                        <path d="M67.2714727,85.6667402 L65.6620977,85.6667402 C64.8286426,85.6667402 64.1533086,86.3291582 64.1533086,87.1462324 C64.1533086,87.9633066 64.8286426,88.6257246 65.6620977,88.6257246 L67.2714727,88.6257246 C68.1049277,88.6257246 68.7802617,87.9633066 68.7802617,87.1462324 C68.7802617,86.3291582 68.1049277,85.6667402 67.2714727,85.6667402 Z" id="Path"></path>
                        <path d="M60.6328008,85.6667402 L59.0234258,85.6667402 C58.1899707,85.6667402 57.5146367,86.3291582 57.5146367,87.1462324 C57.5146367,87.9633066 58.1899707,88.6257246 59.0234258,88.6257246 L60.6328008,88.6257246 C61.4662559,88.6257246 62.1415898,87.9633066 62.1415898,87.1462324 C62.1415898,86.3291582 61.4662559,85.6667402 60.6328008,85.6667402 Z" id="Path"></path>
                        <path d="M53.9941289,85.6667402 L52.3847539,85.6667402 C51.5515,85.6667402 50.8759648,86.3291582 50.8759648,87.1462324 C50.8759648,87.9633066 51.5515,88.6257246 52.3847539,88.6257246 L53.9941289,88.6257246 C54.827584,88.6257246 55.502918,87.9633066 55.502918,87.1462324 C55.502918,86.3291582 54.827584,85.6667402 53.9941289,85.6667402 Z" id="Path"></path>
                        <path d="M84.4982227,17.5980664 C84.0848145,18.0277109 83.9717559,18.6569883 84.2101445,19.1992715 C84.4485332,19.7415547 84.9933066,20.0926875 85.5956152,20.0926875 L92.1477832,20.0926875 C92.9812383,20.0926875 93.6565723,19.4302695 93.6565723,18.6131953 C93.6565723,17.7961211 92.9812383,17.1337031 92.1477832,17.1337031 L89.0929883,17.1337031 L92.120625,13.9867246 C92.7981719,13.2826836 93.1713457,12.3616504 93.1713457,11.393668 C93.1713457,9.30995117 91.4426758,7.61504492 89.3178984,7.61504492 L86.3234551,7.61504492 C85.49,7.61504492 84.814666,8.27746289 84.814666,9.09453711 C84.814666,9.91161133 85.49,10.5740293 86.3234551,10.5740293 L89.3178984,10.5740293 C89.7787832,10.5740293 90.1537676,10.9417324 90.1537676,11.393668 C90.1537676,11.6035586 90.0728965,11.8033887 89.9258398,11.9562695 L84.4982227,17.5980664 Z" id="Path"></path>
                        <path d="M14.1280996,27.7077324 C21.5054746,27.7077324 27.5764395,22.1334004 28.1998711,15.0551152 C28.5808906,14.7866367 28.8301426,14.3492988 28.8301426,13.8539648 C28.8301426,13.3586309 28.5810918,12.921293 28.1998711,12.6528145 C27.5766406,5.57433203 21.5054746,0 14.1280996,0 C6.33791992,0 0,6.21485352 0,13.8537676 C0,21.4926816 6.33791992,27.7077324 14.1280996,27.7077324 Z M14.1280996,2.95898438 C20.2545879,2.95898438 25.2386211,7.8464375 25.2386211,13.8537676 C25.2386211,19.8610977 20.2543867,24.7485508 14.1280996,24.7485508 C8.0018125,24.7485508 3.01757812,19.8612949 3.01757812,13.8537676 C3.01757812,7.84624023 8.0018125,2.95898438 14.1280996,2.95898438 Z" id="Shape"></path>
                        <path d="M11.9441777,10.5740293 L13.3475527,10.5740293 L13.3475527,18.6131953 C13.3475527,19.4302695 14.0230879,20.0926875 14.8563418,20.0926875 C15.6895957,20.0926875 16.3651309,19.4302695 16.3651309,18.6131953 L16.3651309,9.09453711 C16.3651309,8.27746289 15.6895957,7.61504492 14.8563418,7.61504492 L11.9441777,7.61504492 C11.1109238,7.61504492 10.4353887,8.27746289 10.4353887,9.09453711 C10.4353887,9.91161133 11.1107227,10.5740293 11.9441777,10.5740293 L11.9441777,10.5740293 Z" id="Path"></path>
                        <path d="M89.1245723,73.2985801 C89.042293,73.2849688 88.9582031,73.2762891 88.8719004,73.2762891 C88.7855977,73.2762891 88.7015078,73.2849688 88.6192285,73.2985801 C81.3541074,73.4246328 75.4120938,78.9522129 74.7997266,85.9527754 C74.5502734,85.7736582 74.2434863,85.666543 73.9105469,85.666543 L72.3011719,85.666543 C71.4677168,85.666543 70.7923828,86.3289609 70.7923828,87.1460352 C70.7923828,87.9631094 71.4677168,88.6255273 72.3011719,88.6255273 L73.9105469,88.6255273 C74.2434863,88.6255273 74.5502734,88.5184121 74.7997266,88.3392949 C75.4193359,95.4213281 81.4921113,100.999803 88.8721016,100.999803 C96.6620801,100.999803 103,94.7851465 103,87.1462324 C103,79.5901699 96.7982734,73.4317344 89.1245723,73.2985801 Z M88.8719004,98.0410156 C82.7454121,98.0410156 77.7613789,93.1535625 77.7613789,87.1462324 C77.7613789,81.1389023 82.7454121,76.2514492 88.8719004,76.2514492 C94.9983887,76.2514492 99.9824219,81.1387051 99.9824219,87.1462324 C99.9824219,93.1537598 94.9983887,98.0410156 88.8719004,98.0410156 Z" id="Shape"></path>
                        <path d="M89.4784336,80.9073125 L85.8382285,80.9073125 C85.0047734,80.9073125 84.3294395,81.5697305 84.3294395,82.3868047 C84.3294395,83.2038789 85.0047734,83.8662969 85.8382285,83.8662969 L89.4784336,83.8662969 C89.9847832,83.8662969 90.3963809,84.2700996 90.3963809,84.7664199 C90.3963809,85.2627402 89.984582,85.666543 89.4784336,85.666543 L87.7797383,85.666543 C86.9462832,85.666543 86.2709492,86.3289609 86.2709492,87.1460352 C86.2709492,87.9631094 86.9462832,88.6255273 87.7797383,88.6255273 L89.4784336,88.6255273 C89.9847832,88.6255273 90.3963809,89.0293301 90.3963809,89.5256504 C90.3963809,90.0219707 89.984582,90.4257734 89.4784336,90.4257734 L85.8382285,90.4257734 C85.0047734,90.4257734 84.3294395,91.0881914 84.3294395,91.9052656 C84.3294395,92.7223398 85.0047734,93.3847578 85.8382285,93.3847578 L89.4784336,93.3847578 C91.6484746,93.3847578 93.413959,91.6535547 93.413959,89.5256504 C93.413959,88.6276973 93.0969121,87.8023379 92.5702441,87.1460352 C93.0967109,86.4895352 93.413959,85.664373 93.413959,84.7664199 C93.4141602,82.6385156 91.6484746,80.9073125 89.4784336,80.9073125 L89.4784336,80.9073125 Z" id="Path"></path>
                        <path d="M14.1280996,80.3760762 C10.321123,80.3760762 7.22388086,83.4131777 7.22388086,87.1462324 C7.22388086,90.8792871 10.321123,93.9163887 14.1280996,93.9163887 C17.9350762,93.9163887 21.0323184,90.8792871 21.0323184,87.1462324 C21.0323184,83.4131777 17.9350762,80.3760762 14.1280996,80.3760762 L14.1280996,80.3760762 Z M14.1280996,90.957207 C11.9850156,90.957207 10.241459,89.2475059 10.241459,87.1460352 C10.241459,85.0445645 11.9850156,83.3348633 14.1280996,83.3348633 C16.2711836,83.3348633 18.0147402,85.0445645 18.0147402,87.1460352 C18.0147402,89.2475059 16.2711836,90.957207 14.1280996,90.957207 L14.1280996,90.957207 Z" id="Shape"></path>
                        <path d="M71.8841426,73.1764727 L71.8841426,56.0234375 C71.8841426,55.2063633 71.2088086,54.5439453 70.3753535,54.5439453 C69.5418984,54.5439453 68.8665645,55.2063633 68.8665645,56.0234375 L68.8665645,72.2887773 L34.1334355,72.2887773 L34.1334355,28.7112227 L68.8665645,28.7112227 L68.8665645,49.1191406 C68.8665645,49.9362148 69.5418984,50.5986328 70.3753535,50.5986328 C71.2088086,50.5986328 71.8841426,49.9362148 71.8841426,49.1191406 L71.8841426,27.8235273 C71.8841426,26.6813594 70.936623,25.7522383 69.7718379,25.7522383 L33.2281621,25.7522383 C32.063377,25.7522383 31.1158574,26.6813594 31.1158574,27.8235273 L31.1158574,73.1764727 C31.1158574,74.3186406 32.063377,75.2477617 33.2281621,75.2477617 L69.7718379,75.2477617 C70.936623,75.2477617 71.8841426,74.3186406 71.8841426,73.1764727 L71.8841426,73.1764727 Z" id="Path"></path>
                        <path d="M58.1050762,35.5877051 C58.9385313,35.5877051 59.6138652,34.9252871 59.6138652,34.1082129 C59.6138652,33.2911387 58.9385313,32.6287207 58.1050762,32.6287207 L44.8949238,32.6287207 C44.0616699,32.6287207 43.3861348,33.2911387 43.3861348,34.1082129 C43.3861348,34.9252871 44.0616699,35.5877051 44.8949238,35.5877051 L58.1050762,35.5877051 Z" id="Path"></path>
                        <path d="M62.2441875,38.8654707 L57.3339844,38.8654707 C56.5005293,38.8654707 55.8251953,39.5278887 55.8251953,40.3449629 C55.8251953,41.1620371 56.5005293,41.8244551 57.3339844,41.8244551 L62.2441875,41.8244551 C63.0776426,41.8244551 63.7529766,41.1620371 63.7529766,40.3449629 C63.7529766,39.5278887 63.0776426,38.8654707 62.2441875,38.8654707 Z" id="Path"></path>
                        <path d="M39.2470234,40.3449629 C39.2470234,41.1620371 39.9225586,41.8244551 40.7558125,41.8244551 L52.7070312,41.8244551 C53.5404863,41.8244551 54.2158203,41.1620371 54.2158203,40.3449629 C54.2158203,39.5278887 53.5404863,38.8654707 52.7070312,38.8654707 L40.7558125,38.8654707 C39.9225586,38.8654707 39.2470234,39.5278887 39.2470234,40.3449629 L39.2470234,40.3449629 Z" id="Path"></path>
                        <path d="M62.2441875,44.0571074 L40.7558125,44.0571074 C39.9225586,44.0571074 39.2470234,44.7195254 39.2470234,45.5365996 C39.2470234,46.3536738 39.9225586,47.0160918 40.7558125,47.0160918 L62.2441875,47.0160918 C63.0776426,47.0160918 63.7529766,46.3536738 63.7529766,45.5365996 C63.7529766,44.7195254 63.0776426,44.0571074 62.2441875,44.0571074 Z" id="Path"></path>
                        <path d="M62.2441875,49.2487441 L53.5117188,49.2487441 C52.6782637,49.2487441 52.0029297,49.9111621 52.0029297,50.7282363 C52.0029297,51.5453105 52.6782637,52.2077285 53.5117188,52.2077285 L62.2441875,52.2077285 C63.0776426,52.2077285 63.7529766,51.5453105 63.7529766,50.7282363 C63.7529766,49.9111621 63.0776426,49.2487441 62.2441875,49.2487441 L62.2441875,49.2487441 Z" id="Path"></path>
                        <path d="M40.7558125,52.2077285 L49.0859375,52.2077285 C49.9191914,52.2077285 50.5947266,51.5453105 50.5947266,50.7282363 C50.5947266,49.9111621 49.9191914,49.2487441 49.0859375,49.2487441 L40.7558125,49.2487441 C39.9225586,49.2487441 39.2470234,49.9111621 39.2470234,50.7282363 C39.2470234,51.5453105 39.9225586,52.2077285 40.7558125,52.2077285 L40.7558125,52.2077285 Z" id="Path"></path>
                        <path d="M62.2441875,54.4403809 L40.7558125,54.4403809 C39.9225586,54.4403809 39.2470234,55.1027988 39.2470234,55.919873 C39.2470234,56.7369473 39.9225586,57.3993652 40.7558125,57.3993652 L62.2441875,57.3993652 C63.0776426,57.3993652 63.7529766,56.7369473 63.7529766,55.919873 C63.7529766,55.1027988 63.0776426,54.4403809 62.2441875,54.4403809 Z" id="Path"></path>
                        <path d="M62.2441875,59.6318203 L55.1210938,59.6318203 C54.2876387,59.6318203 53.6123047,60.2942383 53.6123047,61.1113125 C53.6123047,61.9283867 54.2876387,62.5908047 55.1210938,62.5908047 L62.2441875,62.5908047 C63.0776426,62.5908047 63.7529766,61.9283867 63.7529766,61.1113125 C63.7529766,60.2942383 63.0776426,59.6318203 62.2441875,59.6318203 Z" id="Path"></path>
                        <path d="M40.7558125,62.5908047 L50.8964844,62.5908047 C51.7299395,62.5908047 52.4052734,61.9283867 52.4052734,61.1113125 C52.4052734,60.2942383 51.7299395,59.6318203 50.8964844,59.6318203 L40.7558125,59.6318203 C39.9225586,59.6318203 39.2470234,60.2942383 39.2470234,61.1113125 C39.2470234,61.9283867 39.9225586,62.5908047 40.7558125,62.5908047 L40.7558125,62.5908047 Z" id="Path"></path>
                        <path d="M40.7558125,67.7824414 L62.2441875,67.7824414 C63.0776426,67.7824414 63.7529766,67.1200234 63.7529766,66.3029492 C63.7529766,65.485875 63.0776426,64.823457 62.2441875,64.823457 L40.7558125,64.823457 C39.9225586,64.823457 39.2470234,65.485875 39.2470234,66.3029492 C39.2470234,67.1200234 39.9225586,67.7824414 40.7558125,67.7824414 Z" id="Path"></path>
                    </g>
                </g>
            </g>
        </g>
    </g>
</svg>