<?xml version="1.0" encoding="UTF-8"?>
<svg width="18px" height="18px" viewBox="0 0 18 18" version="1.1" xmlns="http://www.w3.org/2000/svg" xmlns:xlink="http://www.w3.org/1999/xlink">
    <title>Cost_Not Planned_Variant 2 Copy</title>
    <g id="Cost_Not-Planned_Variant-2-Copy" stroke="none" stroke-width="1" fill="none" fill-rule="evenodd">
        <path d="M9.372,12.9 C9.432,12.9 9.483,12.879 9.525,12.837 C9.567,12.795 9.588,12.744 9.588,12.684 L9.588,12.684 L9.588,12.063 C10.008,12.015 10.374,11.9115 10.686,11.7525 C10.998,11.5935 11.2395,11.3835 11.4105,11.1225 C11.5815,10.8615 11.667,10.557 11.667,10.209 C11.667,9.855 11.5905,9.5625 11.4375,9.3315 C11.2845,9.1005 11.0475,8.91 10.7265,8.76 C10.4055,8.61 9.99,8.478 9.48,8.364 C9.114,8.268 8.8215,8.178 8.6025,8.094 C8.3835,8.01 8.226,7.9125 8.13,7.8015 C8.034,7.6905 7.986,7.551 7.986,7.383 C7.986,7.131 8.0835,6.945 8.2785,6.825 C8.4735,6.705 8.733,6.645 9.057,6.645 C9.375,6.645 9.633,6.711 9.831,6.843 C10.029,6.975 10.143,7.134 10.173,7.32 C10.203,7.386 10.242,7.431 10.29,7.455 C10.338,7.479 10.389,7.491 10.443,7.491 L10.443,7.491 L11.28,7.491 C11.34,7.491 11.3865,7.4715 11.4195,7.4325 C11.4525,7.3935 11.469,7.35 11.469,7.302 C11.463,7.086 11.388,6.8625 11.244,6.6315 C11.1,6.4005 10.89,6.195 10.614,6.015 C10.338,5.835 9.996,5.715 9.588,5.655 L9.588,5.655 L9.588,5.016 C9.588,4.956 9.567,4.905 9.525,4.863 C9.483,4.821 9.432,4.8 9.372,4.8 L9.372,4.8 L8.823,4.8 C8.763,4.8 8.712,4.821 8.67,4.863 C8.628,4.905 8.607,4.956 8.607,5.016 L8.607,5.016 L8.607,5.637 C8.013,5.709 7.548,5.907 7.212,6.231 C6.876,6.555 6.708,6.948 6.708,7.41 C6.708,7.77 6.7845,8.067 6.9375,8.301 C7.0905,8.535 7.32,8.7285 7.626,8.8815 C7.932,9.0345 8.307,9.165 8.751,9.273 C9.141,9.369 9.456,9.4605 9.696,9.5475 C9.936,9.6345 10.1115,9.7305 10.2225,9.8355 C10.3335,9.9405 10.389,10.08 10.389,10.254 C10.389,10.5 10.284,10.695 10.074,10.839 C9.864,10.983 9.543,11.055 9.111,11.055 C8.841,11.055 8.616,11.019 8.436,10.947 C8.256,10.875 8.1165,10.7835 8.0175,10.6725 C7.9185,10.5615 7.848,10.449 7.806,10.335 C7.782,10.287 7.749,10.2465 7.707,10.2135 C7.665,10.1805 7.608,10.164 7.536,10.164 L7.536,10.164 L6.735,10.164 C6.681,10.164 6.6345,10.182 6.5955,10.218 C6.5565,10.254 6.537,10.299 6.537,10.353 C6.549,10.617 6.633,10.8705 6.789,11.1135 C6.945,11.3565 7.176,11.5635 7.482,11.7345 C7.788,11.9055 8.163,12.012 8.607,12.054 L8.607,12.054 L8.607,12.684 C8.607,12.744 8.628,12.795 8.67,12.837 C8.712,12.879 8.763,12.9 8.823,12.9 L8.823,12.9 L9.372,12.9 Z" id="$-2" fill="#97A3A9" fill-rule="nonzero"></path>
        <path d="M9,1 C13.418278,1 17,4.581722 17,9 C17,13.418278 13.418278,17 9,17 C4.581722,17 1,13.418278 1,9 C1,4.581722 4.581722,1 9,1 Z M9,2 C5.13400675,2 2,5.13400675 2,9 C2,12.8659932 5.13400675,16 9,16 C12.8659932,16 16,12.8659932 16,9 C16,5.13400675 12.8659932,2 9,2 Z" id="Combined-Shape" fill="#97A3A9" fill-rule="nonzero"></path>
    </g>
</svg>