<?xml version="1.0" encoding="UTF-8"?>
<svg width="113px" height="100px" viewBox="0 0 113 100" version="1.1" xmlns="http://www.w3.org/2000/svg" xmlns:xlink="http://www.w3.org/1999/xlink">
    <title>delete-file</title>
    <g id="Attachments-(View-Details,-Add,-Edit,-Remove)" stroke="none" stroke-width="1" fill="none" fill-rule="evenodd">
        <g id="List_of_Attachment_Delete" transform="translate(-132.000000, -526.000000)">
            <g id="delete-file" transform="translate(132.777692, 526.500000)">
                <path d="M56,96 C82.1425761,96 80.7403715,75.5612903 105.342282,49.8580645 C129.944192,24.1548387 80.3525517,0 54.2099756,0 C28.0673995,0 -1.78502423,14.6767937 0.0834752967,44.5935484 C1.95197482,74.510303 29.8574239,96 56,96 Z" id="Oval" fill-opacity="0.160456731" fill="#86C04F"></path>
                <g id="file-(1)" transform="translate(19.222308, 15.500000)" fill-rule="nonzero">
                    <g id="Group" transform="translate(1.000000, 1.000000)">
                        <path d="M58.7026239,23.8009116 L58.7026239,67.2630522 C58.7026239,70.9005261 55.7451743,73.8493976 52.0971193,73.8493976 L6.68427523,73.8493976 C3.03622018,73.8493976 0.0787706422,70.9005261 0.0787706422,67.2630522 L0.0787706422,6.6686747 C0.0787706422,3.0312008 3.03622018,0.0823293173 6.68427523,0.0823293173 L34.9553394,0.0823293173 C36.271156,0.0823293173 37.5328073,0.604297189 38.4622018,1.53280723 L57.2553578,20.3116305 C58.1821101,21.2378353 58.7026239,22.4926988 58.7026239,23.8009116 Z" id="Path" fill="#F9F8F9"></path>
                        <path d="M58.7026239,23.8014056 L58.7026239,26.697751 L41.4754679,26.697751 C36.2818899,26.697751 32.0560183,22.4791968 32.0560183,17.295743 L32.0560183,0.0823293173 L34.9558349,0.0823293173 C36.2703303,0.0823293173 37.5319817,0.604297189 38.4617064,1.53297189 L57.2560183,20.3122892 C58.1824404,21.2376707 58.7026239,22.4923695 58.7026239,23.8014056 Z" id="Path" fill="#E3E0E4"></path>
                        <path d="M11.6384037,73.8493976 L6.68427523,73.8493976 C3.03638532,73.8493976 0.0787706422,70.9003614 0.0787706422,67.2630522 L0.0787706422,6.6686747 C0.0787706422,3.03136546 3.03638532,0.0823293173 6.68427523,0.0823293173 L11.6384037,0.0823293173 C7.99051376,0.0823293173 5.03289908,3.03136546 5.03289908,6.6686747 L5.03289908,67.2630522 C5.03289908,70.9003614 7.99051376,73.8493976 11.6384037,73.8493976 Z" id="Path" fill="#E3E0E4"></path>
                        <g transform="translate(7.926606, 0.493976)" fill="#A29AA5" id="Path">
                            <path d="M22.0599083,24.2871486 L1.63238532,24.2871486 C0.948385321,24.2871486 0.393853211,23.7342249 0.393853211,23.0522088 C0.393853211,22.3701928 0.948385321,21.8172691 1.63238532,21.8172691 L22.0599083,21.8172691 C22.7439083,21.8172691 23.2984404,22.3701928 23.2984404,23.0522088 C23.2984404,23.7342249 22.7439083,24.2871486 22.0599083,24.2871486 Z"></path>
                            <path d="M22.0599083,53.9257028 L1.63238532,53.9257028 C0.948385321,53.9257028 0.393853211,53.3727791 0.393853211,52.6907631 C0.393853211,52.008747 0.948385321,51.4558233 1.63238532,51.4558233 L22.0599083,51.4558233 C22.7439083,51.4558233 23.2984404,52.008747 23.2984404,52.6907631 C23.2984404,53.3727791 22.7439083,53.9257028 22.0599083,53.9257028 Z"></path>
                            <path d="M38.2929358,34.1666667 L1.30211009,34.1666667 C0.618110092,34.1666667 0.0635779817,33.613743 0.0635779817,32.9317269 C0.0635779817,32.2497108 0.618110092,31.6967871 1.30211009,31.6967871 L38.2929358,31.6967871 C38.9769358,31.6967871 39.5314679,32.2497108 39.5314679,32.9317269 C39.5314679,33.613743 38.9769358,34.1666667 38.2929358,34.1666667 Z"></path>
                            <path d="M38.2929358,44.0461847 L1.30211009,44.0461847 C0.618110092,44.0461847 0.0635779817,43.493261 0.0635779817,42.811245 C0.0635779817,42.1292289 0.618110092,41.5763052 1.30211009,41.5763052 L38.2929358,41.5763052 C38.9769358,41.5763052 39.5314679,42.1292289 39.5314679,42.811245 C39.5314679,43.493261 38.9769358,44.0461847 38.2929358,44.0461847 Z"></path>
                            <path d="M50.3317982,21.2640161 L33.5488624,21.2640161 C31.0833578,21.2640161 29.0835413,19.2650602 29.0835413,16.8017671 L29.0835413,0.0362248996 C29.6185872,0.276626506 30.1123486,0.615823293 30.5351009,1.03899598 L49.3294128,19.8183133 C49.7505138,20.2398394 50.0906972,20.7305221 50.3317982,21.2640161 Z"></path>
                        </g>
                        <ellipse id="Oval" fill="#DC4955" cx="55.1503486" cy="65.2048193" rx="16.7632844" ry="16.7128514"></ellipse>
                        <path d="M68.5398716,75.2605221 C65.4815229,79.3045382 60.6215229,81.9176707 55.1505138,81.9176707 C45.8928991,81.9176707 38.3873945,74.4355823 38.3873945,65.2048193 C38.3873945,59.7496787 41.0081284,54.9054217 45.0639083,51.8559438 C42.9451927,54.653494 41.6901468,58.1360241 41.6901468,61.9116466 C41.6901468,71.1424096 49.1956514,78.624498 58.4532661,78.624498 C62.2398716,78.624498 65.7325321,77.3730924 68.5398716,75.2605221 Z" id="Path" fill="#C42430"></path>
                        <path d="M61.6328257,71.6666827 C60.665945,72.630759 59.0966422,72.630759 58.1297615,71.6666827 L55.1521651,68.6977229 L52.1745688,71.6666827 C51.2076881,72.630759 49.6383853,72.630759 48.6715046,71.6666827 C47.7046239,70.7026064 47.7046239,69.1378554 48.6715046,68.1737791 L51.6491009,65.2048193 L48.6715046,62.2358594 C47.7046239,61.2717831 47.7046239,59.7070321 48.6715046,58.7429558 C49.6383853,57.7788795 51.2076881,57.7788795 52.1745688,58.7429558 L55.1521651,61.7119157 L58.1297615,58.7429558 C59.0966422,57.7788795 60.665945,57.7788795 61.6328257,58.7429558 C62.5997064,59.7070321 62.5997064,61.2717831 61.6328257,62.2358594 L58.6552294,65.2048193 L61.6328257,68.1737791 C62.5997064,69.1378554 62.5997064,70.7027711 61.6328257,71.6666827 Z" id="Path" fill="#F9F8F9"></path>
                    </g>
                    <g id="Group" fill="#000000">
                        <path d="M1.23711556,18.2929688 C1.91840889,18.2929688 2.47044889,17.7420469 2.47044889,17.0625 L2.47044889,7.79296875 C2.47044889,4.85296875 4.86788444,2.4609375 7.81489333,2.4609375 L21.7028844,2.4609375 C22.3841778,2.4609375 22.9362178,1.91001562 22.9362178,1.23046875 C22.9362178,0.550921875 22.3841778,0 21.7028844,0 L7.81489333,0 C3.50792889,0 0.00378222222,3.49600781 0.00378222222,7.79296875 L0.00378222222,17.0625 C0.00378222222,17.7420469 0.555822222,18.2929688 1.23711556,18.2929688 Z" id="Path"></path>
                        <path d="M13.3162178,73.5 L7.81489333,73.5 C4.86788444,73.5 2.47044889,71.1079687 2.47044889,68.1679688 L2.47044889,22.8046875 C2.47044889,22.1251406 1.91840889,21.5742188 1.23711556,21.5742188 C0.555822222,21.5742188 0.00378222222,22.1251406 0.00378222222,22.8046875 L0.00378222222,68.1679688 C0.00378222222,72.4649297 3.50792889,75.9609375 7.81489333,75.9609375 L13.3162178,75.9609375 C13.9975111,75.9609375 14.5495511,75.4100156 14.5495511,74.7304688 C14.5495511,74.0509219 13.9975111,73.5 13.3162178,73.5 Z" id="Path"></path>
                        <path d="M31.01932,23.3789062 L10.6775422,23.3789062 C9.99624889,23.3789062 9.44420889,23.9298281 9.44420889,24.609375 C9.44420889,25.2889219 9.99624889,25.8398438 10.6775422,25.8398438 L31.01932,25.8398438 C31.7006133,25.8398438 32.2526533,25.2889219 32.2526533,24.609375 C32.2526533,23.9298281 31.7006133,23.3789062 31.01932,23.3789062 Z" id="Path"></path>
                        <path d="M10.6775422,52.9101562 C9.99624889,52.9101562 9.44420889,53.4610781 9.44420889,54.140625 C9.44420889,54.8201719 9.99624889,55.3710938 10.6775422,55.3710938 L31.01932,55.3710938 C31.7006133,55.3710938 32.2526533,54.8201719 32.2526533,54.140625 C32.2526533,53.4610781 31.7006133,52.9101562 31.01932,52.9101562 L10.6775422,52.9101562 Z" id="Path"></path>
                        <path d="M47.1842089,33.2226562 L10.3486533,33.2226562 C9.66736,33.2226562 9.11532,33.7735781 9.11532,34.453125 C9.11532,35.1326719 9.66736,35.6835938 10.3486533,35.6835938 L47.1842089,35.6835938 C47.8655022,35.6835938 48.4175422,35.1326719 48.4175422,34.453125 C48.4175422,33.7735781 47.8655022,33.2226562 47.1842089,33.2226562 Z" id="Path"></path>
                        <path d="M48.4175422,44.296875 C48.4175422,43.6173281 47.8655022,43.0664062 47.1842089,43.0664062 L10.3486533,43.0664062 C9.66736,43.0664062 9.11532,43.6173281 9.11532,44.296875 C9.11532,44.9764219 9.66736,45.5273438 10.3486533,45.5273438 L47.1842089,45.5273438 C47.8655022,45.5273438 48.4175422,44.9764219 48.4175422,44.296875 Z" id="Path"></path>
                        <path d="M60.8482267,48.880125 L60.8482267,24.8631797 C60.8482267,23.2222266 60.2083733,21.6788906 59.0467378,20.5174922 L40.3323022,1.80665625 C39.1672133,0.641648438 37.6168311,0 35.9672889,0 L27.45844,0 C26.7771467,0 26.2251067,0.550921875 26.2251067,1.23046875 C26.2251067,1.91001562 26.7771467,2.4609375 27.45844,2.4609375 L35.9672889,2.4609375 C36.2445422,2.4609375 36.5162044,2.49424219 36.7803022,2.55314062 L36.7803022,18.3810703 C36.7803022,21.5113828 39.3285333,24.058125 42.4607067,24.058125 L58.2904578,24.058125 C58.3486711,24.3198047 58.3813956,24.5888672 58.3813956,24.8633437 L58.3813956,48.3826875 C57.6249511,48.2852344 56.8542,48.2345391 56.0716089,48.2345391 C49.0083911,48.2345391 42.5817378,52.3928672 39.6990267,58.8282187 C39.42128,59.4487031 39.7000133,60.1763203 40.3219422,60.4535859 C40.9432133,60.7305234 41.6730178,60.4527656 41.9510933,59.8322812 C44.4374933,54.2817187 49.9800933,50.6953125 56.0717733,50.6953125 C57.2008489,50.6953125 58.3014756,50.8178672 59.3623067,51.0482109 C59.3644444,51.0487031 59.3664178,51.0491953 59.3685556,51.0495234 C66.3132089,52.5607031 71.5293867,58.7420859 71.5293867,66.1171875 C71.5293867,74.620875 64.5950933,81.5390625 56.0716089,81.5390625 C47.5481244,81.5390625 40.6138311,74.620875 40.6138311,66.1171875 C40.6138311,65.7408281 40.6276444,65.359875 40.6547778,64.9851562 C40.7039467,64.3074141 40.1930178,63.7181016 39.5136978,63.6692109 C38.8340489,63.6217969 38.2435289,64.1298984 38.1946889,64.8076406 C38.16328,65.2412578 38.1473289,65.6819297 38.1473289,66.1171875 C38.1473289,68.7482578 38.7200889,71.2482422 39.7472089,73.5 L19.0717733,73.5 C18.39048,73.5 17.83844,74.0509219 17.83844,74.7304688 C17.83844,75.4100156 18.39048,75.9609375 19.0717733,75.9609375 L41.1150578,75.9609375 C44.3261644,80.8009453 49.8311067,84 56.0717733,84 C65.9553778,84 73.9962178,75.9778359 73.9962178,66.1171875 C73.9962178,57.9061875 68.4204,50.9711016 60.8482267,48.880125 L60.8482267,48.880125 Z M39.2471333,18.3810703 L39.2471333,4.20557812 L56.6420667,21.5971875 L42.4608711,21.5971875 C40.6886533,21.5971875 39.2471333,20.1544219 39.2471333,18.3810703 L39.2471333,18.3810703 Z" id="Shape"></path>
                        <path d="M47.6627422,70.8156094 C47.6627422,71.8017891 48.0475422,72.7289062 48.7461022,73.4258437 C50.1226667,74.8574531 52.60216,74.8572891 53.9787244,73.4258437 L56.0717733,71.3376562 L58.1648222,73.4258437 C59.5413867,74.8574531 62.02088,74.8572891 63.3974444,73.4258437 L63.39728,73.4258437 C64.8323867,72.0523125 64.8322222,69.5787422 63.3974444,68.205375 L61.3042311,66.1171875 L63.39728,64.029 C64.8323867,62.6554687 64.8323867,60.1818984 63.3974444,58.8085312 C62.02088,57.3769219 59.5413867,57.3770859 58.1648222,58.8085312 L56.0717733,60.8967187 L53.9787244,58.8085312 C52.6023244,57.3770859 50.1225022,57.3770859 48.7462667,58.8085312 C47.31116,60.1820625 47.3113244,62.6556328 48.7461022,64.029 L50.8393156,66.1171875 L48.7462667,68.205375 C48.0475422,68.9023125 47.6627422,69.8292656 47.6627422,70.8156094 L47.6627422,70.8156094 Z M50.4905289,69.9454219 L53.4556267,66.9872109 C53.9372844,66.5066719 53.9372844,65.7275391 53.4556267,65.2471641 L50.4903644,62.2887891 C50.0124889,61.8313828 50.0123244,61.0061484 50.4905289,60.5487422 C50.9713644,60.0690234 51.7537911,60.0690234 52.2344622,60.5487422 L55.19956,63.5069531 C55.6813822,63.9874922 56.4621644,63.9874922 56.9438222,63.5069531 L59.90892,60.5487422 C60.3897556,60.0690234 61.1720178,60.0690234 61.6530178,60.5487422 C62.1310578,61.0063125 62.1310578,61.8313828 61.6528533,62.2887891 L58.6877556,65.247 C58.2060978,65.7275391 58.2060978,66.5066719 58.6877556,66.9870469 L61.6530178,69.9454219 C62.1308933,70.4028281 62.1308933,71.2280625 61.6530178,71.6854687 L61.6528533,71.6854687 C61.1720178,72.1651875 60.3895911,72.1651875 59.90892,71.6854687 L56.9438222,68.7272578 C56.462,68.2467187 55.6813822,68.2467187 55.19956,68.7272578 L52.2344622,71.6854687 C51.7536267,72.1651875 50.9713644,72.1651875 50.4903644,71.6854687 C50.0123244,71.2280625 50.0123244,70.4029922 50.4905289,69.9454219 L50.4905289,69.9454219 Z" id="Shape"></path>
                    </g>
                </g>
            </g>
        </g>
    </g>
</svg>