<?xml version="1.0" encoding="UTF-8"?>
<svg width="113px" height="102px" viewBox="0 0 113 102" version="1.1" xmlns="http://www.w3.org/2000/svg" xmlns:xlink="http://www.w3.org/1999/xlink">
    <title>Group 2</title>
    <g id="Users-(View-Details,-Add,-Edit,-Delete)" stroke="none" stroke-width="1" fill="none" fill-rule="evenodd">
        <g id="Delete_User" transform="translate(-132.000000, -526.000000)">
            <g id="Group-2" transform="translate(132.777692, 526.500000)">
                <g id="delete-user" transform="translate(0.000000, -0.000000)">
                    <path d="M56,96 C82.1425761,96 80.7403715,75.5612903 105.342282,49.8580645 C129.944192,24.1548387 80.3525517,0 54.2099756,0 C28.0673995,0 -1.78502423,14.6767937 0.0834752967,44.5935484 C1.95197482,74.510303 29.8574239,96 56,96 Z" id="Oval" fill-opacity="0.160456731" fill="#86C04F"></path>
                    <g id="Group" transform="translate(15.222308, 20.497108)" fill-rule="nonzero">
                        <path d="M54.428872,80.797848 L5.79528659,80.797848 C7.8762622,66.8284074 14.0383537,61.7840443 15.2829878,60.8953311 L44.9411707,60.8953311 C46.1858049,61.7842108 52.3478963,66.8284074 54.428872,80.797848 L54.428872,80.797848 Z" id="Path" fill="#6BBEF6"></path>
                        <ellipse id="Oval" fill="#F1B986" cx="30.1120793" cy="61.7652382" rx="11.8938293" ry="7.95930924"></ellipse>
                        <path d="M21.1223963,60.8954975 C20.368372,61.7842108 16.6346341,66.8284074 15.3718902,80.7980145 L5.79528659,80.7980145 C7.8762622,66.8285738 14.0383537,61.7842108 15.2829878,60.8954975 L21.1223963,60.8954975 Z" id="Path" fill="#528ECB"></path>
                        <path d="M57.2131646,33.5812119 L20.7127866,33.7393163 L2.58771951,33.8163714 C1.20594512,21.0633362 -2.80454268,4.50131598 11.9297195,1.54975614 C15.4672134,0.840449799 18.6528841,0.419725622 21.5160366,0.222178313 C40.6945976,-1.09358329 45.4652012,7.6605751 45.4652012,7.6605751 C45.4652012,7.6605751 48.9361829,4.57853751 52.7100915,4.89258281 C54.07425,5.00525301 55.4794024,5.56427695 56.7732622,6.87221655 C63.5981707,13.7712276 57.2131646,33.5812119 57.2131646,33.5812119 L57.2131646,33.5812119 Z" id="Path" fill="#617881"></path>
                        <path d="M52.7102561,4.89258281 C48.226939,8.00624129 45.2933232,17.3235843 43.9349268,22.634062 C42.606,17.2247274 44.2301159,11.2700157 45.4652012,7.66040867 C45.4652012,7.66040867 48.9363476,4.57837108 52.7102561,4.89258281 Z" id="Path" fill="#475959"></path>
                        <path d="M18.6919024,19.9945504 L20.7127866,33.7393163 L2.58771951,33.8163714 C1.20594512,21.0633362 -2.80454268,4.50131598 11.9297195,1.54975614 C15.4672134,0.840449799 18.6528841,0.419725622 21.5160366,0.222178313 C21.5160366,0.224175422 21.514061,0.224175422 21.514061,0.224175422 C14.1361463,4.81153349 16.4150122,12.9828691 18.6919024,19.9945504 Z" id="Path" fill="#475959"></path>
                        <path d="M54.7979817,43.88496 L54.8325549,43.88496 C57.8010732,43.88496 60.2065427,41.4513169 60.2065427,38.4524922 C60.2065427,35.4516704 57.8012378,33.0180273 54.8325549,33.0180273 C54.7938659,33.0180273 54.7553415,33.0180273 54.7166524,33.0200244 L5.5075061,33.0200244 C5.46881707,33.0180273 5.43029268,33.0180273 5.39160366,33.0180273 C2.42308537,33.0180273 0.0176158537,35.4516704 0.0176158537,38.4524922 C0.0176158537,41.4513169 2.42292073,43.88496 5.39160366,43.88496 L5.42617683,43.88496" id="Path" fill="#F1B986"></path>
                        <path d="M54.8503354,39.7254824 C54.8503354,42.5863402 54.778061,45.4490288 54.6333476,48.3097202 C54.271811,55.4616983 48.609878,61.1554545 41.5311037,61.4932986 C36.5825305,61.7302888 31.6319817,61.8113382 26.6835732,61.7402744 L26.6815976,61.7402744 C24.0178171,61.7026622 21.3558476,61.6197822 18.6920671,61.4932986 C11.6151037,61.1554545 5.95333537,55.4615319 5.58982317,48.3097202 C5.33184146,43.2124337 5.3045122,38.1173108 5.50585976,33.0200244 L5.50783537,33.0200244 C8.26743293,31.9866872 9.90916463,28.7743383 10.8844573,25.2023435 C11.8851037,21.5374831 15.358061,19.5342169 18.6922317,19.9945504 C19.9918537,20.1742901 21.2720488,20.7294863 22.3742744,21.7054066 C24.5886037,23.6652357 27.3501768,24.6451502 30.11175,24.6451502 C32.8733232,24.6451502 35.636872,23.6652357 37.8512012,21.7054066 C39.2232622,20.4903325 40.8668049,19.9293115 42.4851585,19.9293115 C45.5047134,19.9293115 48.434378,21.8851463 49.3411829,25.2023435 C50.3145,28.7743383 51.9562317,31.9868537 54.7178049,33.0200244 C54.8073659,35.2566194 54.8503354,37.4910509 54.8503354,39.7254824 Z" id="Path" fill="#F1D0A5"></path>
                        <path d="M26.6815976,61.7404408 C24.0178171,61.7028286 21.3558476,61.6199486 18.6920671,61.4934651 C11.6151037,61.1556209 5.95333537,55.4616983 5.58982317,48.3098866 C5.33184146,43.2126002 5.3045122,38.1174773 5.50585976,33.0201908 L5.50783537,33.0201908 C8.26743293,31.9868537 9.90916463,28.7745047 10.8844573,25.2025099 C11.8851037,21.5376495 15.358061,19.5343833 18.6922317,19.9947168 C16.1609817,42.8391409 18.6919024,61.4894708 26.6815976,61.7404408 L26.6815976,61.7404408 Z" id="Path" fill="#F1B986"></path>
                    </g>
                </g>
                <ellipse id="Oval" fill="#DA4A54" fill-rule="nonzero" cx="80.7825889" cy="34.1711435" rx="15.420128" ry="15.5879306"></ellipse>
                <path d="M83.3615828,49.5402243 C82.523595,49.6833504 81.6609121,49.7582419 80.7817658,49.7582419 C72.265406,49.7582419 65.3624609,42.7801786 65.3624609,34.1711435 C65.3624609,25.5621083 72.265406,18.5823807 80.7817658,18.5823807 C81.6609121,18.5823807 82.523595,18.6572723 83.3615828,18.8003984 C76.0717475,20.0402699 70.5204487,26.4508215 70.5204487,34.1711435 C70.5202841,41.8914654 76.0717475,48.3005192 83.3615828,49.5402243 Z" id="Path" fill="#C32430" fill-rule="nonzero"></path>
                <path d="M45.4131529,64.5165332 C42.8208734,64.5165332 40.4275978,66.054502 39.3159206,68.434668 C39.0257474,69.0558984 39.2861844,69.7984863 39.8977376,70.0933301 C40.5092907,70.3880078 41.2401155,70.1235449 41.5301254,69.5021484 C42.2380762,67.9862598 43.7623025,67.0067676 45.4131529,67.0067676 C47.0640033,67.0067676 48.5882297,67.9862598 49.2961805,69.5023145 C49.5059679,69.9512207 49.9456392,70.2138574 50.4040998,70.2138574 C50.5800663,70.2138574 50.7589738,70.1751758 50.9285683,70.0933301 C51.5399581,69.7984863 51.8003951,69.0557324 51.5102218,68.434502 C50.3987081,66.054502 48.0054325,64.5165332 45.4131529,64.5165332 L45.4131529,64.5165332 Z" id="Path" fill="#000000" fill-rule="nonzero"></path>
                <path d="M34.0573478,52.7606348 C32.8386529,52.7606348 31.8470643,54.2625781 31.8470643,56.1086719 C31.8470643,57.9547656 32.8386529,59.456709 34.0573478,59.456709 C35.2760427,59.456709 36.2676313,57.9547656 36.2676313,56.1086719 C36.2676313,54.2624121 35.2760427,52.7606348 34.0573478,52.7606348 L34.0573478,52.7606348 Z" id="Path" fill="#000000" fill-rule="nonzero"></path>
                <path d="M56.7692848,52.7606348 C55.5505899,52.7606348 54.5590014,54.2625781 54.5590014,56.1086719 C54.5590014,57.9547656 55.5504266,59.456709 56.7692848,59.456709 C57.9879797,59.456709 58.9794049,57.9547656 58.9794049,56.1086719 C58.9794049,54.2624121 57.9879797,52.7606348 56.7692848,52.7606348 L56.7692848,52.7606348 Z" id="Path" fill="#000000" fill-rule="nonzero"></path>
                <path d="M80.5925722,16.5 C75.1742081,16.5 70.3564502,19.1632227 67.3401844,23.2687891 C64.6528143,23.2548438 62.2281687,24.6211523 60.9008222,25.5435352 C58.821901,23.0607715 52.3926687,17.5588477 36.7978183,18.6333008 C35.9683084,18.6909082 35.131773,18.7654492 34.311086,18.8549316 C33.6380998,18.9283105 33.15121,19.5420703 33.2235899,20.2258887 C33.2958065,20.909541 33.900334,21.4044336 34.5728301,21.3308887 C35.362147,21.2447266 36.1668222,21.1730078 36.9643084,21.1177246 C42.1472336,20.760459 49.5028636,20.983584 55.114023,24.0739648 C58.4202986,25.8949902 59.5697179,27.8861816 59.5759266,27.8969727 C59.7546706,28.2266797 60.0714758,28.4557813 60.4364797,28.5215234 C60.5073892,28.5343066 60.5786254,28.5406152 60.6495348,28.5406152 C60.9436293,28.5406152 61.231025,28.4328711 61.4561706,28.2336523 C61.4803518,28.2122363 63.3802021,26.5539063 65.7242986,25.9638867 C64.6614738,28.1803613 64.0642986,30.6679395 64.0642986,33.2948047 C64.0642986,39.5369922 67.4334777,44.9942578 72.4209935,47.8889063 C72.0836018,49.4066211 71.7481706,50.6749805 71.5057061,51.5379297 C71.0449581,51.4232129 70.5652573,51.3587988 70.0723222,51.3493359 C67.7123773,50.3245215 66.3811096,47.0589941 65.6767533,44.4636719 C64.9147218,41.6568457 62.8233832,39.4827051 60.0820958,38.6474805 C57.3484876,37.8145801 54.4340112,38.4583887 52.2858143,40.3692285 C48.3678222,43.8542285 42.4588104,43.8542285 38.5406549,40.3692285 C36.3924581,38.4582227 33.4778183,37.8145801 30.7443734,38.6474805 C28.0032494,39.4827051 25.9117474,41.6568457 25.1498793,44.4636719 C23.8989974,49.0711035 22.1060014,50.7594824 20.7569246,51.3493359 C20.1930801,51.3599609 19.6467179,51.4431348 19.1260073,51.5903906 C19.0188262,50.6944043 18.9046195,49.7851367 18.7851844,48.842002 C18.0368773,42.9308496 17.2632455,36.8184863 18.2376785,31.8783594 C19.2985427,26.5001172 22.2757592,23.4952344 27.6072021,22.4214453 C28.3983163,22.2620703 29.1745624,22.1166406 29.9145368,21.9894727 C30.5818045,21.8747559 31.0312789,21.2321094 30.9183793,20.5541016 C30.8056431,19.8760938 30.1743203,19.4193848 29.5057455,19.5341016 C28.7432238,19.6652539 27.9439403,19.814834 27.1306057,19.9786914 C20.7923793,21.2551855 17.0974088,24.9875488 15.8345998,31.3887793 C14.781088,36.73 15.5808616,43.0487207 16.3543301,49.1594238 C16.5137947,50.4196484 16.6649266,51.6206055 16.7990663,52.7998145 C15.2910151,54.0221875 14.3219738,55.9038086 14.3219738,58.012207 C14.3219738,61.284375 16.6556136,64.0111816 19.7200781,64.5698242 C19.7542258,65.6856152 19.7971962,66.7994141 19.8530742,67.9092285 C20.1434108,73.651377 23.5220663,78.5013574 28.3481569,80.8106348 C27.4691411,81.695498 26.380338,82.980127 25.2652297,84.7666211 C22.7170643,88.8496094 20.968836,93.9977539 20.0692336,100.067949 C20.0161332,100.426543 20.1193931,100.790781 20.3522179,101.065537 C20.5850427,101.340293 20.9240683,101.49834 21.2810663,101.49834 L69.5458931,101.49834 C69.9027277,101.49834 70.2417533,101.340293 70.4745781,101.065537 C70.7074029,100.790781 70.8108262,100.426543 70.7577258,100.068115 C70.2809659,96.8472461 69.5522651,93.8468457 68.59221,91.1505859 C68.3619994,90.5037891 67.6591136,90.1695996 67.0230525,90.4033496 C66.3865014,90.6374316 66.0574423,91.3511328 66.2876529,91.9977637 C67.0501746,94.1388672 67.6589502,96.4916406 68.1023793,99.0081055 L22.7240899,99.0081055 C24.6822691,87.8829004 29.2598498,83.1700488 30.953834,81.7663867 C31.4384364,81.8937207 31.9323518,81.9979785 32.4354167,82.0763379 C32.7035329,84.3162207 34.0820191,86.3680078 36.3906608,87.9204199 C38.8184108,89.5528516 42.022897,90.4519922 45.4136431,90.4519922 C48.8043892,90.4519922 52.0085486,89.5528516 54.4358084,87.9202539 C56.7436332,86.3680078 58.1217927,84.3162207 58.3899088,82.0763379 C58.8928104,81.9979785 59.3867258,81.8938867 59.8711647,81.7665527 C60.7944581,82.5352051 62.6091844,84.3210352 64.3822474,87.6436719 C64.6041254,88.059541 65.0254974,88.2956152 65.4605939,88.2956152 C65.6578006,88.2956152 65.8581116,88.2471387 66.0435545,88.144873 C66.6384423,87.8169922 66.8591766,87.0612891 66.5366529,86.4568262 C65.1000014,83.7645508 63.6220132,81.9574707 62.480273,80.8096387 C67.3062002,78.5001953 70.683712,73.6503809 70.9725781,67.9088965 C71.0284561,66.798252 71.0715899,65.6846191 71.1057376,64.5699902 C74.1708557,64.0118457 76.5049856,61.284707 76.5049856,58.012207 C76.5049856,55.780459 75.4192868,53.8028809 73.7576529,52.5922949 C73.98721,51.796582 74.3296667,50.5410059 74.6886254,48.980957 C76.5231214,49.6963184 78.5134876,50.0896094 80.5927356,50.0896094 C89.7065604,50.0896094 97.121336,42.5554883 97.121336,33.2949707 C97.121336,24.0341211 89.7065604,16.5 80.5925722,16.5 Z M16.7724344,58.012041 C16.7724344,56.1191309 18.018088,54.5174121 19.719588,54.0069141 C19.6380584,56.6636621 19.6171451,59.3335254 19.6589718,61.9975781 C17.9883518,61.4679883 16.7724344,59.881709 16.7724344,58.012041 L16.7724344,58.012041 Z M45.4134797,87.9615918 C40.2209147,87.9615918 35.7581943,85.4482813 34.9611982,82.279375 C38.4323301,82.4319434 41.9219246,82.5121289 45.4133163,82.5121289 C48.9037277,82.5121289 52.3941392,82.4319434 55.8636372,82.279375 C55.0669679,85.4482813 50.6050643,87.9615918 45.4134797,87.9615918 Z M68.5247317,67.7815625 C68.1969797,74.2981738 63.1083281,79.4444922 56.6879187,79.7524512 C49.2069718,80.111543 41.620151,80.111543 34.1374069,79.7524512 C27.7187947,79.4444922 22.6299797,74.2980078 22.3004305,67.7813965 C22.0607435,63.0222266 22.0234915,58.192832 22.1891647,53.4140723 C24.5716569,52.1521875 26.3600781,49.3694336 27.5121116,45.1254102 C28.0483439,43.1499902 29.5197966,41.6199902 31.4479128,41.0324609 C33.3685132,40.4474219 35.4163911,40.8998145 36.9260762,42.2427148 C41.7642573,46.5463379 49.0613951,46.5463379 53.8997395,42.2427148 C55.4094246,40.8998145 57.4569758,40.4474219 59.3779029,41.0324609 C61.3061825,41.6199902 62.7776352,43.1499902 63.3138675,45.1255762 C64.465901,49.3692676 66.2541588,52.1518555 68.6361608,53.4139063 C68.8028143,58.1737402 68.765399,63.0036328 68.5247317,67.7815625 L68.5247317,67.7815625 Z M71.1668439,61.9979102 C71.2091608,59.3280469 71.188084,56.6580176 71.1062277,54.006748 C72.8080545,54.5169141 74.0540348,56.1189648 74.0540348,58.012207 C74.0540348,59.881875 72.8376273,61.4684863 71.1668439,61.9979102 Z M80.5925722,47.599209 C72.8299482,47.599209 66.5147592,41.182207 66.5147592,33.2948047 C66.5147592,25.4074023 72.8301116,18.9902344 80.5925722,18.9902344 C88.3550329,18.9902344 94.6703852,25.4072363 94.6703852,33.2946387 C94.6703852,41.182041 88.3551962,47.599209 80.5925722,47.599209 Z" id="Shape" fill="#000000" fill-rule="nonzero"></path>
                <path d="M88.307651,32.0495215 L72.8776569,32.0495215 C72.2007494,32.0495215 71.6522632,32.607002 71.6522632,33.2946387 C71.6522632,33.9822754 72.2007494,34.5397559 72.8776569,34.5397559 L88.307651,34.5397559 C88.9845584,34.5397559 89.5330447,33.9822754 89.5330447,33.2946387 C89.5330447,32.607002 88.9845584,32.0495215 88.307651,32.0495215 Z" id="Path" fill="#000000" fill-rule="nonzero"></path>
            </g>
        </g>
    </g>
</svg>