<?xml version="1.0" encoding="UTF-8"?>
<svg width="95px" height="107px" viewBox="0 0 95 107" version="1.1" xmlns="http://www.w3.org/2000/svg" xmlns:xlink="http://www.w3.org/1999/xlink">
    <title>description_icon</title>
    <g id="Project-Dashboard---Web" stroke="none" stroke-width="1" fill="none" fill-rule="evenodd" opacity="0.5">
        <g id="Project_Dashboard_Empty_Screen" transform="translate(-449.000000, -366.000000)" fill-rule="nonzero">
            <g id="description_icon" transform="translate(496.530487, 419.647385) rotate(-20.000000) translate(-496.530487, -419.647385) translate(463.030487, 375.147385)">
                <path d="M11.6758647,74.7947815 L11.6758647,12.7448847 L7.7324709,12.7448847 C5.53171281,12.7448847 3.74823421,14.5010582 3.74823421,16.6674522 L3.74823421,80.8421849 C3.74823421,84.6541535 6.88702045,87.7448847 10.7589389,87.7448847 L50.7646782,87.7448847 C52.9647556,87.7448847 54.7482342,85.9887113 54.7482342,83.8223172 L54.7482342,79.4198184 L16.3721314,79.4198184 C13.7785996,79.4198184 11.6758647,77.3492766 11.6758647,74.7947815 Z" id="Path"></path>
                <g id="Group" transform="translate(11.661642, 2.550848)">
                    <path d="M53.4251544,15.0258713 C53.4299381,15.0318872 53.4354052,15.0379032 53.4408722,15.0445877 C53.4354052,15.0385716 53.4299381,15.0318872 53.4251544,15.0258713 Z" id="Path" fill="#EEF8FD"></path>
                    <path d="M41.1339111,1.89435995 C41.1380115,1.89837068 41.1421116,1.9023814 41.1455285,1.90639196 C41.1421116,1.9023814 41.1380115,1.89837068 41.1339111,1.89435995 Z" id="Path" fill="#EEF8FD"></path>
                    <path d="M40.7197837,1.50399077 C40.7314013,1.51401742 40.7430187,1.52404406 40.7553196,1.53473911 C40.743702,1.52404406 40.7314013,1.51401742 40.7197837,1.50399077 Z" id="Path" fill="#EEF8FD"></path>
                    <path d="M41.0115863,1.77136692 C41.0204702,1.78005677 41.0286709,1.78807806 41.0368713,1.79676774 C41.0286709,1.78807806 41.0204702,1.78005677 41.0115863,1.77136692 Z" id="Path" fill="#EEF8FD"></path>
                    <path d="M53.4764079,15.0866993 C53.4825584,15.0940522 53.4887088,15.101405 53.4941758,15.1080894 C53.4887088,15.101405 53.4825584,15.0940522 53.4764079,15.0866993 Z" id="Path" fill="#EEF8FD"></path>
                    <path d="M41.0689901,1.82818448 C41.0765073,1.83620576 41.0840245,1.84355865 41.0915416,1.85091137 C41.0840245,1.84355865 41.0765073,1.83620576 41.0689901,1.82818448 Z" id="Path" fill="#EEF8FD"></path>
                    <path d="M53.2877954,14.8707932 C53.2918958,14.8754723 53.295996,14.8801512 53.3000963,14.8848304 C53.295996,14.8801512 53.2918958,14.8754723 53.2877954,14.8707932 Z" id="Path" fill="#EEF8FD"></path>
                    <path d="M53.5160439,15.1341586 C53.5221943,15.1421799 53.529028,15.1502011 53.5358618,15.158891 C53.529028,15.1508695 53.5221943,15.1421799 53.5160439,15.1341586 Z" id="Path" fill="#EEF8FD"></path>
                    <path d="M53.3841519,14.978412 C53.3889354,14.9837595 53.3930358,14.9891071 53.3978193,14.9937862 C53.3930358,14.9891071 53.3882521,14.9837595 53.3841519,14.978412 Z" id="Path" fill="#EEF8FD"></path>
                    <path d="M53.3328985,14.9209261 C53.3369987,14.9249368 53.3404157,14.9289475 53.3438326,14.9329581 C53.3404157,14.9289475 53.3369987,14.9249368 53.3328985,14.9209261 Z" id="Path" fill="#EEF8FD"></path>
                    <path d="M40.6596464,1.45318947 C40.6726307,1.46388452 40.6849316,1.47391099 40.6972323,1.48460604 C40.6849316,1.47391099 40.6726307,1.46388452 40.6596464,1.45318947 Z" id="Path" fill="#EEF8FD"></path>
                    <path d="M40.5995091,1.4037248 C40.6131769,1.41441984 40.6261609,1.42511489 40.6398285,1.43647833 C40.6261609,1.42511489 40.6131769,1.41441984 40.5995091,1.4037248 Z" id="Path" fill="#EEF8FD"></path>
                    <path d="M40.8967788,1.66241127 C40.9063461,1.67110095 40.9159134,1.67979063 40.9247974,1.68848048 C40.9159134,1.67979063 40.9063461,1.67110095 40.8967788,1.66241127 Z" id="Path" fill="#EEF8FD"></path>
                    <path d="M40.9555494,1.71722329 C40.9637499,1.72524458 40.9726338,1.73326586 40.9808343,1.74128714 C40.9726338,1.73326586 40.9637499,1.72524458 40.9555494,1.71722329 Z" id="Path" fill="#EEF8FD"></path>
                    <path d="M53.633585,15.2832208 C54.1570527,15.9677038 54.5253937,16.7504475 54.7160563,17.5793136 L39.9270648,17.5793136 C38.2685056,17.5793136 36.923617,16.2644913 36.923617,14.6421865 L36.923617,0.00735288695 C38.220669,0.0661756403 39.4603175,0.521383496 40.4703507,1.30145346 C39.3865126,0.464566106 38.0382072,0 36.6379647,0 L4.88820547,0 C2.28453395,0 0.173578195,2.06481229 0.173578195,4.61157022 L0.173578195,71.2771345 C0.173578195,73.8238923 2.28453395,75.8887047 4.88820547,75.8887047 L50.1545056,75.8887047 C52.7588607,75.8887047 54.8698164,73.8238923 54.8698164,71.2771345 L54.8698164,18.9121836 C54.8698164,17.5986983 54.4324543,16.3259878 53.633585,15.2832208 L53.633585,15.2832208 Z" id="Path"></path>
                    <path d="M40.4765012,1.30546402 C40.4929023,1.31816443 40.5093034,1.33153324 40.5257044,1.34423365 C40.5093034,1.33153324 40.4929023,1.31816443 40.4765012,1.30546402 Z" id="Path" fill="#EEF8FD"></path>
                    <path d="M53.2467927,14.8273446 C53.2461094,14.8260076 53.2454261,14.8253392 53.2447426,14.8246706 L47.222129,8.39427437 L53.2447426,14.8246706 L53.2467927,14.8273446 Z" id="Path" fill="#EEF8FD"></path>
                    <path d="M53.6021495,15.242446 C53.6124002,15.2551464 53.6219674,15.2685151 53.6315348,15.2812155 C53.6219674,15.2678467 53.6124002,15.2551464 53.6021495,15.242446 Z" id="Path" fill="#EEF8FD"></path>
                    <path d="M53.5515796,15.1789441 C53.5679807,15.1996658 53.5850651,15.2203873 53.6007828,15.241109 C53.5843817,15.2203873 53.5679807,15.1996658 53.5515796,15.1789441 Z" id="Path" fill="#EEF8FD"></path>
                    <path d="M40.7792377,1.5554608 C40.7901717,1.56481888 40.8011058,1.57484553 40.8120398,1.58420361 C40.8011058,1.57484553 40.7901717,1.56548745 40.7792377,1.5554608 Z" id="Path" fill="#EEF8FD"></path>
                    <path d="M40.5380052,1.35359172 C40.5530396,1.36562374 40.5673905,1.37765558 40.5824247,1.38901919 C40.5673905,1.37765558 40.5530396,1.36562374 40.5380052,1.35359172 Z" id="Path" fill="#EEF8FD"></path>
                    <path d="M40.8386916,1.60826764 C40.848259,1.61762572 40.8585096,1.6269838 40.8687603,1.63634205 C40.8585096,1.6269838 40.848259,1.61762572 40.8386916,1.60826764 Z" id="Path" fill="#EEF8FD"></path>
                </g>
                <path d="M48.6971649,17.1231147 C48.6971649,18.6926141 49.9821055,19.965286 51.566735,19.965286 L65.6971649,19.965286 C65.5143481,19.1633993 65.1630787,18.4054869 64.6622915,17.7439303 C64.6616384,17.7432836 64.6609855,17.742637 64.6609855,17.7419902 C64.6511918,17.7290565 64.642051,17.7167697 64.6322572,17.7044826 C64.6322572,17.7038358 64.6316043,17.7031892 64.6309515,17.7031892 C64.6159343,17.683142 64.6002643,17.6630949 64.5845943,17.6430477 C64.579371,17.6365808 64.5741476,17.6301141 64.5689243,17.6236473 C64.562395,17.6152403 64.5565188,17.6074801 64.5499897,17.5997199 C64.5428076,17.5913131 64.5362784,17.5829063 64.5297493,17.5744992 C64.5238731,17.5673859 64.5179969,17.5609189 64.5127735,17.5538054 C64.5010209,17.5402251 64.4899214,17.5266448 64.4781688,17.5130645 C64.4735983,17.5065976 64.468375,17.5007775 64.4631517,17.4949574 C64.4546638,17.4846105 64.445523,17.4742635 64.437035,17.4639166 C64.4324647,17.4593898 64.4285471,17.4542163 64.4239768,17.4490428 C64.4109183,17.4341691 64.398513,17.4192954 64.3861075,17.4050684 C64.3821901,17.4011884 64.3789254,17.3973082 64.375008,17.393428 C64.3652142,17.3811412 64.3547675,17.3701476 64.3443208,17.3585072 C64.3397504,17.3539804 64.335833,17.3494538 64.3319154,17.3449269 C64.3195101,17.3306998 64.3064516,17.3164729 64.2933934,17.3028926 L64.2907816,17.3003057 L58.5372771,11.0792164 L52.7831194,4.85812676 C52.7661436,4.839373 52.7485148,4.82126588 52.7315389,4.80251211 C52.7276215,4.7986321 52.7237041,4.79475192 52.7204394,4.79087174 C52.7067282,4.77729144 52.6930169,4.7630645 52.6793056,4.74883739 C52.6721236,4.741724 52.6649415,4.73461045 52.6584122,4.72685026 C52.6479655,4.71650333 52.6381719,4.70680304 52.6277252,4.69645612 C52.6192374,4.68804928 52.6114022,4.68028909 52.6035674,4.67188209 C52.5937736,4.66218197 52.5839798,4.65248168 52.574186,4.6427814 C52.5656981,4.6350212 52.5578631,4.62726101 52.5493752,4.61950081 C52.5395814,4.61044733 52.5297876,4.60074705 52.519994,4.59169357 C52.5115059,4.58328657 52.5023652,4.57487973 52.4932243,4.5664729 C52.4847364,4.5580659 52.4755955,4.54965906 52.4664547,4.54125222 C52.4566609,4.53219858 52.4468673,4.5231451 52.4377264,4.51409162 C52.4292385,4.50633126 52.4207506,4.49857123 52.4122625,4.49145768 C52.4018159,4.4817574 52.3913692,4.47270392 52.3809225,4.46300363 C52.3730875,4.45653672 52.3652525,4.44942317 52.3580706,4.44295642 C52.346318,4.4326095 52.3352184,4.42290921 52.3241187,4.41320893 C52.3169367,4.40738882 52.3097546,4.40092208 52.3025725,4.39445516 C52.2908201,4.38410824 52.2790675,4.37440812 52.266662,4.36406119 C52.2607858,4.35888773 52.2542567,4.35306746 52.2477275,4.34789399 C52.2346691,4.33690043 52.2222638,4.3265535 52.2092053,4.31620657 C52.203982,4.31167975 52.1981058,4.30650629 52.1928824,4.30197963 C52.1785183,4.2909859 52.1648071,4.27934569 52.1504429,4.26770532 C52.1465253,4.26511858 52.1432607,4.26188521 52.1393433,4.25865184 C52.1236733,4.24636482 52.1073504,4.23343116 52.0916804,4.22114415 C52.0897216,4.21985086 52.0877628,4.21855742 52.0864571,4.21661733 C51.1207928,3.46258515 49.9370541,3.02219414 48.6978178,2.96528604 L48.6978178,17.1231147 L48.6971649,17.1231147 Z" id="Path" fill="#FFFFFF"></path>
                <path d="M64.7868171,16.4888812 C64.7799992,16.4821674 64.773863,16.4754537 64.7677269,16.4680684 C64.7588637,16.4586689 64.7500005,16.4485982 64.7404553,16.4391987 L64.1629792,15.8188374 L52.7245882,3.52238956 C51.4523682,2.15477486 49.7642561,1.29472851 47.9166051,1.05840039 C47.9145597,1.05840039 47.9125144,1.05840039 47.910469,1.05772887 C47.8859246,1.0550435 47.8613801,1.05168643 47.8361539,1.04900089 C47.5225305,1.01140323 47.2054981,0.99193306 46.8864205,0.99193306 L15.2097748,0.99193306 C11.6535581,0.99193306 8.7600413,3.84062695 8.7600413,7.34258008 L8.7600413,10.4316303 L6.55581425,10.4316303 C3.39367228,10.4316303 0.820596697,12.9654437 0.820596697,16.0806781 L0.820596697,80.3585712 C0.820596697,85.1193745 4.75316147,88.9919331 9.58773446,88.9919331 L49.6565332,88.9919331 C52.8186753,88.9919331 55.3917507,86.4581195 55.3917507,83.344228 L55.3917507,80.6526387 L60.3708632,80.6526387 C63.9270799,80.6526387 66.8205967,77.8032734 66.8205967,74.3019917 L66.8205967,21.7062275 C66.8205967,19.7726337 66.098581,17.9222919 64.7868171,16.4888812 Z M62.0623842,18.6487324 L50.1671939,18.6487324 C49.4772225,18.6487324 48.9161093,18.0961811 48.9161093,17.4167377 L48.9161093,4.91618839 C49.3756357,5.14983097 49.7949366,5.46269726 50.1501492,5.84471626 L61.2326458,17.7571309 L62.0623842,18.6487324 Z M60.371545,77.2151387 L15.2097748,77.2151387 C13.5782513,77.2151387 12.2508061,75.9079487 12.2508061,74.3019917 L12.2508061,66.3044331 C12.2508061,65.3550922 11.4694749,64.5856831 10.5054237,64.5856831 C9.54205449,64.5856831 8.7600413,65.3550922 8.7600413,66.3044331 L8.7600413,74.3019917 C8.7600413,77.8039448 11.6535581,80.6526387 15.2097748,80.6526387 L51.9009859,80.6526387 L51.9009859,83.344228 C51.9009859,84.5627949 50.8939821,85.5544331 49.6565332,85.5544331 L9.58773446,85.5544331 C6.67853645,85.5544331 4.31136154,83.2233784 4.31136154,80.3585712 L4.31136154,16.0806781 C4.31136154,14.8607685 5.31836534,13.8691303 6.55581425,13.8691303 L8.7600413,13.8691303 L8.7600413,52.5544331 C8.7600413,53.503774 9.54205449,54.2731831 10.5054237,54.2731831 C11.4694749,54.2731831 12.2508061,53.503774 12.2508061,52.5544331 L12.2508061,7.34258008 C12.2508061,5.73662304 13.5782513,4.42943306 15.2097748,4.42943306 L45.4253445,4.42943306 L45.4253445,17.4167377 C45.4253445,19.9915059 47.5525293,22.0862324 50.1671939,22.0862324 L63.3298319,22.0862324 L63.3298319,74.3019917 C63.3298319,75.9079487 62.0023867,77.2151387 60.371545,77.2151387 L60.371545,77.2151387 Z" id="Shape" fill="#CBD2D5"></path>
                <path d="M22.472832,26.2004484 L41.8483321,26.2004484 C42.8486091,26.2004484 43.6605821,25.5289641 43.6605821,24.7004484 C43.6605821,23.8719328 42.8486091,23.2004484 41.8483321,23.2004484 L22.472832,23.2004484 C21.471847,23.2004484 20.6605821,23.8719328 20.6605821,24.7004484 C20.6605821,25.5289641 21.471847,26.2004484 22.472832,26.2004484 Z" id="Path" fill="#CBD2D5"></path>
                <path d="M50.2863702,37.7259512 L23.6804703,37.7259512 C22.7431152,37.7259512 21.9834202,38.3974356 21.9834202,39.2259512 C21.9834202,40.0544667 22.7431152,40.7259512 23.6804703,40.7259512 L50.2863702,40.7259512 C51.2237253,40.7259512 51.9834202,40.0544667 51.9834202,39.2259512 C51.9834202,38.3974356 51.2237253,37.7259512 50.2863702,37.7259512 Z" id="Path" fill="#CBD2D5"></path>
                <path d="M50.8805916,50.7123633 L24.2746917,50.7123633 C23.3373366,50.7123633 22.5776416,51.3838476 22.5776416,52.2123633 C22.5776416,53.0408789 23.3373366,53.7123633 24.2746917,53.7123633 L50.8805916,53.7123633 C51.8179467,53.7123633 52.5776416,53.0408789 52.5776416,52.2123633 C52.5776416,51.3838476 51.8179467,50.7123633 50.8805916,50.7123633 Z" id="Path" fill="#CBD2D5"></path>
                <path d="M50.1931002,64.296448 L23.5872003,64.296448 C22.6498452,64.296448 21.8901503,64.9679324 21.8901503,65.796448 C21.8901503,66.6249637 22.6498452,67.296448 23.5872003,67.296448 L50.1931002,67.296448 C51.1304553,67.296448 51.8901503,66.6249637 51.8901503,65.796448 C51.8901503,64.9679324 51.1304553,64.296448 50.1931002,64.296448 Z" id="Path" fill="#CBD2D5"></path>
                <path d="M12.2439481,57.4543196 C11.4154324,57.4543196 10.7439481,58.127753 10.7439481,58.955198 C10.7439481,59.7832283 11.4154324,60.4543196 12.2439481,60.4543196 C13.0718778,60.4543196 13.7439481,59.7832283 13.7439481,58.955198 L13.7439481,58.9516843 C13.7439481,58.1236538 13.0718778,57.4543196 12.2439481,57.4543196 L12.2439481,57.4543196 Z" id="Path" fill="#CBD2D5"></path>
            </g>
        </g>
    </g>
</svg>