<?xml version="1.0" encoding="UTF-8"?>
<svg width="79px" height="91px" viewBox="0 0 79 91" version="1.1" xmlns="http://www.w3.org/2000/svg" xmlns:xlink="http://www.w3.org/1999/xlink">
    <title>attach_icon</title>
    <g id="Project-Details-(General,-Feedback,-History)" stroke="none" stroke-width="1" fill="none" fill-rule="evenodd" opacity="0.5">
        <g id="Project_Details_General_Empty" transform="translate(-287.000000, -1310.000000)" fill="#CBD2D5" fill-rule="nonzero">
            <g id="Group-3" transform="translate(10.000000, 1309.949313)">
                <g id="attach_icon" transform="translate(316.500000, 45.550687) rotate(-17.000000) translate(-316.500000, -45.550687) translate(287.500000, 7.050687)">
                    <path d="M16.0605,37.4395 C15.78165,37.1605 15.39465,37 15,37 C14.6055,37 14.2185,37.1605 13.93965,37.4395 C13.66065,37.7185 13.5,38.1055 13.5,38.5 C13.5,38.8945 13.6605,39.2815 13.93965,39.5605 C14.2185,39.8395 14.6055,40 15,40 C15.39465,40 15.78165,39.8395 16.0605,39.5605 C16.3395,39.2815 16.5,38.8945 16.5,38.5 C16.5,38.1055 16.33965,37.7185 16.0605,37.4395 Z" id="Path"></path>
                    <path d="M16.0605,48.4395 C15.78165,48.1605 15.39465,48 15,48 C14.6055,48 14.2185,48.1605 13.93965,48.4395 C13.66065,48.7185 13.5,49.104 13.5,49.5 C13.5,49.8945 13.6605,50.2815 13.93965,50.5605 C14.2185,50.8395 14.6055,51 15,51 C15.39465,51 15.78165,50.8395 16.0605,50.5605 C16.3395,50.2815 16.5,49.8945 16.5,49.5 C16.5,49.1055 16.33965,48.7185 16.0605,48.4395 Z" id="Path"></path>
                    <path d="M16.0605,58.4395 C15.78165,58.1605 15.39465,58 15,58 C14.6055,58 14.2185,58.1605 13.93965,58.4395 C13.66065,58.7185 13.5,59.1055 13.5,59.5 C13.5,59.8945 13.6605,60.2815 13.93965,60.5605 C14.2185,60.8395 14.6055,61 15,61 C15.39465,61 15.78165,60.8395 16.0605,60.5605 C16.3395,60.2815 16.5,59.8945 16.5,59.5 C16.5,59.1055 16.33965,58.7185 16.0605,58.4395 Z" id="Path"></path>
                    <path d="M44.0168621,37 L20.9831379,37 C20.1641491,37 19.5,37.67155 19.5,38.5 C19.5,39.32845 20.1641491,40 20.9831379,40 L44.0168621,40 C44.8358509,40 45.5,39.32845 45.5,38.5 C45.5,37.67155 44.8359992,37 44.0168621,37 Z" id="Path"></path>
                    <path d="M44.0168621,48 L20.9831379,48 C20.1641491,48 19.5,48.67155 19.5,49.5 C19.5,50.32845 20.1641491,51 20.9831379,51 L44.0168621,51 C44.8358509,51 45.5,50.32845 45.5,49.5 C45.5,48.67155 44.8359992,48 44.0168621,48 Z" id="Path"></path>
                    <path d="M44.0168621,58 L20.9831379,58 C20.1641491,58 19.5,58.67155 19.5,59.5 C19.5,60.32845 20.1641491,61 20.9831379,61 L44.0168621,61 C44.8358509,61 45.5,60.32845 45.5,59.5 C45.5,58.67155 44.8359992,58 44.0168621,58 Z" id="Path"></path>
                    <path d="M57.497921,30.3058164 C57.497624,30.3001016 57.496733,30.2943867 57.4962874,30.2886719 C57.4945054,30.2649102 57.4918324,30.2435547 57.4884168,30.2241543 C57.4539644,29.8877305 57.3112539,29.5649922 57.0650374,29.3154941 L41.6208208,13.6748691 C41.3518835,13.4026621 40.9972605,13.2521211 40.6323909,13.2367812 C40.6133826,13.2352773 40.5934834,13.234375 40.5707625,13.234375 L30.4974208,13.234375 L30.4974208,10.5273437 C30.4974208,4.72256641 25.8343068,-1.13686838e-13 20.1022749,-1.13686838e-13 C14.370243,-1.13686838e-13 9.70712914,4.72256641 9.70712914,10.5273437 L9.70712914,13.234375 L6.44008332,13.234375 C3.16472138,13.234375 0.5,15.9329844 0.5,19.25 L0.5,70.984375 C0.5,74.3013906 3.16472138,77 6.44008332,77 L51.5599167,77 C54.8352786,77 57.5,74.3013906 57.5,70.984375 L57.5,30.3789062 C57.5,30.3525879 57.499109,30.328375 57.497921,30.3058164 Z M42.0557834,18.3690117 L52.4295449,28.875 L45.3969317,28.875 C43.5546149,28.875 42.0556349,27.3571074 42.0556349,25.4912109 L42.0556349,18.3690117 L42.0557834,18.3690117 Z M20.1021264,3.0078125 C24.1963289,3.0078125 27.5272306,6.38107422 27.5272306,10.5273437 L27.5272306,24.2965078 C27.5272306,26.8211152 25.4991376,28.875 23.0062332,28.875 C20.5133287,28.875 18.4852358,26.8211152 18.4852358,24.2965078 L18.4852358,10.4159043 C18.4852358,9.53130664 19.1958182,8.8116875 20.069159,8.8116875 C20.9426482,8.8116875 21.6532307,9.53130664 21.6532307,10.4159043 L21.6532307,24.1125801 C21.6532307,24.9431875 22.318223,25.6164863 23.1382515,25.6164863 C23.95828,25.6164863 24.6232724,24.9431875 24.6232724,24.1125801 L24.6232724,10.4159043 C24.6232724,7.87279883 22.5803292,5.803875 20.069159,5.803875 C17.5581373,5.803875 15.5151941,7.87279883 15.5151941,10.4159043 L15.5151941,13.234375 L12.6771708,13.234375 L12.6771708,10.5273437 L12.6770223,10.5273437 C12.6770223,6.38107422 16.007924,3.0078125 20.1021264,3.0078125 Z M54.5296614,70.984375 C54.5296614,72.6428828 53.1975977,73.9921875 51.5599167,73.9921875 L6.43993482,73.9921875 C4.80225384,73.9921875 3.46989316,72.6428828 3.46989316,70.984375 L3.46989316,19.25 C3.46989316,17.5914922 4.80225384,16.2421875 6.43993482,16.2421875 L15.5150456,16.2421875 L15.5150456,24.2965078 C15.5150456,28.479623 18.8754992,31.8828125 23.0060847,31.8828125 C27.1366701,31.8828125 30.4971237,28.479623 30.4971237,24.2965078 L30.4971237,16.2421875 L39.0854447,16.2421875 L39.0854447,25.4912109 C39.0854447,29.0156152 41.9166369,31.8828125 45.3967832,31.8828125 L54.5296614,31.8828125 L54.5296614,70.984375 Z" id="Shape"></path>
                </g>
            </g>
        </g>
    </g>
</svg>