<?xml version="1.0" encoding="UTF-8"?>
<svg width="87px" height="93px" viewBox="0 0 87 93" version="1.1" xmlns="http://www.w3.org/2000/svg" xmlns:xlink="http://www.w3.org/1999/xlink">
    <title>signature_icon</title>
    <g id="Project-Details-(General,-Feedback,-History)" stroke="none" stroke-width="1" fill="none" fill-rule="evenodd" opacity="0.5">
        <g id="Project_Details_General_Empty" transform="translate(-292.000000, -1397.000000)" fill="#CBD2D5" fill-rule="nonzero">
            <g id="signature" transform="translate(10.000000, 1398.949313)">
                <g id="signature_icon" transform="translate(326.000000, 45.342895) rotate(-14.000000) translate(-326.000000, -45.342895) translate(291.500000, 6.842895)">
                    <path d="M67.1048484,35.6670308 L65.2643071,34.2112268 L65.7374881,33.5419507 L67.7459276,30.7013108 C69.0074488,28.9168194 68.6517523,26.4561461 66.9362132,25.0995213 C65.220969,23.7428964 62.7358107,23.9568297 61.2792682,25.5868953 L58.961271,28.1812769 C58.9611236,28.1815707 58.9608288,28.1817177 58.960534,28.1820115 L56.1858655,31.2874232 C56.1857181,31.2877171 56.1854233,31.287864 56.1852759,31.2881579 L46.8743713,41.7091761 C44.7027506,44.1397283 42.7395655,46.7806873 41.0395043,49.558881 C40.7216918,50.0784332 40.8864944,50.7565253 41.4077305,51.073458 C41.5875688,51.1827755 41.7859805,51.2347895 41.9823285,51.2347895 C42.3549769,51.2347895 42.7189283,51.0468633 42.9272164,50.7064214 C44.5582904,48.0407777 46.441875,45.5067853 48.5254928,43.1748246 L57.1423987,33.5306369 L60.9250458,36.5223231 L53.4614634,47.0786658 C51.657037,49.6310247 49.6095343,52.0352761 47.3758547,54.2248595 L41.9519624,59.5416005 C41.9072976,59.5852394 41.8362468,59.5892066 41.7873072,59.5504165 L38.9946549,57.3415849 C38.9455679,57.3027948 38.9331856,57.2332959 38.9659103,57.1799595 L40.1904319,55.1790371 C40.5082444,54.6593379 40.3434418,53.9812459 39.8222057,53.6643132 C39.3012644,53.3475274 38.6206798,53.5115037 38.3025724,54.0312028 L37.0781982,56.0321253 C36.7811703,56.5174423 36.6844703,57.0740214 36.7668716,57.6018018 C35.770096,58.5478982 34.7538624,59.0085306 33.6071724,59.0415903 C32.9224604,59.0612792 32.3515476,59.5880311 32.2788753,60.2668578 L31.5091086,67.4678572 C31.3883811,68.5951209 32.4881952,69.502574 33.5953798,69.1180525 L40.4559144,66.733784 C41.1027425,66.5089777 41.4874785,65.8348529 41.3509783,65.1660176 C41.1223478,64.0453658 41.3415441,62.9542474 42.0395229,61.7715903 C42.5740258,61.7316247 43.0955568,61.5113734 43.5022566,61.1128933 L48.9262963,55.7960053 C51.2543173,53.5138546 53.3884962,51.0080732 55.2689852,48.3480129 L63.3342888,36.940639 L63.9886347,36.0152601 L65.7307073,37.3930432 C66.0065084,37.6112375 66.0529421,38.0125093 65.8340406,38.2874194 L60.6561729,44.7918133 C60.2765962,45.2686082 60.3567864,45.9616873 60.8349793,46.3400377 C61.0382555,46.5007815 61.2805949,46.5788025 61.5214602,46.5788025 C61.8472328,46.5788025 62.1699098,46.4358375 62.3882217,46.161662 L67.5662368,39.6571212 C68.54267,38.4306783 68.3357086,36.6403096 67.1048484,35.6670308 L67.1048484,35.6670308 Z M35.7649367,66.0302727 L37.6004662,63.7244659 C37.9800428,63.247671 37.8998527,62.5545919 37.4216598,62.1762415 C36.9433195,61.7978911 36.2478466,61.8776753 35.8684174,62.3544702 L34.0328879,64.660277 L34.4046519,61.1837146 C35.7230727,60.9991678 36.9291683,60.4145246 38.0566952,59.4133287 L39.9763949,60.9317259 C39.2546833,62.2536748 38.9576554,63.5572571 39.0770562,64.879059 L35.7649367,66.0302727 Z M62.9303898,27.0526908 C63.6080262,26.2945207 64.7640029,26.1949007 65.5619247,26.8259744 C66.3598464,27.4570481 66.525386,28.6016499 65.9385531,29.4316698 L64.6043596,31.3187198 L61.3899719,28.776793 L62.9303898,27.0526908 Z M59.9170671,30.4253721 L63.3283925,33.1233409 L62.2008656,34.7179959 L58.6154509,31.8822047 L59.9170671,30.4253721 Z" id="Shape"></path>
                    <path d="M6.56983361,66.8750109 C6.7822435,67.4514894 7.41493202,67.7445586 7.98316511,67.5289179 C8.04073552,67.5072201 9.03642522,67.1278054 10.319967,66.5155107 C11.0370335,67.0775735 11.9096719,67.4165648 12.8808979,67.485225 C15.6324117,67.6794651 16.9486206,67.1273596 17.8196477,66.7620634 C18.5513632,66.4551729 18.6279772,66.4230721 19.5546703,67.0863418 C20.7350834,67.9310707 22.4024279,68.2077922 23.8027218,68.2077922 C24.516712,68.2077922 25.1612662,68.1358624 25.6358924,68.0304943 C26.2285893,67.8989698 26.6040421,67.3048061 26.4743988,66.7033604 C26.3447555,66.1020632 25.7593832,65.7211624 25.1662468,65.8526869 C24.2284205,66.0607482 21.9913781,66.1019146 20.8213658,65.2647651 C19.0394665,63.9894979 18.1436827,64.2139069 16.9801159,64.7019592 C16.2182236,65.0214819 15.26985,65.4194735 13.03354,65.2613469 C12.9312903,65.2542134 12.8332888,65.2420269 12.7392424,65.2255306 C15.1552952,63.767764 16.3858077,62.365728 16.493624,60.9538834 C16.556761,60.1272856 16.2630494,58.9316762 14.5056138,57.9294152 C12.1871232,56.6073342 10.6463458,57.3951435 9.93425989,57.9824708 C8.46365095,59.1954682 7.9031818,61.7002291 8.60149765,63.938077 C8.68704757,64.2125693 8.7892973,64.4736863 8.90678194,64.7208334 C7.93438408,65.1659359 7.22552099,65.436267 7.2140948,65.4405769 C6.6458617,65.6565148 6.35742371,66.2985325 6.56983361,66.8750109 L6.56983361,66.8750109 Z M11.3204908,59.7123519 C11.5394927,59.5317844 11.8002442,59.4414264 12.1011338,59.4414264 C12.4809813,59.4414264 12.9248447,59.5852859 13.4290619,59.8728564 C13.7008001,60.0277134 14.3299728,60.4265967 14.3028723,60.7816384 C14.2640525,61.2915372 13.3533268,62.3655794 10.9144217,63.7144111 C10.9024095,63.7209502 10.8902509,63.7277865 10.8782388,63.7343255 C10.7992809,63.5666876 10.7402456,63.4061831 10.6962987,63.2652959 C10.2805613,61.9329605 10.5605029,60.3390623 11.3204908,59.7123519 L11.3204908,59.7123519 Z" id="Shape"></path>
                    <path d="M37.3977933,22.2077922 L7.60220671,22.2077922 C6.99349468,22.2077922 6.5,22.6555255 6.5,23.2077922 C6.5,23.7600589 6.99349468,24.2077922 7.60220671,24.2077922 L37.3977933,24.2077922 C38.0066523,24.2077922 38.5,23.7600589 38.5,23.2077922 C38.5,22.6555255 38.0066523,22.2077922 37.3977933,22.2077922 Z" id="Path"></path>
                    <path d="M37.3977933,29.2077922 L7.60220671,29.2077922 C6.99349468,29.2077922 6.5,29.6555255 6.5,30.2077922 C6.5,30.7600589 6.99349468,31.2077922 7.60220671,31.2077922 L37.3977933,31.2077922 C38.0066523,31.2077922 38.5,30.7600589 38.5,30.2077922 C38.5,29.6555255 38.0066523,29.2077922 37.3977933,29.2077922 Z" id="Path"></path>
                    <path d="M38.5,36.2077922 C38.5,35.6555255 38.0066523,35.2077922 37.3977933,35.2077922 L7.60220671,35.2077922 C6.99349468,35.2077922 6.5,35.6555255 6.5,36.2077922 C6.5,36.7600589 6.99349468,37.2077922 7.60220671,37.2077922 L37.3977933,37.2077922 C38.0066523,37.2077922 38.5,36.7600589 38.5,36.2077922 Z" id="Path"></path>
                    <path d="M7.6121766,44.2077922 L20.3878234,44.2077922 C21.0020415,44.2077922 21.5,43.7600589 21.5,43.2077922 C21.5,42.6555255 21.0020415,42.2077922 20.3878234,42.2077922 L7.6121766,42.2077922 C6.99795854,42.2077922 6.5,42.6555255 6.5,43.2077922 C6.5,43.7600589 6.99795854,44.2077922 7.6121766,44.2077922 Z" id="Path"></path>
                    <path d="M57.4010983,47.8933391 C56.793984,47.8933391 56.30205,48.3917922 56.30205,49.0066203 L56.30205,70.1369953 C56.30205,72.2566828 54.5996975,73.9812297 52.5071097,73.9812297 L6.49318337,73.9812297 C4.40059551,73.9812297 2.6980965,72.2566828 2.6980965,70.1369953 L2.6980965,6.27858908 C2.6980965,4.15890158 4.40059551,2.43435471 6.49318337,2.43435471 L42.3095539,2.43435471 C42.457559,2.43435471 42.6032196,2.4493469 42.7462424,2.47369065 L42.7462424,10.0949172 C42.7462424,13.4423313 45.4348075,16.1655656 48.7392792,16.1655656 L56.2630704,16.1655656 C56.287103,16.3105891 56.3019035,16.4579875 56.3019035,16.6079094 L56.3019035,25.1822531 C56.3019035,25.7970813 56.7938375,26.2955344 57.4009517,26.2955344 C58.008066,26.2955344 58.5,25.7970813 58.5,25.1822531 L58.5,16.6079094 C58.5,15.3073 58,14.0846203 57.0921924,13.16505 L45.7083972,1.63383127 C44.8005834,0.714260958 43.5933888,0.207792208 42.3095539,0.207792208 L6.49318337,0.207792208 C3.1885651,0.207792208 0.5,2.93117502 0.5,6.27858908 L0.5,70.1369953 C0.5,73.4844094 3.1885651,76.2077922 6.49318337,76.2077922 L52.5069631,76.2077922 C55.8115814,76.2077922 58.5,73.4844094 58.5,70.1369953 L58.5,49.0066203 C58.5,48.3917922 58.0082125,47.8933391 57.4010983,47.8933391 Z M54.7477027,13.9391516 L48.7394257,13.9391516 C46.6468379,13.9391516 44.9444854,12.2146047 44.9444854,10.0950656 L44.9444854,4.00883127 L54.7477027,13.9391516 Z" id="Shape" stroke="#CBD2D5"></path>
                    <path d="M8.34211538,14.2077922 L19.6578846,14.2077922 C20.6737019,14.2077922 21.5,13.3607925 21.5,12.3195255 L21.5,8.09605892 C21.5,7.05479189 20.6737019,6.20779221 19.6578846,6.20779221 L8.34211538,6.20779221 C7.32644231,6.20779221 6.5,7.05479189 6.5,8.09605892 L6.5,12.3195255 C6.5,13.3606447 7.32644231,14.2077922 8.34211538,14.2077922 Z M8.66346154,8.4254559 L19.3365385,8.4254559 L19.3365385,11.9901285 L8.66346154,11.9901285 L8.66346154,8.4254559 Z" id="Shape"></path>
                </g>
            </g>
        </g>
    </g>
</svg>