<?xml version="1.0" encoding="UTF-8"?>
<svg width="91px" height="90px" viewBox="0 0 91 90" version="1.1" xmlns="http://www.w3.org/2000/svg" xmlns:xlink="http://www.w3.org/1999/xlink">
    <title>Group 3</title>
    <g id="Project-Dashboard---Web" stroke="none" stroke-width="1" fill="none" fill-rule="evenodd">
        <g id="Project_Dashboard_Empty_Screen" transform="translate(-293.000000, -662.000000)">
            <g id="Group-3" transform="translate(293.777692, 662.750000)">
                <path d="M45,76 C66.0074272,76 64.8806557,59.8193548 84.650048,39.4709677 C104.41944,19.1225806 64.5690147,0 43.5615875,0 C22.5541603,0 -1.43439447,11.6191284 0.0670783634,35.3032258 C1.5685512,58.9873232 23.9925728,76 45,76 Z" id="Oval" fill-opacity="0.160456731" fill="#86C04F"></path>
                <g id="requirement" transform="translate(9.222308, 19.017578)" fill-rule="nonzero">
                    <g id="Group" transform="translate(1.000000, 1.232422)">
                        <path d="M46.1440964,56.431851 L16.5156396,56.431851 C12.1896091,56.431851 8.68276142,52.9707277 8.68276142,48.7011028 L8.68276142,13.8486862 C8.68276142,9.57906129 12.1896091,6.11793806 16.5156396,6.11793806 L46.1440964,6.11793806 C50.4701269,6.11793806 53.9769746,9.57906129 53.9769746,13.8486862 L53.9769746,48.7011028 C53.9769746,52.9705925 50.4701269,56.431851 46.1440964,56.431851 Z" id="Path" fill="#F9F6F9"></path>
                        <path d="M20.2410914,56.4322568 L16.516736,56.4322568 C12.189335,56.4322568 8.68276142,52.9715394 8.68276142,48.7004265 L8.68276142,13.8486862 C8.68276142,9.57906129 12.189198,6.11834387 16.516736,6.11834387 L20.2410914,6.11834387 C15.9150609,6.11834387 12.4086244,9.57906129 12.4086244,13.8486862 L12.4086244,48.7005617 C12.4086244,52.9715394 15.9150609,56.4322568 20.2410914,56.4322568 Z" id="Path" fill="#DDDAEC"></path>
                        <path d="M37.986533,4.5726271 C36.9354518,1.95909828 34.3523604,0.110108817 31.3300051,0.110108817 C28.3076497,0.110108817 25.7244213,1.95909828 24.6733401,4.5726271 L22.1509645,4.5726271 C19.4445228,4.5726271 17.250533,6.73801032 17.250533,9.40916366 C17.250533,12.080317 19.4445228,14.2457002 22.1509645,14.2457002 L40.5090457,14.2457002 C43.2154873,14.2457002 45.4094772,12.080317 45.4094772,9.40916366 C45.4094772,6.73801032 43.2154873,4.5726271 40.5090457,4.5726271 L37.986533,4.5726271 Z" id="Path" fill="#FFE07D"></path>
                        <path d="M33.6647513,0.495760215 C31.6899137,1.1660172 30.1091117,2.66587785 29.341736,4.57235656 L26.8189492,4.57235656 C24.1126447,4.57235656 21.9182437,6.73801032 21.9182437,9.40916366 C21.9182437,10.7438611 22.4675635,11.9535701 23.3543147,12.8286241 C24.2409289,13.705166 25.4649746,14.2458355 26.8189492,14.2458355 L22.1511015,14.2458355 C20.7986345,14.2458355 19.5730812,13.705166 18.686467,12.8286241 C17.7983452,11.9535701 17.2503959,10.7438611 17.2503959,9.40916366 C17.2503959,6.73814559 19.444797,4.57235656 22.1511015,4.57235656 L24.6723807,4.57235656 C25.7246954,1.95882774 28.3072386,0.10983828 31.3300051,0.10983828 C32.1480914,0.10983828 32.9332843,0.245377634 33.6647513,0.495760215 Z" id="Path" fill="#F1CE64"></path>
                        <ellipse id="Oval" fill="#407093" cx="31.329868" cy="7.17776925" rx="2.9299797" ry="2.89177677"></ellipse>
                        <g transform="translate(0.000000, 16.502796)">
                            <ellipse id="Oval" fill="#E28086" cx="8.68276142" cy="8.55818753" rx="8.6142335" ry="8.5019157"></ellipse>
                            <path d="M10.9223909,16.7696811 C10.2083299,16.9594632 9.45822335,17.0606443 8.68330964,17.0606443 C3.9255533,17.0606443 0.0686649746,13.2540445 0.0686649746,8.5583228 C0.0686649746,3.86260108 3.9255533,0.0560012903 8.68330964,0.0560012903 C9.45822335,0.0560012903 10.2083299,0.157047097 10.9223909,0.346964516 C7.24956853,1.31805935 4.54545685,4.62619355 4.54545685,8.55845806 C4.54545685,12.4907226 7.24956853,15.798451 10.9223909,16.7696811 L10.9223909,16.7696811 Z" id="Path" fill="#DD636E"></path>
                        </g>
                        <g transform="translate(16.994924, 33.140860)">
                            <ellipse id="Oval" fill="#A2E19F" cx="8.68591371" cy="8.63028581" rx="8.6142335" ry="8.5019157"></ellipse>
                            <path d="M10.9254061,16.8416441 C10.2113452,17.0314262 9.46123858,17.1326073 8.68632487,17.1326073 C3.92856853,17.1326073 0.071680203,13.3260075 0.071680203,8.63028581 C0.071680203,3.93456409 3.92856853,0.127964301 8.68632487,0.127964301 C9.46123858,0.127964301 10.2113452,0.229010108 10.9254061,0.418927527 C7.25258376,1.39002237 4.54847208,4.69815656 4.54847208,8.63042108 C4.54847208,12.5625503 7.25258376,15.8705492 10.9254061,16.8416441 Z" id="Path" fill="#97CF92"></path>
                        </g>
                        <g transform="translate(33.989848, 49.914194)">
                            <ellipse id="Oval" fill="#9DC6FB" cx="8.68906599" cy="8.56698" rx="8.6142335" ry="8.5019157"></ellipse>
                            <path d="M10.9285584,16.7784735 C10.2144975,16.9682557 9.46439086,17.0694368 8.68947716,17.0694368 C3.93172081,17.0694368 0.0748324873,13.262837 0.0748324873,8.56711527 C0.0748324873,3.87139355 3.93172081,0.0647937634 8.68947716,0.0647937634 C9.46439086,0.0647937634 10.2144975,0.16583957 10.9285584,0.355756989 C7.25573604,1.32685183 4.55162437,4.63498602 4.55162437,8.56725054 C4.55162437,12.4993798 7.25573604,15.8073787 10.9285584,16.7784735 Z" id="Path" fill="#80B4FB"></path>
                        </g>
                    </g>
                    <g id="Group" transform="translate(0.000000, 0.232422)" fill="#000000">
                        <path d="M46.9888672,6.05035294 L45.364375,6.05035294 C44.310957,5.09206471 42.9067188,4.5057 41.3663086,4.5057 L39.514043,4.5057 C38.1364648,1.77275882 35.3409766,0.0423470588 32.2098438,0.0423470588 C29.0788477,0.0423470588 26.2832227,1.77275882 24.9056445,4.5057 L23.0535156,4.5057 C21.512832,4.5057 20.1083203,5.0922 19.0547656,6.05089412 L17.4321875,6.05089412 C12.5584375,6.05089412 8.59332031,9.97469412 8.59332031,14.7976588 L8.59332031,16.5489059 C3.76988281,17.0573412 0,21.1071 0,26.0127294 C0,30.9183588 3.76988281,34.9681176 8.59318359,35.4762824 L8.59318359,49.6565941 C8.59318359,54.4803706 12.5583008,58.4048471 17.4320508,58.4048471 L33.9702344,58.4048471 C33.9329102,58.7448412 33.9124023,59.0897059 33.9124023,59.4393059 C33.9124023,64.6876353 38.2272461,68.9576529 43.5308398,68.9576529 C48.8344336,68.9576529 53.1492773,64.6877706 53.1492773,59.4393059 C53.1492773,58.3707529 52.9677148,57.3440059 52.6380859,56.3843647 C54.6486719,54.7294471 55.8278711,52.2695294 55.8278711,49.657 L55.8278711,21.1031765 C55.8278711,20.5427882 55.3684961,20.0884706 54.802207,20.0884706 C54.235918,20.0884706 53.7768164,20.5427882 53.7768164,21.1031765 L53.7768164,49.657 C53.7768164,51.4825235 53.0255469,53.2099588 51.7268555,54.4644059 C50.0326367,51.7410706 46.992832,49.9209588 43.5307031,49.9209588 C39.3101953,49.9209588 35.718457,52.6261647 34.4264648,56.3754353 L17.4320508,56.3754353 C13.6891016,56.3754353 10.6439648,53.3613529 10.6439648,49.6565941 L10.6439648,35.4762824 C15.4671289,34.9679824 19.2370117,30.9182235 19.2370117,26.0127294 C19.2370117,21.1072353 15.4672656,17.0574765 10.6439648,16.5491765 L10.6439648,14.7979294 C10.6439648,11.0939824 13.6891016,8.08057647 17.4320508,8.08057647 L17.605957,8.08057647 C17.3058594,8.78099412 17.1397461,9.55068235 17.1397461,10.3579824 C17.1397461,13.5848824 19.7926367,16.2101294 23.0535156,16.2101294 L41.3664453,16.2101294 C44.6273242,16.2101294 47.2800781,13.5848824 47.2800781,10.3579824 C47.2800781,9.55027647 47.1138281,8.78045294 46.8135938,8.0799 L46.9890039,8.0799 C50.7319531,8.0799 53.7770898,11.0938471 53.7770898,14.7986059 L53.7770898,17.0470588 C53.7770898,17.6074471 54.2361914,18.0617647 54.8024805,18.0617647 C55.3687695,18.0617647 55.8278711,17.6074471 55.8278711,17.0470588 L55.8278711,14.7984706 C55.8278711,9.97482941 51.8626172,6.05035294 46.9888672,6.05035294 L46.9888672,6.05035294 Z M43.5308398,51.9503706 C47.7036328,51.9503706 51.0984961,55.3098588 51.0984961,59.4391706 C51.0984961,63.5684824 47.7036328,66.9281059 43.5308398,66.9281059 C39.3580469,66.9281059 35.9631836,63.5686176 35.9631836,59.4391706 C35.9631836,55.3098588 39.3580469,51.9503706 43.5308398,51.9503706 Z M17.1862305,26.0127294 C17.1862305,30.1420412 13.7913672,33.5016647 9.6184375,33.5016647 C5.44564453,33.5016647 2.05078125,30.1420412 2.05078125,26.0127294 C2.05078125,21.8834176 5.44564453,18.5239294 9.6184375,18.5239294 C13.7913672,18.5239294 17.1862305,21.8834176 17.1862305,26.0127294 Z M41.3663086,14.1807176 L23.0535156,14.1807176 C20.9234375,14.1807176 19.1905273,12.4658647 19.1905273,10.3579824 C19.1905273,8.2501 20.9234375,6.53524706 23.0535156,6.53524706 L25.5696875,6.53524706 C25.9899609,6.53524706 26.3677148,6.28143529 26.5227539,5.8949 C27.4542188,3.57244118 29.6865625,2.07189412 32.2098438,2.07189412 C34.7332617,2.07189412 36.9656055,3.57244118 37.8970703,5.8949 C38.0521094,6.28143529 38.4298633,6.53524706 38.8501367,6.53524706 L41.3663086,6.53524706 C43.4963867,6.53524706 45.2291602,8.2501 45.2291602,10.3579824 C45.2291602,12.4658647 43.4963867,14.1807176 41.3663086,14.1807176 Z" id="Shape"></path>
                        <path d="M32.2098437,4.21914706 C30.0327344,4.21914706 28.2616797,5.97188235 28.2616797,8.12630588 C28.2616797,10.2807294 30.0328711,12.0333294 32.2098437,12.0333294 C34.3868164,12.0333294 36.1580078,10.2805941 36.1580078,8.12630588 C36.1580078,5.97201765 34.3869531,4.21914706 32.2098437,4.21914706 L32.2098437,4.21914706 Z M32.2098437,10.0039176 C31.1635352,10.0039176 30.3124609,9.16157647 30.3124609,8.12630588 C30.3124609,7.09103529 31.1636719,6.24855882 32.2098437,6.24855882 C33.2560156,6.24855882 34.1072266,7.0909 34.1072266,8.12630588 C34.1072266,9.16171176 33.2561523,10.0039176 32.2098437,10.0039176 L32.2098437,10.0039176 Z" id="Shape"></path>
                        <path d="M6.94654297,21.6282529 C6.94654297,22.1886412 7.40564453,22.6429588 7.97193359,22.6429588 L8.85910156,22.6429588 L8.85910156,30.4831176 C8.85910156,31.0435059 9.31820313,31.4978235 9.88449219,31.4978235 C10.4507813,31.4978235 10.9098828,31.0435059 10.9098828,30.4831176 L10.9098828,21.6282529 C10.9098828,21.0678647 10.4507813,20.6135471 9.88449219,20.6135471 L7.97193359,20.6135471 C7.40564453,20.6135471 6.94654297,21.0678647 6.94654297,21.6282529 Z" id="Path"></path>
                        <path d="M29.6079492,41.0493176 C29.6157422,41.0160353 29.6218945,40.9824824 29.6261328,40.9486588 L29.670293,40.6062294 C29.6758984,40.5636118 29.6786328,40.5207235 29.6786328,40.4777 C29.6786328,38.6688176 28.191543,37.1970882 26.3636133,37.1970882 C24.7831445,37.1970882 23.4151367,38.3098824 23.1108008,39.8429 C23.0016992,40.3927353 23.3635937,40.9262 23.9193555,41.0341647 C24.4748437,41.1417235 25.0139258,40.7840059 25.1231641,40.2340353 C25.2391016,39.6502412 25.7608203,39.2265 26.3636133,39.2265 C27.0420117,39.2265 27.5973633,39.7580706 27.6266211,40.4225 L27.5990039,40.6362647 C27.4875781,41.0721824 27.2248047,41.5848118 26.8175195,42.1607588 C25.400293,44.1646 24.5545508,45.2603471 24.1002344,45.8491471 C23.5373633,46.5785176 23.280332,46.9114765 23.4550586,47.4732176 C23.5575977,47.8034706 23.8103906,48.0567412 24.1482227,48.1683588 C24.2849414,48.2134118 24.4163281,48.2568412 26.1552539,48.2568412 C26.8381641,48.2568412 27.7689453,48.2502118 29.0453516,48.2342471 C29.6116406,48.2272118 30.0648633,47.7672118 30.0577539,47.2068235 C30.0506445,46.6464353 29.5870313,46.1968529 29.0195117,46.2049706 C28.1240039,46.2162 27.1739453,46.2235059 26.3845313,46.2249941 C26.8806836,45.5682765 27.5690625,44.6373176 28.4976563,43.3242882 C29.0703711,42.5146882 29.4438867,41.7491941 29.6079492,41.0493176 L29.6079492,41.0493176 Z" id="Path"></path>
                        <path d="M20.4506641,48.7769118 C20.0999805,49.2168882 20.1761328,49.8549353 20.6207422,50.2021 C22.3320508,51.5378588 24.390625,52.2438235 26.5741602,52.2438235 C31.8783008,52.2438235 36.1936914,47.9740765 36.1936914,42.7258824 C36.1936914,37.4776882 31.8784375,33.2079412 26.5741602,33.2079412 C21.2707031,33.2079412 16.9559961,37.4776882 16.9559961,42.7258824 C16.9559961,44.1146765 17.2522656,45.4543588 17.8363281,46.7077235 C18.0733984,47.2165647 18.6824805,47.4388529 19.1969531,47.2041176 C19.7111523,46.9693824 19.9357812,46.3666471 19.6985742,45.8576706 C19.2394727,44.8727294 19.0066406,43.8190588 19.0066406,42.7257471 C19.0066406,38.5965706 22.4013672,35.2372176 26.5740234,35.2372176 C30.7473633,35.2372176 34.1427734,38.5965706 34.1427734,42.7257471 C34.1427734,46.8549235 30.7475,50.2142765 26.5740234,50.2142765 C24.8560156,50.2142765 23.2364453,49.6590294 21.8907227,48.6084706 C21.4461133,48.2615765 20.8013477,48.3369353 20.4506641,48.7769118 Z" id="Path"></path>
                        <path d="M43.5832031,63.0850765 C42.9559375,63.0850765 42.4176758,62.6227765 42.3312695,62.0098941 C42.3230664,61.9521235 42.3189648,61.893 42.3189648,61.8340118 C42.3189648,61.2736235 41.8598633,60.8193059 41.2935742,60.8193059 C40.7272852,60.8193059 40.2681836,61.2736235 40.2681836,61.8340118 C40.2681836,61.9863529 40.2789844,62.1399118 40.3000391,62.2903588 C40.5271289,63.9003588 41.9384766,65.1146235 43.5832031,65.1146235 C45.4111328,65.1146235 46.8982227,63.6430294 46.8982227,61.8341471 C46.8982227,60.9562235 46.5479492,60.1577176 45.9783789,59.5683765 C46.5479492,58.9790353 46.8982227,58.1805294 46.8982227,57.3026059 C46.8982227,55.4937235 45.4111328,54.0221294 43.5832031,54.0221294 C42.0025977,54.0221294 40.6345898,55.1347882 40.3303906,56.6679412 C40.2212891,57.2177765 40.5833203,57.7511059 41.1389453,57.8592059 C41.6945703,57.9670353 42.2336523,57.6089118 42.3427539,57.0590765 C42.4585547,56.4752824 42.9802734,56.0516765 43.5832031,56.0516765 C44.280332,56.0516765 44.8474414,56.6128765 44.8474414,57.3027412 C44.8474414,57.9926059 44.280332,58.5538059 43.5832031,58.5538059 C43.0169141,58.5538059 42.5578125,59.0081235 42.5578125,59.5685118 C42.5578125,60.1289 43.0169141,60.5832176 43.5832031,60.5832176 C44.280332,60.5832176 44.8474414,61.1444176 44.8474414,61.8342824 C44.8474414,62.5241471 44.2801953,63.0850765 43.5832031,63.0850765 L43.5832031,63.0850765 Z" id="Path"></path>
                        <path d="M41.0793359,23.4480941 C41.0793359,22.8877059 40.6202344,22.4333882 40.0539453,22.4333882 L24.1169141,22.4333882 C23.550625,22.4333882 23.0915234,22.8877059 23.0915234,23.4480941 C23.0915234,24.0084824 23.550625,24.4628 24.1169141,24.4628 L40.0539453,24.4628 C40.6202344,24.4628 41.0793359,24.0084824 41.0793359,23.4480941 Z" id="Path"></path>
                        <path d="M34.7514453,29.5920706 C35.3177344,29.5920706 35.7768359,29.1377529 35.7768359,28.5773647 C35.7768359,28.0169765 35.3177344,27.5626588 34.7514453,27.5626588 L24.1169141,27.5626588 C23.550625,27.5626588 23.0915234,28.0169765 23.0915234,28.5773647 C23.0915234,29.1377529 23.550625,29.5920706 24.1169141,29.5920706 L34.7514453,29.5920706 Z" id="Path"></path>
                        <path d="M52.0928516,40.1613824 C52.0928516,39.6009941 51.63375,39.1466765 51.0674609,39.1466765 L38.2763281,39.1466765 C37.7100391,39.1466765 37.2509375,39.6009941 37.2509375,40.1613824 C37.2509375,40.7217706 37.7100391,41.1760882 38.2763281,41.1760882 L51.0674609,41.1760882 C51.63375,41.1760882 52.0928516,40.7217706 52.0928516,40.1613824 Z" id="Path"></path>
                        <path d="M38.2763281,44.2759471 C37.7100391,44.2759471 37.2509375,44.7302647 37.2509375,45.2906529 C37.2509375,45.8510412 37.7100391,46.3053588 38.2763281,46.3053588 L45.7649609,46.3053588 C46.33125,46.3053588 46.7903516,45.8510412 46.7903516,45.2906529 C46.7903516,44.7302647 46.33125,44.2759471 45.7649609,44.2759471 L38.2763281,44.2759471 Z" id="Path"></path>
                        <path d="M68.9746094,55.8599647 L56.9743945,55.8599647 C56.4081055,55.8599647 55.9490039,56.3142824 55.9490039,56.8746706 C55.9490039,57.4350588 56.4081055,57.8893765 56.9743945,57.8893765 L68.9746094,57.8893765 C69.5408984,57.8893765 70,57.4350588 70,56.8746706 C70,56.3142824 69.5408984,55.8599647 68.9746094,55.8599647 Z" id="Path"></path>
                        <path d="M63.6721094,60.9891 L56.9742578,60.9891 C56.4079688,60.9891 55.9488672,61.4434176 55.9488672,62.0038059 C55.9488672,62.5641941 56.4079688,63.0185118 56.9742578,63.0185118 L63.6721094,63.0185118 C64.2383984,63.0185118 64.6975,62.5641941 64.6975,62.0038059 C64.6975,61.4434176 64.2383984,60.9891 63.6721094,60.9891 Z" id="Path"></path>
                    </g>
                </g>
            </g>
        </g>
    </g>
</svg>