<?xml version="1.0" encoding="UTF-8"?>
<svg width="91px" height="84px" viewBox="0 0 91 84" version="1.1" xmlns="http://www.w3.org/2000/svg" xmlns:xlink="http://www.w3.org/1999/xlink">
    <title>feedback-icon</title>
    <g id="Project-Details---Web" stroke="none" stroke-width="1" fill="none" fill-rule="evenodd">
        <g id="Project_Details" transform="translate(-1075.000000, -790.000000)">
            <g id="feedback-icon" transform="translate(1075.777692, 790.750000)">
                <path d="M45,76 C66.0074272,76 64.8806557,59.8193548 84.650048,39.4709677 C104.41944,19.1225806 64.5690147,0 43.5615875,0 C22.5541603,0 -1.43439447,11.6191284 0.0670783634,35.3032258 C1.5685512,58.9873232 23.9925728,76 45,76 Z" id="Oval" fill-opacity="0.160456731" fill="#86C04F"></path>
                <g id="thumbs-up" transform="translate(14.222308, 16.239011)" fill-rule="nonzero">
                    <g id="Group" transform="translate(1.000000, 1.010989)">
                        <path d="M20.0066114,61.7979116 C20.8402364,62.286008 21.7905818,62.5435502 22.7585455,62.5435502 L38.490675,62.5435502 L43.7072114,62.5435502 C45.6798,62.5435502 47.3219182,60.9601285 47.2869409,59.003502 C47.2640114,57.7177189 46.5368727,56.6031165 45.4722682,56.0208193 C45.3936341,55.9778956 45.3429818,55.8978313 45.3429818,55.8087711 L45.3429818,55.8020884 C45.3429818,55.6907952 45.4200614,55.5933815 45.5296568,55.5694779 C47.1022091,55.2267309 48.2792591,53.8369799 48.2792591,52.174008 C48.2792591,51.1560482 47.8382864,50.2405141 47.1356318,49.604498 C48.5478068,49.0639679 49.5502295,47.7055743 49.5502295,46.1139277 C49.5502295,44.859502 48.9272455,43.7501687 47.9721068,43.0714859 C49.3040932,42.4107952 50.2193318,41.0457189 50.2193318,39.4678233 C50.2193318,37.243502 48.4016795,35.4403213 46.1595068,35.4403213 L37.7869841,35.4403213 C37.1943136,35.4403213 36.8003659,34.8320643 37.0465023,34.2973173 L38.0402455,32.1390522 C38.6167227,30.8869398 38.9151955,29.5263614 38.9151955,28.1497189 L38.9151955,23.6616225 C38.9151955,23.0146827 38.7875932,22.3739116 38.5396432,21.7755502 C37.8974864,20.2261847 36.375975,19.2147791 34.68735,19.2147791 L34.6788,19.2147791 C33.5297318,19.2147791 32.4918136,19.895261 32.0412545,20.9438072 L30.2934273,25.0119197 L23.712,28.8133655 L22.6330159,29.2681767 C21.1495909,29.8935261 19.948575,31.0364016 19.2570614,32.4806426 L11.4836864,48.3728193 L11.4836864,57.0906988 L20.0066114,61.7979116 Z" id="Path" fill="#FFE5C2"></path>
                        <path d="M44.0304273,57.5721124 L38.8138909,57.5721124 L23.0817614,57.5721124 C22.1137977,57.5721124 21.1634523,57.3146988 20.3298273,56.8264739 L11.8067727,52.119261 L11.8067727,47.711743 L11.4834273,48.3728193 L11.4834273,57.0906988 L20.0064818,61.7979116 C20.8401068,62.286008 21.7904523,62.5435502 22.7584159,62.5435502 L38.4905455,62.5435502 L43.7069523,62.5435502 C45.6795409,62.5435502 47.3216591,60.9601285 47.2866818,59.003502 C47.2710068,58.1238233 46.9253795,57.3245944 46.3679455,56.7208353 C45.7371886,57.2512129 44.9175545,57.5721124 44.0304273,57.5721124 L44.0304273,57.5721124 Z" id="Path" fill="#FED2A4"></path>
                        <g id="Path">
                            <path d="M1.77205227,63.8731566 L14.884125,63.8731566 C16.4884159,63.8731566 17.7887932,62.583004 17.7887932,60.9916145 L17.7887932,34.532755 C17.7887932,32.9412369 16.4882864,31.6512129 14.884125,31.6512129 L1.77205227,31.6512129 C0.799036364,31.6512129 0.0102340909,32.4337349 0.0102340909,33.399004 L0.0102340909,62.1252369 C0.0102340909,63.0906345 0.798906818,63.8731566 1.77205227,63.8731566 Z" fill="#F37C7C"></path>
                            <path d="M14.884125,31.6512129 L14.3130886,31.6512129 L14.3130886,53.2262811 C14.3130886,55.7094297 12.2838886,57.7224739 9.78081136,57.7224739 L0.0101045455,57.7224739 L0.0101045455,62.1253655 C0.0101045455,63.0906345 0.798906818,63.8731566 1.77192273,63.8731566 L14.8839955,63.8731566 C16.4882864,63.8731566 17.7886636,62.583004 17.7886636,60.9916145 L17.7886636,34.532755 C17.7886636,32.9413655 16.4882864,31.6512129 14.884125,31.6512129 L14.884125,31.6512129 Z" fill="#EE6161"></path>
                            <g transform="translate(11.400000, 0.000000)" fill="#FEE45A">
                                <path d="M26.4160023,13.9989076 L23.3825659,12.4348916 C23.0904409,12.2842731 22.7424818,12.2859438 22.4517818,12.439261 L19.4333727,14.0315502 C18.7014409,14.4176064 17.841,13.8035663 17.9772818,12.9923855 L18.5393795,9.64703614 C18.5935295,9.32497992 18.4843227,8.99701205 18.2476432,8.77018474 L15.7883523,6.41439357 C15.1920545,5.84314859 15.5148818,4.84163855 16.3346455,4.7195502 L19.7153932,4.21603213 C20.0409409,4.16758233 20.3215364,3.96324498 20.46585,3.66971888 L21.9644318,0.621493976 C22.3278068,-0.117590361 23.3877477,-0.12260241 23.7581182,0.613140562 L25.2854591,3.64722892 C25.4324932,3.93934137 25.7150318,4.14097992 26.0410977,4.1864739 L29.4265091,4.65837751 C30.2474386,4.77275502 30.5797227,5.77130924 29.9888659,6.34808032 L27.5521159,8.72674699 C27.3175091,8.95575904 27.2115409,9.28462651 27.2686705,9.60629719 L27.8623773,12.946249 C28.0060432,13.7560161 27.1514318,14.3780241 26.4160023,13.9989076 Z"></path>
                                <path d="M8.81181136,19.2104096 L6.39034773,17.9618956 C6.15716591,17.8417349 5.87929091,17.8430201 5.64740455,17.9653655 L3.23785909,19.236498 C2.65360909,19.5446747 1.96675909,19.0545221 2.07557727,18.4070683 L2.52419318,15.7366747 C2.56733182,15.4795181 2.48027727,15.2178635 2.29127045,15.0367871 L0.328138636,13.156241 C-0.147811364,12.7002731 0.109854545,11.9007871 0.764188636,11.803245 L3.46287955,11.4013815 C3.72274773,11.3626988 3.94673182,11.1996145 4.06189773,10.9653333 L5.25812045,8.53204819 C5.54817273,7.94204016 6.39423409,7.93805622 6.68998636,8.52536546 L7.90926818,10.9473414 C8.02663636,11.1805944 8.252175,11.341494 8.51243182,11.3777349 L11.2148795,11.7544096 C11.8701205,11.8457831 12.1354295,12.6428273 11.6637545,13.1032932 L9.7185,15.0020884 C9.53117727,15.1849639 9.44658409,15.4475181 9.49218409,15.7041606 L9.96619091,18.3703133 C10.0810977,19.0164819 9.39891136,19.5130602 8.81181136,19.2104096 L8.81181136,19.2104096 Z"></path>
                                <path d="M36.7979045,19.2104096 L39.2193682,17.9618956 C39.45255,17.8417349 39.730425,17.8430201 39.9623114,17.9653655 L42.3718568,19.236498 C42.9561068,19.5446747 43.6429568,19.0545221 43.5341386,18.4070683 L43.0855227,15.7366747 C43.0423841,15.4795181 43.1294386,15.2178635 43.3184455,15.0367871 L45.2815773,13.156241 C45.7575273,12.7002731 45.4998614,11.9007871 44.8455273,11.803245 L42.1468364,11.4013815 C41.8869682,11.3626988 41.6629841,11.1996145 41.5478182,10.9653333 L40.3515955,8.53204819 C40.0615432,7.94204016 39.2154818,7.93805622 38.9197295,8.52536546 L37.7004477,10.9473414 C37.5830795,11.1805944 37.3575409,11.341494 37.0972841,11.3777349 L34.3948364,11.7544096 C33.7395955,11.8457831 33.4742864,12.6428273 33.9459614,13.1032932 L35.8912159,15.0020884 C36.0785386,15.1849639 36.1631318,15.4475181 36.1175318,15.7041606 L35.643525,18.3703133 C35.5286182,19.0164819 36.2108045,19.5130602 36.7979045,19.2104096 L36.7979045,19.2104096 Z"></path>
                            </g>
                        </g>
                    </g>
                    <g id="Group" transform="translate(0.000000, 0.010989)" fill="#000000">
                        <path d="M52.2773714,40.4907422 C52.2773714,37.7300859 50.0181253,35.4841523 47.2411055,35.4841523 L46.1875341,35.4841523 C45.6504396,35.4841523 45.2150066,35.9170195 45.2150066,36.4509492 C45.2150066,36.9848789 45.6504396,37.4177461 46.1875341,37.4177461 L47.2411055,37.4177461 C48.945622,37.4177461 50.3323165,38.7962695 50.3323165,40.4907422 C50.3323165,41.6621133 49.676444,42.7159219 48.6205385,43.2406992 C48.3156835,43.3921641 48.1127495,43.6913555 48.0859077,44.0292187 C48.0589363,44.3669531 48.2119473,44.6941172 48.4890527,44.8914727 C49.2238945,45.4145742 49.6624396,46.2616172 49.6624396,47.1572578 C49.6624396,48.3002695 48.9413429,49.3447969 47.8680615,49.7563945 C47.553611,49.8770508 47.3244835,50.1507188 47.2622418,50.4799453 C47.2001297,50.8091719 47.3137209,51.1469063 47.5626879,51.3726211 C48.0886308,51.8495742 48.3903736,52.5286523 48.3903736,53.2355742 C48.3903736,54.4102969 47.5541297,55.445543 46.4021385,55.697168 C45.8511692,55.8173086 45.4512659,56.3125664 45.4512659,56.8815586 C45.4512659,57.3211289 45.6934901,57.7269258 46.0835385,57.9407813 C46.8777692,58.3760977 47.3811495,59.2045781 47.3970989,60.1029258 C47.4090286,60.7673086 47.1522813,61.3995938 46.6741868,61.88325 C46.1801429,62.3831484 45.4921121,62.6698359 44.7863165,62.6698359 L23.8178462,62.6698359 C23.023356,62.6698359 22.241833,62.4576562 21.5575626,62.0561133 L19.8158308,61.0341445 L19.8158308,56.1666445 C19.8158308,55.6327148 19.3803978,55.1998477 18.8433033,55.1998477 C18.3062088,55.1998477 17.8707758,55.6327148 17.8707758,56.1666445 L17.8707758,62.079832 C17.8707758,63.1404727 17.0027626,64.0033711 15.9358352,64.0033711 L1.04760659,64.0033711 C0.510512088,64.0033711 0.0750791209,64.4362383 0.0750791209,64.970168 C0.0750791209,65.5040977 0.510512088,65.9369648 1.04760659,65.9369648 L15.9358352,65.9369648 C17.689367,65.9369648 19.174222,64.7742305 19.6530945,63.1837852 L20.568956,63.7210664 C21.5523758,64.2981797 22.6758396,64.6031719 23.8178462,64.6031719 L44.7865758,64.6031719 C46.0107934,64.6031719 47.2045385,64.1055938 48.0619187,63.2380547 C48.9086659,62.3813438 49.3632901,61.2556055 49.3421538,60.0683789 C49.3220549,58.9427695 48.8698945,57.8794219 48.1092484,57.0820078 C49.4518549,56.2976133 50.3355582,54.8400703 50.3355582,53.2353164 C50.3355582,52.4206289 50.1090242,51.627082 49.6936901,50.9398828 C50.8723934,50.0613867 51.6076242,48.6594023 51.6076242,47.1568711 C51.6076242,46.0875938 51.2391011,45.0594375 50.5864703,44.2355977 C51.6514527,43.3005117 52.2773714,41.9518945 52.2773714,40.4907422 L52.2773714,40.4907422 Z" id="Path"></path>
                        <path d="M30.0377429,10.3947422 C30.0446154,10.4013164 30.0477275,10.4107266 30.0461714,10.4198789 L29.4835319,13.7754375 C29.359178,14.5174219 29.6635143,15.2514141 30.2777626,15.6905977 C30.6222967,15.9370664 31.0240154,16.0619766 31.4285868,16.0619766 C31.7452418,16.0619766 32.0634527,15.9852773 32.3568967,15.8302031 L35.3784747,14.2329258 C35.386644,14.2286719 35.3964989,14.2284141 35.4047978,14.2329258 L38.4411582,15.8017148 C39.1125912,16.1484727 39.9086374,16.0877578 40.5188659,15.6426445 C41.1289648,15.1975312 41.4262989,14.4609609 41.2949429,13.7200078 L40.7005341,10.3699922 C40.698978,10.3608398 40.7019604,10.3513008 40.7087033,10.3448555 L43.1478022,7.95892969 C43.6872308,7.43131641 43.8748637,6.65968359 43.6376967,5.94528516 C43.4005297,5.23088672 42.787578,4.72209375 42.0382132,4.61742187 L38.6495385,4.14407812 C38.6402022,4.14278906 38.6321626,4.13698828 38.6280132,4.12860937 L37.0992,1.08539063 C36.7624462,0.415207031 36.0867341,0 35.3338681,0 C35.3306264,0 35.3273846,0 35.3242725,0 C34.5675165,0.00348046875 33.8914154,0.425777344 33.5597187,1.10189063 L32.0596923,4.15941797 C32.0555429,4.16779687 32.047633,4.17359766 32.0382967,4.17501563 L28.6541604,4.67994141 C27.905833,4.79170312 27.2978088,5.30616797 27.0673846,6.02275781 C26.8369604,6.73934766 27.0319846,7.50904688 27.5763407,8.03150391 L30.0377429,10.3947422 Z M28.9286725,6.595875 C28.9286725,6.595875 28.932433,6.5938125 28.9428066,6.59226563 L32.3270725,6.08733984 C32.9694593,5.99130469 33.523022,5.58757031 33.807778,5.00710547 L35.3078044,1.94944922 C35.3123429,1.94016797 35.3154549,1.93720313 35.3154549,1.93720313 C35.3224571,1.93230469 35.3443714,1.93230469 35.3511143,1.93694531 C35.3511143,1.93694531 35.3542264,1.93991016 35.3590242,1.94932031 L36.887967,4.99266797 C37.1781692,5.57055469 37.735622,5.96913281 38.3790462,6.05898047 L41.7677209,6.53232422 C41.7779648,6.53374219 41.7817253,6.53567578 41.7818549,6.53567578 C41.7885978,6.54083203 41.7953407,6.56145703 41.7931363,6.56944922 C41.7931363,6.56944922 41.7913209,6.57331641 41.7838,6.58066406 L39.3447011,8.96646094 C38.8815187,9.4194375 38.6723604,10.0697695 38.7851736,10.705793 L39.3794527,14.0558086 C39.3812681,14.0661211 39.3806198,14.0702461 39.3806198,14.0702461 C39.377767,14.0782383 39.3602615,14.0911289 39.351833,14.0913867 C39.351833,14.0913867 39.3475538,14.0908711 39.3382176,14.0859727 L36.3018571,12.5171836 C35.7253429,12.2192812 35.0386088,12.2225039 34.4650769,12.5258203 L31.4436286,14.1229687 C31.4345516,14.1278672 31.4302725,14.1285117 31.4301429,14.1285117 C31.4215846,14.1283828 31.4038198,14.1156211 31.400967,14.1077578 C31.400967,14.1077578 31.400189,14.1036328 31.4018747,14.0931914 L31.9645143,10.7376328 C32.071233,10.1005781 31.8559802,9.4524375 31.3886484,9.00371484 L28.9271165,6.64073438 C28.9195956,6.63351563 28.9176505,6.62977734 28.9176505,6.62977734 C28.9154462,6.62178516 28.9220593,6.60103125 28.9286725,6.595875 Z" id="Shape"></path>
                        <path d="M14.0006352,16.6173047 L13.5666286,19.2063867 C13.4549824,19.8724453 13.7281978,20.5312852 14.2796857,20.9256094 C14.5889495,21.1468125 14.9496923,21.2589609 15.3126396,21.2589609 C15.5968769,21.2589609 15.8826703,21.190125 16.1459011,21.0509062 L18.477244,19.8185625 L20.8199978,21.0289922 C21.4227055,21.3403008 22.1374484,21.2856445 22.6850462,20.886293 C23.2327736,20.4866836 23.4997648,19.8253945 23.3817648,19.1603672 L22.9231209,16.5754102 L24.805156,14.7343711 C25.2893451,14.2607695 25.4579165,13.5681562 25.2448681,12.9268477 C25.0318198,12.2855391 24.4817582,11.8289531 23.8090286,11.7349805 L21.1942264,11.3697891 L20.0144857,9.021375 C19.7122242,8.41976953 19.1056264,8.04710156 18.4296549,8.04710156 C18.4269319,8.04710156 18.4239495,8.04710156 18.4210967,8.04710156 C17.7418835,8.05019531 17.1348967,8.42917969 16.837044,9.03619922 L15.6796066,11.3955703 L13.0684352,11.7852539 C12.3966132,11.885543 11.8507011,12.3474141 11.6438769,12.9906562 C11.4370527,13.6338984 11.6121077,14.3248359 12.1007055,14.7937969 L14.0006352,16.6173047 Z M16.059022,13.2943594 C16.6356659,13.20825 17.1325626,12.8457656 17.3882725,12.3247266 L18.4316,10.1979023 L19.4950264,12.3148008 C19.7555341,12.8335195 20.2559319,13.1913633 20.8336132,13.2720586 L23.1906308,13.6012852 L21.4941538,15.2608242 C21.0784308,15.6673945 20.8906681,16.251082 20.9919407,16.8221367 L21.4053297,19.152375 L19.2931297,18.0610547 C18.7757451,17.7937031 18.1592923,17.7967969 17.6445011,18.068918 L15.5428044,19.179832 L15.9341495,16.8458555 C16.0299758,16.2738984 15.836767,15.6920156 15.4172835,15.2894414 L13.7049868,13.6457578 L16.059022,13.2943594 Z" id="Shape"></path>
                        <path d="M58.905989,12.9907852 C58.6991648,12.347543 58.1532527,11.8856719 57.4814308,11.7853828 L54.8702593,11.3956992 L53.712822,9.03632813 C53.4150989,8.4294375 52.8079824,8.05045313 52.1287692,8.04723047 C51.4533165,8.04813281 50.8389385,8.41744922 50.5353802,9.02163281 L49.3556396,11.369918 L46.740967,11.7351094 C46.0682374,11.829082 45.5180462,12.285668 45.3051275,12.9269766 C45.0922088,13.5682852 45.2606505,14.2608984 45.7448396,14.7345 L47.6268747,16.5755391 L47.1682308,19.1604961 C47.0502308,19.8255234 47.317222,20.4869414 47.8649495,20.8864219 C48.4126769,21.2859023 49.1272901,21.3405586 49.7299978,21.0291211 L52.0727516,19.8186914 L54.4040945,21.0510352 C54.6675846,21.1903828 54.9531187,21.2592188 55.2374857,21.2592188 C55.600433,21.2592188 55.9613055,21.1469414 56.2704396,20.9258672 C56.8219275,20.531543 57.0951429,19.8727031 56.9834967,19.2066445 L56.5494901,16.6174336 L58.4489011,14.7940547 C58.9377582,14.3248359 59.1129429,13.6340273 58.905989,12.9907852 L58.905989,12.9907852 Z M55.1331011,15.2893125 C54.7136176,15.6920156 54.5202791,16.2738984 54.6162352,16.8458555 L55.0075802,19.179832 L52.9060132,18.068918 C52.6460242,17.9315039 52.3602308,17.862668 52.074178,17.862668 C51.7938308,17.862668 51.5133538,17.9287969 51.2571253,18.0611836 L49.1450549,19.152375 L49.558444,16.8220078 C49.6597165,16.2509531 49.4719538,15.6673945 49.0562308,15.2609531 L47.3596242,13.6012852 L49.7166418,13.2720586 C50.2943231,13.1913633 50.7945912,12.8335195 51.0552286,12.3148008 L52.1186549,10.1979023 L53.1619824,12.3248555 C53.4176923,12.8458945 53.914589,13.2083789 54.491233,13.2944883 L56.8451385,13.6457578 L55.1331011,15.2893125 Z" id="Shape"></path>
                        <path d="M1.04760659,33.6169453 L5.19731648,33.6169453 C5.73441099,33.6169453 6.16984396,33.1840781 6.16984396,32.6501484 C6.16984396,32.1162188 5.73441099,31.6833516 5.19731648,31.6833516 L1.04760659,31.6833516 C0.510512088,31.6833516 0.0750791209,32.1162188 0.0750791209,32.6501484 C0.0750791209,33.1840781 0.510382418,33.6169453 1.04760659,33.6169453 Z" id="Path"></path>
                        <path d="M9.34183956,33.6169453 L15.9358352,33.6169453 C17.0027626,33.6169453 17.8707758,34.4798438 17.8707758,35.5404844 L17.8707758,52.046543 C17.8707758,52.5804727 18.3062088,53.0133398 18.8433033,53.0133398 C19.3803978,53.0133398 19.8158308,52.5804727 19.8158308,52.046543 L19.8158308,36.7750195 L21.1911143,33.8969297 C21.7818923,32.6605898 22.8051209,31.6848984 24.0722593,31.1495508 L25.1522835,30.6933516 C25.1897582,30.6774961 25.2260659,30.6593203 25.2613363,30.639082 L31.8491077,26.8260352 C32.0301275,26.7212344 32.1722462,26.5611328 32.2543275,26.3695781 L34.0038396,22.2890508 C34.3024703,21.5925703 34.9875187,21.1424297 35.7577604,21.1424297 C37.0590022,21.1424297 38.2195516,21.9154805 38.714244,23.1118594 C38.915233,23.597707 39.0171538,24.1104961 39.0171538,24.635918 L39.0171538,29.1378398 C39.0171538,30.3887461 38.7521077,31.5998203 38.2292769,32.7375469 L37.2345758,34.9023984 C36.9806813,35.4550195 37.0263253,36.0901406 37.3567253,36.6012539 C37.6871253,37.1123672 38.2492462,37.4174883 38.8603824,37.4174883 L42.0427516,37.4174883 C42.5798462,37.4174883 43.0152791,36.9846211 43.0152791,36.4506914 C43.0152791,35.9167617 42.5798462,35.4838945 42.0427516,35.4838945 L39.1057187,35.4838945 L39.9983692,33.5410195 C40.6379033,32.1493477 40.9620791,30.6678281 40.9620791,29.1378398 L40.9620791,24.635918 C40.9620791,23.8569375 40.8110132,23.0967773 40.5130308,22.3765781 C39.717244,20.4522656 37.8506396,19.2088359 35.7490725,19.2088359 C34.2065143,19.2088359 32.8191714,20.120332 32.214389,21.5308242 L30.5913055,25.3162852 L24.3351011,28.9373906 L23.3112242,29.3698711 C21.6059297,30.0903281 20.2289604,31.4033672 19.4339516,33.0670312 L19.2266088,33.5008008 C18.5403934,32.4103828 17.322011,31.6830937 15.9354462,31.6830937 L9.34145055,31.6830937 C8.80435604,31.6830937 8.36892308,32.1159609 8.36892308,32.6498906 C8.36892308,33.1838203 8.80474505,33.6169453 9.34183956,33.6169453 L9.34183956,33.6169453 Z" id="Path"></path>
                    </g>
                </g>
            </g>
        </g>
    </g>
</svg>