<?xml version="1.0" encoding="UTF-8"?>
<svg width="25px" height="24px" viewBox="0 0 25 24" version="1.1" xmlns="http://www.w3.org/2000/svg" xmlns:xlink="http://www.w3.org/1999/xlink">
    <title>icon / other / view / list  copy</title>
    <g id="Project-List---Filter---Web" stroke="none" stroke-width="1" fill="none" fill-rule="evenodd">
        <g id="Project_List_Status_Dropdown-Copy-7" transform="translate(-1268.000000, -280.000000)">
            <g id="icon-/-other-/-view-/-list--copy" transform="translate(1268.500000, 280.000000)">
                <rect id="Rectangle" x="0" y="0" width="24" height="24"></rect>
                <path d="M10,13 C10.5522847,13 11,13.4477153 11,14 L11,19 C11,19.5522847 10.5522847,20 10,20 L5,20 C4.44771525,20 4,19.5522847 4,19 L4,14 C4,13.4477153 4.44771525,13 5,13 L10,13 Z M19,13 C19.5522847,13 20,13.4477153 20,14 L20,19 C20,19.5522847 19.5522847,20 19,20 L14,20 C13.4477153,20 13,19.5522847 13,19 L13,14 C13,13.4477153 13.4477153,13 14,13 L19,13 Z M10,4 C10.5522847,4 11,4.44771525 11,5 L11,10 C11,10.5522847 10.5522847,11 10,11 L5,11 C4.44771525,11 4,10.5522847 4,10 L4,5 C4,4.44771525 4.44771525,4 5,4 L10,4 Z M19,4 C19.5522847,4 20,4.44771525 20,5 L20,10 C20,10.5522847 19.5522847,11 19,11 L14,11 C13.4477153,11 13,10.5522847 13,10 L13,5 C13,4.44771525 13.4477153,4 14,4 L19,4 Z" id="Combined-shape" fill="#AAADB8"></path>
            </g>
        </g>
    </g>
</svg>