<?xml version="1.0" encoding="UTF-8"?>
<svg width="91px" height="89px" viewBox="0 0 91 89" version="1.1" xmlns="http://www.w3.org/2000/svg" xmlns:xlink="http://www.w3.org/1999/xlink">
    <title>history_icon</title>
    <g id="Project-Details---Web" stroke="none" stroke-width="1" fill="none" fill-rule="evenodd">
        <g id="Project_Details" transform="translate(-875.000000, -1051.000000)">
            <g id="history_icon" transform="translate(875.777692, 1051.000000)">
                <path d="M45,76 C66.0074272,76 64.8806557,59.8193548 84.650048,39.4709677 C104.41944,19.1225806 64.5690147,0 43.5615875,0 C22.5541603,0 -1.43439447,11.6191284 0.0670783634,35.3032258 C1.5685512,58.9873232 23.9925728,76 45,76 Z" id="Oval" fill-opacity="0.160456731" fill="#86C04F"></path>
                <g id="clock" transform="translate(11.222308, 25.250000)" fill-rule="nonzero">
                    <path d="M46.9876862,6.87258118 C46.9876862,4.18153051 49.2317772,2 52,2 L12.986006,2 C10.7845502,2 9,3.73480072 9,5.87488463 L9,50 L46.9876862,50 L46.9876862,14.2269946 L46.9876862,6.87258118 Z" id="Path" fill="#FFE07D"></path>
                    <path d="M49.0132919,2 C46.2810827,2 44.0661865,4.15104688 44.0661865,6.80449412 L44.0661865,11.6089882 L44.0661865,14.0561406 L44.0661865,25.8574102 C44.0661865,26.9784507 43.3079814,27.9756652 42.1971316,28.2799686 C34.0046616,30.5233955 28,37.8345077 28,46.5085614 C28,48.7889403 28.4152615,50.9751038 29.1758604,53 L44.0661865,53 L47.0528946,53 L47.0528946,14.0562629 L47.0528946,6.80461648 C47.0528946,4.15116923 49.2677908,2 52,2 L49.0132919,2 L49.0132919,2 Z" id="Path" fill="#FFD064"></path>
                    <path d="M42,53 L8.01432661,53 C4.14050188,53 1,49.8067749 1,45.8676288 L1,44 L42,44 L42,53 L42,53 Z" id="Path" fill="#EAB14D"></path>
                    <path d="M27,46.1840606 C27,48.5784335 27.4286049,50.8738812 28.2136436,53 L42,53 L42,44 L27.1213253,44 C27.0420022,44.7173997 27,45.4458481 27,46.1840606 Z" id="Path" fill="#E49542"></path>
                    <ellipse id="Oval" fill="#DD636E" cx="47" cy="46.5" rx="17" ry="16.5"></ellipse>
                    <path d="M47.3143391,30 C46.8719628,30 46.4337244,30.0173594 46,30.0508383 C54.6007579,30.713596 61.3711965,37.8247563 61.3711965,46.5 C61.3711965,55.1752437 54.6008833,62.286404 46,62.9491617 C46.4338498,62.9826406 46.8720882,63 47.3144644,63 C56.5296339,63 64,55.6127009 64,46.5 C64,37.3872991 56.5295085,30 47.3143391,30 L47.3143391,30 Z" id="Path" fill="#DA4A54"></path>
                    <ellipse id="Oval" fill="#F4FBFF" cx="47" cy="47" rx="13" ry="12"></ellipse>
                    <path d="M46.6823182,35 C46.111576,35 45.5501414,35.0386882 45,35.1118332 C51.0068788,35.9111078 55.6354877,40.9286081 55.6354877,47 C55.6354877,53.0713919 51.0068788,58.0888922 45,58.8881668 C45.5501414,58.9613118 46.111576,59 46.6823182,59 C53.4851832,59 59,53.6274142 59,47 C59,40.3725858 53.4851832,35 46.6823182,35 Z" id="Path" fill="#DAF1F4"></path>
                    <path d="M56.1100443,14 L47,14 L47,6.78212154 C47,4.14103033 49.2385779,2 52,2 C54.7614221,2 57,4.14103033 57,6.78212154 L57,13.1488247 C57.0001273,13.6189258 56.6015637,14 56.1100443,14 L56.1100443,14 Z" id="Path" fill="#EAB14D"></path>
                    <path d="M54,2.26099135 C53.4606489,2.09268055 52.8824366,2 52.28002,2 C49.3639472,2 47,4.14103033 47,6.78212154 L47,14 L50.4400945,14 L50.4400945,6.78224333 C50.43996,4.68676166 51.9286551,2.90731945 54,2.26099135 Z" id="Path" fill="#E49542"></path>
                    <g id="Group" fill="#000000">
                        <path d="M40.6780664,7.42083398 L15.702959,7.42083398 C15.1769922,7.42083398 14.7508105,7.83390234 14.7508105,8.34368555 C14.7508105,8.85346875 15.1769922,9.26653711 15.702959,9.26653711 L40.6780664,9.26653711 C41.2040332,9.26653711 41.6302148,8.85346875 41.6302148,8.34368555 C41.6302148,7.83390234 41.2040332,7.42083398 40.6780664,7.42083398 Z" id="Path"></path>
                        <path d="M40.6780664,16.6232637 L15.702959,16.6232637 C15.1769922,16.6232637 14.7508105,17.036332 14.7508105,17.5461152 C14.7508105,18.0558984 15.1769922,18.4689668 15.702959,18.4689668 L40.6780664,18.4689668 C41.2040332,18.4689668 41.6302148,18.0558984 41.6302148,17.5461152 C41.6302148,17.036332 41.2040332,16.6232637 40.6780664,16.6232637 Z" id="Path"></path>
                        <path d="M40.6780664,25.8258164 L15.702959,25.8258164 C15.1769922,25.8258164 14.7508105,26.2388848 14.7508105,26.748668 C14.7508105,27.2584512 15.1769922,27.6715195 15.702959,27.6715195 L40.6780664,27.6715195 C41.2040332,27.6715195 41.6302148,27.2584512 41.6302148,26.748668 C41.6302148,26.2388848 41.2040332,25.8258164 40.6780664,25.8258164 Z" id="Path"></path>
                        <path d="M47.1544531,32.5568496 C39.6813574,32.5568496 33.6015723,38.4495645 33.6015723,45.6927188 C33.6015723,52.935873 39.6812305,58.8287109 47.1544531,58.8287109 C54.6276758,58.8287109 60.707334,52.935873 60.707334,45.6927188 C60.707334,38.4495645 54.6275488,32.5568496 47.1544531,32.5568496 L47.1544531,32.5568496 Z M47.1544531,56.9830078 C40.7313867,56.9830078 35.5058691,51.9182754 35.5058691,45.6927188 C35.5058691,39.4672852 40.7313867,34.4025527 47.1544531,34.4025527 C53.5775195,34.4025527 58.8030371,39.4672852 58.8030371,45.6927188 C58.8030371,51.9182754 53.5773926,56.9830078 47.1544531,56.9830078 Z" id="Shape"></path>
                        <path d="M47.1544531,38.1612656 C47.6804199,38.1612656 48.1066016,37.7481973 48.1066016,37.2384141 L48.1066016,36.815625 C48.1066016,36.3058418 47.6804199,35.8927734 47.1544531,35.8927734 C46.6284863,35.8927734 46.2023047,36.3058418 46.2023047,36.815625 L46.2023047,37.2384141 C46.2023047,37.7481973 46.6284863,38.1612656 47.1544531,38.1612656 Z" id="Path"></path>
                        <path d="M52.9577344,38.7630879 L52.6492383,39.0619687 C52.2772656,39.422373 52.2771387,40.0067227 52.6488574,40.3670039 C53.0203223,40.7272852 53.6232227,40.7279004 53.9953223,40.367373 L54.3038184,40.0684922 C54.675791,39.7080879 54.675918,39.1237383 54.3041992,38.763457 C53.9323535,38.4028066 53.3294531,38.4029297 52.9577344,38.7630879 Z" id="Path"></path>
                        <path d="M54.925,45.6927187 C54.925,46.202502 55.3511816,46.6155703 55.8771484,46.6155703 L56.3133594,46.6155703 C56.8393262,46.6155703 57.2655078,46.202502 57.2655078,45.6927187 C57.2655078,45.1829355 56.8393262,44.7698672 56.3133594,44.7698672 L55.8771484,44.7698672 C55.3511816,44.7698672 54.925,45.1830586 54.925,45.6927187 Z" id="Path"></path>
                        <path d="M38.4316309,44.7698672 L37.9954199,44.7698672 C37.4694531,44.7698672 37.0432715,45.1829355 37.0432715,45.6927187 C37.0432715,46.202502 37.4694531,46.6155703 37.9954199,46.6155703 L38.4316309,46.6155703 C38.9575977,46.6155703 39.3837793,46.202502 39.3837793,45.6927187 C39.3837793,45.1829355 38.9574707,44.7698672 38.4316309,44.7698672 Z" id="Path"></path>
                        <path d="M53.9953223,51.0183105 C53.6233496,50.6577832 53.0204492,50.6579063 52.6488574,51.0186797 C52.2771387,51.379084 52.2772656,51.9634336 52.6492383,52.3237148 L52.9577344,52.6225957 C53.3291992,52.9826309 53.9323535,52.983 54.3041992,52.6222266 C54.675918,52.2618223 54.675791,51.6774727 54.3038184,51.3171914 L53.9953223,51.0183105 Z" id="Path"></path>
                        <path d="M47.1544531,53.2242949 C46.6284863,53.2242949 46.2023047,53.6373633 46.2023047,54.1471465 L46.2023047,54.5699355 C46.2023047,55.0797187 46.6284863,55.4927871 47.1544531,55.4927871 C47.6804199,55.4927871 48.1066016,55.0797187 48.1066016,54.5699355 L48.1066016,54.1471465 C48.1066016,53.6374863 47.680293,53.2242949 47.1544531,53.2242949 Z" id="Path"></path>
                        <path d="M40.3130762,51.0183105 L40.004707,51.3171914 C39.6328613,51.6777188 39.6328613,52.2619453 40.004707,52.6223496 C40.3768066,52.9827539 40.9794531,52.9826309 41.3512988,52.6223496 L41.659668,52.3234688 C42.0315137,51.9629414 42.0315137,51.3787148 41.659668,51.0183105 C41.2878223,50.6581523 40.6850488,50.6581523 40.3130762,51.0183105 Z" id="Path"></path>
                        <path d="M41.3514258,38.7632109 C40.9794531,38.4029297 40.3766797,38.4029297 40.004834,38.7632109 C39.6329883,39.1237383 39.6329883,39.7079648 40.004834,40.0683691 L40.3132031,40.36725 C40.6853027,40.7276543 41.2879492,40.7275312 41.6597949,40.36725 C42.0316406,40.0067227 42.0316406,39.4224961 41.6597949,39.0620918 L41.3514258,38.7632109 Z" id="Path"></path>
                        <path d="M49.7496289,44.7698672 L48.1066016,44.7698672 L48.1066016,40.8220312 C48.1066016,40.312248 47.6804199,39.8991797 47.1544531,39.8991797 C46.6284863,39.8991797 46.2023047,40.312248 46.2023047,40.8220312 L46.2023047,45.6927187 C46.2023047,46.202502 46.6284863,46.6155703 47.1544531,46.6155703 L49.7496289,46.6155703 C50.2755957,46.6155703 50.7017773,46.202502 50.7017773,45.6927187 C50.7017773,45.1829355 50.2755957,44.7698672 49.7496289,44.7698672 Z" id="Path"></path>
                        <path d="M61.6384082,35.5881094 C61.3306738,35.1746719 60.7357715,35.0815254 60.309082,35.3792988 C59.8826465,35.6774414 59.7861621,36.2541621 60.0936426,36.6677227 C62.0576074,39.3076934 63.0957031,42.4285313 63.0957031,45.6927188 C63.0957031,54.2123613 55.9444336,61.1435918 47.1544531,61.1435918 C38.3643457,61.1435918 31.2130762,54.2123613 31.2130762,45.6927188 C31.2130762,37.1731992 38.3643457,30.2419688 47.1544531,30.2419688 C51.030332,30.2419688 54.7668164,31.6071738 57.6754395,34.0859531 C58.0701367,34.4221172 58.6720215,34.3850801 59.0192383,34.0021582 C59.3663281,33.6194824 59.3278613,33.0362402 58.9327832,32.699707 C55.8018652,30.0314355 51.8142676,28.5166055 47.6551563,28.4037715 L47.6551563,13.9804629 L55.7856152,13.9804629 C56.7998438,13.9804629 57.6250391,13.1806582 57.6250391,12.1976367 L57.6250391,5.76511523 C57.6250391,2.52270703 54.8539063,0.0105820313 51.7858301,0.0105820313 L29.4078027,0.0105820313 C28.8818359,0.0105820313 28.4556543,0.423650391 28.4556543,0.933433594 C28.4556543,1.4432168 28.8818359,1.85628516 29.4078027,1.85628516 L47.3359961,1.85628516 C46.353252,2.88348047 45.7508594,4.25705273 45.7508594,5.76511523 L45.7508594,28.4495449 C40.6317285,28.8373887 36.1123242,31.3277344 33.1136914,35.0282461 L15.702959,35.0282461 C15.1769922,35.0282461 14.7508105,35.4413145 14.7508105,35.9510977 C14.7508105,36.4608809 15.1769922,36.8739492 15.702959,36.8739492 L31.8083594,36.8739492 C30.7283691,38.6326582 29.9604297,40.5910723 29.580459,42.6780703 L9.87492188,42.6780703 L9.87492188,4.77569531 C9.87492188,3.16599609 11.2262109,1.85628516 12.8870117,1.85628516 L25.6008594,1.85628516 C26.1268262,1.85628516 26.5530078,1.4432168 26.5530078,0.933433594 C26.5530078,0.423650391 26.1268262,0.0105820313 25.6008594,0.0105820313 L12.8870117,0.0105820313 C10.1760547,0.0105820313 7.970625,2.14815234 7.970625,4.77569531 L7.970625,42.6780703 L0.952148438,42.6780703 C0.426181641,42.6780703 0,43.0911387 0,43.6009219 L0,45.3896543 C0,49.6651641 3.58896484,53.1435762 8.00020508,53.1435762 L11.0666309,53.1435762 C11.5925977,53.1435762 12.0187793,52.7305078 12.0187793,52.2207246 C12.0187793,51.7109414 11.5925977,51.297873 11.0666309,51.297873 L8.00020508,51.297873 C4.63886719,51.297873 1.90429688,48.6474434 1.90429688,45.3896543 L1.90429688,44.5237734 L29.350293,44.5237734 C29.3235059,44.9102637 29.3086523,45.2998301 29.3086523,45.6927188 C29.3086523,47.6537168 29.6477441,49.5391641 30.270957,51.297873 L14.8735742,51.297873 C14.3476074,51.297873 13.9214258,51.7109414 13.9214258,52.2207246 C13.9214258,52.7305078 14.3476074,53.1435762 14.8735742,53.1435762 L31.0512109,53.1435762 C33.9284766,58.9617246 40.0651367,62.989418 47.1543262,62.989418 C56.9944629,62.989418 64.999873,55.230082 64.999873,45.6928418 C64.999873,42.0385957 63.8376172,38.5444336 61.6384082,35.5881094 Z M55.7207422,5.76511523 L55.7207422,12.1347598 L47.6551563,12.1347598 L47.6551563,5.76511523 C47.6551563,3.60970313 49.4642383,1.85628516 51.6880762,1.85628516 C53.9116602,1.85628516 55.7207422,3.60970313 55.7207422,5.76511523 Z" id="Shape"></path>
                    </g>
                </g>
            </g>
        </g>
    </g>
</svg>