<svg xmlns="http://www.w3.org/2000/svg" width="80" height="80" viewBox="0 0 80 80">
    <g fill="none" fill-rule="evenodd">
        <path d="M0 0H80V80H0z"/>
        <path fill="#E5E6E9" d="M19 64v3c0 1.105.895 2 2 2h45c1.105 0 2-.895 2-2V27c0-1.105-.895-2-2-2h-3v37.836C63 63.48 62.479 64 61.836 64H19z"/>
        <path fill="#CDD0D8" d="M58.629 13c.757 0 1.371.614 1.371 1.371V59.63c0 .757-.614 1.371-1.371 1.371H13.37C12.614 61 12 60.386 12 59.629V14.37c0-.757.614-1.371 1.371-1.371H58.63zm-29.3 10c-1.324 0-2.436.455-3.352 1.37l-2.575 2.558c-.937.915-1.402 2.026-1.402 3.35 0 1.324.46 2.442 1.387 3.369l3.641 3.641c.927.927 2.045 1.387 3.37 1.387 1.346 0 2.487-.482 3.437-1.455l.202-.206 1.949 1.95-.207.201c-.972.95-1.454 2.096-1.454 3.455 0 1.325.454 2.437 1.37 3.352l3.608 3.626c.915.937 2.032 1.402 3.367 1.402 1.325 0 2.437-.454 3.352-1.37l2.576-2.558c.937-.915 1.402-2.026 1.402-3.35 0-1.324-.46-2.442-1.387-3.369l-3.642-3.641c-.926-.927-2.044-1.387-3.369-1.387-1.347 0-2.487.482-3.437 1.455l-.202.206-1.95-1.95.207-.201c.972-.95 1.455-2.096 1.455-3.455 0-1.325-.455-2.437-1.37-3.352l-3.608-3.626C31.782 23.465 30.665 23 29.33 23zm12.093 15c.49 0 .905.172 1.247.516l3.817 3.83c.343.344.514.762.514 1.253 0 .478-.171.89-.513 1.233l-2.698 2.69c-.343.318-.758.478-1.248.478-.502 0-.917-.166-1.247-.497l-3.78-3.813c-.343-.344-.514-.76-.514-1.252 0-.515.202-.964.606-1.344l.34.35c.189.196.32.328.394.395.073.068.19.16.348.277.16.117.315.197.468.24.153.043.321.064.505.064.49 0 .905-.172 1.248-.516.342-.343.514-.76.514-1.252 0-.184-.022-.353-.065-.506-.043-.154-.122-.31-.239-.47-.116-.16-.207-.276-.275-.35-.067-.073-.199-.205-.395-.396l-.348-.34c.367-.394.807-.59 1.32-.59zM29.459 26c.489 0 .905.172 1.248.516l3.78 3.812c.342.343.513.76.513 1.252 0 .515-.202.964-.605 1.345l-.34-.35c-.19-.197-.32-.329-.394-.396-.073-.068-.19-.16-.349-.277-.159-.116-.315-.196-.468-.239-.152-.043-.32-.064-.504-.064-.49 0-.905.172-1.248.515-.343.344-.514.761-.514 1.253 0 .184.022.352.065.506.042.154.122.31.238.47.116.16.208.276.275.35.067.073.199.205.395.396.195.19.312.303.348.34-.367.38-.807.571-1.32.571-.502 0-.918-.166-1.249-.497l-3.816-3.83C25.17 31.327 25 30.91 25 30.42c0-.479.171-.89.514-1.234l2.697-2.689c.355-.332.77-.497 1.248-.497z"/>
    </g>
</svg>
