<?xml version="1.0" encoding="UTF-8"?>
<svg width="97px" height="101px" viewBox="0 0 97 101" version="1.1" xmlns="http://www.w3.org/2000/svg" xmlns:xlink="http://www.w3.org/1999/xlink">
    <title>phases_icon</title>
    <g id="Project-Dashboard---Web" stroke="none" stroke-width="1" fill="none" fill-rule="evenodd" opacity="0.5">
        <g id="Project_Dashboard_Empty_Screen" transform="translate(-838.000000, -481.000000)" fill="#CBD2D5" fill-rule="nonzero">
            <g id="phases_icon" transform="translate(886.734436, 531.561743) rotate(-20.000000) translate(-886.734436, -531.561743) translate(850.234436, 492.061743)">
                <g id="Group" transform="translate(0.941676, 0.062963)">
                    <path d="M2.11484483,21.4382695 L20.0225172,21.4382695 C20.9242241,21.4382695 21.6841034,20.8384922 21.915,20.0245195 L66.3320172,20.0245195 C66.7651034,20.0245195 67.1623448,19.7883867 67.3632931,19.411793 L71.7143276,11.2490625 C71.8912241,10.9172578 71.8912241,10.5216211 71.7143276,10.1896641 L67.3632931,2.02251562 C67.1626552,1.64561719 66.7652586,1.40948437 66.3320172,1.40948437 L47.0111897,1.40948437 C46.3683103,1.40948437 45.8473966,1.92105469 45.8473966,2.5520625 C45.8473966,3.18307031 46.3683103,3.69464062 47.0111897,3.69464062 L65.6275345,3.69464062 L69.3696724,10.7190586 L65.6276897,17.7393633 L21.9887069,17.7393633 L21.9887069,3.69448828 L41.5678966,3.69448828 C42.2107759,3.69448828 42.7316897,3.18291797 42.7316897,2.55191016 C42.7316897,1.92090234 42.2107759,1.40933203 41.5678966,1.40933203 L21.9148448,1.40933203 C21.6834828,0.597796875 20.9237586,0 20.0225172,0 L2.11484483,0 C1.03313793,0 0.153,0.863941406 0.153,1.92608203 L0.153,19.5077695 C0.153,20.5721953 1.03313793,21.4382695 2.11484483,21.4382695 Z M2.48058621,2.28515625 L19.6611207,2.28515625 L19.6611207,19.1531133 L2.48058621,19.1531133 L2.48058621,2.28515625 Z" id="Shape"></path>
                    <path d="M67.3632931,30.3010195 C67.1626552,29.9241211 66.7652586,29.6879883 66.3320172,29.6879883 L21.9139138,29.6879883 C21.6814655,28.8763008 20.9226724,28.2786562 20.0225172,28.2786562 L2.11484483,28.2786562 C1.03313793,28.2786562 0.153,29.1447305 0.153,30.2090039 L0.153,47.7906914 C0.153,48.8526797 1.03298276,49.7167734 2.11484483,49.7167734 L20.0225172,49.7167734 C20.9237586,49.7167734 21.6833276,49.1189766 21.9146897,48.3074414 L66.3320172,48.3074414 C66.7652586,48.3074414 67.1625,48.0713086 67.3632931,47.6944102 L71.7143276,39.5272617 C71.8912241,39.1956094 71.8912241,38.7998203 71.7143276,38.468168 L67.3632931,30.3010195 Z M19.6611207,47.4317695 L2.48058621,47.4317695 L2.48058621,30.5639648 L19.6611207,30.5639648 L19.6611207,47.4317695 Z M65.6273793,46.0224375 L21.9887069,46.0224375 L21.9887069,31.9732969 L65.6273793,31.9732969 L69.3696724,38.9978672 L65.6273793,46.0224375 Z" id="Shape"></path>
                    <path d="M11.9847414,5.37026953 L10.1526207,5.37026953 C9.50989655,5.37026953 8.98882759,5.88183984 8.98882759,6.51284766 C8.98882759,7.14385547 9.50989655,7.65542578 10.1526207,7.65542578 L10.8211034,7.65542578 L10.8211034,14.9206992 C10.8211034,15.551707 11.3421724,16.0632773 11.9848966,16.0632773 C12.6276207,16.0632773 13.1486897,15.551707 13.1486897,14.9206992 L13.1486897,6.51284766 C13.1485345,5.88183984 12.6276207,5.37026953 11.9847414,5.37026953 L11.9847414,5.37026953 Z" id="Path"></path>
                    <path d="M13.4053448,42.1227422 C12.6844138,42.1318828 11.9245345,42.1384336 11.2513966,42.1411758 C11.7045,41.5409414 12.2969483,40.7393086 13.058069,39.6713789 C13.6199483,38.8846758 13.9880172,38.1377344 14.1521897,37.4512734 C14.1619655,37.4101406 14.169569,37.3685508 14.1746897,37.3265039 L14.2148793,36.9982031 C14.2204655,36.952957 14.2232586,36.9074063 14.2232586,36.8618555 C14.2232586,35.046832 12.7173103,33.5703164 10.8661034,33.5703164 C9.26441379,33.5703164 7.88043103,34.6879102 7.57505172,36.2276484 C7.45215517,36.8470781 7.86413793,37.4470078 8.49491379,37.5675117 C9.12631034,37.6883203 9.73691379,37.2838477 9.85965517,36.664418 C9.95260345,36.1956563 10.3759138,35.8553203 10.8661034,35.8553203 C11.4146379,35.8553203 11.8644828,36.2770078 11.8941207,36.8060977 L11.8723966,36.9834258 C11.7962069,37.2655664 11.6086034,37.7204648 11.1517759,38.3601563 C9.79153448,40.2687188 8.98386207,41.3055703 8.55,41.8628438 C8.0117069,42.5541797 7.71517241,42.9348867 7.90681034,43.5546211 C8.02086207,43.9231406 8.30296552,44.2071094 8.68763793,44.3358398 C8.84281034,44.3865703 8.97455172,44.4298359 10.6482414,44.4298359 C11.3067931,44.4298359 12.204,44.4231328 13.4351379,44.4075938 C14.0778621,44.3995195 14.5922586,43.8813984 14.5838793,43.2503906 C14.5756552,42.6195352 14.049,42.1096406 13.4053448,42.1227422 Z" id="Path"></path>
                    <path d="M11.070931,61.8316055 C9.47405172,61.8316055 8.08851724,62.9490469 7.77646552,64.4886328 C7.65093103,65.1074531 8.06027586,65.7090586 8.69058621,65.8323047 C9.32151724,65.9560078 9.93382759,65.553668 10.0592069,64.9348477 C10.1554138,64.4607539 10.5808966,64.1167617 11.0710862,64.1167617 C11.6363793,64.1167617 12.0961552,64.5702891 12.0961552,65.1275625 C12.0961552,65.6849883 11.6363793,66.1383633 11.0710862,66.1383633 C10.4283621,66.1383633 9.9072931,66.6499336 9.9072931,67.2809414 C9.9072931,67.9119492 10.4283621,68.4235195 11.0710862,68.4235195 C11.6363793,68.4235195 12.0961552,68.8750664 12.0961552,69.4299023 C12.0961552,69.9873281 11.6363793,70.4407031 11.0710862,70.4407031 C10.5599483,70.4407031 10.1222069,70.068832 10.0540862,69.5845312 C10.0450862,69.5171953 10.0415172,69.4724063 10.0415172,69.4299023 C10.0415172,68.7988945 9.52044828,68.2873242 8.87772414,68.2873242 C8.235,68.2873242 7.71393103,68.7988945 7.71393103,69.4299023 C7.71393103,69.5737148 7.7237069,69.7123477 7.74713793,69.8881523 C7.97477586,71.5058906 9.40360345,72.7258594 11.0710862,72.7258594 C12.9198103,72.7258594 14.4237414,71.2472109 14.4237414,69.4299023 C14.4237414,68.6086172 14.1151034,67.8572578 13.6067586,67.2800273 C14.1151034,66.7020352 14.4237414,65.9497617 14.4237414,65.1274102 C14.4235862,63.3101016 12.9195,61.8316055 11.070931,61.8316055 L11.070931,61.8316055 Z" id="Path"></path>
                    <path d="M27.2043621,9.14367188 L34.3817069,9.14367188 C35.024431,9.14367188 35.5455,8.63210156 35.5455,8.00109375 C35.5455,7.37008594 35.024431,6.85851563 34.3817069,6.85851563 L27.2043621,6.85851563 C26.5616379,6.85851563 26.040569,7.37008594 26.040569,8.00109375 C26.040569,8.63210156 26.5616379,9.14367188 27.2043621,9.14367188 Z" id="Path"></path>
                    <path d="M27.2043621,14.7547969 L41.7952241,14.7547969 C42.4381034,14.7547969 42.9590172,14.2432266 42.9590172,13.6122188 C42.9590172,12.9812109 42.4381034,12.4696406 41.7952241,12.4696406 L27.2043621,12.4696406 C26.5616379,12.4696406 26.040569,12.9812109 26.040569,13.6122188 C26.040569,14.2432266 26.5616379,14.7547969 27.2043621,14.7547969 L27.2043621,14.7547969 Z" id="Path"></path>
                    <path d="M27.2043621,37.2386016 L34.3817069,37.2386016 C35.024431,37.2386016 35.5455,36.7270312 35.5455,36.0960234 C35.5455,35.4650156 35.024431,34.9534453 34.3817069,34.9534453 L27.2043621,34.9534453 C26.5616379,34.9534453 26.040569,35.4650156 26.040569,36.0960234 C26.040569,36.7270312 26.5616379,37.2386016 27.2043621,37.2386016 Z" id="Path"></path>
                    <path d="M41.7952241,40.5688359 L27.2043621,40.5688359 C26.5616379,40.5688359 26.040569,41.0804063 26.040569,41.7114141 C26.040569,42.3424219 26.5616379,42.8539922 27.2043621,42.8539922 L41.7952241,42.8539922 C42.4381034,42.8539922 42.9590172,42.3424219 42.9590172,41.7114141 C42.9590172,41.0804063 42.4381034,40.5688359 41.7952241,40.5688359 Z" id="Path"></path>
                    <path d="M27.2043621,65.6967188 L34.3817069,65.6967188 C35.024431,65.6967188 35.5455,65.1851484 35.5455,64.5541406 C35.5455,63.9231328 35.024431,63.4115625 34.3817069,63.4115625 L27.2043621,63.4115625 C26.5616379,63.4115625 26.040569,63.9231328 26.040569,64.5541406 C26.040569,65.1851484 26.5616379,65.6967188 27.2043621,65.6967188 Z" id="Path"></path>
                    <path d="M27.2043621,71.3078438 L41.7952241,71.3078438 C42.4381034,71.3078438 42.9590172,70.7962734 42.9590172,70.1652656 C42.9590172,69.5342578 42.4381034,69.0226875 41.7952241,69.0226875 L27.2043621,69.0226875 C26.5616379,69.0226875 26.040569,69.5342578 26.040569,70.1652656 C26.040569,70.7962734 26.5616379,71.3078438 27.2043621,71.3078438 L27.2043621,71.3078438 Z" id="Path"></path>
                    <path d="M67.3632931,58.5842461 C67.1625,58.2073477 66.7652586,57.9712148 66.3320172,57.9712148 L47.0111897,57.9712148 C46.3683103,57.9712148 45.8473966,58.4827852 45.8473966,59.113793 C45.8473966,59.7448008 46.3683103,60.2563711 47.0111897,60.2563711 L65.6275345,60.2563711 L69.3696724,67.2807891 L65.6276897,74.3012461 L21.9887069,74.3012461 L21.9887069,60.2565234 L41.5678966,60.2565234 C42.2107759,60.2565234 42.7316897,59.7449531 42.7316897,59.1139453 C42.7316897,58.4829375 42.2107759,57.9713672 41.5678966,57.9713672 L21.9148448,57.9713672 C21.6834828,57.159832 20.9239138,56.5620352 20.0226724,56.5620352 L2.11484483,56.5620352 C1.03313793,56.5620352 0.153,57.4261289 0.153,58.4881172 L0.153,76.0698047 C0.153,77.1342305 1.03298276,78.0001523 2.11484483,78.0001523 L20.0225172,78.0001523 C20.9242241,78.0001523 21.6841034,77.400375 21.915,76.5864023 L66.3320172,76.5864023 C66.7651034,76.5864023 67.1623448,76.3502695 67.3632931,75.9736758 L71.7143276,67.810793 C71.8912241,67.4789883 71.8912241,67.0831992 71.7143276,66.7513945 L67.3632931,58.5842461 Z M19.6611207,75.7148437 L2.48058621,75.7148437 L2.48058621,58.8468867 L19.6611207,58.8468867 L19.6611207,75.7148437 Z" id="Shape"></path>
                </g>
            </g>
        </g>
    </g>
</svg>