<?xml version="1.0" encoding="UTF-8"?>
<svg width="91px" height="89px" viewBox="0 0 91 89" version="1.1" xmlns="http://www.w3.org/2000/svg" xmlns:xlink="http://www.w3.org/1999/xlink">
    <title>Group 2</title>
    <g id="1.Project-List---Web" stroke="none" stroke-width="1" fill="none" fill-rule="evenodd">
        <g id="1.-Project_List_Empty_List" transform="translate(-675.000000, -403.000000)">
            <g id="Group-2" transform="translate(675.777692, 403.750000)">
                <path d="M45,76 C66.0074272,76 64.8806557,59.8193548 84.650048,39.4709677 C104.41944,19.1225806 64.5690147,0 43.5615875,0 C22.5541603,0 -1.43439447,11.6191284 0.0670783634,35.3032258 C1.5685512,58.9873232 23.9925728,76 45,76 Z" id="Oval" fill-opacity="0.160456731" fill="#86C04F"></path>
                <g id="project" transform="translate(9.222308, 18.623047)" fill-rule="nonzero">
                    <g id="Group" transform="translate(2.000000, 3.626953)" fill="#DDEAFB">
                        <path d="M41.0035373,47.6857126 L8.72995851,56.9645273 C8.03370332,57.077038 7.37830913,56.601677 7.26624481,55.9026485 L0.0426141079,6.79721615 C-0.0694502075,6.09818765 0.404024896,5.4401829 1.10028008,5.32767221 L33.3738589,0.110615202 C34.0701141,-0.00189548694 34.7255083,0.473465558 34.8375726,1.17249406 L42.0613382,46.2161686 C42.1734025,46.9151971 41.6997925,47.5730665 41.0035373,47.6857126 Z" id="Path"></path>
                        <path d="M23.9963278,47.6857126 L56.2699066,56.9645273 C56.9661618,57.077038 57.621556,56.601677 57.7336203,55.9026485 L64.9573859,6.79721615 C65.0694502,6.09818765 64.5959751,5.4401829 63.8997199,5.32767221 L31.6260062,0.110615202 C30.929751,-0.00189548694 30.2743568,0.473465558 30.1622925,1.17249406 L22.938527,46.2161686 C22.8265975,46.9151971 23.3000726,47.5730665 23.9963278,47.6857126 Z" id="Path"></path>
                        <path d="M41.0035373,47.6857126 L8.72995851,56.9645273 C8.03370332,57.077038 7.37830913,56.601677 7.26624481,55.9026485 L0.0426141079,6.79721615 C-0.0694502075,6.09818765 0.404024896,5.4401829 1.10028008,5.32767221 L33.3738589,0.110615202 C34.0701141,-0.00189548694 34.7255083,0.473465558 34.8375726,1.17249406 L42.0613382,46.2161686 C42.1734025,46.9151971 41.6997925,47.5730665 41.0035373,47.6857126 Z" id="Path"></path>
                    </g>
                    <path d="M36.7263828,4.71906733 C36.6138015,4.01114617 35.9553838,3.52960072 35.2559167,3.64367983 L14,7.10746142 L14,53.3901211 C14,54.2155492 14.6611272,57.6269531 15.476698,57.6269531 L28.0083098,57.6269531 L42.9209278,51.8238644 C43.620395,51.7099224 44.0961898,51.0435469 43.983473,50.3356257 L36.7263828,4.71906733 Z" id="Path" fill="#CBE2FF"></path>
                    <path d="M33.7440997,3.6436468 C33.0446286,3.52970503 32.3862073,4.01111243 32.2736254,4.71903223 L25.0164944,50.3356397 C24.9039125,51.0435595 25.3795745,51.7099338 26.0790456,51.8238756 L40.9917472,57.6269531 L53.5232937,57.6269531 C54.3388691,57.6269531 55,54.2155558 55,53.3901292 L55,7.10742171 L33.7440997,3.6436468 Z" id="Path" fill="#CBE2FF"></path>
                    <path d="M50.7318676,50.6269531 L18.2681324,50.6269531 C17.5677066,50.6269531 17,50.0433526 17,49.3233171 L17,2.93058913 C17,2.21055361 17.5677066,1.62695313 18.2681324,1.62695313 L50.7318676,1.62695313 C51.4322934,1.62695313 52,2.21055361 52,2.93058913 L52,49.3233171 C52,50.0433526 51.4322934,50.6269531 50.7318676,50.6269531 Z" id="Path" fill="#F4FBFF"></path>
                    <path d="M50.8518249,1.62695313 L48,1.62695313 C48.63417,1.62695313 49.1481751,2.21055361 49.1481751,2.93058913 L49.1481751,49.3233171 C49.1481751,50.0433526 48.63417,50.6269531 48,50.6269531 L50.8518249,50.6269531 C51.4859949,50.6269531 52,50.0433526 52,49.3233171 L52,2.93058913 C52,2.21055361 51.4859949,1.62695313 50.8518249,1.62695313 Z" id="Path" fill="#E4F6FF"></path>
                    <path d="M43.810169,42.0104276 L42.8070563,44.7789054 C42.5056237,45.6108803 41.7347867,46.1622409 40.8733581,46.1622409 L28.126507,46.1622409 C27.2650785,46.1622409 26.4942414,45.6107413 26.1928089,44.7789054 L25.1896962,42.0104276 C24.8882636,41.1784527 24.1174266,40.6269531 23.255998,40.6269531 L1,40.6269531 L1,59.8802367 C1,64.7108614 4.79837425,68.6269531 9.48379074,68.6269531 L59.5162093,68.6269531 C64.2016258,68.6269531 68,64.7108614 68,59.8802367 L68,40.6269531 L45.7438672,40.6269531 C44.8825734,40.6269531 44.1117364,41.1784527 43.810169,42.0104276 L43.810169,42.0104276 Z" id="Path" fill="#698ED5"></path>
                    <g id="Group" transform="translate(19.000000, 40.626953)" fill="#4073C8">
                        <path d="M1.99509642,1.48606897 L2.99952893,4.23351724 C3.30135813,5.05917241 4.07320937,5.60634483 4.93577135,5.60634483 L9.00655096,5.60634483 C8.14398898,5.60634483 7.37213774,5.05903448 7.07030854,4.23351724 L6.06587603,1.48606897 C5.76404683,0.660413793 4.99219559,0.113241353 4.12963361,0.113241353 L0.0588539945,0.113241353 C0.921415978,0.113103448 1.69326722,0.660413793 1.99509642,1.48606897 Z" id="Path"></path>
                        <path d="M44.8617273,0.113103448 L44.8617273,19.22 C44.8617273,24.013931 41.0583554,27.9002759 36.3667741,27.9002759 L40.4375537,27.9002759 C45.129135,27.9002759 48.9325069,24.013931 48.9325069,19.22 L48.9325069,0.113103448 L44.8617273,0.113103448 Z" id="Path"></path>
                    </g>
                    <path d="M46.2490084,57.6269531 L22.7509916,57.6269531 C22.3362157,57.6269531 22,57.3183428 22,56.9376225 L22,52.3162837 C22,51.9355635 22.3362157,51.6269531 22.7509916,51.6269531 L46.2490084,51.6269531 C46.6637843,51.6269531 47,51.9355635 47,52.3162837 L47,56.9376225 C47,57.3183428 46.6637843,57.6269531 46.2490084,57.6269531 Z" id="Path" fill="#3B66C1"></path>
                    <path d="M46.219359,51.6269531 L43,51.6269531 C43.4311514,51.6269531 43.780641,51.9355635 43.780641,52.3162837 L43.780641,56.9376225 C43.780641,57.3183428 43.4311514,57.6269531 43,57.6269531 L46.219359,57.6269531 C46.6505104,57.6269531 47,57.3183428 47,56.9376225 L47,52.3162837 C47,51.9355635 46.6505104,51.6269531 46.219359,51.6269531 Z" id="Path" fill="#30579D"></path>
                    <g id="Group" transform="translate(0.000000, 0.626953)" fill="#000000">
                        <path d="M26.2861699,7.63784739 L22.548041,7.63784739 C21.9898418,7.63784739 21.5372988,8.09636948 21.5372988,8.66194378 C21.5372988,9.22751807 21.9898418,9.68604016 22.548041,9.68604016 L26.2861699,9.68604016 C26.8443691,9.68604016 27.2969121,9.22751807 27.2969121,8.66194378 C27.2969121,8.09636948 26.8443691,7.63784739 26.2861699,7.63784739 L26.2861699,7.63784739 Z" id="Path"></path>
                        <path d="M31.9325801,9.68604016 L46.451959,9.68604016 C47.010293,9.68604016 47.4627012,9.22751807 47.4627012,8.66194378 C47.4627012,8.09636948 47.010293,7.63784739 46.451959,7.63784739 L31.9325801,7.63784739 C31.3743809,7.63784739 30.9218379,8.09636948 30.9218379,8.66194378 C30.9218379,9.22751807 31.3743809,9.68604016 31.9325801,9.68604016 Z" id="Path"></path>
                        <path d="M26.2861699,13.5165703 L22.548041,13.5165703 C21.9898418,13.5165703 21.5372988,13.9750924 21.5372988,14.5406667 C21.5372988,15.106241 21.9898418,15.5647631 22.548041,15.5647631 L26.2861699,15.5647631 C26.8443691,15.5647631 27.2969121,15.106241 27.2969121,14.5406667 C27.2969121,13.9750924 26.8443691,13.5165703 26.2861699,13.5165703 Z" id="Path"></path>
                        <path d="M31.9325801,15.5647631 L46.451959,15.5647631 C47.010293,15.5647631 47.4627012,15.106241 47.4627012,14.5406667 C47.4627012,13.9750924 47.010293,13.5165703 46.451959,13.5165703 L31.9325801,13.5165703 C31.3743809,13.5165703 30.9218379,13.9750924 30.9218379,14.5406667 C30.9218379,15.106241 31.3743809,15.5647631 31.9325801,15.5647631 Z" id="Path"></path>
                        <path d="M26.2861699,19.3954297 L22.548041,19.3954297 C21.9898418,19.3954297 21.5372988,19.8539518 21.5372988,20.4195261 C21.5372988,20.9851004 21.9898418,21.4436225 22.548041,21.4436225 L26.2861699,21.4436225 C26.8443691,21.4436225 27.2969121,20.9851004 27.2969121,20.4195261 C27.2969121,19.8539518 26.8443691,19.3954297 26.2861699,19.3954297 Z" id="Path"></path>
                        <path d="M31.9325801,21.4436225 L46.451959,21.4436225 C47.010293,21.4436225 47.4627012,20.9851004 47.4627012,20.4195261 C47.4627012,19.8539518 47.010293,19.3954297 46.451959,19.3954297 L31.9325801,19.3954297 C31.3743809,19.3954297 30.9218379,19.8539518 30.9218379,20.4195261 C30.9218379,20.9851004 31.3743809,21.4436225 31.9325801,21.4436225 Z" id="Path"></path>
                        <path d="M47.7760313,55.6664659 L47.7760313,50.6609558 C47.7760313,49.6846506 46.9920996,48.8902249 46.0283906,48.8902249 L22.9713398,48.8902249 C22.0077656,48.8902249 21.223834,49.6845141 21.223834,50.6609558 L21.223834,55.6664659 C21.223834,56.6427711 22.0077656,57.4371968 22.9713398,57.4371968 L46.0283906,57.4371968 C46.9920996,57.4371968 47.7760313,56.6427711 47.7760313,55.6664659 Z M45.7545469,55.389004 L23.2453184,55.389004 L23.2453184,50.9384177 L45.7545469,50.9384177 L45.7545469,55.389004 Z" id="Shape"></path>
                        <path d="M26.2861699,25.2741526 L22.548041,25.2741526 C21.9898418,25.2741526 21.5372988,25.7326747 21.5372988,26.298249 C21.5372988,26.8638233 21.9898418,27.3223454 22.548041,27.3223454 L26.2861699,27.3223454 C26.8443691,27.3223454 27.2969121,26.8638233 27.2969121,26.298249 C27.2969121,25.7326747 26.8443691,25.2741526 26.2861699,25.2741526 Z" id="Path"></path>
                        <path d="M31.9325801,27.3223454 L46.451959,27.3223454 C47.010293,27.3223454 47.4627012,26.8638233 47.4627012,26.298249 C47.4627012,25.7326747 47.010293,25.2741526 46.451959,25.2741526 L31.9325801,25.2741526 C31.3743809,25.2741526 30.9218379,25.7326747 30.9218379,26.298249 C30.9218379,26.8638233 31.3743809,27.3223454 31.9325801,27.3223454 Z" id="Path"></path>
                        <path d="M26.2861699,31.1528755 L22.548041,31.1528755 C21.9898418,31.1528755 21.5372988,31.6113976 21.5372988,32.1769719 C21.5372988,32.7425462 21.9898418,33.2010683 22.548041,33.2010683 L26.2861699,33.2010683 C26.8443691,33.2010683 27.2969121,32.7425462 27.2969121,32.1769719 C27.2969121,31.6113976 26.8443691,31.1528755 26.2861699,31.1528755 Z" id="Path"></path>
                        <path d="M31.9325801,33.2010683 L46.451959,33.2010683 C47.010293,33.2010683 47.4627012,32.7425462 47.4627012,32.1769719 C47.4627012,31.6113976 47.010293,31.1528755 46.451959,31.1528755 L31.9325801,31.1528755 C31.3743809,31.1528755 30.9218379,31.6113976 30.9218379,32.1769719 C30.9218379,32.7425462 31.3743809,33.2010683 31.9325801,33.2010683 Z" id="Path"></path>
                        <path d="M26.8357441,60.7366988 C26.2775449,60.7366988 25.825002,61.1950843 25.825002,61.7607952 C25.825002,62.326506 26.2775449,62.7848916 26.8357441,62.7848916 L42.1641211,62.7848916 C42.7224551,62.7848916 43.1748633,62.326506 43.1748633,61.7607952 C43.1748633,61.1950843 42.7224551,60.7366988 42.1641211,60.7366988 L26.8357441,60.7366988 Z" id="Path"></path>
                        <path d="M67.9892578,38.4131727 L63.676084,38.4131727 L66.2709961,20.6108273 C66.3523945,20.051261 65.970873,19.530747 65.4187383,19.4481365 C64.8664687,19.3649799 64.352877,19.7520884 64.2710742,20.3116546 L61.632498,38.4131727 L53.1205664,38.4131727 L53.1205664,6.5137992 L65.7183223,8.56895582 C65.8079414,8.58356627 65.8617129,8.63572691 65.8910918,8.67696386 C65.9204707,8.7182008 65.9524102,8.78633735 65.9359687,8.890249 L64.8728027,16.1827711 C64.7914043,16.7423373 65.1729258,17.2628514 65.7250605,17.3454618 C65.7750586,17.3529719 65.8247871,17.3566586 65.8739766,17.3566586 C66.3666797,17.3566586 66.798334,16.9908514 66.8725898,16.4820803 L67.9335996,9.20266667 C68.0307656,8.59162249 67.8871055,7.97893976 67.5293027,7.47726908 C67.1716348,6.97559839 66.6424102,6.64515663 66.039334,6.54684337 L53.1205664,4.43911647 L53.1205664,2.34736546 C53.1205664,1.06983936 52.0947305,0.030313253 50.8337285,0.030313253 L33.1914258,0.030313253 C32.6332266,0.030313253 32.1806836,0.488835341 32.1806836,1.05440964 C32.1806836,1.61998394 32.6332266,2.07850602 33.1914258,2.07850602 L50.8338633,2.07850602 C50.9802187,2.07850602 51.0992168,2.19907631 51.0992168,2.34736546 L51.0992168,38.4131727 L45.7402617,38.4131727 C44.4643008,38.4131727 43.3069336,39.2268514 42.8604551,40.4380161 L41.8577988,43.157743 C41.7048398,43.5724337 41.3084941,43.8511245 40.871584,43.8511245 L28.1286855,43.8511245 C27.6917754,43.8511245 27.2954297,43.5724337 27.1424707,43.157743 L26.1396797,40.4378795 C25.6932012,39.2268514 24.535834,38.4131727 23.259873,38.4131727 L17.900918,38.4131727 L17.900918,2.34736546 C17.900918,2.19921285 18.019916,2.07850602 18.1662715,2.07850602 L29.150209,2.07850602 C29.7084082,2.07850602 30.1609512,1.61998394 30.1609512,1.05440964 C30.1609512,0.488835341 29.7084082,0.030313253 29.150209,0.030313253 L18.1662715,0.030313253 C16.9054043,0.030313253 15.8794336,1.06970281 15.8794336,2.34736546 L15.8794336,4.43911647 L2.96053125,6.54670683 C2.35745508,6.64502008 1.82836523,6.97546185 1.47042773,7.47713253 C1.112625,7.97880321 0.969099609,8.59148594 1.06410938,9.18942169 L5.32405078,38.4131727 L1.01074219,38.4131727 C0.452542969,38.4131727 0,38.8715582 0,39.4372691 L0,58.3523293 C0,63.6552369 4.25805469,67.9695502 9.4918125,67.9695502 L13.8708867,67.9695502 C14.4290859,67.9695502 14.8816289,67.5111647 14.8816289,66.9454538 C14.8816289,66.379743 14.4290859,65.9213574 13.8708867,65.9213574 L9.4918125,65.9213574 C5.37270117,65.9213574 2.02148437,62.526 2.02148437,58.3524659 L2.02148437,40.4613655 L23.2597383,40.4613655 C23.6966484,40.4613655 24.0929941,40.7399197 24.2458184,41.154747 L25.2486094,43.8746104 C25.6952227,45.0856386 26.8525898,45.8993173 28.1285508,45.8993173 L40.8714492,45.8993173 C42.1474102,45.8993173 43.3047773,45.0856386 43.7512559,43.8744739 L44.7539121,41.154747 C44.9068711,40.7400562 45.3032168,40.4613655 45.740127,40.4613655 L66.9783809,40.4613655 L66.9783809,58.3523293 C66.9783809,62.5258635 63.6272988,65.9213574 59.5080527,65.9213574 L17.9121035,65.9213574 C17.3539043,65.9213574 16.9013613,66.379743 16.9013613,66.9454538 C16.9013613,67.5111647 17.3539043,67.9695502 17.9121035,67.9695502 L59.5081875,67.9695502 C64.7419453,67.9695502 69,63.6552369 69,58.3523293 L69,39.4372691 C69,38.8716948 68.547457,38.4131727 67.9892578,38.4131727 Z M3.06200977,8.87714056 C3.04758984,8.7862008 3.0795293,8.71806426 3.1089082,8.67696386 C3.13828711,8.63572691 3.19205859,8.58356627 3.2818125,8.56895582 L15.8794336,6.5137992 L15.8794336,38.4131727 L7.36736719,38.4131727 L3.06200977,8.87714056 Z" id="Shape"></path>
                    </g>
                </g>
            </g>
        </g>
    </g>
</svg>