<?xml version="1.0" encoding="UTF-8"?>
<svg width="17px" height="22px" viewBox="0 0 17 22" version="1.1" xmlns="http://www.w3.org/2000/svg" xmlns:xlink="http://www.w3.org/1999/xlink">
    <title>Revenue</title>
    <g id="Revenue" stroke="none" stroke-width="1" fill="none" fill-rule="evenodd">
        <g id="Revenue_Icon" transform="translate(1.000000, 0.000000)" fill="#97A3A9" fill-rule="nonzero">
            <path d="M0.442361111,13.97768 L0.466666667,13.9783204 L2.64444444,13.9783204 C2.90216665,13.9783465 3.11108534,14.1896126 3.11111111,14.4502306 L3.11111111,14.4502306 L3.11111111,14.6124497 C4.8064352,14.6301507 6.24769398,14.7663688 7.16527778,15.5513542 L7.16527778,15.5513542 L9.95555556,15.5513542 C10.4139708,15.5513542 10.8042622,15.8167957 11.0201389,16.1953148 C11.0593661,16.1733049 11.0836797,16.1587399 11.1070803,16.1450709 L11.1885437,16.1002029 L11.1885437,16.1002029 L11.2534722,16.0675058 C11.5966517,15.8983261 11.9918983,15.7086575 12.4444444,15.7086575 L12.4444444,15.7086575 L12.5445038,15.7090213 C12.6829129,15.7116758 12.9262425,15.7269834 13.1833333,15.8069721 C13.3547272,15.860298 13.5420953,15.9432834 13.7083333,16.1068317 C13.8745714,16.2703957 13.9999932,16.5345002 13.9999932,16.8097811 C13.9999932,17.0981811 13.9371461,17.3834429 13.7763889,17.6110452 C13.6203791,17.8319148 13.4219856,17.9693272 13.1881944,18.1271969 L13.1881944,18.1271969 L13.1881944,18.1321126 L13.16875,18.141944 C13.1426411,18.1614182 12.2559082,18.8240744 11.0590278,19.4986856 C9.84450087,20.1832384 8.3429696,20.8996688 6.99999321,20.8996688 C5.77111236,20.8996688 4.92631813,20.6341328 4.24375,20.2458766 C3.82619642,20.0083555 3.47420267,19.7374482 3.11111111,19.4593598 L3.11111111,19.4593598 L3.11111111,20.1131519 C3.11108534,20.3737699 2.90216665,20.585036 2.64444444,20.585062 L2.64444444,20.585062 L0.466666667,20.585062 C0.208944458,20.585036 -6.78572485e-06,20.3737699 -6.78572485e-06,20.1131519 L-6.78572485e-06,20.1131519 L-6.78572485e-06,14.4502306 C-0.00128288387,14.2076596 0.179483236,14.0036069 0.418055556,13.9783204 C0.434248258,13.9774665 0.450473965,13.9774665 0.466666667,13.9783204 Z M3.11111111,15.5661013 L3.11111111,18.2992474 C3.72316778,18.7330272 4.19979264,19.1400261 4.70069444,19.4249497 C5.26257076,19.7445587 5.89555431,19.9558485 7,19.9558485 C7.99037929,19.9558485 9.44439191,19.3302845 10.6020833,18.6777587 C11.7597748,18.0252328 12.6340278,17.3701744 12.6340278,17.3701744 C12.6404329,17.366745 12.6469161,17.363467 12.6534722,17.3603429 C12.8768494,17.2097564 12.9843683,17.1130935 13.0180556,17.0653991 C13.0517427,17.0177047 13.0666667,16.993307 13.0666667,16.8097811 C13.0666667,16.7705339 13.0754291,16.7936575 13.0618056,16.7802867 C13.0481823,16.7668845 12.9924954,16.7318609 12.9111111,16.7065508 C12.7483426,16.6559306 12.5222222,16.6524778 12.4444444,16.6524778 C12.3385306,16.6524778 11.9567873,16.7725002 11.6618056,16.9179272 C11.3668238,17.0633542 11.1368056,17.2079553 11.1368056,17.2079553 L11.1271399,17.2129855 L11.1271399,17.2129855 L11.1173611,17.2177867 C10.9461767,17.7070317 10.49402,18.0682081 9.95555556,18.0682081 L9.95555556,18.0682081 L5.44444444,18.0682081 C5.27614768,18.070615 5.11960647,17.9811995 5.03476351,17.8342007 C4.94992054,17.6872018 4.94992054,17.5053941 5.03476351,17.3583953 C5.11960647,17.2113964 5.27614768,17.121981 5.44444444,17.1243879 L5.44444444,17.1243879 L9.95555556,17.1243879 C10.1359832,17.1243879 10.2666667,16.992253 10.2666667,16.8097811 C10.2666667,16.6273249 10.1359832,16.4951744 9.95555556,16.4951744 L9.95555556,16.4951744 L7,16.4951744 C6.87541537,16.4941769 6.75639672,16.4428486 6.66944444,16.3526182 C6.14498764,15.8222542 4.82315976,15.6021238 3.11111111,15.5661013 L3.11111111,15.5661013 Z M2.17777778,14.9221407 L0.933333333,14.9221407 L0.933333333,19.6412418 L2.17777778,19.6412418 L2.17777778,14.9221407 Z M8.82222222,0.978320449 C12.1262398,0.978320449 14.8222222,3.67430318 14.8222222,6.97832045 C14.8222222,10.2823377 12.1262398,12.9783204 8.82222222,12.9783204 C5.51820468,12.9783204 2.82222222,10.2823377 2.82222222,6.97832045 C2.82222222,3.67430318 5.51820468,0.978320449 8.82222222,0.978320449 Z M8.82222222,1.97832045 C6.0496941,1.97832045 3.82222222,4.20579232 3.82222222,6.97832045 C3.82222222,9.75084857 6.0496941,11.9783204 8.82222222,11.9783204 C11.5947503,11.9783204 13.8222222,9.75084857 13.8222222,6.97832045 C13.8222222,4.20579232 11.5947503,1.97832045 8.82222222,1.97832045 Z M8.91052632,3.84210526 L8.95497076,3.84815465 C8.98304094,3.85622049 9.0079922,3.87235218 9.02982456,3.89654971 C9.0625731,3.932846 9.07894737,3.97692008 9.07894737,4.02877193 L9.07894737,4.02877193 L9.07894737,4.58099415 L9.26364912,4.61832749 C9.50168421,4.67640156 9.70678363,4.76766082 9.87894737,4.89210526 C10.094152,5.04766082 10.2578947,5.22525341 10.3701754,5.42488304 C10.4824561,5.62451267 10.5409357,5.81766082 10.545614,6.00432749 C10.545614,6.04580897 10.5327485,6.08340156 10.5070175,6.11710526 C10.4812865,6.15080897 10.4450292,6.16766082 10.3982456,6.16766082 L10.3982456,6.16766082 L9.74561404,6.16766082 L9.68421053,6.15988304 L9.68421053,6.15988304 L9.62631579,6.13654971 C9.58888889,6.11580897 9.55847953,6.07692008 9.53508772,6.01988304 C9.51169591,5.8591423 9.42280702,5.72173489 9.26842105,5.60766082 C9.11403509,5.49358674 8.9128655,5.43654971 8.66491228,5.43654971 C8.4122807,5.43654971 8.20994152,5.48840156 8.05789474,5.59210526 C7.90584795,5.69580897 7.82982456,5.85654971 7.82982456,6.07432749 C7.82982456,6.21951267 7.86725146,6.34006823 7.94210526,6.43599415 C8.01695906,6.53192008 8.13976608,6.61617934 8.31052632,6.68877193 C8.48128655,6.76136452 8.70935673,6.8391423 8.99473684,6.92210526 C9.39239766,7.02062378 9.71637427,7.13469786 9.96666667,7.26432749 C10.2169591,7.39395712 10.4017544,7.55858674 10.5210526,7.75821637 C10.6403509,7.957846 10.7,8.21062378 10.7,8.51654971 C10.7,8.81729045 10.6333333,9.0804386 10.5,9.30599415 C10.3666667,9.53154971 10.1783626,9.71303119 9.93508772,9.8504386 C9.69181287,9.987846 9.40643275,10.0772904 9.07894737,10.1187719 L9.07894737,10.1187719 L9.07894737,10.6554386 L9.07348928,10.7046979 C9.06621183,10.735809 9.05165692,10.7634633 9.02982456,10.7876608 C8.99707602,10.8239571 8.95730994,10.8421053 8.91052632,10.8421053 L8.91052632,10.8421053 L8.48245614,10.8421053 L8.4380117,10.8360559 C8.40994152,10.82799 8.38499025,10.8118583 8.36315789,10.7876608 C8.33040936,10.7513645 8.31403509,10.7072904 8.31403509,10.6554386 L8.31403509,10.6554386 L8.31403509,10.1109942 L8.11277193,10.0825275 C7.85302924,10.0356534 7.6277193,9.95310526 7.43684211,9.83488304 C7.19824561,9.68710526 7.01812865,9.50821637 6.89649123,9.29821637 C6.7748538,9.08821637 6.70935673,8.8691423 6.7,8.64099415 C6.7,8.59432749 6.71520468,8.5554386 6.74561404,8.52432749 C6.77602339,8.49321637 6.8122807,8.47766082 6.85438596,8.47766082 L6.85438596,8.47766082 L7.47894737,8.47766082 L7.53118908,8.48241391 C7.5634178,8.48875135 7.59044834,8.50142625 7.6122807,8.5204386 C7.64502924,8.54895712 7.67076023,8.58395712 7.68947368,8.6254386 C7.72222222,8.72395712 7.77719298,8.82117934 7.85438596,8.91710526 C7.93157895,9.01303119 8.04035088,9.09210526 8.18070175,9.15432749 C8.32105263,9.21654971 8.49649123,9.24766082 8.70701754,9.24766082 C9.04385965,9.24766082 9.29415205,9.1854386 9.45789474,9.06099415 C9.62163743,8.93654971 9.70350877,8.76803119 9.70350877,8.5554386 C9.70350877,8.40506823 9.66023392,8.28451267 9.57368421,8.19377193 C9.4871345,8.10303119 9.3502924,8.02006823 9.16315789,7.94488304 C8.97602339,7.86969786 8.73040936,7.79062378 8.42631579,7.70766082 C8.08011696,7.61432749 7.7877193,7.50154971 7.54912281,7.36932749 C7.31052632,7.23710526 7.13157895,7.06988304 7.0122807,6.86766082 C6.89298246,6.6654386 6.83333333,6.40877193 6.83333333,6.09766082 C6.83333333,5.69840156 6.96432749,5.35877193 7.22631579,5.07877193 C7.48830409,4.79877193 7.85087719,4.62766082 8.31403509,4.5654386 L8.31403509,4.5654386 L8.31403509,4.02877193 L8.31949318,3.97951267 C8.32677063,3.94840156 8.34132554,3.92074724 8.36315789,3.89654971 C8.39590643,3.86025341 8.43567251,3.84210526 8.48245614,3.84210526 L8.48245614,3.84210526 L8.91052632,3.84210526 Z" id="Combined-Shape"></path>
        </g>
    </g>
</svg>