<svg xmlns="http://www.w3.org/2000/svg" width="16" height="14" viewBox="0 0 16 14">
    <g fill="none" fill-rule="evenodd">
        <g fill="#BDC4CC" fill-rule="nonzero">
            <g>
                <g>
                    <g>
                        <path d="M13.5 0h-11C.52 0 0 1.635 0 2.5v7C0 11.48 1.635 12 2.5 12H6v1H4.5c-.275 0-.5.225-.5.5s.225.5.5.5h3.965c-.205-.275-.35-.61-.42-1H7v-1h1v-1H2.505c-.22-.005-1.185-.07-1.44-1H8V9H1V2.505C1.005 2.25 1.09 1 2.5 1h10.995C13.75 1.005 15 1.09 15 2.5v1.545c.355.07.7.215 1 .425V2.5C16 .52 14.365 0 13.5 0z" transform="translate(-1013.000000, -787.000000) translate(953.500000, 749.000000) translate(0.000000, 29.000000) translate(59.500000, 9.000000)"/>
                        <path d="M14.5 5c.603 0 1.5.4 1.5 1.5v6c0 .605-.4 1.5-1.5 1.5h-4c-.605 0-1.5-.4-1.5-1.5v-6c0-.605.4-1.5 1.5-1.5zm.5 7.001h-5v.5c0 .405.275.495.505.5H14.5c.405 0 .495-.275.5-.505V12zm0-3.998h-5v2.999h5V8.003zM14.494 6H10.5c-.405 0-.495.275-.5.505v.5h5v-.505c0-.402-.275-.494-.506-.5z" transform="translate(-1013.000000, -787.000000) translate(953.500000, 749.000000) translate(0.000000, 29.000000) translate(59.500000, 9.000000)"/>
                    </g>
                </g>
            </g>
        </g>
    </g>
</svg>
