<svg height="512" viewBox="0 0 512 512" width="512" xmlns="http://www.w3.org/2000/svg"><g><g fill="#57a4ff"><path d="m474 56h-60v24h-32v-24h-64v24h-32v-24h-64v24h-32v-24h-64v24h-32v-24h-60a19.994 19.994 0 0 0 -20 20v28h480v-28a19.994 19.994 0 0 0 -20-20z"/><path d="m254 184a128 128 0 1 0 128 128 128 128 0 0 0 -128-128zm0 224a96 96 0 1 1 96-96 96 96 0 0 1 -96 96z"/><circle cx="254" cy="312" r="24"/></g><g fill="#004fac"><path d="m476 48h-52v-16a8 8 0 0 0 -8-8h-32a8 8 0 0 0 -8 8v16h-48v-16a8 8 0 0 0 -8-8h-32a8 8 0 0 0 -8 8v16h-48v-16a8 8 0 0 0 -8-8h-32a8 8 0 0 0 -8 8v16h-48v-16a8 8 0 0 0 -8-8h-32a8 8 0 0 0 -8 8v16h-52a28.031 28.031 0 0 0 -28 28v392a28.031 28.031 0 0 0 28 28h440a28.031 28.031 0 0 0 28-28v-392a28.031 28.031 0 0 0 -28-28zm-84-8h16v32h-16zm-96 0h16v32h-16zm-96 0h16v32h-16zm-96 0h16v32h-16zm384 428a12.01 12.01 0 0 1 -12 12h-440a12.01 12.01 0 0 1 -12-12v-356h464zm0-372h-464v-20a12.01 12.01 0 0 1 12-12h52v16a8 8 0 0 0 8 8h32a8 8 0 0 0 8-8v-16h48v16a8 8 0 0 0 8 8h32a8 8 0 0 0 8-8v-16h48v16a8 8 0 0 0 8 8h32a8 8 0 0 0 8-8v-16h48v16a8 8 0 0 0 8 8h32a8 8 0 0 0 8-8v-16h52a12.01 12.01 0 0 1 12 12z"/><path d="m392 304h-.24a135.49 135.49 0 0 0 -34.15-82.29l5.7-5.71h20.69a8 8 0 0 0 0-16h-4.69l18.35-18.34a8 8 0 1 0 -11.32-11.32l-18.34 18.35v-4.69a8 8 0 0 0 -16 0v20.69l-5.71 5.7a135.49 135.49 0 0 0 -82.29-34.15v-.24a8 8 0 0 0 -16 0v.24a136.193 136.193 0 0 0 -127.76 127.76h-.24a8 8 0 0 0 0 16h.24a136.193 136.193 0 0 0 127.76 127.76v.24a8 8 0 0 0 16 0v-.24a136.193 136.193 0 0 0 127.76-127.76h.24a8 8 0 0 0 0-16zm-16.27 15.99a120.18 120.18 0 0 1 -111.74 111.74 7.994 7.994 0 0 0 -15.98 0 120.18 120.18 0 0 1 -111.74-111.74 7.994 7.994 0 0 0 0-15.98 120.18 120.18 0 0 1 111.74-111.74 7.994 7.994 0 0 0 15.98 0 119.5 119.5 0 0 1 70.97 29.45l-11.33 11.34a104.125 104.125 0 1 0 11.31 11.31l11.34-11.33a119.5 119.5 0 0 1 29.45 70.97 7.994 7.994 0 0 0 0 15.98zm-125.39-2.33a8.015 8.015 0 0 0 11.32 0l9.78-9.79a16.077 16.077 0 1 1 -11.31-11.31l-9.79 9.78a8.015 8.015 0 0 0 0 11.32zm5.66-37.66a32.03 32.03 0 1 0 27.56 15.76l40.03-40.04a88.114 88.114 0 1 1 -11.31-11.31l-40.04 40.03a31.755 31.755 0 0 0 -16.24-4.44z"/></g></g></svg>