<svg xmlns="http://www.w3.org/2000/svg" width="24" height="24"
     viewBox="0 0 25 25">
  <g fill="none" fill-rule="evenodd">
    <g fill="#AAADB8">
      <g>
        <path
          d="M13.406 19.164c-.061.066-.099.16-.099.254s.033.178.099.244c.071.07.16.103.253.103.09 0 .179-.034.245-.103.037-.033.06-.07.079-.112.02-.043.028-.09.028-.132 0-.095-.042-.188-.107-.254-.127-.132-.366-.132-.498 0M13.657 18.09c.195 0 .352-.157.352-.352v-1.14c0-.193-.157-.351-.352-.351-.193 0-.351.158-.351.351v1.14c0 .195.158.352.351.352"
          transform="translate(-174 -246) translate(175 247.517)"/>
        <g class="icon-path stroke-color" stroke="#AAADB8">
          <path
            d="M.704 1.598c0-.247.201-.447.449-.447h4.493c.184 0 .36.086.47.234l1.03 1.374c.068.09.172.142.283.142h12.465c.247 0 .45.2.45.447v1.287H4.983c-.636 0-1.154.517-1.154 1.153v10.303c0 .863-.7 1.564-1.562 1.564-.862 0-1.563-.701-1.563-1.564V1.598zM22.083 5.34c.247 0 .448.202.448.45v11.866h-4.744c-.18-2.123-1.962-3.796-4.13-3.796s-3.95 1.673-4.128 3.796H3.9c.39-.408.632-.957.632-1.564V5.788c0-.247.202-.449.45-.449h17.1zm-8.425 16.11c-1.899 0-3.443-1.543-3.443-3.443 0-1.898 1.544-3.442 3.443-3.442 1.898 0 3.442 1.544 3.442 3.442 0 1.9-1.544 3.444-3.442 3.444h0zM0 16.092c0 1.251 1.016 2.268 2.267 2.268h7.262c.179 2.122 1.96 3.795 4.129 3.795 2.167 0 3.949-1.673 4.129-3.795h5.096c.195 0 .353-.158.353-.353V5.788c0-.636-.517-1.153-1.153-1.153h-1.035V3.348c0-.635-.518-1.152-1.154-1.152H7.604L6.68.962C6.436.64 6.051.445 5.646.445H1.153C.517.445 0 .963 0 1.598v14.493z"
            transform="translate(-174 -246) translate(175 247.517)"/>
        </g>
      </g>
    </g>
  </g>
</svg>
