<svg xmlns="http://www.w3.org/2000/svg" width="24" height="24" viewBox="0 0 21 28">
    <defs>
        <filter id="r8xsbkvm9a">
            <feColorMatrix in="SourceGraphic" values="0 0 0 0 0.666667 0 0 0 0 0.678431 0 0 0 0 0.721569 0 0 0 1.000000 0"/>
        </filter>
    </defs>
    <g fill="none" fill-rule="evenodd">
        <g transform="translate(-316 -244)">
            <g>
                <path class="icon-path stroke-color" fill="#AAADB8" stroke="#AAADB8" stroke-width=".7" d="M18.222 23.764c0 .799-.642 1.448-1.433 1.448h-1.064V4.42l1.064-.002c.79 0 1.433.65 1.433 1.45v17.897zm-16.24 0v-1.24h.772c.215 0 .39-.176.39-.393 0-.218-.175-.394-.39-.394H1.98v-1.651h.773c.215 0 .39-.176.39-.394 0-.217-.175-.394-.39-.394H1.98v-1.65h.773c.215 0 .39-.177.39-.395 0-.217-.175-.393-.39-.393H1.98v-1.651h.773c.215 0 .39-.177.39-.394 0-.217-.175-.395-.39-.395H1.98v-1.65h.773c.215 0 .39-.176.39-.394 0-.218-.175-.394-.39-.394H1.98v-1.65h.773c.215 0 .39-.176.39-.393 0-.22-.175-.394-.39-.394H1.98V7.894h.773c.215 0 .39-.176.39-.395 0-.217-.175-.393-.39-.393H1.98v-1.24c0-.8.642-1.45 1.432-1.45h1.526v8.926c0 .089.03.174.084.243l.869 1.128c.074.095.187.151.307.151s.232-.056.307-.152l.869-1.127c.053-.069.083-.154.083-.243V4.437l1.223-.002.018.002.016-.002 6.23-.014v20.791H3.413c-.79 0-1.432-.65-1.432-1.448h0zm3.737-22.36h.96V.787h-.96v.615zm0 11.439h.96v.364l-.48.624-.48-.624v-.364zm0-.788h.96V2.192h-.96v9.863zm1.803-9.864c.435 0 .788.358.788.797v.66h-.852V2.192h.064zm7.829 1.442l1.608.052-2.078-.056-5.793.016v-.657c0-.873-.704-1.585-1.566-1.585h-.064V.393c0-.217-.175-.393-.39-.393H5.33c-.214 0-.39.176-.39.393V3.63H3.413c-1.22 0-2.21 1.004-2.21 2.238v1.24H.389c-.215 0-.389.175-.389.392 0 .219.174.395.389.395h.814v1.65H.389C.174 9.545 0 9.72 0 9.94c0 .217.174.393.389.393h.814v1.65H.389c-.215 0-.389.176-.389.394 0 .218.174.395.389.395h.814v1.65H.389c-.215 0-.389.177-.389.394 0 .217.174.394.389.394h.814v1.65H.389c-.215 0-.389.177-.389.394 0 .218.174.394.389.394h.814v1.651H.389c-.215 0-.389.177-.389.394 0 .218.174.394.389.394h.814v1.65H.389c-.215 0-.389.177-.389.395 0 .217.174.393.389.393h.814v1.24c0 1.234.99 2.236 2.21 2.236h13.376C18.009 26 19 24.998 19 23.764V5.867c0-.823-.737-1.569-2.212-2.238" transform="translate(317 245)"/>
            </g>
        </g>
    </g>
</svg>
