<svg xmlns="http://www.w3.org/2000/svg" width="24" height="24"
     viewBox="0 0 21 21">
  <defs>
    <filter id="cyuokw9tya">
      <feColorMatrix in="SourceGraphic"
                     values="0 0 0 0 0.666667 0 0 0 0 0.678431 0 0 0 0 0.721569 0 0 0 1.000000 0"/>
    </filter>
  </defs>
  <g fill="none" fill-rule="evenodd">
    <g transform="translate(-246 -319)">
      <g>
        <path stroke-width=".7" class="icon-path stroke-color" fill="#AAADB8"
              stroke="#AAADB8"
              d="M17.761 7.45l-.008.006c-.223.2-1.885-.27-3.913-2.298-2.028-2.028-2.498-3.689-2.298-3.912l.006-.008c.03-.029.086-.044.17-.044.515 0 1.995.589 3.746 2.34 2.032 2.032 2.5 3.697 2.297 3.915h0zm-4.966 6.57c-1.385-.675-2.98-1.868-4.465-3.353-1.486-1.485-2.678-3.08-3.354-4.464 2.11-.784 4.016-2.049 5.548-3.719.416 1.131 1.38 2.434 2.467 3.522 1.088 1.087 2.391 2.052 3.522 2.47-1.67 1.53-2.934 3.435-3.718 5.544h0zm-.855 3.7c-.877.404-3.739-.784-6.808-3.855-1.498-1.497-2.697-3.1-3.378-4.515-.577-1.196-.626-1.945-.474-2.293l.214-.022c.797-.083 1.573-.25 2.335-.462.722 1.544 2.025 3.315 3.652 4.943 1.628 1.627 3.4 2.93 4.943 3.651-.21.762-.379 1.538-.461 2.335l-.023.218zm-10.318-.347l1.48-3.932c.37.429.764.855 1.181 1.272.413.413.844.803 1.28 1.18l-3.94 1.48zM10.696.391c-.02.019-.033.041-.05.06-.004.007-.01.01-.013.014-2.175 3.032-5.55 4.99-9.263 5.376l-.482.05c-.137.014-.264.076-.362.173-.52.52-.917 1.601.146 3.807.382.794.913 1.638 1.554 2.487L.034 18.19c-.01.028-.008.057-.014.086-.01.041-.02.082-.02.125s.01.084.02.126c.006.028.003.057.014.085.002.007.008.013.011.02.009.02.021.036.031.055.025.045.053.086.086.122l.051.048c.043.034.088.063.138.085.012.005.02.016.034.02.005.003.01.002.016.003.062.022.127.036.194.036.068 0 .133-.014.195-.036.006-.001.011 0 .016-.003l5.84-2.194C8.402 18.095 10.184 19 11.513 19c.57 0 1.056-.165 1.421-.53.097-.096.158-.225.172-.361l.05-.483c.386-3.711 2.345-7.086 5.378-9.26.004-.003.006-.009.01-.011.021-.02.045-.032.065-.052 1.14-1.14-.39-3.711-2.297-5.616C14.406.779 11.835-.748 10.696.39h0z"
              transform="translate(247 320)"/>
      </g>
    </g>
  </g>
</svg>
