<svg xmlns="http://www.w3.org/2000/svg" width="24" height="24"
     viewBox="0 0 29 17">
  <defs>
    <filter id="e3z5hn657a">
      <feColorMatrix in="SourceGraphic"
                     values="0 0 0 0 0.666667 0 0 0 0 0.678431 0 0 0 0 0.721569 0 0 0 1.000000 0"/>
    </filter>
  </defs>
  <g fill="none" fill-rule="evenodd">
    <g transform="translate(-104 -322)">
      <g>
        <path class="icon-path stroke-color" fill="#AAADB8" stroke="#AAADB8"
              stroke-width=".7"
              d="M26.182 11.906c0 .226-.184.411-.41.411h-6.398v-.116c0-.784-.437-1.495-1.14-1.855l-1.509-.778c.018-.01.032-.024.05-.033l2.803-1.45 1.205 1.92.008.007c.032.048.072.09.124.123l.014.005c.007.005.015.007.023.011.057.028.118.045.178.045h.001c.062 0 .123-.017.18-.045l.021-.01.015-.006c.053-.033.092-.076.125-.124.001-.003.004-.004.006-.007l1.206-1.92 2.804 1.45c.428.221.694.655.694 1.132v1.24zm-7.626 1.534c0 .225-.187.407-.415.407H8.86c-.227 0-.411-.182-.411-.407V12.2c0-.479.265-.914.693-1.136l2.805-1.444 1.205 1.92c.149.236.546.236.695 0l1.205-1.92 2.805 1.445c.43.22.698.656.698 1.136v1.24zM1.234 12.317c-.232 0-.415-.18-.415-.411v-1.24c0-.477.266-.91.694-1.131l2.807-1.45 1.205 1.92c.002.003.006.004.007.007.032.047.072.09.125.123.004.003.01.004.014.006l.022.01c.058.028.119.045.18.045 0 0 0 0 0 0s0 0 0 0c.06 0 .122-.017.18-.045.006-.004.014-.006.022-.01.004-.002.01-.003.014-.006.052-.032.092-.076.124-.123l.007-.007 1.205-1.92 2.806 1.45c.017.008.031.022.047.031l-1.513.78c-.7.362-1.134 1.072-1.134 1.855v.116H1.234zm4.639-5.2c.347 0 .682-.061.995-.172v.493l-.995 1.585-.996-1.585v-.493c.314.11.648.173.996.173h0zm-2.43-3.559c0-.34.062-.661.162-.962l.009.002h1.331c.325 0 .642.13.872.356.387.384.901.595 1.449.595H8.3l.001.01c0 1.515-1.09 2.748-2.43 2.748S3.444 5.074 3.444 3.558h0zM5.873.811c1.086 0 1.996.814 2.306 1.928h-.913c-.33 0-.638-.127-.871-.357-.382-.378-.91-.595-1.45-.595H4.03c.446-.592 1.102-.976 1.843-.976h0zm7.629 7.838c.347 0 .681-.06.994-.172v.494l-.995 1.588-.997-1.588v-.495c.314.112.649.173.998.173h0zm-2.43-3.558c0-.34.062-.662.162-.963l.008.002h1.332c.33 0 .639.127.871.357.381.378.91.594 1.45.594h1.035v.01c0 1.515-1.089 2.748-2.428 2.748-1.34 0-2.43-1.233-2.43-2.748h0zm2.43-2.749c1.085 0 1.996.815 2.306 1.93h-.913c-.324 0-.642-.131-.871-.358-.388-.383-.902-.595-1.45-.595h-.914c.446-.592 1.102-.977 1.842-.977h0zm7.629 4.776c.347 0 .681-.062.995-.173v.493l-.995 1.586-.996-1.586v-.494c.314.111.648.174.996.174h0zm-2.43-3.56c0-.34.062-.661.163-.962l.007.002h1.332c.325 0 .642.13.871.356.388.384.902.595 1.45.595h1.035l.001.01c0 1.515-1.09 2.748-2.429 2.748-1.34 0-2.43-1.233-2.43-2.749h0zM21.13.811c1.085 0 1.996.814 2.307 1.928h-.914c-.33 0-.639-.127-.871-.357-.382-.378-.91-.595-1.45-.595h-.914c.445-.592 1.102-.976 1.842-.976h0zm4.735 8.005l-2.922-1.51v-.797c.865-.64 1.434-1.724 1.434-2.95C24.378 1.595 22.921 0 21.131 0c-1.791 0-3.248 1.596-3.248 3.558 0 1.227.57 2.31 1.434 2.951v.797l-2.92 1.51c-.174.09-.328.21-.47.34l-.612-.315v-.8c.864-.64 1.434-1.724 1.434-2.95 0-1.962-1.457-3.559-3.247-3.559-1.79 0-3.248 1.597-3.248 3.559 0 1.225.57 2.308 1.432 2.948v.802l-.613.315c-.14-.132-.293-.252-.464-.34L7.687 7.307V6.51c.864-.64 1.434-1.724 1.434-2.95C9.12 1.595 7.664 0 5.873 0 4.082 0 2.625 1.596 2.625 3.558c0 1.227.57 2.31 1.434 2.951v.798L1.135 8.816C.435 9.177 0 9.886 0 10.666v1.24c0 .673.554 1.221 1.234 1.221h6.397v.313c0 .67.552 1.217 1.23 1.217h9.28c.68 0 1.233-.546 1.233-1.217v-.313h6.397c.678 0 1.229-.548 1.229-1.221v-1.24c0-.78-.435-1.489-1.134-1.85h0z"
              transform="translate(105 323)"/>
      </g>
    </g>
  </g>
</svg>
