<svg xmlns="http://www.w3.org/2000/svg" width="24" height="24" viewBox="0 0 24 24">
  <g fill="none" fill-rule="evenodd">
    <path d="M0 0L24 0 24 24 0 24z"/>
    <path class="icon-path" fill="#AAADB8"
          d="M20.6 3.5c.97 0 1.8.793 1.8 1.763V18.75c0 .97-.83 1.75-1.8 1.75H3.363c-.97 0-1.763-.78-1.763-1.75V5.263c0-.97.793-1.763 1.763-1.763zm.05 1.865H3.35V18.75h17.3V5.365zM17.625 13.5c.483 0 .875.392.875.875s-.392.875-.875.875h-6.25c-.483 0-.875-.392-.875-.875s.392-.875.875-.875h6.25zm0-3c.483 0 .875.392.875.875s-.392.875-.875.875h-6.25c-.483 0-.875-.392-.875-.875s.392-.875.875-.875h6.25zM6.838 7.162c1.014 0 1.837.823 1.837 1.838 0 1.015-.823 1.838-1.838 1.838C5.824 10.838 5 10.014 5 9c0-1.015.822-1.838 1.838-1.838zm10.787.338c.483 0 .875.392.875.875s-.392.875-.875.875h-6.25c-.483 0-.875-.392-.875-.875s.392-.875.875-.875h6.25z"/>
  </g>
</svg>
