<svg xmlns="http://www.w3.org/2000/svg" width="24" height="24" viewBox="0 0 24 24">
  <g fill="none" fill-rule="evenodd">
    <path d="M0 0H24V24H0z"/>
    <path class="icon-path" fill="#AAADB8"
          d="M11 4c.28 0 .5.22.5.5v2h6v6h2c.28 0 .5.22.5.5s-.22.5-.5.5h-2v6h-2.12c-.68-1.75-2.39-3-4.38-3-1.99 0-3.7 1.25-4.38 3H4.5v-2.12c1.75-.68 3-2.39 3-4.38 0-1.99-1.24-3.7-2.99-4.38L4.5 6.5h6v-2c0-.28.22-.5.5-.5m0-2C9.62 2 8.5 3.12 8.5 4.5h-4c-1.1 0-1.99.9-1.99 2v3.8h.29c1.49 0 2.7 1.21 2.7 2.7 0 1.49-1.21 2.7-2.7 2.7h-.3v3.8c0 1.1.9 2 2 2h3.8v-.3c0-1.49 1.21-2.7 2.7-2.7 1.49 0 2.7 1.21 2.7 2.7v.3h3.8c1.1 0 2-.9 2-2v-4c1.38 0 2.5-1.12 2.5-2.5s-1.12-2.5-2.5-2.5v-4c0-1.1-.9-2-2-2h-4C13.5 3.12 12.38 2 11 2z"/>
  </g>
</svg>
