<svg xmlns="http://www.w3.org/2000/svg" width="24" height="24" viewBox="0 0 24 24">
  <g fill="none" fill-rule="evenodd">
    <g>
      <g>
        <g>
          <path d="M0 0H24V24H0z" transform="translate(-942 -16) translate(705 16) translate(237)"/>
          <path class="icon-path"
                fill="#AAADB8"
                d="M9.568 10c.743 0 1.356.596 1.425 1.356L11 11.5v9c0 .779-.569 1.42-1.294 1.493L9.568 22H3.432c-.743 0-1.356-.596-1.425-1.356L2 20.5v-9c0-.779.569-1.42 1.294-1.493L3.432 10h6.136zm11 6c.743 0 1.356.608 1.425 1.384l.007.147v2.938c0 .794-.569 1.45-1.294 1.524l-.138.007h-6.136c-.743 0-1.356-.608-1.425-1.384L13 20.47V17.53c0-.794.569-1.45 1.294-1.524l.138-.007h6.136zM20 18h-5v2h5v-2zM9 12H4v8h5v-8zM20.568 2c.743 0 1.356.596 1.425 1.356L22 3.5v9c0 .779-.569 1.42-1.294 1.493l-.138.007h-6.136c-.743 0-1.356-.596-1.425-1.356L13 12.5v-9c0-.779.569-1.42 1.294-1.493L14.432 2h6.136zM20 4h-5v8h5V4zM9.568 2c.743 0 1.356.608 1.425 1.384L11 3.53V6.47c0 .794-.569 1.45-1.294 1.524L9.568 8H3.432c-.743 0-1.356-.608-1.425-1.384L2 6.469V3.53c0-.794.569-1.45 1.294-1.524L3.432 2h6.136zM9 4H4v2h5V4z"
                transform="translate(-942 -16) translate(705 16) translate(237)"/>
        </g>
      </g>
    </g>
  </g>
</svg>
