<svg xmlns="http://www.w3.org/2000/svg" xmlns:xlink="http://www.w3.org/1999/xlink" width="24" height="24" viewBox="0 0 33 26">
    <defs>
        <path id="47e6flc1xb" d="M.465.447C.393.373.322.299.25.227c.072.072.144.146.215.22z"/>
        <path id="lrdl6okmgd" d="M.041.446l.215-.22-.215.22z"/>
        <filter id="wlzwb2k1aa">
            <feColorMatrix in="SourceGraphic" values="0 0 0 0 0.666667 0 0 0 0 0.678431 0 0 0 0 0.721569 0 0 0 1.000000 0"/>
        </filter>
    </defs>
    <g fill="none" fill-rule="evenodd">
        <g transform="translate(-171 -135)">
            <g>
                <g class="icon-path" fill="#AAADB8">
                    <path d="M31.107 4.25l-.204.21c-.008 4.819-.009 9.638-.028 14.456-.007 1.73-.846 2.673-2.524 2.982-1.831.338-3.732.217-5.514.897-1.246.476-2.426 1.02-3.582 2.14 1.567-.18 2.814-.472 4.103-.472 2.422 0 4.816.109 7.192.682 1.912.462 2.437-.054 2.438-2.06.004-5.681.004-11.362 0-17.044-.001-1.53-.31-1.816-1.881-1.79M1.995 4.25C.425 4.226.115 4.512.113 6.042.11 11.723.11 17.404.113 23.085c.002 2.006.527 2.522 2.439 2.06 2.376-.573 4.77-.682 7.192-.682 1.289 0 2.536.291 4.103.472-1.157-1.12-2.337-1.664-3.582-2.14-1.783-.68-3.683-.56-5.515-.897-1.677-.31-2.517-1.253-2.523-2.982-.02-4.818-.02-9.637-.028-14.456l-.204-.21" transform="translate(171 135)"/>
                    <path d="M15.56 23.996c0-6.032-.023-11.831.023-17.63.008-1.074-.37-1.857-1.063-2.61C11.957.974 8.657.19 5.056.236 4.122.248 3.805.91 3.805 1.757c-.002 5.57-.01 11.14.005 16.71.003 1.222.515 1.737 1.698 1.76 3.701.074 7.071 1.044 10.053 3.769M17.446 24c2.936-2.683 6.221-3.76 9.912-3.78 1.288-.007 1.83-.502 1.835-1.635.02-5.647.014-11.295.003-16.943C29.194.841 28.82.277 27.952.23c-2.943-.165-5.7.48-8.071 2.246-1.064.792-2.387 1.66-2.405 3.168-.073 6.037-.03 12.076-.03 18.358" transform="translate(171 135)"/>
                </g>
                <g transform="translate(171 135) translate(1.662 4.036)">
                    <mask id="1463ijkpmc" fill="#fff">
                        <use xlink:href="#47e6flc1xb"/>
                    </mask>
                    <path class="icon-path" fill="#AAADB8" d="M-1 1.697L1.715 1.697 1.715 -1.024 -1 -1.024z" mask="url(#1463ijkpmc)"/>
                </g>
                <g transform="translate(171 135) translate(30.863 4.036)">
                    <mask id="opprk90cse" fill="#fff">
                        <use xlink:href="#lrdl6okmgd"/>
                    </mask>
                    <path class="icon-path" fill="#AAADB8" d="M-1.209 1.696L1.506 1.696 1.506 -1.024 -1.209 -1.024z" mask="url(#opprk90cse)"/>
                </g>
            </g>
        </g>
    </g>
</svg>
