<svg
  xmlns="http://www.w3.org/2000/svg"
  width="24"
  height="24"
  viewBox="0 0 24 24"
>
  <g fill="none" fill-rule="evenodd">
    <path d="M0 0H24V24H0z"/>
    <path
      class="icon-path"
      fill="#AAADB8"
      d="M12 2.8c2.455 0 4.766.958 6.506 2.697 1.735 1.735 2.694 4.05 2.694 6.507 0 2.455-.958 4.767-2.694 6.503-1.738 1.737-4.048 2.693-6.507 2.693-1.368 0-2.717-.304-3.946-.886l-.227-.114-.155.099c-.762.457-1.611.75-2.452.845l-.315.026-.281.008c-.223 0-.45-.018-.68-.053-.51-.078-.902-.473-.981-.986-.068-.463.144-.917.533-1.164l.11-.062c.388-.19.75-.573 1.075-1.147l.06-.115-.097-.123C2.02 14.052 2.221 9.184 5.09 5.926l.2-.22.203-.21C7.233 3.759 9.543 2.8 12 2.8zm0 1.693c-2.005 0-3.89.78-5.307 2.196-2.8 2.799-2.938 7.313-.314 10.276.218.249.274.6.142.901-.222.509-.467.947-.739 1.32l-.108.14.167-.048c.408-.13.806-.325 1.187-.588l.227-.166c.148-.111.333-.173.516-.173.146 0 .294.041.429.118 1.146.674 2.461 1.031 3.8 1.031 2.004 0 3.888-.78 5.306-2.197 2.927-2.922 2.927-7.684 0-10.614-1.418-1.417-3.302-2.196-5.307-2.196zm-4.023 6.04c.816 0 1.478.661 1.478 1.477 0 .815-.662 1.477-1.478 1.477S6.5 12.825 6.5 12.01c0-.816.661-1.477 1.477-1.477zm8 0c.816 0 1.478.661 1.478 1.477 0 .815-.662 1.477-1.478 1.477S14.5 12.825 14.5 12.01c0-.816.661-1.477 1.477-1.477zm-3.967 0c.816 0 1.477.661 1.477 1.477 0 .815-.661 1.477-1.477 1.477-.816 0-1.477-.662-1.477-1.477 0-.816.661-1.477 1.477-1.477z"
    />
  </g>
</svg>
