<svg
  xmlns="http://www.w3.org/2000/svg"
  width="24"
  height="24"
  viewBox="0 0 24 24"
>
  <g fill="none" fill-rule="evenodd">
    <path d="M0 0H24V24H0z"/>
    <path
      class="icon-path"
      fill="#AAADB8"
      d="M4.263 21.128c-.97 0-1.763-.793-1.763-1.763V5.263c0-.97.793-1.763 1.763-1.763h12.102c.97 0 1.763.793 1.763 1.763v5.236l1.575.001c.92 0 1.683.716 1.757 1.619l.005.144v7.102c0 .97-.793 1.763-1.762 1.763zM16.365 5.263H4.263V19.35h12.102V5.263zm3.338 7l-1.575-.001v7.088h1.575v-7.087zm-5.77 2.287c.369 0 .667.299.667.667v.467c0 .368-.298.666-.667.666H6.667c-.369 0-.667-.298-.667-.666v-.467c0-.368.298-.667.667-.667h7.266zm0-3.5c.369 0 .667.299.667.667v.467c0 .368-.298.666-.667.666H6.667c-.369 0-.667-.298-.667-.666v-.467c0-.368.298-.667.667-.667h7.266zm0-3.5c.369 0 .667.299.667.667v.467c0 .368-.298.666-.667.666H6.667C6.298 9.35 6 9.052 6 8.684v-.467c0-.368.298-.667.667-.667h7.266z"
    />
  </g>
</svg>
