<svg
  xmlns="http://www.w3.org/2000/svg"
  width="24"
  height="24"
  viewBox="0 0 24 24"
>
  <g fill="none" fill-rule="evenodd">
    <path d="M0 0H24V24H0z"/>
    <path
      class="icon-path"
      fill="#AAADB8"
      d="M12 5.9c1.16 0 2.1.94 2.1 2.1 0 1.16-.94 2.1-2.1 2.1-1.16 0-2.1-.94-2.1-2.1 0-1.16.94-2.1 2.1-2.1zm0 9c2.97 0 6.1 1.46 6.1 2.1v1.1H5.9V17c0-.64 3.13-2.1 6.1-2.1zM12 4C9.79 4 8 5.79 8 8s1.79 4 4 4 4-1.79 4-4-1.79-4-4-4zm0 9c-2.67 0-8 1.34-8 4v2.333c0 .369.298.667.667.667h14.666c.369 0 .667-.298.667-.667V17c0-2.66-5.33-4-8-4z"
    />
  </g>
</svg>
