<svg
  xmlns="http://www.w3.org/2000/svg"
  width="24"
  height="24"
  viewBox="0 0 24 24"
>
  <g fill="none" fill-rule="evenodd">
    <path d="M0 0H24V24H0z"/>
    <path
      class="icon-path"
      fill="#AAADB8"
      d="M4.477 16.5c.816 0 1.478.661 1.478 1.477 0 .815-.662 1.476-1.478 1.476S3 18.793 3 17.977 3.661 16.5 4.477 16.5zm16.356.467c.369 0 .667.298.667.666v.667c0 .368-.298.667-.667.667H8.667c-.369 0-.667-.299-.667-.667v-.667c0-.368.298-.666.667-.666h12.166zM4.477 10.5c.816 0 1.478.661 1.478 1.477 0 .815-.662 1.476-1.478 1.476S3 12.793 3 11.977 3.661 10.5 4.477 10.5zm16.356.467c.369 0 .667.298.667.666v.667c0 .368-.298.667-.667.667H8.667c-.369 0-.667-.299-.667-.667v-.667c0-.368.298-.666.667-.666h12.166zM4.477 4.5c.816 0 1.478.661 1.478 1.477 0 .815-.662 1.476-1.478 1.476S3 6.793 3 5.977 3.661 4.5 4.477 4.5zm16.356.467c.369 0 .667.298.667.666V6.3c0 .368-.298.667-.667.667H8.667C8.298 6.967 8 6.668 8 6.3v-.667c0-.368.298-.666.667-.666h12.166z"
    />
  </g>
</svg>
