<svg xmlns="http://www.w3.org/2000/svg" width="21" height="24" viewBox="0 0 21 24">
    <g fill="none" fill-rule="evenodd">
        <g stroke="#AAADB8" stroke-width="1.4" class="stroke-color">
            <g>
                <path d="M0 20.25C2.998 21.312 6.215 22 9.565 22c3.35 0 6.567-.687 9.565-1.75-.215-1.838-.592-4.163-1.113-5.883l-9.396 3.818-.34-.65c2.157-3.414 8.855-5.676 8.855-5.676-.54-1.279-1.376-3.027-2.077-4.207-3.965 1.308-9.161 3.44-13.945 6.711C.592 16.084.215 18.411 0 20.25zM10.129 0c-2.76 2.339-7.166 7.963-8.216 11.478 0 0 6.217-2.894 12.435-5.739C13.29 2.73 11.313 1.004 10.128 0z" transform="translate(-1.000000, 0.000000) translate(2.000000, 1.000000)"/>
            </g>
        </g>
    </g>
</svg>
